<svg width="355" height="72" viewBox="0 0 355 72" fill="none" xmlns="http://www.w3.org/2000/svg">
<g clip-path="url(#clip0_39_1457)">
<path d="M35.3048 25.8468C37.9463 25.8468 40.4515 26.4267 42.703 27.4639C41.0969 22.8827 36.8368 17.1621 35.3048 15.1882C33.7729 17.1621 29.5127 22.8827 27.9067 27.4639C30.1582 26.4267 32.6634 25.8468 35.3048 25.8468Z" fill="#2B7DE1"/>
<path d="M70.6094 10.7002C60.5667 4.10341 48.945 0.24257 36.5425 0.000732422C42.7084 8.069 55.839 26.1896 61.9803 41.6892C66.614 32.3607 69.638 21.8715 70.6094 10.7002Z" fill="#3D4543"/>
<path d="M34.0673 0C21.6647 0.241832 10.0438 4.10268 0 10.6995C0.971596 21.8716 3.99539 32.3599 8.62943 41.6885C14.7707 26.1897 27.9013 8.06909 34.0673 0Z" fill="#3D4543"/>
<path d="M35.3053 38.2183C26.1581 38.2183 17.4487 40.0814 9.52686 43.4399C15.7754 55.3008 24.6731 65.1716 35.3053 72C45.9375 65.1716 54.8343 55.3008 61.0837 43.4399C53.1619 40.0814 44.4524 38.2183 35.3053 38.2183Z" fill="#3D4543"/>
<path d="M101.878 21.6408H97.3181L99.6317 14.4217C99.949 15.4498 100.591 17.5135 101.878 21.6408ZM101.974 9.35645H97.2628L89.2349 31.1852H94.012L96.1226 25.2016H103.084L105.179 31.1852H109.883L102.051 9.56712L101.974 9.35645Z" fill="#3D4543"/>
<path d="M118.282 9.37207H113.722V31.186H127.014L127.154 27.4244H118.282V9.37207Z" fill="#3D4543"/>
<path d="M132.528 31.186H137.087V9.37207H132.528V31.186Z" fill="#3D4543"/>
<path d="M153.858 21.6408H149.3L151.612 14.4217C151.93 15.4498 152.571 17.5135 153.858 21.6408ZM153.955 9.35645H149.243L141.216 31.1852H145.992L148.103 25.2016H155.064L157.16 31.1852H161.863L154.031 9.56712L153.955 9.35645Z" fill="#3D4543"/>
<path d="M174.606 18.2648L172.841 17.7015C171.943 17.4145 171.38 17.2284 171.133 17.1366C170.093 16.8185 169.61 16.1864 169.61 15.1582C169.645 14.303 169.909 13.716 170.419 13.3635C170.954 12.9937 171.78 12.8059 172.874 12.8059C174.44 12.8059 176.166 13.2249 178.005 14.0497L178.306 14.185L179.726 10.757L179.479 10.6168C177.588 9.54359 175.313 9 172.715 9C170.398 9 168.507 9.54685 167.092 10.6266C165.652 11.7261 164.922 13.3044 164.922 15.3181C164.922 18.1926 166.428 20.1817 169.39 21.2246C169.616 21.3131 169.986 21.4386 170.501 21.6001C171.01 21.7608 171.553 21.9248 172.135 22.0945C172.71 22.2625 173.06 22.365 173.19 22.4052C174.824 22.8758 175.618 23.6777 175.618 24.8575C175.618 25.7676 175.343 26.4423 174.778 26.9179C174.204 27.4 173.325 27.6443 172.166 27.6443C171.188 27.6443 170.17 27.4926 169.14 27.195C168.105 26.8941 167.132 26.4948 166.25 26.007L165.904 25.8168L164.76 29.5456L164.981 29.6727C167.043 30.8722 169.408 31.4797 172.007 31.4797C174.486 31.4797 176.492 30.9107 177.969 29.7883C179.472 28.6454 180.234 26.9957 180.234 24.8862C180.234 23.1275 179.787 21.7288 178.904 20.7285C178.036 19.7455 176.589 18.9166 174.606 18.2648Z" fill="#3D4543"/>
<path d="M206.7 15.5766C206.7 16.6548 206.409 17.4394 205.835 17.9083C205.242 18.3929 204.22 18.6381 202.8 18.6381C202.646 18.6381 201.924 18.6356 200.633 18.6315C199.759 18.6274 199.148 18.6258 198.798 18.6241V12.862H202.973C204.264 12.862 205.227 13.0891 205.832 13.5367C206.416 13.968 206.7 14.6354 206.7 15.5766ZM207.317 21.2125C209.722 20.2246 210.94 18.3117 210.94 15.5192C210.94 14.5321 210.805 13.6614 210.538 12.9292C210.268 12.1896 209.892 11.578 209.42 11.1139C208.952 10.6499 208.334 10.2777 207.585 10.0063C206.856 9.7447 206.078 9.56109 205.275 9.4627C204.478 9.36511 203.529 9.31592 202.453 9.31592H194.283V31.1881H198.798V22.0857L201.759 22.1128C202.462 22.1128 202.946 22.1152 203.203 22.1202C203.464 22.5957 204.013 23.719 204.835 25.4637L207.391 31.1881H212.388L209.014 24.1953C208.358 22.8408 207.799 21.8586 207.317 21.2125Z" fill="#3D4543"/>
<path d="M230.78 25.7822C229.791 27.0465 228.353 27.6606 226.386 27.6606C224.419 27.6606 222.979 27.044 221.984 25.7748C220.984 24.4999 220.477 22.665 220.477 20.3217C220.477 17.9482 220.987 16.0862 221.992 14.7875C222.992 13.4945 224.434 12.8665 226.4 12.8665C228.357 12.8665 229.788 13.492 230.778 14.7793C231.775 16.0739 232.28 17.9391 232.28 20.3217C232.28 22.674 231.776 24.5113 230.78 25.7822ZM226.386 9.07446C223.121 9.07446 220.5 10.0755 218.596 12.0491C216.694 14.0184 215.73 16.7872 215.73 20.2783C215.73 23.7497 216.69 26.5152 218.586 28.4993C220.485 30.4875 223.105 31.496 226.371 31.496C229.628 31.496 232.244 30.4851 234.148 28.4928C236.049 26.5029 237.013 23.7448 237.013 20.293C237.013 16.8027 236.054 14.0316 234.163 12.0564C232.268 10.078 229.651 9.07446 226.386 9.07446Z" fill="#3D4543"/>
<path d="M249.78 18.1162H246.749V12.8894H248.985C250.552 12.8894 251.698 13.0845 252.394 13.4707C253.036 13.8273 253.348 14.4824 253.348 15.4737C253.348 17.2512 252.181 18.1162 249.78 18.1162ZM246.749 21.4884H249.723C251.219 21.4884 252.33 21.7319 253.024 22.2123C253.689 22.674 254.013 23.4242 254.013 24.5072C254.013 26.6644 252.642 27.713 249.824 27.713H246.749V21.4884ZM255.243 19.5239C255.466 19.4083 255.676 19.2788 255.869 19.1345C256.289 18.8229 256.623 18.4958 256.864 18.1621C257.101 17.83 257.295 17.4561 257.441 17.047C257.583 16.6478 257.674 16.2829 257.716 15.9623C257.757 15.6516 257.776 15.3319 257.776 15.0112C257.776 12.9918 257.028 11.5226 255.553 10.6453C254.131 9.80005 251.964 9.37207 249.115 9.37207H242.188V31.186H250.358C252.913 31.186 254.95 30.6359 256.411 29.5479C257.902 28.4394 258.658 26.8161 258.658 24.7237C258.658 23.3372 258.286 22.1509 257.551 21.1965C256.978 20.4545 256.205 19.8937 255.243 19.5239Z" fill="#3D4543"/>
<path d="M277.759 25.7822C276.769 27.0465 275.332 27.6606 273.365 27.6606C271.397 27.6606 269.958 27.044 268.961 25.7748C267.962 24.4999 267.456 22.665 267.456 20.3217C267.456 17.9482 267.966 16.0862 268.971 14.7875C269.971 13.4945 271.413 12.8665 273.379 12.8665C275.335 12.8665 276.767 13.492 277.757 14.7793C278.754 16.0739 279.259 17.9391 279.259 20.3217C279.259 22.674 278.754 24.5113 277.759 25.7822ZM273.365 9.07446C270.1 9.07446 267.478 10.0755 265.574 12.0491C263.672 14.0184 262.709 16.7872 262.709 20.2783C262.709 23.7497 263.67 26.5152 265.565 28.4993C267.464 30.4875 270.083 31.496 273.349 31.496C276.606 31.496 279.222 30.4851 281.126 28.4928C283.027 26.5029 283.992 23.7448 283.992 20.293C283.992 16.8027 283.032 14.0316 281.14 12.0564C279.246 10.078 276.63 9.07446 273.365 9.07446Z" fill="#3D4543"/>
<path d="M286.682 13.1493H292.854V31.186H297.427V13.1493H303.571V9.37207H286.682V13.1493Z" fill="#3D4543"/>
<path d="M308.182 31.186H312.742V9.37207H308.182V31.186Z" fill="#3D4543"/>
<path d="M328.734 12.8812C330.333 12.8812 331.951 13.3764 333.538 14.3513L333.859 14.5481L335.334 10.9947L335.114 10.8487C333.353 9.67136 331.177 9.07446 328.648 9.07446C325.507 9.07446 322.928 10.1018 320.979 12.1286C319.036 14.1521 318.05 16.8642 318.05 20.1922C318.05 23.6898 318.993 26.4758 320.854 28.4755C322.72 30.4802 325.274 31.496 328.446 31.496C330.931 31.496 333.034 30.995 334.695 30.0062L334.884 29.8939L334.254 26.1839L333.866 26.3807C332.174 27.24 330.449 27.6761 328.734 27.6761C326.795 27.6761 325.346 27.0571 324.308 25.7847C323.267 24.5105 322.739 22.6683 322.739 20.3078C322.739 18.0326 323.286 16.2018 324.365 14.8645C325.444 13.5298 326.872 12.8812 328.734 12.8812Z" fill="#3D4543"/>
<path d="M353.516 20.7285C352.647 19.7455 351.202 18.9166 349.218 18.2648L347.453 17.7015C346.556 17.4145 345.993 17.2284 345.744 17.1366C344.706 16.8185 344.222 16.1864 344.222 15.1582C344.256 14.303 344.521 13.716 345.03 13.3643C345.567 12.9937 346.392 12.8059 347.486 12.8059C349.052 12.8059 350.778 13.2249 352.617 14.0497L352.918 14.1858L354.337 10.757L354.091 10.6168C352.201 9.54359 349.924 9 347.327 9C345.011 9 343.119 9.54685 341.705 10.6266C340.264 11.727 339.533 13.3044 339.533 15.3181C339.533 18.1926 341.04 20.1817 344.001 21.2246C344.227 21.3131 344.598 21.4386 345.113 21.6001C345.621 21.7608 346.165 21.9248 346.746 22.0945C347.322 22.2625 347.672 22.365 347.803 22.4052C349.435 22.8758 350.229 23.6777 350.229 24.8575C350.229 25.7676 349.955 26.4423 349.391 26.9179C348.817 27.4 347.938 27.6451 346.777 27.6451C345.8 27.6451 344.783 27.4926 343.752 27.195C342.716 26.8949 341.745 26.4948 340.861 26.007L340.516 25.8168L339.373 29.5456L339.592 29.6727C341.656 30.8722 344.02 31.4797 346.619 31.4797C349.098 31.4797 351.104 30.9107 352.58 29.7883C354.083 28.6454 354.846 26.9966 354.846 24.8862C354.846 23.1275 354.398 21.7288 353.516 20.7285Z" fill="#3D4543"/>
<path d="M91.4243 49.4102H93.9745C94.6857 49.4102 95.312 49.325 95.8521 49.153C96.3921 48.981 96.8436 48.7383 97.2083 48.4241C97.5723 48.1099 97.8466 47.7353 98.0316 47.2998C98.2148 46.8641 98.3071 46.3827 98.3071 45.8555C98.3071 44.7834 97.9533 43.9749 97.2462 43.4316C96.538 42.8867 95.4856 42.6151 94.0872 42.6151H91.4243V49.4102ZM91.4243 51.1807V58.6928H89V40.6926H94.0872C95.2252 40.6926 96.2095 40.8084 97.0389 41.0383C97.8683 41.2689 98.5524 41.6016 99.0925 42.0364C99.6325 42.472 100.033 42.9976 100.292 43.6133C100.551 44.2289 100.682 44.9176 100.682 45.6795C100.682 46.316 100.581 46.9107 100.381 47.4629C100.18 48.0158 99.8881 48.5125 99.5071 48.9521C99.1262 49.3917 98.6615 49.7654 98.1124 50.0757C97.5645 50.3859 96.9424 50.6206 96.2475 50.7789C96.5488 50.9549 96.8171 51.2105 97.0515 51.5456L102.301 58.6928H100.142C99.6976 58.6928 99.3709 58.5208 99.1612 58.1776L94.4886 51.7465C94.3464 51.5456 94.1915 51.4017 94.0245 51.3125C93.8564 51.2249 93.6056 51.1807 93.2705 51.1807H91.4243Z" fill="#3D4543"/>
<path d="M110.352 57.1228C111.608 57.1228 112.546 56.7024 113.166 55.861C113.785 55.0195 114.096 53.8446 114.096 52.3377C114.096 50.8219 113.785 49.6405 113.166 48.7958C112.546 47.9495 111.608 47.5268 110.352 47.5268C109.716 47.5268 109.164 47.6353 108.694 47.8531C108.226 48.0709 107.834 48.3852 107.52 48.7958C107.206 49.2057 106.971 49.7096 106.817 50.3083C106.662 50.9079 106.584 51.5838 106.584 52.3377C106.584 53.0907 106.662 53.765 106.817 54.3597C106.971 54.9544 107.206 55.4551 107.52 55.861C107.834 56.2677 108.226 56.5787 108.694 56.7965C109.164 57.0143 109.716 57.1228 110.352 57.1228ZM110.352 45.7683C111.282 45.7683 112.121 45.9226 112.871 46.2329C113.62 46.5431 114.256 46.9827 114.781 47.5517C115.304 48.1215 115.705 48.8095 115.986 49.618C116.266 50.4265 116.406 51.3282 116.406 52.3248C116.406 53.3294 116.266 54.2335 115.986 55.038C115.705 55.8417 115.304 56.5288 114.781 57.0979C114.256 57.6677 113.62 58.1057 112.871 58.4111C112.121 58.7157 111.282 58.8692 110.352 58.8692C109.423 58.8692 108.583 58.7157 107.834 58.4111C107.085 58.1057 106.446 57.6677 105.918 57.0979C105.391 56.5288 104.985 55.8417 104.7 55.038C104.416 54.2335 104.273 53.3294 104.273 52.3248C104.273 51.3282 104.416 50.4265 104.7 49.618C104.985 48.8095 105.391 48.1215 105.918 47.5517C106.446 46.9827 107.085 46.5431 107.834 46.2329C108.583 45.9226 109.423 45.7683 110.352 45.7683Z" fill="#3D4543"/>
<path d="M125.554 47.551C124.825 47.551 124.187 47.719 123.639 48.0533C123.09 48.3884 122.586 48.8618 122.124 49.4734V55.628C122.527 56.1802 122.973 56.57 123.463 56.7958C123.953 57.0216 124.499 57.135 125.102 57.135C126.291 57.135 127.203 56.7122 127.84 55.8667C128.476 55.0212 128.795 53.8149 128.795 52.2494C128.795 51.42 128.721 50.7087 128.575 50.1132C128.428 49.5192 128.217 49.0314 127.94 48.6505C127.664 48.2695 127.325 47.9906 126.923 47.8146C126.521 47.6387 126.065 47.551 125.554 47.551ZM119.877 58.6925V40.1909H122.124V47.8018C122.653 47.1918 123.258 46.6991 123.94 46.327C124.623 45.9541 125.404 45.7676 126.282 45.7676C127.019 45.7676 127.685 45.9059 128.28 46.1823C128.874 46.4588 129.38 46.8703 129.799 47.4192C130.218 47.9681 130.54 48.6456 130.766 49.4541C130.993 50.2627 131.105 51.1933 131.105 52.2494C131.105 53.1873 130.98 54.0601 130.728 54.8678C130.477 55.6755 130.116 56.3747 129.643 56.9654C129.169 57.5561 128.591 58.0206 127.909 58.3598C127.227 58.6989 126.458 58.8685 125.604 58.8685C124.784 58.8685 124.087 58.7094 123.513 58.3911C122.939 58.0736 122.439 57.6292 122.012 57.0594L121.898 58.2159C121.832 58.5334 121.639 58.6925 121.32 58.6925H119.877Z" fill="#3D4543"/>
<path d="M139.62 57.1228C140.876 57.1228 141.814 56.7024 142.434 55.861C143.054 55.0195 143.363 53.8446 143.363 52.3377C143.363 50.8219 143.054 49.6405 142.434 48.7958C141.814 47.9495 140.876 47.5268 139.62 47.5268C138.984 47.5268 138.432 47.6353 137.962 47.8531C137.494 48.0709 137.102 48.3852 136.788 48.7958C136.474 49.2057 136.239 49.7096 136.085 50.3083C135.93 50.9079 135.853 51.5838 135.853 52.3377C135.853 53.0907 135.93 53.765 136.085 54.3597C136.239 54.9544 136.474 55.4551 136.788 55.861C137.102 56.2677 137.494 56.5787 137.962 56.7965C138.432 57.0143 138.984 57.1228 139.62 57.1228ZM139.62 45.7683C140.55 45.7683 141.389 45.9226 142.139 46.2329C142.888 46.5431 143.524 46.9827 144.048 47.5517C144.571 48.1215 144.973 48.8095 145.254 49.618C145.535 50.4265 145.674 51.3282 145.674 52.3248C145.674 53.3294 145.535 54.2335 145.254 55.038C144.973 55.8417 144.571 56.5288 144.048 57.0979C143.524 57.6677 142.888 58.1057 142.139 58.4111C141.389 58.7157 140.55 58.8692 139.62 58.8692C138.691 58.8692 137.851 58.7157 137.102 58.4111C136.353 58.1057 135.715 57.6677 135.187 57.0979C134.659 56.5288 134.252 55.8417 133.968 55.038C133.683 54.2335 133.541 53.3294 133.541 52.3248C133.541 51.3282 133.683 50.4265 133.968 49.618C134.252 48.8095 134.659 48.1215 135.187 47.5517C135.715 46.9827 136.353 46.5431 137.102 46.2329C137.851 45.9226 138.691 45.7683 139.62 45.7683Z" fill="#3D4543"/>
<path d="M152.922 58.8946C151.917 58.8946 151.144 58.6142 150.604 58.0532C150.064 57.4922 149.794 56.6837 149.794 55.6293V47.8408H148.261C148.128 47.8408 148.015 47.8014 147.922 47.7218C147.831 47.6422 147.784 47.5193 147.784 47.3513V46.4593L149.869 46.1956L150.385 42.264C150.401 42.1378 150.456 42.0358 150.548 41.9562C150.64 41.8766 150.758 41.8364 150.899 41.8364H152.031V46.2206H155.672V47.8408H152.031V55.4782C152.031 56.0143 152.16 56.4121 152.419 56.6709C152.678 56.9312 153.013 57.0607 153.424 57.0607C153.659 57.0607 153.862 57.0293 154.033 56.9666C154.205 56.9031 154.353 56.8348 154.478 56.7593C154.606 56.6837 154.712 56.6146 154.8 56.5519C154.888 56.4892 154.965 56.4579 155.032 56.4579C155.149 56.4579 155.253 56.5294 155.346 56.6709L155.999 57.7397C155.614 58.0998 155.149 58.3819 154.606 58.5869C154.061 58.7918 153.5 58.8946 152.922 58.8946Z" fill="#3D4543"/>
<path d="M177.578 54.9747C177.712 54.9747 177.832 55.0285 177.942 55.1378L178.897 56.1802C178.16 57.0345 177.265 57.7008 176.216 58.1773C175.163 58.6547 173.898 58.8934 172.415 58.8934C171.117 58.8934 169.941 58.67 168.886 58.2216C167.831 57.7731 166.931 57.1454 166.185 56.3369C165.439 55.5292 164.862 54.56 164.453 53.4292C164.041 52.2992 163.836 51.0551 163.836 49.6993C163.836 48.3418 164.056 47.0985 164.497 45.9686C164.936 44.8378 165.553 43.8669 166.348 43.0544C167.144 42.2419 168.096 41.6118 169.206 41.1634C170.316 40.7157 171.54 40.4915 172.88 40.4915C174.203 40.4915 175.344 40.6964 176.303 41.1071C177.261 41.5178 178.114 42.0739 178.859 42.7779L178.067 43.8959C178.008 43.9795 177.942 44.0485 177.866 44.1032C177.791 44.1579 177.682 44.1844 177.54 44.1844C177.431 44.1844 177.316 44.145 177.195 44.0654C177.073 43.9859 176.928 43.887 176.761 43.7705C176.593 43.6531 176.397 43.5278 176.171 43.3936C175.946 43.2593 175.677 43.134 175.367 43.0166C175.057 42.8993 174.697 42.8012 174.287 42.7217C173.877 42.6413 173.403 42.6019 172.868 42.6019C171.904 42.6019 171.023 42.7675 170.224 43.0986C169.424 43.4289 168.735 43.8999 168.157 44.5107C167.58 45.1223 167.129 45.8681 166.807 46.7474C166.485 47.6258 166.323 48.6103 166.323 49.6993C166.323 50.8212 166.485 51.8218 166.807 52.701C167.129 53.5803 167.569 54.3229 168.126 54.9305C168.683 55.5372 169.343 56.0001 170.105 56.3184C170.866 56.6366 171.687 56.7958 172.566 56.7958C173.102 56.7958 173.584 56.7644 174.011 56.701C174.438 56.6383 174.833 56.5402 175.197 56.406C175.561 56.2726 175.901 56.103 176.216 55.8973C176.529 55.6931 176.845 55.448 177.163 55.1627C177.306 55.0373 177.444 54.9747 177.578 54.9747Z" fill="#3D4543"/>
<path d="M186.107 62.4478C186.032 62.6158 185.937 62.7492 185.824 62.8497C185.711 62.9501 185.537 62.9999 185.303 62.9999H183.645L185.969 57.9512L180.718 45.9683H182.653C182.845 45.9683 182.996 46.0165 183.105 46.1129C183.213 46.2094 183.293 46.3162 183.344 46.4328L186.748 54.4472C186.823 54.6304 186.888 54.8152 186.942 54.9993C186.996 55.1841 187.045 55.3722 187.087 55.565C187.145 55.3722 187.204 55.1841 187.262 54.9993C187.321 54.8152 187.388 54.6271 187.463 54.4343L190.767 46.4328C190.817 46.2986 190.904 46.1884 191.025 46.1001C191.146 46.0124 191.278 45.9683 191.42 45.9683H193.204L186.107 62.4478Z" fill="#3D4543"/>
<path d="M201.62 47.551C200.891 47.551 200.253 47.719 199.704 48.0533C199.156 48.3884 198.651 48.8618 198.19 49.4734V55.628C198.593 56.1802 199.039 56.57 199.528 56.7958C200.018 57.0216 200.565 57.135 201.168 57.135C202.356 57.135 203.269 56.7122 203.905 55.8667C204.542 55.0212 204.86 53.8149 204.86 52.2494C204.86 51.42 204.786 50.7087 204.641 50.1132C204.493 49.5192 204.283 49.0314 204.006 48.6505C203.729 48.2695 203.39 47.9906 202.988 47.8146C202.586 47.6387 202.13 47.551 201.62 47.551ZM195.943 58.6925V40.1909H198.19V47.8018C198.719 47.1918 199.323 46.6991 200.005 46.327C200.688 45.9541 201.469 45.7676 202.348 45.7676C203.085 45.7676 203.75 45.9059 204.346 46.1823C204.94 46.4588 205.446 46.8703 205.865 47.4192C206.284 47.9681 206.606 48.6456 206.832 49.4541C207.058 50.2627 207.171 51.1933 207.171 52.2494C207.171 53.1873 207.046 54.0601 206.794 54.8678C206.543 55.6755 206.181 56.3747 205.708 56.9654C205.235 57.5561 204.657 58.0206 203.975 58.3598C203.292 58.6989 202.524 58.8685 201.67 58.8685C200.849 58.8685 200.152 58.7094 199.579 58.3911C199.005 58.0736 198.505 57.6292 198.077 57.0594L197.964 58.2159C197.897 58.5334 197.704 58.6925 197.386 58.6925H195.943Z" fill="#3D4543"/>
<path d="M215.624 47.4135C214.544 47.4135 213.694 47.7261 213.073 48.349C212.454 48.9726 212.069 49.8382 211.919 50.9433H218.839C218.839 50.4241 218.768 49.9491 218.625 49.5175C218.484 49.0859 218.274 48.7138 217.997 48.3996C217.721 48.0853 217.384 47.8427 216.986 47.6706C216.589 47.4995 216.135 47.4135 215.624 47.4135ZM215.574 45.7683C216.336 45.7683 217.039 45.8953 217.683 46.1517C218.329 46.4065 218.886 46.7754 219.355 47.2568C219.824 47.7381 220.19 48.3329 220.454 49.0401C220.717 49.7474 220.849 50.5535 220.849 51.4584C220.849 51.8104 220.811 52.0443 220.736 52.1616C220.661 52.279 220.519 52.3377 220.309 52.3377H211.843C211.859 53.1413 211.969 53.8405 212.169 54.4353C212.37 55.03 212.647 55.5259 212.998 55.9237C213.351 56.3215 213.768 56.6189 214.255 56.815C214.74 57.0119 215.284 57.1099 215.887 57.1099C216.448 57.1099 216.932 57.0457 217.338 56.9155C217.744 56.786 218.094 56.6454 218.387 56.4951C218.681 56.344 218.925 56.2042 219.123 56.074C219.319 55.9446 219.488 55.8795 219.631 55.8795C219.815 55.8795 219.957 55.951 220.058 56.0933L220.686 56.909C220.409 57.2441 220.078 57.5359 219.693 57.7826C219.308 58.0302 218.895 58.2327 218.455 58.3918C218.017 58.5509 217.562 58.6707 217.093 58.7494C216.624 58.829 216.16 58.8692 215.699 58.8692C214.82 58.8692 214.009 58.7205 213.269 58.4232C212.527 58.1258 211.887 57.6902 211.347 57.1164C210.807 56.5433 210.386 55.8345 210.084 54.9882C209.782 54.1419 209.632 53.1711 209.632 52.0741C209.632 51.186 209.769 50.3574 210.04 49.5866C210.313 48.8159 210.704 48.148 211.215 47.5831C211.726 47.0181 212.35 46.5744 213.086 46.2522C213.823 45.9291 214.653 45.7683 215.574 45.7683Z" fill="#3D4543"/>
<path d="M224.327 58.6924V45.9685H225.608C225.85 45.9685 226.017 46.0143 226.11 46.1067C226.202 46.1984 226.265 46.3575 226.298 46.5841L226.449 48.5684C226.885 47.6812 227.423 46.9884 228.063 46.4893C228.703 45.991 229.455 45.7427 230.318 45.7427C230.67 45.7427 230.988 45.782 231.273 45.8616C231.557 45.9412 231.821 46.0513 232.064 46.1943L231.775 47.8644C231.716 48.0742 231.586 48.1786 231.385 48.1786C231.268 48.1786 231.088 48.1393 230.845 48.0597C230.602 47.9801 230.263 47.9399 229.828 47.9399C229.049 47.9399 228.398 48.1658 227.875 48.6191C227.352 49.0707 226.914 49.7281 226.562 50.5905V58.6924H224.327Z" fill="#3D4543"/>
<path d="M242.364 48.066C242.264 48.2501 242.109 48.3425 241.9 48.3425C241.774 48.3425 241.631 48.2967 241.473 48.2043C241.312 48.1126 241.118 48.0098 240.888 47.8965C240.658 47.7832 240.384 47.6795 240.065 47.5822C239.747 47.4866 239.37 47.4384 238.935 47.4384C238.559 47.4384 238.219 47.4866 237.918 47.5822C237.616 47.6795 237.358 47.8113 237.145 47.9785C236.931 48.1464 236.768 48.3409 236.654 48.5627C236.542 48.7845 236.486 49.0249 236.486 49.2853C236.486 49.6115 236.58 49.884 236.768 50.101C236.956 50.3196 237.206 50.5077 237.515 50.6659C237.826 50.8259 238.177 50.9658 238.571 51.0871C238.964 51.2084 239.368 51.3378 239.783 51.4769C240.197 51.6151 240.601 51.767 240.995 51.935C241.388 52.1021 241.74 52.3119 242.05 52.5634C242.36 52.8142 242.609 53.122 242.797 53.4861C242.985 53.8502 243.08 54.2882 243.08 54.7993C243.08 55.3852 242.975 55.9277 242.766 56.4252C242.556 56.9235 242.247 57.3558 241.837 57.7199C241.426 58.084 240.924 58.3701 240.329 58.5799C239.735 58.7896 239.048 58.8941 238.269 58.8941C237.382 58.8941 236.577 58.7494 235.858 58.4609C235.137 58.1716 234.526 57.8011 234.023 57.3494L234.551 56.4943C234.618 56.3866 234.698 56.3022 234.79 56.2436C234.882 56.1857 235.004 56.1551 235.154 56.1551C235.305 56.1551 235.463 56.2146 235.632 56.3311C235.799 56.4493 236.002 56.5787 236.241 56.7209C236.48 56.8632 236.768 56.9925 237.107 57.1099C237.446 57.2273 237.871 57.2867 238.383 57.2867C238.817 57.2867 239.199 57.2297 239.525 57.1164C239.851 57.003 240.124 56.8511 240.341 56.6574C240.56 56.4654 240.721 56.2436 240.825 55.992C240.93 55.7412 240.982 55.4736 240.982 55.1883C240.982 54.8371 240.888 54.5462 240.7 54.3155C240.511 54.0848 240.263 53.888 239.952 53.7248C239.642 53.5616 239.289 53.4194 238.891 53.298C238.493 53.1767 238.088 53.0489 237.673 52.9147C237.257 52.7804 236.852 52.6285 236.454 52.4566C236.056 52.2846 235.702 52.0684 235.393 51.8096C235.082 51.55 234.834 51.2301 234.645 50.8484C234.457 50.4675 234.363 50.0053 234.363 49.4604C234.363 48.975 234.463 48.5081 234.664 48.0596C234.865 47.6128 235.158 47.2181 235.544 46.879C235.928 46.5406 236.401 46.2706 236.962 46.0697C237.524 45.8688 238.164 45.7683 238.885 45.7683C239.722 45.7683 240.473 45.9001 241.14 46.1637C241.806 46.4273 242.381 46.789 242.866 47.2495L242.364 48.066Z" fill="#3D4543"/>
<path d="M251.696 47.4135C250.616 47.4135 249.767 47.7261 249.147 48.349C248.528 48.9726 248.142 49.8382 247.992 50.9433H254.912C254.912 50.4241 254.842 49.9491 254.698 49.5175C254.557 49.0859 254.347 48.7138 254.071 48.3996C253.794 48.0853 253.456 47.8427 253.06 47.6706C252.662 47.4995 252.208 47.4135 251.696 47.4135ZM251.647 45.7683C252.409 45.7683 253.112 45.8953 253.757 46.1517C254.402 46.4065 254.959 46.7754 255.428 47.2568C255.896 47.7381 256.263 48.3329 256.527 49.0401C256.79 49.7474 256.922 50.5535 256.922 51.4584C256.922 51.8104 256.884 52.0443 256.809 52.1616C256.734 52.279 256.592 52.3377 256.382 52.3377H247.916C247.932 53.1413 248.041 53.8405 248.243 54.4353C248.443 55.03 248.72 55.5259 249.071 55.9237C249.424 56.3215 249.842 56.6189 250.328 56.815C250.813 57.0119 251.358 57.1099 251.96 57.1099C252.521 57.1099 253.005 57.0457 253.412 56.9155C253.818 56.786 254.167 56.6454 254.459 56.4951C254.754 56.344 254.998 56.2042 255.196 56.074C255.392 55.9446 255.561 55.8795 255.704 55.8795C255.888 55.8795 256.031 55.951 256.131 56.0933L256.759 56.909C256.482 57.2441 256.151 57.5359 255.766 57.7826C255.382 58.0302 254.968 58.2327 254.529 58.3918C254.09 58.5509 253.635 58.6707 253.167 58.7494C252.697 58.829 252.233 58.8692 251.772 58.8692C250.893 58.8692 250.083 58.7205 249.342 58.4232C248.6 58.1258 247.961 57.6902 247.421 57.1164C246.88 56.5433 246.459 55.8345 246.157 54.9882C245.856 54.1419 245.705 53.1711 245.705 52.0741C245.705 51.186 245.842 50.3574 246.114 49.5866C246.386 48.8159 246.777 48.148 247.289 47.5831C247.799 47.0181 248.422 46.5744 249.159 46.2522C249.897 45.9291 250.726 45.7683 251.647 45.7683Z" fill="#3D4543"/>
<path d="M269.079 48.23C269.012 48.3224 268.945 48.3931 268.878 48.4446C268.81 48.4944 268.714 48.5193 268.588 48.5193C268.462 48.5193 268.327 48.4671 268.18 48.3618C268.033 48.2573 267.848 48.1424 267.622 48.0162C267.395 47.8908 267.12 47.7767 266.799 47.6714C266.476 47.567 266.081 47.5139 265.612 47.5139C264.992 47.5139 264.443 47.6256 263.967 47.8466C263.489 48.0692 263.089 48.3891 262.767 48.8086C262.445 49.2265 262.201 49.7337 262.038 50.3276C261.875 50.9231 261.794 51.5886 261.794 52.3255C261.794 53.0963 261.881 53.7802 262.057 54.379C262.232 54.9777 262.48 55.48 262.798 55.8859C263.117 56.2926 263.504 56.602 263.961 56.8158C264.416 57.0287 264.93 57.1356 265.499 57.1356C266.044 57.1356 266.491 57.0713 266.843 56.9411C267.194 56.8117 267.488 56.6671 267.722 56.5079C267.957 56.3496 268.149 56.2049 268.299 56.0747C268.45 55.9454 268.6 55.8803 268.752 55.8803C268.945 55.8803 269.087 55.951 269.179 56.0932L269.807 56.9098C269.255 57.5889 268.563 58.0848 267.734 58.3982C266.906 58.7124 266.03 58.8691 265.109 58.8691C264.313 58.8691 263.575 58.7229 262.892 58.4295C262.21 58.137 261.618 57.7118 261.116 57.1541C260.613 56.5979 260.217 55.914 259.928 55.1015C259.639 54.289 259.494 53.3639 259.494 52.3255C259.494 51.3788 259.626 50.5036 259.89 49.6999C260.155 48.8962 260.539 48.2035 261.046 47.6208C261.553 47.0397 262.179 46.5848 262.924 46.2585C263.669 45.9323 264.523 45.7683 265.485 45.7683C266.374 45.7683 267.161 45.913 267.848 46.2023C268.534 46.4908 269.142 46.8991 269.669 47.4263L269.079 48.23Z" fill="#3D4543"/>
<path d="M274.693 45.9683V54.0822C274.693 55.0459 274.915 55.7909 275.36 56.3181C275.803 56.8453 276.472 57.1089 277.369 57.1089C278.022 57.1089 278.637 56.9546 279.215 56.6444C279.793 56.3349 280.325 55.9034 280.81 55.3512V45.9683H283.047V58.6922H281.715C281.397 58.6922 281.195 58.5379 281.111 58.2276L280.936 56.8581C280.383 57.4698 279.765 57.9616 279.077 58.3346C278.391 58.7074 277.603 58.8931 276.716 58.8931C276.02 58.8931 275.408 58.7773 274.876 58.5475C274.343 58.3177 273.899 57.993 273.538 57.5742C273.178 57.1556 272.908 56.6492 272.728 56.0545C272.547 55.4606 272.458 54.8024 272.458 54.0822V45.9683H274.693Z" fill="#3D4543"/>
<path d="M287.358 58.6924V45.9685H288.639C288.882 45.9685 289.049 46.0143 289.142 46.1067C289.234 46.1984 289.297 46.3575 289.33 46.5841L289.481 48.5684C289.916 47.6812 290.455 46.9884 291.095 46.4893C291.735 45.991 292.487 45.7427 293.35 45.7427C293.702 45.7427 294.019 45.782 294.305 45.8616C294.589 45.9412 294.852 46.0513 295.095 46.1943L294.807 47.8644C294.748 48.0742 294.618 48.1786 294.417 48.1786C294.3 48.1786 294.119 48.1393 293.877 48.0597C293.634 47.9801 293.295 47.9399 292.86 47.9399C292.081 47.9399 291.43 48.1658 290.907 48.6191C290.384 49.0707 289.946 49.7281 289.593 50.5905V58.6924H287.358Z" fill="#3D4543"/>
<path d="M300.593 58.6919H298.358V45.968H300.593V58.6919ZM301.097 41.9729C301.097 42.1906 301.053 42.3932 300.965 42.5829C300.877 42.7709 300.759 42.9381 300.612 43.0851C300.467 43.2306 300.297 43.3463 300.103 43.4299C299.911 43.5143 299.705 43.5561 299.488 43.5561C299.271 43.5561 299.067 43.5143 298.879 43.4299C298.691 43.3463 298.523 43.2306 298.377 43.0851C298.23 42.9381 298.115 42.7709 298.032 42.5829C297.948 42.3932 297.906 42.1906 297.906 41.9729C297.906 41.755 297.948 41.5485 298.032 41.3508C298.115 41.1547 298.23 40.9827 298.377 40.8364C298.523 40.6893 298.691 40.5752 298.879 40.4909C299.067 40.4073 299.271 40.3655 299.488 40.3655C299.705 40.3655 299.911 40.4073 300.103 40.4909C300.297 40.5752 300.467 40.6893 300.612 40.8364C300.759 40.9827 300.877 41.1547 300.965 41.3508C301.053 41.5485 301.097 41.755 301.097 41.9729Z" fill="#3D4543"/>
<path d="M309.024 58.8946C308.02 58.8946 307.247 58.6142 306.706 58.0532C306.166 57.4922 305.896 56.6837 305.896 55.6293V47.8408H304.364C304.23 47.8408 304.118 47.8014 304.025 47.7218C303.933 47.6422 303.886 47.5193 303.886 47.3513V46.4593L305.972 46.1956L306.487 42.264C306.503 42.1378 306.559 42.0358 306.65 41.9562C306.742 41.8766 306.86 41.8364 307.001 41.8364H308.133V46.2206H311.775V47.8408H308.133V55.4782C308.133 56.0143 308.262 56.4121 308.522 56.6709C308.781 56.9312 309.116 57.0607 309.527 57.0607C309.761 57.0607 309.964 57.0293 310.136 56.9666C310.308 56.9031 310.456 56.8348 310.581 56.7593C310.708 56.6837 310.815 56.6146 310.902 56.5519C310.99 56.4892 311.067 56.4579 311.135 56.4579C311.251 56.4579 311.355 56.5294 311.449 56.6709L312.102 57.7397C311.717 58.0998 311.251 58.3819 310.708 58.5869C310.163 58.7918 309.602 58.8946 309.024 58.8946Z" fill="#3D4543"/>
<path d="M318.898 62.4478C318.823 62.6158 318.729 62.7492 318.616 62.8497C318.503 62.9501 318.329 62.9999 318.095 62.9999H316.437L318.76 57.9512L313.51 45.9683H315.444C315.636 45.9683 315.788 46.0165 315.897 46.1129C316.005 46.2094 316.085 46.3162 316.135 46.4328L319.539 54.4472C319.614 54.6304 319.68 54.8152 319.733 54.9993C319.787 55.1841 319.836 55.3722 319.878 55.565C319.937 55.3722 319.995 55.1841 320.053 54.9993C320.113 54.8152 320.179 54.6271 320.254 54.4343L323.558 46.4328C323.608 46.2986 323.694 46.1884 323.816 46.1001C323.937 46.0124 324.069 45.9683 324.212 45.9683H325.995L318.898 62.4478Z" fill="#3D4543"/>
</g>
<defs>
<clipPath id="clip0_39_1457">
<rect width="354.85" height="72" fill="white"/>
</clipPath>
</defs>
</svg>
