<svg width="467" height="72" viewBox="0 0 467 72" fill="none" xmlns="http://www.w3.org/2000/svg">
<g clip-path="url(#clip0_39_1457)">
<path d="M35.3048 25.8468C37.9463 25.8468 40.4515 26.4267 42.703 27.4639C41.0969 22.8827 36.8368 17.1621 35.3048 15.1882C33.7729 17.1621 29.5127 22.8827 27.9067 27.4639C30.1582 26.4267 32.6634 25.8468 35.3048 25.8468Z" fill="#2B7DE1"/>
<path d="M70.6094 10.7002C60.5667 4.10341 48.945 0.24257 36.5425 0.000732422C42.7084 8.069 55.839 26.1896 61.9803 41.6892C66.614 32.3607 69.638 21.8715 70.6094 10.7002Z" fill="#3D4543"/>
<path d="M34.0673 0C21.6647 0.241832 10.0438 4.10268 0 10.6995C0.971596 21.8716 3.99539 32.3599 8.62943 41.6885C14.7707 26.1897 27.9013 8.06909 34.0673 0Z" fill="#3D4543"/>
<path d="M35.3053 38.2183C26.1581 38.2183 17.4487 40.0814 9.52686 43.4399C15.7754 55.3008 24.6731 65.1716 35.3053 72C45.9375 65.1716 54.8343 55.3008 61.0837 43.4399C53.1619 40.0814 44.4524 38.2183 35.3053 38.2183Z" fill="#3D4543"/>
<path d="M106.211 17.9988H99.721L103.013 7.72396C103.465 9.1873 104.379 12.1245 106.211 17.9988ZM106.347 0.514648H99.6422L88.2173 31.5831H95.0159L98.0196 23.0669H107.926L110.909 31.5831H117.602L106.457 0.814493L106.347 0.514648Z" fill="#3D4543"/>
<path d="M129.561 0.534668H123.072V31.5822H141.988L142.187 26.2283H129.561V0.534668Z" fill="#3D4543"/>
<path d="M149.836 31.5822H156.324V0.534668H149.836V31.5822Z" fill="#3D4543"/>
<path d="M180.193 17.9988H173.705L176.997 7.72396C177.448 9.1873 178.361 12.1245 180.193 17.9988ZM180.33 0.514648H173.624L162.201 31.5831H168.998L172.002 23.0669H181.909L184.892 31.5831H191.584L180.439 0.814493L180.33 0.514648Z" fill="#3D4543"/>
<path d="M209.702 13.1864L207.191 12.3847C205.913 11.9763 205.111 11.7114 204.759 11.5807C203.28 11.128 202.592 10.2282 202.592 8.7649C202.641 7.54775 203.018 6.7122 203.744 6.21044C204.505 5.68418 205.681 5.4169 207.238 5.4169C209.465 5.4169 211.922 6.01326 214.539 7.18717L214.968 7.37972L216.988 2.50072L216.638 2.30117C213.946 0.77368 210.708 0 207.011 0C203.714 0 201.022 0.778318 199.009 2.31518C196.959 3.88004 195.92 6.12642 195.92 8.99245C195.92 13.0837 198.063 15.9147 202.279 17.399C202.6 17.5251 203.128 17.7036 203.86 17.9335C204.584 18.1622 205.358 18.3956 206.185 18.6372C207.003 18.8764 207.502 19.0223 207.688 19.0794C210.012 19.7492 211.142 20.8905 211.142 22.5698C211.142 23.8651 210.751 24.8254 209.947 25.5023C209.13 26.1885 207.879 26.5362 206.23 26.5362C204.838 26.5362 203.389 26.3203 201.924 25.8967C200.45 25.4684 199.065 24.9002 197.81 24.2058L197.318 23.9351L195.689 29.2423L196.004 29.4232C198.939 31.1304 202.305 31.9951 206.004 31.9951C209.532 31.9951 212.386 31.1853 214.488 29.5877C216.627 27.961 217.712 25.6131 217.712 22.6106C217.712 20.1075 217.075 18.1167 215.819 16.693C214.583 15.2939 212.525 14.1141 209.702 13.1864Z" fill="#3D4543"/>
<path d="M255.388 9.3631C255.388 10.8977 254.975 12.0144 254.157 12.6819C253.313 13.3715 251.859 13.7205 249.838 13.7205C249.618 13.7205 248.592 13.717 246.755 13.7111C245.51 13.7053 244.64 13.703 244.143 13.7006V5.49943H250.084C251.922 5.49943 253.292 5.82264 254.154 6.45979C254.984 7.07357 255.388 8.02352 255.388 9.3631ZM256.266 17.3847C259.689 15.9785 261.423 13.256 261.423 9.28145C261.423 7.87648 261.231 6.6372 260.851 5.59509C260.466 4.54248 259.931 3.67201 259.26 3.01149C258.594 2.35097 257.714 1.82121 256.647 1.43499C255.61 1.06267 254.504 0.801337 253.36 0.661304C252.226 0.52241 250.875 0.452393 249.344 0.452393H237.717V31.5828H244.143V18.6275L248.357 18.666C249.358 18.666 250.045 18.6695 250.412 18.6765C250.783 19.3533 251.564 20.952 252.734 23.4352L256.371 31.5828H263.483L258.682 21.63C257.747 19.7022 256.953 18.3042 256.266 17.3847Z" fill="#3D4543"/>
<path d="M289.654 23.8824C288.246 25.6818 286.2 26.5559 283.401 26.5559C280.601 26.5559 278.552 25.6783 277.135 23.8719C275.713 22.0574 274.992 19.4458 274.992 16.1106C274.992 12.7323 275.718 10.0822 277.147 8.23379C278.571 6.3935 280.623 5.49966 283.42 5.49966C286.205 5.49966 288.243 6.39 289.652 8.22215C291.07 10.0647 291.789 12.7195 291.789 16.1106C291.789 19.4585 291.071 22.0736 289.654 23.8824ZM283.401 0.102539C278.754 0.102539 275.024 1.52737 272.314 4.33625C269.608 7.13917 268.236 11.08 268.236 16.0487C268.236 20.9896 269.603 24.9257 272.301 27.7497C275.003 30.5795 278.732 32.0148 283.38 32.0148C288.015 32.0148 291.737 30.576 294.448 27.7403C297.152 24.9082 298.525 20.9826 298.525 16.0697C298.525 11.1021 297.159 7.1579 294.468 4.34675C291.771 1.53087 288.047 0.102539 283.401 0.102539Z" fill="#3D4543"/>
<path d="M316.696 12.9801H312.381V5.54083H315.564C317.793 5.54083 319.425 5.81853 320.415 6.36816C321.329 6.87578 321.773 7.80813 321.773 9.21896C321.773 11.7489 320.111 12.9801 316.696 12.9801ZM312.381 17.7797H316.614C318.744 17.7797 320.324 18.1263 321.311 18.8101C322.258 19.4671 322.719 20.5348 322.719 22.0763C322.719 25.1465 320.769 26.639 316.758 26.639H312.381V17.7797ZM324.469 14.9837C324.788 14.8191 325.085 14.6347 325.36 14.4294C325.958 13.9859 326.434 13.5203 326.776 13.0454C327.114 12.5727 327.39 12.0406 327.597 11.4583C327.799 10.8901 327.93 10.3707 327.989 9.91449C328.047 9.47225 328.075 9.01714 328.075 8.56081C328.075 5.68664 327.011 3.59552 324.911 2.34686C322.887 1.14381 319.803 0.534668 315.749 0.534668H305.891V31.5822H317.518C321.154 31.5822 324.053 30.7992 326.132 29.2506C328.253 27.673 329.33 25.3624 329.33 22.3844C329.33 20.4111 328.8 18.7225 327.754 17.3642C326.939 16.3081 325.839 15.5099 324.469 14.9837Z" fill="#3D4543"/>
<path d="M356.517 23.8824C355.108 25.6818 353.064 26.5559 350.264 26.5559C347.464 26.5559 345.415 25.6783 343.997 23.8719C342.575 22.0574 341.855 19.4458 341.855 16.1106C341.855 12.7323 342.58 10.0822 344.01 8.23379C345.434 6.3935 347.487 5.49966 350.284 5.49966C353.068 5.49966 355.105 6.39 356.515 8.22215C357.933 10.0647 358.652 12.7195 358.652 16.1106C358.652 19.4585 357.934 22.0736 356.517 23.8824ZM350.264 0.102539C345.617 0.102539 341.886 1.52737 339.177 4.33625C336.47 7.13917 335.099 11.08 335.099 16.0487C335.099 20.9896 336.466 24.9257 339.164 27.7497C341.866 30.5795 345.594 32.0148 350.242 32.0148C354.877 32.0148 358.6 30.576 361.31 27.7403C364.015 24.9082 365.387 20.9826 365.387 16.0697C365.387 11.1021 364.022 7.1579 361.33 4.34675C358.633 1.53087 354.91 0.102539 350.264 0.102539Z" fill="#3D4543"/>
<path d="M369.215 5.91069H377.998V31.5822H384.506V5.91069H393.251V0.534668H369.215V5.91069Z" fill="#3D4543"/>
<path d="M399.811 31.5822H406.301V0.534668H399.811V31.5822Z" fill="#3D4543"/>
<path d="M429.06 5.52066C431.335 5.52066 433.637 6.22546 435.897 7.61301L436.354 7.89308L438.452 2.83554L438.139 2.62785C435.633 0.952099 432.536 0.102539 428.937 0.102539C424.467 0.102539 420.796 1.56474 418.024 4.44941C415.258 7.32944 413.855 11.1896 413.855 15.9262C413.855 20.9044 415.197 24.8697 417.845 27.7158C420.5 30.569 424.136 32.0148 428.649 32.0148C432.186 32.0148 435.178 31.3018 437.542 29.8945L437.812 29.7346L436.915 24.4542L436.363 24.7343C433.956 25.9573 431.5 26.5781 429.06 26.5781C426.3 26.5781 424.238 25.697 422.76 23.8859C421.279 22.0725 420.528 19.4504 420.528 16.0908C420.528 12.8525 421.306 10.2468 422.842 8.34345C424.378 6.44374 426.41 5.52066 429.06 5.52066Z" fill="#3D4543"/>
<path d="M464.327 16.693C463.091 15.2939 461.035 14.1141 458.21 13.1864L455.699 12.3847C454.423 11.9763 453.621 11.7114 453.266 11.5807C451.789 11.128 451.101 10.2282 451.1 8.7649C451.149 7.54775 451.526 6.7122 452.251 6.21158C453.014 5.68418 454.189 5.4169 455.746 5.4169C457.975 5.4169 460.431 6.01326 463.048 7.18717L463.476 7.38085L465.496 2.50072L465.145 2.30117C462.456 0.77368 459.216 0 455.519 0C452.224 0 449.531 0.778318 447.519 2.31518C445.467 3.88126 444.428 6.12642 444.428 8.99245C444.428 13.0837 446.573 15.9147 450.786 17.399C451.108 17.5251 451.636 17.7036 452.368 17.9335C453.092 18.1622 453.866 18.3956 454.693 18.6372C455.512 18.8764 456.011 19.0223 456.197 19.0794C458.519 19.7492 459.65 20.8905 459.65 22.5698C459.65 23.8651 459.26 24.8254 458.456 25.5023C457.64 26.1885 456.389 26.5373 454.738 26.5373C453.347 26.5373 451.898 26.3203 450.432 25.8967C448.958 25.4696 447.575 24.9002 446.318 24.2058L445.827 23.9351L444.199 29.2423L444.512 29.4232C447.449 31.1304 450.813 31.9951 454.513 31.9951C458.04 31.9951 460.895 31.1853 462.995 29.5877C465.135 27.961 466.22 25.6143 466.22 22.6106C466.22 20.1075 465.583 18.1167 464.327 16.693Z" fill="#3D4543"/>
<path d="M91.5201 52.2672H95.2231C96.2558 52.2672 97.1651 52.1435 97.9493 51.8937C98.7335 51.644 99.389 51.2916 99.9185 50.8353C100.447 50.3791 100.845 49.8352 101.114 49.2028C101.38 48.5703 101.514 47.8713 101.514 47.1058C101.514 45.5491 101 44.3752 99.9737 43.5863C98.9453 42.7951 97.4172 42.4007 95.3867 42.4007H91.5201V52.2672ZM91.5201 54.8379V65.7453H88V39.6094H95.3867C97.0391 39.6094 98.4683 39.7774 99.6726 40.1112C100.877 40.4461 101.87 40.9292 102.654 41.5606C103.439 42.193 104.02 42.9562 104.396 43.8501C104.772 44.7439 104.962 45.744 104.962 46.8503C104.962 47.7745 104.816 48.638 104.525 49.4397C104.233 50.2426 103.81 50.9637 103.257 51.602C102.703 52.2403 102.029 52.7829 101.231 53.2334C100.436 53.6839 99.5326 54.0246 98.5235 54.2545C98.9611 54.5101 99.3505 54.8812 99.691 55.3678L107.314 65.7453H104.178C103.533 65.7453 103.059 65.4956 102.754 64.9973L95.9696 55.6595C95.7631 55.3678 95.5381 55.1589 95.2957 55.0293C95.0515 54.9022 94.6874 54.8379 94.2008 54.8379H91.5201Z" fill="#3D4543"/>
<path d="M119.005 63.4641C120.829 63.4641 122.191 62.8537 123.091 61.632C123.99 60.4102 124.441 58.7041 124.441 56.5161C124.441 54.3153 123.99 52.5999 123.091 51.3734C122.191 50.1446 120.829 49.5309 119.005 49.5309C118.081 49.5309 117.279 49.6884 116.597 50.0046C115.917 50.3208 115.349 50.7772 114.893 51.3734C114.437 51.9686 114.096 52.7002 113.872 53.5696C113.646 54.4401 113.534 55.4215 113.534 56.5161C113.534 57.6095 113.646 58.5886 113.872 59.4522C114.096 60.3156 114.437 61.0427 114.893 61.632C115.349 62.2225 115.917 62.6741 116.597 62.9903C117.279 63.3066 118.081 63.4641 119.005 63.4641ZM119.005 46.9775C120.356 46.9775 121.574 47.2016 122.663 47.6521C123.75 48.1025 124.674 48.7408 125.435 49.567C126.195 50.3943 126.778 51.3933 127.186 52.5672C127.593 53.7411 127.796 55.0504 127.796 56.4975C127.796 57.9561 127.593 59.2689 127.186 60.437C126.778 61.6039 126.195 62.6017 125.435 63.4279C124.674 64.2553 123.75 64.8912 122.663 65.3347C121.574 65.7769 120.356 65.9998 119.005 65.9998C117.656 65.9998 116.436 65.7769 115.349 65.3347C114.262 64.8912 113.334 64.2553 112.567 63.4279C111.801 62.6017 111.211 61.6039 110.798 60.437C110.385 59.2689 110.179 57.9561 110.179 56.4975C110.179 55.0504 110.385 53.7411 110.798 52.5672C111.211 51.3933 111.801 50.3943 112.567 49.567C113.334 48.7408 114.262 48.1025 115.349 47.6521C116.436 47.2016 117.656 46.9775 119.005 46.9775Z" fill="#3D4543"/>
<path d="M141.074 49.5679C140.016 49.5679 139.089 49.8118 138.293 50.2972C137.496 50.7838 136.764 51.4712 136.094 52.3591V61.2956C136.679 62.0973 137.327 62.6633 138.037 62.9911C138.749 63.3191 139.543 63.4836 140.418 63.4836C142.144 63.4836 143.469 62.8698 144.393 61.6422C145.317 60.4145 145.779 58.663 145.779 56.3898C145.779 55.1855 145.673 54.1528 145.461 53.2881C145.247 52.4257 144.941 51.7174 144.539 51.1642C144.137 50.6111 143.646 50.2061 143.062 49.9506C142.478 49.6951 141.816 49.5679 141.074 49.5679ZM132.832 65.7451V38.8811H136.094V49.9319C136.862 49.0462 137.74 48.3309 138.73 47.7906C139.722 47.2492 140.856 46.9784 142.131 46.9784C143.202 46.9784 144.168 47.1792 145.033 47.5805C145.895 47.982 146.63 48.5795 147.238 49.3765C147.847 50.1735 148.314 51.1572 148.642 52.3311C148.971 53.5051 149.135 54.8565 149.135 56.3898C149.135 57.7516 148.953 59.0189 148.587 60.1917C148.223 61.3645 147.698 62.3797 147.011 63.2374C146.324 64.0951 145.484 64.7695 144.494 65.262C143.503 65.7545 142.387 66.0007 141.147 66.0007C139.956 66.0007 138.944 65.7696 138.111 65.3075C137.278 64.8466 136.551 64.2013 135.931 63.3739L135.766 65.0531C135.669 65.5141 135.389 65.7451 134.927 65.7451H132.832Z" fill="#3D4543"/>
<path d="M161.501 63.4641C163.325 63.4641 164.686 62.8537 165.586 61.632C166.486 60.4102 166.936 58.7041 166.936 56.5161C166.936 54.3153 166.486 52.5999 165.586 51.3734C164.686 50.1446 163.325 49.5309 161.501 49.5309C160.576 49.5309 159.775 49.6884 159.093 50.0046C158.413 50.3208 157.844 50.7772 157.388 51.3734C156.932 51.9686 156.591 52.7002 156.367 53.5696C156.142 54.4401 156.03 55.4215 156.03 56.5161C156.03 57.6095 156.142 58.5886 156.367 59.4522C156.591 60.3156 156.932 61.0427 157.388 61.632C157.844 62.2225 158.413 62.6741 159.093 62.9903C159.775 63.3066 160.576 63.4641 161.501 63.4641ZM161.501 46.9775C162.85 46.9775 164.069 47.2016 165.157 47.6521C166.245 48.1025 167.169 48.7408 167.93 49.567C168.69 50.3943 169.273 51.3933 169.68 52.5672C170.088 53.7411 170.291 55.0504 170.291 56.4975C170.291 57.9561 170.088 59.2689 169.68 60.437C169.273 61.6039 168.69 62.6017 167.93 63.4279C167.169 64.2553 166.245 64.8912 165.157 65.3347C164.069 65.7769 162.85 65.9998 161.501 65.9998C160.151 65.9998 158.932 65.7769 157.844 65.3347C156.757 64.8912 155.829 64.2553 155.063 63.4279C154.297 62.6017 153.706 61.6039 153.293 60.437C152.88 59.2689 152.673 57.9561 152.673 56.4975C152.673 55.0504 152.88 53.7411 153.293 52.5672C153.706 51.3933 154.297 50.3943 155.063 49.567C155.829 48.7408 156.757 48.1025 157.844 47.6521C158.932 47.2016 160.151 46.9775 161.501 46.9775Z" fill="#3D4543"/>
<path d="M180.814 66.0368C179.356 66.0368 178.233 65.6296 177.449 64.815C176.665 64.0006 176.273 62.8266 176.273 61.2956V49.9868H174.047C173.854 49.9868 173.69 49.9296 173.555 49.814C173.422 49.6985 173.354 49.52 173.354 49.2761V47.9808L176.382 47.598L177.131 41.8894C177.154 41.7062 177.235 41.558 177.368 41.4425C177.501 41.3269 177.672 41.2686 177.877 41.2686H179.521V47.6343H184.809V49.9868H179.521V61.0762C179.521 61.8546 179.708 62.4322 180.085 62.8079C180.461 63.186 180.947 63.3739 181.544 63.3739C181.885 63.3739 182.18 63.3284 182.428 63.2374C182.678 63.1451 182.893 63.046 183.075 62.9363C183.26 62.8266 183.414 62.7263 183.541 62.6352C183.669 62.5442 183.781 62.4987 183.879 62.4987C184.048 62.4987 184.2 62.6025 184.335 62.8079L185.283 64.3599C184.724 64.8828 184.048 65.2924 183.26 65.5899C182.468 65.8875 181.654 66.0368 180.814 66.0368Z" fill="#3D4543"/>
<path d="M216.616 60.3468C216.81 60.3468 216.985 60.4249 217.145 60.5837L218.532 62.0972C217.461 63.3376 216.162 64.3051 214.638 64.997C213.11 65.6902 211.272 66.0367 209.119 66.0367C207.235 66.0367 205.526 65.7124 203.995 65.0612C202.463 64.4101 201.156 63.4986 200.073 62.3247C198.99 61.152 198.153 59.7446 197.557 58.1028C196.961 56.462 196.662 54.6556 196.662 52.687C196.662 50.716 196.982 48.9108 197.621 47.2701C198.259 45.6282 199.155 44.2185 200.31 43.0387C201.466 41.859 202.848 40.9441 204.459 40.293C206.071 39.643 207.848 39.3174 209.794 39.3174C211.716 39.3174 213.372 39.615 214.765 40.2112C216.156 40.8076 217.394 41.6151 218.476 42.6373L217.327 44.2605C217.241 44.3819 217.145 44.4822 217.034 44.5616C216.926 44.641 216.767 44.6795 216.561 44.6795C216.402 44.6795 216.235 44.6223 216.059 44.5067C215.882 44.3912 215.672 44.2477 215.43 44.0785C215.186 43.9081 214.901 43.726 214.573 43.5312C214.246 43.3363 213.855 43.1543 213.406 42.9839C212.955 42.8136 212.433 42.6712 211.837 42.5556C211.242 42.439 210.554 42.3817 209.776 42.3817C208.377 42.3817 207.098 42.6222 205.938 43.1029C204.776 43.5825 203.776 44.2664 202.936 45.1532C202.099 46.0413 201.444 47.1242 200.976 48.4009C200.509 49.6763 200.274 51.1058 200.274 52.687C200.274 54.316 200.509 55.7689 200.976 57.0455C201.444 58.3222 202.082 59.4004 202.891 60.2826C203.7 61.1636 204.658 61.8358 205.764 62.2979C206.87 62.76 208.062 62.991 209.339 62.991C210.117 62.991 210.816 62.9455 211.436 62.8534C212.056 62.7623 212.63 62.6199 213.159 62.4251C213.687 62.2314 214.18 61.9852 214.638 61.6864C215.093 61.39 215.552 61.0341 216.014 60.6198C216.22 60.4378 216.421 60.3468 216.616 60.3468Z" fill="#3D4543"/>
<path d="M228.999 71.1983C228.89 71.4422 228.753 71.6359 228.589 71.7818C228.425 71.9276 228.172 72 227.832 72H225.425L228.799 64.6693L221.175 47.2703H223.984C224.263 47.2703 224.482 47.3403 224.641 47.4803C224.797 47.6203 224.914 47.7755 224.987 47.9448L229.929 59.5815C230.039 59.8475 230.133 60.1159 230.212 60.3832C230.29 60.6515 230.361 60.9246 230.422 61.2046C230.507 60.9246 230.592 60.6515 230.676 60.3832C230.763 60.1159 230.86 59.8428 230.968 59.5628L235.765 47.9448C235.838 47.7499 235.964 47.59 236.14 47.4617C236.316 47.3344 236.508 47.2703 236.714 47.2703H239.304L228.999 71.1983Z" fill="#3D4543"/>
<path d="M251.523 49.5679C250.465 49.5679 249.538 49.8118 248.742 50.2972C247.946 50.7838 247.213 51.4712 246.544 52.3591V61.2956C247.128 62.0973 247.776 62.6633 248.486 62.9911C249.198 63.3191 249.992 63.4836 250.867 63.4836C252.593 63.4836 253.918 62.8698 254.842 61.6422C255.766 60.4145 256.229 58.663 256.229 56.3898C256.229 55.1855 256.122 54.1528 255.91 53.2881C255.696 52.4257 255.39 51.7174 254.988 51.1642C254.587 50.6111 254.095 50.2061 253.511 49.9506C252.927 49.6951 252.265 49.5679 251.523 49.5679ZM243.281 65.7451V38.8811H246.544V49.9319C247.311 49.0462 248.189 48.3309 249.18 47.7906C250.171 47.2492 251.306 46.9784 252.581 46.9784C253.651 46.9784 254.617 47.1792 255.482 47.5805C256.344 47.982 257.079 48.5795 257.688 49.3765C258.296 50.1735 258.763 51.1572 259.091 52.3311C259.42 53.5051 259.584 54.8565 259.584 56.3898C259.584 57.7516 259.402 59.0189 259.036 60.1917C258.672 61.3645 258.147 62.3797 257.46 63.2374C256.773 64.0951 255.934 64.7695 254.943 65.262C253.952 65.7545 252.836 66.0007 251.596 66.0007C250.405 66.0007 249.393 65.7696 248.56 65.3075C247.727 64.8466 247 64.2013 246.38 63.3739L246.215 65.0531C246.118 65.5141 245.838 65.7451 245.376 65.7451H243.281Z" fill="#3D4543"/>
<path d="M271.859 49.3663C270.29 49.3663 269.056 49.8202 268.156 50.7246C267.257 51.6301 266.697 52.8869 266.479 54.4915H276.527C276.527 53.7376 276.425 53.048 276.217 52.4213C276.012 51.7947 275.707 51.2544 275.305 50.7982C274.904 50.3418 274.414 49.9895 273.838 49.7397C273.26 49.4911 272.601 49.3663 271.859 49.3663ZM271.786 46.9775C272.892 46.9775 273.914 47.1619 274.849 47.5342C275.787 47.9041 276.595 48.4397 277.276 49.1388C277.957 49.8377 278.489 50.7013 278.872 51.7281C279.254 52.7551 279.446 53.9255 279.446 55.2395C279.446 55.7506 279.391 56.0902 279.281 56.2606C279.173 56.431 278.966 56.5161 278.662 56.5161H266.369C266.392 57.683 266.551 58.6983 266.843 59.5618C267.134 60.4254 267.536 61.1453 268.046 61.723C268.558 62.3006 269.165 62.7324 269.871 63.0171C270.576 63.3031 271.366 63.4454 272.241 63.4454C273.056 63.4454 273.758 63.3521 274.349 63.163C274.938 62.9751 275.445 62.7709 275.871 62.5527C276.298 62.3333 276.652 62.1303 276.939 61.9412C277.224 61.7533 277.471 61.6588 277.677 61.6588C277.944 61.6588 278.151 61.7627 278.298 61.9693L279.209 63.1537C278.808 63.6403 278.326 64.0639 277.768 64.4221C277.209 64.7815 276.609 65.0756 275.97 65.3067C275.333 65.5377 274.673 65.7116 273.992 65.8259C273.312 65.9415 272.637 65.9998 271.968 65.9998C270.691 65.9998 269.515 65.7839 268.439 65.3522C267.362 64.9204 266.433 64.2879 265.649 63.4547C264.865 62.6227 264.253 61.5934 263.815 60.3647C263.377 59.1359 263.159 57.7263 263.159 56.1334C263.159 54.8439 263.357 53.6408 263.752 52.5217C264.147 51.4026 264.715 50.4328 265.457 49.6125C266.199 48.7922 267.105 48.148 268.174 47.6801C269.244 47.211 270.449 46.9775 271.786 46.9775Z" fill="#3D4543"/>
<path d="M284.497 65.7453V47.2703H286.357C286.71 47.2703 286.952 47.3368 287.087 47.471C287.221 47.604 287.312 47.8351 287.36 48.1642L287.579 51.0453C288.211 49.757 288.993 48.7512 289.922 48.0265C290.852 47.303 291.944 46.9424 293.197 46.9424C293.708 46.9424 294.169 46.9995 294.583 47.1151C294.996 47.2306 295.378 47.3905 295.731 47.5982L295.312 50.0231C295.226 50.3277 295.038 50.4793 294.747 50.4793C294.576 50.4793 294.314 50.4222 293.962 50.3067C293.61 50.1911 293.117 50.1328 292.485 50.1328C291.354 50.1328 290.409 50.4607 289.649 51.1188C288.89 51.7746 288.254 52.7292 287.742 53.9814V65.7453H284.497Z" fill="#3D4543"/>
<path d="M310.687 50.3153C310.542 50.5825 310.318 50.7167 310.013 50.7167C309.831 50.7167 309.623 50.6502 309.394 50.516C309.161 50.3829 308.879 50.2336 308.545 50.0691C308.211 49.9045 307.812 49.754 307.35 49.6128C306.888 49.4739 306.341 49.4039 305.708 49.4039C305.162 49.4039 304.669 49.4739 304.232 49.6128C303.793 49.754 303.419 49.9453 303.11 50.1881C302.799 50.4319 302.562 50.7144 302.397 51.0364C302.235 51.3585 302.152 51.7075 302.152 52.0856C302.152 52.5593 302.289 52.9549 302.562 53.27C302.835 53.5874 303.198 53.8605 303.647 54.0903C304.098 54.3226 304.608 54.5256 305.18 54.7018C305.751 54.878 306.338 55.0659 306.94 55.2678C307.542 55.4685 308.128 55.689 308.701 55.933C309.271 56.1756 309.782 56.4802 310.231 56.8454C310.682 57.2095 311.044 57.6565 311.317 58.1851C311.59 58.7137 311.727 59.3497 311.727 60.0919C311.727 60.9426 311.576 61.7303 311.271 62.4526C310.967 63.1761 310.518 63.8039 309.922 64.3325C309.326 64.8612 308.596 65.2766 307.733 65.5812C306.871 65.8858 305.873 66.0374 304.742 66.0374C303.454 66.0374 302.285 65.8274 301.24 65.4084C300.195 64.9883 299.306 64.4504 298.577 63.7946L299.343 62.553C299.441 62.3966 299.557 62.2741 299.69 62.1889C299.823 62.1049 300.001 62.0605 300.219 62.0605C300.439 62.0605 300.668 62.1469 300.912 62.3161C301.155 62.4876 301.45 62.6755 301.797 62.8821C302.144 63.0886 302.562 63.2764 303.055 63.4468C303.547 63.6172 304.164 63.7035 304.907 63.7035C305.538 63.7035 306.093 63.6207 306.566 63.4562C307.039 63.2917 307.435 63.0711 307.75 62.7898C308.068 62.511 308.302 62.1889 308.454 61.8236C308.606 61.4595 308.681 61.0709 308.681 60.6567C308.681 60.1467 308.545 59.7243 308.272 59.3894C307.997 59.0544 307.636 58.7686 307.186 58.5317C306.735 58.2948 306.223 58.0882 305.645 57.912C305.068 57.7359 304.479 57.5503 303.877 57.3554C303.273 57.1605 302.684 56.94 302.106 56.6903C301.528 56.4406 301.015 56.1266 300.566 55.7509C300.115 55.374 299.754 54.9095 299.48 54.3552C299.206 53.8021 299.07 53.1311 299.07 52.3399C299.07 51.6351 299.215 50.9571 299.507 50.3059C299.8 49.6571 300.225 49.0841 300.785 48.5917C301.343 48.1004 302.03 47.7083 302.845 47.4166C303.66 47.1249 304.589 46.979 305.636 46.979C306.852 46.979 307.942 47.1704 308.911 47.5531C309.877 47.9359 310.712 48.461 311.417 49.1296L310.687 50.3153Z" fill="#3D4543"/>
<path d="M324.237 49.3663C322.668 49.3663 321.435 49.8202 320.535 50.7246C319.636 51.6301 319.076 52.8869 318.858 54.4915H328.906C328.906 53.7376 328.803 53.048 328.595 52.4213C328.39 51.7947 328.086 51.2544 327.684 50.7982C327.282 50.3418 326.792 49.9895 326.216 49.7397C325.639 49.4911 324.979 49.3663 324.237 49.3663ZM324.165 46.9775C325.271 46.9775 326.292 47.1619 327.228 47.5342C328.165 47.9041 328.973 48.4397 329.655 49.1388C330.335 49.8377 330.867 50.7013 331.251 51.7281C331.633 52.7551 331.825 53.9255 331.825 55.2395C331.825 55.7506 331.77 56.0902 331.66 56.2606C331.552 56.431 331.345 56.5161 331.04 56.5161H318.747C318.771 57.683 318.929 58.6983 319.222 59.5618C319.513 60.4254 319.915 61.1453 320.424 61.723C320.937 62.3006 321.544 62.7324 322.25 63.0171C322.954 63.3031 323.745 63.4454 324.62 63.4454C325.434 63.4454 326.137 63.3521 326.727 63.163C327.317 62.9751 327.824 62.7709 328.249 62.5527C328.676 62.3333 329.031 62.1303 329.318 61.9412C329.603 61.7533 329.848 61.6588 330.055 61.6588C330.323 61.6588 330.53 61.7627 330.676 61.9693L331.587 63.1537C331.186 63.6403 330.705 64.0639 330.146 64.4221C329.588 64.7815 328.987 65.0756 328.349 65.3067C327.712 65.5377 327.051 65.7116 326.371 65.8259C325.689 65.9415 325.016 65.9998 324.347 65.9998C323.07 65.9998 321.894 65.7839 320.818 65.3522C319.741 64.9204 318.812 64.2879 318.028 63.4547C317.244 62.6227 316.632 61.5934 316.194 60.3647C315.756 59.1359 315.537 57.7263 315.537 56.1334C315.537 54.8439 315.736 53.6408 316.131 52.5217C316.526 51.4026 317.094 50.4328 317.836 49.6125C318.578 48.7922 319.483 48.148 320.553 47.6801C321.623 47.211 322.828 46.9775 324.165 46.9775Z" fill="#3D4543"/>
<path d="M349.48 50.5519C349.382 50.686 349.285 50.7887 349.188 50.8634C349.09 50.9357 348.95 50.972 348.768 50.972C348.585 50.972 348.388 50.8961 348.175 50.7432C347.962 50.5915 347.692 50.4246 347.364 50.2414C347.035 50.0594 346.636 49.8937 346.169 49.7408C345.701 49.5891 345.127 49.5121 344.446 49.5121C343.546 49.5121 342.749 49.6743 342.057 49.9952C341.363 50.3185 340.782 50.7829 340.315 51.3921C339.847 51.9988 339.493 52.7352 339.256 53.5976C339.02 54.4623 338.901 55.4285 338.901 56.4985C338.901 57.6177 339.028 58.6107 339.284 59.4801C339.539 60.3494 339.898 61.0788 340.36 61.6681C340.822 62.2586 341.384 62.7078 342.048 63.0183C342.709 63.3275 343.455 63.4826 344.281 63.4826C345.072 63.4826 345.722 63.3894 346.233 63.2003C346.743 63.0124 347.169 62.8024 347.51 62.5713C347.85 62.3414 348.13 62.1313 348.347 61.9423C348.567 61.7545 348.785 61.66 349.005 61.66C349.285 61.66 349.491 61.7626 349.625 61.9692L350.537 63.1548C349.736 64.1408 348.731 64.8608 347.527 65.3159C346.324 65.7722 345.053 65.9997 343.716 65.9997C342.56 65.9997 341.488 65.7874 340.497 65.3615C339.506 64.9367 338.646 64.3193 337.917 63.5095C337.187 62.702 336.613 61.709 336.192 60.5292C335.773 59.3494 335.562 58.0062 335.562 56.4985C335.562 55.1239 335.754 53.8531 336.137 52.6861C336.522 51.5192 337.08 50.5134 337.816 49.6673C338.551 48.8236 339.461 48.1631 340.542 47.6893C341.625 47.2156 342.864 46.9775 344.262 46.9775C345.552 46.9775 346.694 47.1876 347.692 47.6077C348.689 48.0266 349.571 48.6194 350.336 49.3849L349.48 50.5519Z" fill="#3D4543"/>
<path d="M357.631 47.2705V59.0519C357.631 60.4511 357.953 61.5328 358.599 62.2983C359.243 63.0638 360.215 63.4465 361.516 63.4465C362.465 63.4465 363.358 63.2225 364.198 62.7721C365.037 62.3228 365.808 61.6961 366.513 60.8944V47.2705H369.76V65.7454H367.827C367.365 65.7454 367.073 65.5214 366.95 65.0709L366.696 63.0825C365.893 63.9705 364.995 64.6847 363.997 65.2262C363 65.7676 361.856 66.0372 360.568 66.0372C359.558 66.0372 358.669 65.8691 357.896 65.5354C357.123 65.2017 356.477 64.7302 355.954 64.1222C355.431 63.5143 355.039 62.7791 354.778 61.9156C354.515 61.0532 354.386 60.0975 354.386 59.0519V47.2705H357.631Z" fill="#3D4543"/>
<path d="M376.018 65.7453V47.2703H377.877C378.23 47.2703 378.473 47.3368 378.607 47.471C378.741 47.604 378.832 47.8351 378.88 48.1642L379.099 51.0453C379.732 49.757 380.514 48.7512 381.443 48.0265C382.372 47.303 383.465 46.9424 384.717 46.9424C385.228 46.9424 385.689 46.9995 386.103 47.1151C386.517 47.2306 386.899 47.3905 387.252 47.5982L386.832 50.0231C386.747 50.3277 386.559 50.4793 386.267 50.4793C386.096 50.4793 385.835 50.4222 385.483 50.3067C385.13 50.1911 384.637 50.1328 384.006 50.1328C382.875 50.1328 381.93 50.4607 381.17 51.1188C380.41 51.7746 379.775 52.7292 379.263 53.9814V65.7453H376.018Z" fill="#3D4543"/>
<path d="M395.239 65.7457H391.993V47.2707H395.239V65.7457ZM395.969 41.4699C395.969 41.7861 395.905 42.0802 395.778 42.3556C395.65 42.6287 395.479 42.8714 395.266 43.0849C395.055 43.2961 394.808 43.4641 394.527 43.5855C394.248 43.708 393.949 43.7687 393.634 43.7687C393.318 43.7687 393.023 43.708 392.75 43.5855C392.476 43.4641 392.233 43.2961 392.02 43.0849C391.807 42.8714 391.64 42.6287 391.519 42.3556C391.397 42.0802 391.337 41.7861 391.337 41.4699C391.337 41.1536 391.397 40.8537 391.519 40.5667C391.64 40.2819 391.807 40.0322 392.02 39.8198C392.233 39.6062 392.476 39.4406 392.75 39.318C393.023 39.1966 393.318 39.136 393.634 39.136C393.949 39.136 394.248 39.1966 394.527 39.318C394.808 39.4406 395.055 39.6062 395.266 39.8198C395.479 40.0322 395.65 40.2819 395.778 40.5667C395.905 40.8537 395.969 41.1536 395.969 41.4699Z" fill="#3D4543"/>
<path d="M407.476 66.0368C406.018 66.0368 404.895 65.6296 404.111 64.815C403.327 64.0006 402.934 62.8266 402.934 61.2956V49.9868H400.709C400.515 49.9868 400.352 49.9296 400.217 49.814C400.084 49.6985 400.016 49.52 400.016 49.2761V47.9808L403.044 47.598L403.792 41.8894C403.816 41.7062 403.896 41.558 404.029 41.4425C404.162 41.3269 404.334 41.2686 404.539 41.2686H406.182V47.6343H411.47V49.9868H406.182V61.0762C406.182 61.8546 406.37 62.4322 406.747 62.8079C407.122 63.186 407.609 63.3739 408.206 63.3739C408.546 63.3739 408.841 63.3284 409.09 63.2374C409.34 63.1451 409.554 63.046 409.737 62.9363C409.921 62.8266 410.076 62.7263 410.203 62.6352C410.331 62.5442 410.443 62.4987 410.541 62.4987C410.71 62.4987 410.861 62.6025 410.997 62.8079L411.945 64.3599C411.385 64.8828 410.71 65.2924 409.921 65.5899C409.13 65.8875 408.315 66.0368 407.476 66.0368Z" fill="#3D4543"/>
<path d="M421.813 71.1983C421.704 71.4422 421.567 71.6359 421.403 71.7818C421.239 71.9276 420.986 72 420.646 72H418.239L421.613 64.6693L413.989 47.2703H416.797C417.076 47.2703 417.296 47.3403 417.455 47.4803C417.611 47.6203 417.728 47.7755 417.801 47.9448L422.743 59.5815C422.853 59.8475 422.947 60.1159 423.025 60.3832C423.104 60.6515 423.175 60.9246 423.235 61.2046C423.321 60.9246 423.406 60.6515 423.49 60.3832C423.577 60.1159 423.673 59.8428 423.781 59.5628L428.579 47.9448C428.651 47.7499 428.777 47.59 428.954 47.4617C429.13 47.3344 429.321 47.2703 429.528 47.2703H432.117L421.813 71.1983Z" fill="#3D4543"/>
</g>
<defs>
<clipPath id="clip0_39_1457">
<rect width="466.22" height="72" fill="white"/>
</clipPath>
</defs>
</svg>
