<svg width="381" height="72" viewBox="0 0 381 72" fill="none" xmlns="http://www.w3.org/2000/svg">
<g clip-path="url(#clip0_40_1776)">
<path d="M35.3048 25.8468C37.9463 25.8468 40.4515 26.4267 42.703 27.4639C41.0969 22.8827 36.8368 17.1621 35.3048 15.1882C33.7729 17.1621 29.5127 22.8827 27.9067 27.4639C30.1582 26.4267 32.6634 25.8468 35.3048 25.8468Z" fill="#2B7DE1"/>
<path d="M70.6094 10.7002C60.5667 4.10341 48.945 0.24257 36.5425 0.000732422C42.7084 8.069 55.839 26.1896 61.9803 41.6892C66.614 32.3607 69.638 21.8715 70.6094 10.7002Z" fill="#3D4543"/>
<path d="M34.0673 0C21.6647 0.241832 10.0438 4.10268 0 10.6995C0.971596 21.8716 3.99539 32.3599 8.62943 41.6885C14.7707 26.1897 27.9013 8.06909 34.0673 0Z" fill="#3D4543"/>
<path d="M35.3053 38.2183C26.1581 38.2183 17.4487 40.0814 9.52686 43.4399C15.7754 55.3008 24.6731 65.1716 35.3053 72C45.9375 65.1716 54.8343 55.3008 61.0837 43.4399C53.1619 40.0814 44.4524 38.2183 35.3053 38.2183Z" fill="#3D4543"/>
<path d="M97.7439 18.018H92.1693L94.9976 9.19244C95.3855 10.4494 96.1704 12.9723 97.7439 18.018ZM97.8612 3H92.1017L82.2876 29.6863H88.1276L90.7078 22.3712H99.2175L101.78 29.6863H107.529L97.9552 3.25755L97.8612 3Z" fill="#3D4543"/>
<path d="M116.016 3H110.442V29.6682H126.691L126.862 25.0695H116.016V3Z" fill="#3D4543"/>
<path d="M129.774 29.6682H135.348V3H129.774V29.6682Z" fill="#3D4543"/>
<path d="M153.715 18.018H148.141L150.969 9.19244C151.357 10.4494 152.141 12.9723 153.715 18.018ZM153.833 3H148.072L138.26 29.6863H144.098L146.678 22.3712H155.189L157.751 29.6863H163.5L153.926 3.25755L153.833 3Z" fill="#3D4543"/>
<path d="M178.45 14.3265L176.292 13.6379C175.194 13.287 174.506 13.0595 174.204 12.9472C172.933 12.5583 172.342 11.7855 172.342 10.5286C172.384 9.48314 172.707 8.76544 173.331 8.33446C173.985 7.88243 174.995 7.65284 176.333 7.65284C178.246 7.65284 180.356 8.16509 182.604 9.17342L182.973 9.3388L184.709 5.14799L184.407 4.97659C182.095 3.66455 179.314 3 176.138 3C173.306 3 170.993 3.66854 169.264 4.98862C167.503 6.33276 166.61 8.26229 166.61 10.7241C166.61 14.2382 168.452 16.6699 172.073 17.9449C172.349 18.0532 172.802 18.2065 173.431 18.404C174.053 18.6004 174.718 18.8009 175.428 19.0084C176.131 19.2139 176.56 19.3392 176.719 19.3883C178.716 19.9636 179.686 20.9439 179.686 22.3863C179.686 23.4989 179.35 24.3238 178.66 24.9052C177.958 25.4946 176.884 25.7932 175.467 25.7932C174.271 25.7932 173.026 25.6078 171.768 25.2439C170.502 24.8761 169.312 24.388 168.234 23.7915L167.812 23.559L166.413 28.1177L166.683 28.273C169.204 29.7394 172.095 30.4822 175.273 30.4822C178.303 30.4822 180.755 29.7866 182.561 28.4144C184.398 27.0171 185.33 25.0004 185.33 22.4214C185.33 20.2714 184.783 18.5613 183.704 17.3385C182.643 16.1367 180.874 15.1233 178.45 14.3265Z" fill="#3D4543"/>
<path d="M215.21 10.6539C215.21 11.972 214.855 12.9312 214.153 13.5045C213.428 14.0969 212.178 14.3966 210.443 14.3966C210.254 14.3966 209.372 14.3936 207.794 14.3886C206.725 14.3836 205.978 14.3816 205.551 14.3796V7.33515H210.654C212.233 7.33515 213.41 7.61277 214.15 8.16005C214.863 8.68726 215.21 9.50321 215.21 10.6539ZM215.965 17.544C218.905 16.3361 220.394 13.9977 220.394 10.5837C220.394 9.37692 220.229 8.31243 219.902 7.41732C219.572 6.51318 219.112 5.76548 218.536 5.19813C217.964 4.63078 217.208 4.17575 216.292 3.844C215.401 3.5242 214.45 3.29973 213.468 3.17944C212.494 3.06014 211.333 3 210.018 3H200.031V29.7394H205.551V18.6115L209.17 18.6446C210.03 18.6446 210.621 18.6476 210.936 18.6536C211.254 19.2349 211.925 20.6081 212.93 22.7411L216.055 29.7394H222.164L218.04 21.1905C217.237 19.5346 216.554 18.3338 215.965 17.544Z" fill="#3D4543"/>
<path d="M243.474 23.4257C242.265 24.9713 240.507 25.7221 238.103 25.7221C235.698 25.7221 233.938 24.9683 232.721 23.4167C231.499 21.8581 230.879 19.6148 230.879 16.7501C230.879 13.8484 231.503 11.572 232.73 9.98433C233.953 8.40362 235.716 7.63585 238.119 7.63585C240.511 7.63585 242.262 8.40061 243.472 9.97433C244.69 11.557 245.308 13.8373 245.308 16.7501C245.308 19.6258 244.691 21.8721 243.474 23.4257ZM238.103 3C234.111 3 230.906 4.22386 228.579 6.63654C226.254 9.04411 225.076 12.429 225.076 16.697C225.076 20.9409 226.25 24.3218 228.568 26.7475C230.889 29.1781 234.092 30.411 238.085 30.411C242.066 30.411 245.264 29.1751 247.592 26.7395C249.915 24.3068 251.094 20.9349 251.094 16.715C251.094 12.4481 249.921 9.0602 247.609 6.64556C245.293 4.22686 242.094 3 238.103 3Z" fill="#3D4543"/>
<path d="M263.288 13.69H259.581V7.30004H262.316C264.231 7.30004 265.633 7.53857 266.483 8.01068C267.268 8.44669 267.65 9.24754 267.65 10.4594C267.65 12.6325 266.222 13.69 263.288 13.69ZM259.581 17.8126H263.218C265.047 17.8126 266.405 18.1103 267.253 18.6976C268.066 19.262 268.462 20.1791 268.462 21.5032C268.462 24.1403 266.787 25.4223 263.341 25.4223H259.581V17.8126ZM269.965 15.411C270.239 15.2696 270.495 15.1112 270.731 14.9349C271.244 14.554 271.653 14.154 271.947 13.746C272.237 13.3401 272.474 12.883 272.652 12.3829C272.826 11.8948 272.938 11.4487 272.989 11.0568C273.039 10.6769 273.063 10.286 273.063 9.89405C273.063 7.42528 272.149 5.62912 270.345 4.55659C268.606 3.52322 265.958 3 262.474 3H254.007V29.6682H263.995C267.118 29.6682 269.608 28.9957 271.394 27.6656C273.216 26.3104 274.141 24.3258 274.141 21.7678C274.141 20.0728 273.686 18.6225 272.787 17.4557C272.087 16.5486 271.142 15.863 269.965 15.411Z" fill="#3D4543"/>
<path d="M295.451 23.4257C294.241 24.9713 292.484 25.7221 290.079 25.7221C287.674 25.7221 285.914 24.9683 284.696 23.4167C283.475 21.8581 282.856 19.6148 282.856 16.7501C282.856 13.8484 283.479 11.572 284.708 9.98433C285.93 8.40362 287.694 7.63585 290.097 7.63585C292.488 7.63585 294.238 8.40061 295.449 9.97433C296.667 11.557 297.285 13.8373 297.285 16.7501C297.285 19.6258 296.668 21.8721 295.451 23.4257ZM290.079 3C286.088 3 282.883 4.22386 280.555 6.63654C278.23 9.04411 277.053 12.429 277.053 16.697C277.053 20.9409 278.227 24.3218 280.544 26.7475C282.866 29.1781 286.068 30.411 290.06 30.411C294.042 30.411 297.24 29.1751 299.568 26.7395C301.892 24.3068 303.07 20.9349 303.07 16.715C303.07 12.4481 301.898 9.0602 299.585 6.64556C297.269 4.22686 294.071 3 290.079 3Z" fill="#3D4543"/>
<path d="M305.983 7.61773H313.529V29.6682H319.119V7.61773H326.63V3H305.983V7.61773Z" fill="#3D4543"/>
<path d="M329.543 29.6682H335.118V3H329.543V29.6682Z" fill="#3D4543"/>
<path d="M351.09 7.65389C353.045 7.65389 355.022 8.25928 356.963 9.45111L357.356 9.69167L359.158 5.34751L358.89 5.16911C356.736 3.72973 354.077 3 350.985 3C347.145 3 343.992 4.25596 341.61 6.73374C339.234 9.20754 338.029 12.5232 338.029 16.5917C338.029 20.8677 339.182 24.2737 341.457 26.7184C343.738 29.1691 346.861 30.411 350.738 30.411C353.776 30.411 356.346 29.7986 358.377 28.5897L358.608 28.4524L357.838 23.9168L357.363 24.1574C355.296 25.2079 353.186 25.7411 351.09 25.7411C348.719 25.7411 346.949 24.9843 345.679 23.4287C344.407 21.8711 343.761 19.6188 343.761 16.7331C343.761 13.9516 344.429 11.7134 345.75 10.0785C347.068 8.44677 348.814 7.65389 351.09 7.65389Z" fill="#3D4543"/>
<path d="M379.36 17.3385C378.299 16.1367 376.532 15.1233 374.106 14.3265L371.949 13.6379C370.852 13.287 370.163 13.0595 369.859 12.9472C368.59 12.5583 367.999 11.7855 367.998 10.5286C368.04 9.48314 368.364 8.76544 368.987 8.33543C369.643 7.88243 370.651 7.65284 371.989 7.65284C373.904 7.65284 376.013 8.16509 378.261 9.17342L378.63 9.33978L380.365 5.14799L380.063 4.97659C377.753 3.66455 374.97 3 371.794 3C368.964 3 366.65 3.66854 364.922 4.98862C363.16 6.33381 362.267 8.26229 362.267 10.7241C362.267 14.2382 364.109 16.6699 367.728 17.9449C368.005 18.0532 368.458 18.2065 369.088 18.404C369.709 18.6004 370.374 18.8009 371.084 19.0084C371.788 19.2139 372.217 19.3392 372.376 19.3883C374.371 19.9636 375.343 20.9439 375.343 22.3863C375.343 23.4989 375.007 24.3238 374.317 24.9052C373.616 25.4946 372.541 25.7942 371.123 25.7942C369.928 25.7942 368.684 25.6078 367.425 25.2439C366.158 24.8771 364.97 24.388 363.89 23.7915L363.469 23.559L362.07 28.1177L362.339 28.273C364.862 29.7394 367.752 30.4822 370.93 30.4822C373.959 30.4822 376.412 29.7866 378.216 28.4144C380.054 27.0171 380.986 25.0014 380.986 22.4214C380.986 20.2714 380.439 18.5613 379.36 17.3385Z" fill="#3D4543"/>
<path d="M84.9636 52.49H88.0813C88.9508 52.49 89.7164 52.3859 90.3766 52.1756C91.0368 51.9654 91.5887 51.6686 92.0345 51.2845C92.4796 50.9003 92.8149 50.4424 93.0411 49.9099C93.2651 49.3774 93.3778 48.7888 93.3778 48.1443C93.3778 46.8336 92.9453 45.8452 92.0809 45.181C91.2151 44.5148 89.9286 44.1828 88.2191 44.1828H84.9636V52.49ZM84.9636 54.6545V63.8382H82V41.8325H88.2191C89.6103 41.8325 90.8136 41.974 91.8275 42.2551C92.8414 42.537 93.6777 42.9438 94.3379 43.4754C94.9982 44.0078 95.4874 44.6504 95.8043 45.4031C96.1211 46.1557 96.281 46.9977 96.281 47.9292C96.281 48.7073 96.158 49.4343 95.9126 50.1093C95.6672 50.7854 95.3106 51.3926 94.8449 51.93C94.3792 52.4674 93.8111 52.9243 93.1398 53.3036C92.47 53.6828 91.7096 53.9697 90.86 54.1633C91.2284 54.3785 91.5563 54.6909 91.8429 55.1006L98.261 63.8382H95.6208C95.0778 63.8382 94.6784 63.628 94.4219 63.2084L88.7098 55.3462C88.5359 55.1006 88.3466 54.9247 88.1424 54.8157C87.9369 54.7086 87.6303 54.6545 87.2206 54.6545H84.9636Z" fill="#3D4543"/>
<path d="M107.634 61.5387C109.169 61.5387 110.316 61.0248 111.073 59.9961C111.831 58.9674 112.21 57.5309 112.21 55.6887C112.21 53.8356 111.831 52.3913 111.073 51.3587C110.316 50.3241 109.169 49.8073 107.634 49.8073C106.856 49.8073 106.181 49.9399 105.607 50.2062C105.034 50.4724 104.556 50.8566 104.171 51.3587C103.787 51.8598 103.501 52.4758 103.312 53.2078C103.122 53.9408 103.028 54.7671 103.028 55.6887C103.028 56.6093 103.122 57.4337 103.312 58.1608C103.501 58.8878 103.787 59.4999 104.171 59.9961C104.556 60.4933 105.034 60.8735 105.607 61.1397C106.181 61.4061 106.856 61.5387 107.634 61.5387ZM107.634 47.6575C108.771 47.6575 109.797 47.8461 110.713 48.2254C111.628 48.6047 112.406 49.1421 113.048 49.8377C113.687 50.5343 114.178 51.3754 114.521 52.3638C114.864 53.3522 115.035 54.4546 115.035 55.673C115.035 56.9011 114.864 58.0065 114.521 58.99C114.178 59.9725 113.687 60.8126 113.048 61.5082C112.406 62.2049 111.628 62.7403 110.713 63.1137C109.797 63.486 108.771 63.6737 107.634 63.6737C106.498 63.6737 105.471 63.486 104.556 63.1137C103.64 62.7403 102.859 62.2049 102.214 61.5082C101.569 60.8126 101.072 59.9725 100.724 58.99C100.377 58.0065 100.203 56.9011 100.203 55.673C100.203 54.4546 100.377 53.3522 100.724 52.3638C101.072 51.3754 101.569 50.5343 102.214 49.8377C102.859 49.1421 103.64 48.6047 104.556 48.2254C105.471 47.8461 106.498 47.6575 107.634 47.6575Z" fill="#3D4543"/>
<path d="M123.916 49.8598C123.025 49.8598 122.245 50.0651 121.575 50.4738C120.904 50.8835 120.287 51.4623 119.724 52.2099V59.7342C120.216 60.4092 120.761 60.8857 121.359 61.1618C121.958 61.4379 122.627 61.5764 123.364 61.5764C124.817 61.5764 125.932 61.0596 126.71 60.026C127.489 58.9923 127.878 57.5176 127.878 55.6037C127.878 54.5897 127.788 53.7201 127.609 52.9921C127.43 52.266 127.172 51.6696 126.834 51.2039C126.495 50.7381 126.081 50.3972 125.59 50.182C125.098 49.9669 124.54 49.8598 123.916 49.8598ZM116.977 63.4806V40.8618H119.724V50.1663C120.37 49.4206 121.109 48.8183 121.943 48.3633C122.778 47.9075 123.733 47.6795 124.806 47.6795C125.708 47.6795 126.521 47.8486 127.249 48.1865C127.975 48.5245 128.594 49.0276 129.106 49.6986C129.618 50.3697 130.012 51.198 130.288 52.1864C130.565 53.1748 130.703 54.3126 130.703 55.6037C130.703 56.7503 130.549 57.8173 130.241 58.8047C129.935 59.7922 129.493 60.647 128.914 61.3691C128.336 62.0913 127.629 62.6591 126.795 63.0738C125.961 63.4884 125.022 63.6957 123.977 63.6957C122.975 63.6957 122.123 63.5012 121.421 63.1121C120.72 62.724 120.108 62.1807 119.586 61.4841L119.447 62.8979C119.365 63.286 119.13 63.4806 118.741 63.4806H116.977Z" fill="#3D4543"/>
<path d="M140.076 61.5387C141.612 61.5387 142.758 61.0248 143.516 59.9961C144.273 58.9674 144.652 57.5309 144.652 55.6887C144.652 53.8356 144.273 52.3913 143.516 51.3587C142.758 50.3241 141.612 49.8073 140.076 49.8073C139.298 49.8073 138.623 49.9399 138.049 50.2062C137.476 50.4724 136.997 50.8566 136.613 51.3587C136.23 51.8598 135.942 52.4758 135.754 53.2078C135.564 53.9408 135.47 54.7671 135.47 55.6887C135.47 56.6093 135.564 57.4337 135.754 58.1608C135.942 58.8878 136.23 59.4999 136.613 59.9961C136.997 60.4933 137.476 60.8735 138.049 61.1397C138.623 61.4061 139.298 61.5387 140.076 61.5387ZM140.076 47.6575C141.212 47.6575 142.238 47.8461 143.155 48.2254C144.07 48.6047 144.849 49.1421 145.489 49.8377C146.129 50.5343 146.62 51.3754 146.963 52.3638C147.306 53.3522 147.477 54.4546 147.477 55.673C147.477 56.9011 147.306 58.0065 146.963 58.99C146.62 59.9725 146.129 60.8126 145.489 61.5082C144.849 62.2049 144.07 62.7403 143.155 63.1137C142.238 63.486 141.212 63.6737 140.076 63.6737C138.94 63.6737 137.913 63.486 136.997 63.1137C136.082 62.7403 135.301 62.2049 134.656 61.5082C134.011 60.8126 133.514 59.9725 133.166 58.99C132.818 58.0065 132.644 56.9011 132.644 55.673C132.644 54.4546 132.818 53.3522 133.166 52.3638C133.514 51.3754 134.011 50.5343 134.656 49.8377C135.301 49.1421 136.082 48.6047 136.997 48.2254C137.913 47.8461 138.94 47.6575 140.076 47.6575Z" fill="#3D4543"/>
<path d="M155.699 63.6579C154.472 63.6579 153.526 63.315 152.866 62.6292C152.206 61.9434 151.876 60.9549 151.876 59.6659V50.1442H150.002C149.839 50.1442 149.701 50.096 149.588 49.9988C149.476 49.9015 149.418 49.7512 149.418 49.5459V48.4553L151.968 48.1329L152.598 43.3265C152.618 43.1722 152.686 43.0474 152.798 42.9501C152.91 42.8529 153.054 42.8037 153.227 42.8037H154.61V48.1635H159.062V50.1442H154.61V59.4812C154.61 60.1365 154.768 60.6229 155.086 60.9393C155.402 61.2576 155.811 61.4158 156.314 61.4158C156.601 61.4158 156.849 61.3775 157.058 61.3008C157.269 61.2232 157.449 61.1397 157.603 61.0474C157.758 60.9549 157.889 60.8705 157.995 60.7939C158.103 60.7172 158.197 60.6789 158.28 60.6789C158.422 60.6789 158.55 60.7663 158.664 60.9393L159.462 62.246C158.991 62.6862 158.422 63.0311 157.758 63.2816C157.092 63.5322 156.406 63.6579 155.699 63.6579Z" fill="#3D4543"/>
<path d="M185.431 59.5387C185.595 59.5387 185.742 59.6045 185.876 59.7382L187.044 61.0125C186.143 62.0569 185.049 62.8714 183.766 63.454C182.48 64.0377 180.932 64.3295 179.12 64.3295C177.533 64.3295 176.095 64.0564 174.806 63.5081C173.516 62.9599 172.416 62.1925 171.503 61.2041C170.592 60.2166 169.887 59.0317 169.386 57.6493C168.883 56.2678 168.632 54.7469 168.632 53.0894C168.632 51.4299 168.901 49.9099 169.439 48.5285C169.977 47.1461 170.73 45.9591 171.703 44.9658C172.676 43.9725 173.84 43.2022 175.196 42.6539C176.554 42.1066 178.05 41.8325 179.688 41.8325C181.306 41.8325 182.701 42.0831 183.873 42.5851C185.044 43.0872 186.086 43.7671 186.997 44.6278L186.03 45.9945C185.958 46.0967 185.876 46.1812 185.784 46.248C185.692 46.3148 185.559 46.3473 185.385 46.3473C185.252 46.3473 185.111 46.2991 184.963 46.2018C184.814 46.1045 184.637 45.9837 184.433 45.8412C184.227 45.6978 183.988 45.5445 183.712 45.3805C183.436 45.2163 183.107 45.0631 182.729 44.9196C182.349 44.7762 181.91 44.6563 181.408 44.559C180.907 44.4608 180.328 44.4126 179.673 44.4126C178.495 44.4126 177.418 44.615 176.442 45.0198C175.463 45.4236 174.621 45.9994 173.914 46.7461C173.209 47.4939 172.658 48.4056 172.264 49.4806C171.87 50.5544 171.673 51.758 171.673 53.0894C171.673 54.4609 171.87 55.6842 172.264 56.7591C172.658 57.834 173.195 58.7419 173.876 59.4847C174.557 60.2264 175.364 60.7924 176.295 61.1814C177.226 61.5705 178.229 61.7651 179.304 61.7651C179.96 61.7651 180.548 61.7267 181.071 61.6491C181.592 61.5725 182.076 61.4526 182.521 61.2886C182.966 61.1254 183.381 60.9181 183.766 60.6666C184.149 60.4171 184.535 60.1174 184.924 59.7686C185.098 59.6153 185.267 59.5387 185.431 59.5387Z" fill="#3D4543"/>
<path d="M195.575 68.7749C195.483 68.9803 195.368 69.1434 195.229 69.2662C195.091 69.389 194.878 69.4499 194.593 69.4499H192.565L195.406 63.2777L188.987 48.6282H191.353C191.587 48.6282 191.772 48.6871 191.905 48.805C192.037 48.9229 192.135 49.0536 192.197 49.1961L196.358 58.9939C196.45 59.2179 196.53 59.4438 196.596 59.6689C196.662 59.8948 196.721 60.1247 196.773 60.3605C196.844 60.1247 196.916 59.8948 196.987 59.6689C197.06 59.4438 197.141 59.2139 197.233 58.9781L201.271 49.1961C201.333 49.032 201.439 48.8974 201.587 48.7893C201.735 48.6822 201.896 48.6282 202.07 48.6282H204.251L195.575 68.7749Z" fill="#3D4543"/>
<path d="M213.131 49.8598C212.24 49.8598 211.46 50.0651 210.789 50.4738C210.119 50.8835 209.502 51.4623 208.938 52.2099V59.7342C209.431 60.4092 209.976 60.8857 210.574 61.1618C211.173 61.4379 211.842 61.5764 212.578 61.5764C214.032 61.5764 215.147 61.0596 215.925 60.026C216.703 58.9923 217.092 57.5176 217.092 55.6037C217.092 54.5897 217.003 53.7201 216.824 52.9921C216.644 52.266 216.387 51.6696 216.048 51.2039C215.71 50.7381 215.296 50.3972 214.805 50.182C214.313 49.9669 213.755 49.8598 213.131 49.8598ZM206.191 63.4806V40.8618H208.938V50.1663C209.585 49.4206 210.324 48.8183 211.158 48.3633C211.993 47.9075 212.948 47.6795 214.021 47.6795C214.922 47.6795 215.736 47.8486 216.464 48.1865C217.19 48.5245 217.809 49.0276 218.321 49.6986C218.833 50.3697 219.226 51.198 219.503 52.1864C219.78 53.1748 219.918 54.3126 219.918 55.6037C219.918 56.7503 219.764 57.8173 219.456 58.8047C219.15 59.7922 218.708 60.647 218.129 61.3691C217.551 62.0913 216.844 62.6591 216.01 63.0738C215.176 63.4884 214.236 63.6957 213.192 63.6957C212.189 63.6957 211.338 63.5012 210.636 63.1121C209.935 62.724 209.323 62.1807 208.801 61.4841L208.662 62.8979C208.58 63.286 208.345 63.4806 207.955 63.4806H206.191Z" fill="#3D4543"/>
<path d="M229.184 49.6688C227.863 49.6688 226.824 50.0509 226.066 50.8124C225.309 51.5748 224.838 52.633 224.654 53.984H233.114C233.114 53.3493 233.028 52.7686 232.853 52.241C232.68 51.7134 232.424 51.2585 232.085 50.8743C231.748 50.4901 231.335 50.1934 230.85 49.9831C230.363 49.7738 229.809 49.6688 229.184 49.6688ZM229.123 47.6575C230.054 47.6575 230.914 47.8127 231.702 48.1261C232.491 48.4376 233.172 48.8886 233.745 49.4772C234.318 50.0657 234.766 50.7927 235.088 51.6573C235.41 52.522 235.572 53.5075 235.572 54.6138C235.572 55.0441 235.525 55.33 235.433 55.4735C235.342 55.617 235.168 55.6887 234.911 55.6887H224.562C224.581 56.6712 224.715 57.526 224.961 58.2531C225.206 58.9802 225.544 59.5864 225.974 60.0727C226.405 60.5591 226.916 60.9227 227.51 61.1624C228.103 61.4031 228.769 61.5229 229.506 61.5229C230.192 61.5229 230.783 61.4444 231.28 61.2852C231.776 61.127 232.203 60.9551 232.561 60.7713C232.921 60.5866 233.22 60.4157 233.461 60.2565C233.701 60.0983 233.908 60.0187 234.082 60.0187C234.307 60.0187 234.482 60.1062 234.605 60.2801L235.372 61.2773C235.034 61.687 234.629 62.0437 234.159 62.3453C233.688 62.648 233.183 62.8955 232.645 63.0901C232.109 63.2846 231.553 63.431 230.98 63.5273C230.407 63.6246 229.839 63.6737 229.276 63.6737C228.201 63.6737 227.21 63.4919 226.305 63.1284C225.398 62.7649 224.616 62.2323 223.956 61.5308C223.296 60.8302 222.78 59.9637 222.411 58.9291C222.043 57.8944 221.859 56.7076 221.859 55.3664C221.859 54.2807 222.026 53.2678 222.358 52.3255C222.691 51.3832 223.169 50.5667 223.794 49.876C224.418 49.1854 225.181 48.643 226.082 48.249C226.983 47.854 227.997 47.6575 229.123 47.6575Z" fill="#3D4543"/>
<path d="M237.513 63.489V47.9336H239.079C239.376 47.9336 239.58 47.9896 239.694 48.1026C239.806 48.2146 239.883 48.4091 239.923 48.6862L240.108 51.112C240.64 50.0273 241.298 49.1804 242.081 48.5703C242.864 47.9611 243.783 47.6575 244.838 47.6575C245.268 47.6575 245.656 47.7056 246.005 47.8029C246.353 47.9001 246.675 48.0348 246.971 48.2096L246.619 50.2513C246.546 50.5078 246.388 50.6355 246.143 50.6355C245.999 50.6355 245.779 50.5874 245.482 50.4901C245.185 50.3928 244.771 50.3437 244.238 50.3437C243.286 50.3437 242.491 50.6198 241.851 51.1739C241.211 51.7261 240.677 52.5298 240.245 53.5841V63.489H237.513Z" fill="#3D4543"/>
<path d="M259.109 50.4665C258.987 50.6915 258.799 50.8045 258.542 50.8045C258.389 50.8045 258.213 50.7485 258.02 50.6355C257.824 50.5235 257.587 50.3978 257.306 50.2592C257.024 50.1207 256.689 49.9939 256.3 49.875C255.911 49.7581 255.45 49.6992 254.917 49.6992C254.458 49.6992 254.043 49.7581 253.674 49.875C253.305 49.9939 252.99 50.155 252.73 50.3595C252.468 50.5647 252.268 50.8025 252.13 51.0737C251.993 51.3449 251.924 51.6387 251.924 51.957C251.924 52.3559 252.039 52.689 252.268 52.9543C252.498 53.2216 252.804 53.4515 253.182 53.645C253.562 53.8406 253.991 54.0115 254.472 54.1598C254.954 54.3082 255.447 54.4664 255.954 54.6364C256.461 54.8054 256.955 54.9911 257.437 55.1964C257.917 55.4008 258.348 55.6572 258.726 55.9647C259.105 56.2713 259.409 56.6476 259.639 57.0927C259.869 57.5378 259.985 58.0733 259.985 58.6982C259.985 59.4144 259.857 60.0776 259.601 60.6858C259.345 61.295 258.967 61.8236 258.465 62.2687C257.963 62.7137 257.349 63.0635 256.622 63.32C255.896 63.5764 255.056 63.7041 254.104 63.7041C253.019 63.7041 252.036 63.5273 251.156 63.1745C250.275 62.8208 249.527 62.3679 248.914 61.8157L249.558 60.7703C249.641 60.6386 249.738 60.5355 249.851 60.4638C249.963 60.393 250.112 60.3557 250.296 60.3557C250.481 60.3557 250.674 60.4284 250.88 60.5708C251.084 60.7153 251.333 60.8735 251.624 61.0474C251.916 61.2213 252.268 61.3794 252.683 61.5229C253.098 61.6664 253.618 61.739 254.243 61.739C254.774 61.739 255.241 61.6693 255.64 61.5308C256.038 61.3923 256.371 61.2066 256.637 60.9697C256.904 60.7349 257.101 60.4638 257.229 60.1562C257.357 59.8496 257.421 59.5225 257.421 59.1737C257.421 58.7443 257.306 58.3887 257.076 58.1067C256.844 57.8247 256.541 57.584 256.161 57.3845C255.782 57.185 255.351 57.0111 254.864 56.8628C254.378 56.7144 253.882 56.5582 253.375 56.3941C252.867 56.23 252.372 56.0443 251.885 55.8341C251.398 55.6238 250.966 55.3595 250.588 55.0432C250.208 54.7258 249.905 54.3347 249.674 53.868C249.443 53.4023 249.328 52.8373 249.328 52.1712C249.328 51.5778 249.451 51.0069 249.697 50.4586C249.943 49.9124 250.301 49.4299 250.773 49.0154C251.242 48.6017 251.82 48.2715 252.506 48.0259C253.193 47.7803 253.975 47.6575 254.856 47.6575C255.881 47.6575 256.798 47.8186 257.614 48.1409C258.427 48.4631 259.13 48.9053 259.724 49.4682L259.109 50.4665Z" fill="#3D4543"/>
<path d="M269.251 49.6688C267.931 49.6688 266.892 50.0509 266.134 50.8124C265.377 51.5748 264.906 52.633 264.722 53.984H273.182C273.182 53.3493 273.096 52.7686 272.921 52.241C272.748 51.7134 272.492 51.2585 272.154 50.8743C271.815 50.4901 271.403 50.1934 270.918 49.9831C270.432 49.7738 269.876 49.6688 269.251 49.6688ZM269.191 47.6575C270.122 47.6575 270.981 47.8127 271.77 48.1261C272.558 48.4376 273.239 48.8886 273.813 49.4772C274.386 50.0657 274.834 50.7927 275.156 51.6573C275.478 52.522 275.64 53.5075 275.64 54.6138C275.64 55.0441 275.593 55.33 275.501 55.4735C275.41 55.617 275.236 55.6887 274.979 55.6887H264.63C264.649 56.6712 264.783 57.526 265.029 58.2531C265.274 58.9802 265.613 59.5864 266.041 60.0727C266.473 60.5591 266.984 60.9227 267.578 61.1624C268.172 61.4031 268.837 61.5229 269.574 61.5229C270.259 61.5229 270.851 61.4444 271.348 61.2852C271.844 61.127 272.272 60.9551 272.629 60.7713C272.988 60.5866 273.288 60.4157 273.529 60.2565C273.769 60.0983 273.976 60.0187 274.15 60.0187C274.375 60.0187 274.55 60.1062 274.673 60.2801L275.44 61.2773C275.102 61.687 274.697 62.0437 274.226 62.3453C273.756 62.648 273.251 62.8955 272.714 63.0901C272.177 63.2846 271.621 63.431 271.048 63.5273C270.474 63.6246 269.907 63.6737 269.344 63.6737C268.269 63.6737 267.279 63.4919 266.373 63.1284C265.466 62.7649 264.684 62.2323 264.024 61.5308C263.364 60.8302 262.849 59.9637 262.479 58.9291C262.111 57.8944 261.927 56.7076 261.927 55.3664C261.927 54.2807 262.094 53.2678 262.426 52.3255C262.759 51.3832 263.238 50.5667 263.862 49.876C264.487 49.1854 265.249 48.643 266.15 48.249C267.051 47.854 268.065 47.6575 269.191 47.6575Z" fill="#3D4543"/>
<path d="M289.298 50.667C289.216 50.7799 289.134 50.8664 289.052 50.9293C288.969 50.9902 288.852 51.0207 288.698 51.0207C288.544 51.0207 288.378 50.9568 288.199 50.828C288.02 50.7003 287.793 50.5598 287.516 50.4056C287.239 50.2523 286.903 50.1128 286.511 49.9841C286.116 49.8564 285.633 49.7915 285.06 49.7915C284.302 49.7915 283.631 49.9281 283.048 50.1983C282.464 50.4704 281.975 50.8615 281.582 51.3744C281.187 51.8853 280.89 52.5052 280.69 53.2314C280.491 53.9594 280.392 54.7729 280.392 55.6739C280.392 56.6161 280.499 57.4523 280.714 58.1843C280.928 58.9162 281.231 59.5303 281.62 60.0265C282.009 60.5237 282.482 60.9019 283.041 61.1633C283.598 61.4237 284.226 61.5543 284.921 61.5543C285.587 61.5543 286.134 61.4758 286.564 61.3166C286.994 61.1584 287.353 60.9815 287.639 60.787C287.926 60.5934 288.161 60.4165 288.345 60.2574C288.53 60.0992 288.713 60.0196 288.898 60.0196C289.134 60.0196 289.308 60.1061 289.42 60.28L290.188 61.2783C289.513 62.1085 288.667 62.7147 287.654 63.0979C286.641 63.482 285.571 63.6736 284.445 63.6736C283.472 63.6736 282.569 63.4949 281.735 63.1362C280.901 62.7786 280.177 62.2588 279.563 61.5769C278.948 60.897 278.465 60.0609 278.11 59.0676C277.757 58.0742 277.581 56.9433 277.581 55.6739C277.581 54.5165 277.742 53.4465 278.064 52.464C278.388 51.4814 278.858 50.6345 279.478 49.9222C280.097 49.2118 280.863 48.6557 281.773 48.2568C282.685 47.8579 283.728 47.6575 284.905 47.6575C285.991 47.6575 286.953 47.8343 287.793 48.188C288.632 48.5407 289.375 49.0399 290.019 49.6844L289.298 50.667Z" fill="#3D4543"/>
<path d="M294.863 48.6282V58.5478C294.863 59.7258 295.134 60.6366 295.678 61.2811C296.22 61.9257 297.038 62.2479 298.134 62.2479C298.932 62.2479 299.685 62.0593 300.391 61.6801C301.098 61.3018 301.747 60.7741 302.34 60.0992V48.6282H305.075V64.1836H303.447C303.058 64.1836 302.812 63.9949 302.709 63.6156L302.495 61.9414C301.819 62.6891 301.063 63.2904 300.223 63.7463C299.383 64.2022 298.42 64.4292 297.336 64.4292C296.485 64.4292 295.737 64.2877 295.086 64.0067C294.435 63.7257 293.891 63.3288 293.451 62.8168C293.01 62.305 292.68 61.686 292.46 60.9589C292.239 60.2328 292.13 59.4281 292.13 58.5478V48.6282H294.863Z" fill="#3D4543"/>
<path d="M307.016 63.489V47.9336H308.582C308.879 47.9336 309.083 47.9896 309.196 48.1026C309.309 48.2146 309.386 48.4091 309.426 48.6862L309.611 51.112C310.143 50.0273 310.801 49.1804 311.584 48.5703C312.366 47.9611 313.286 47.6575 314.34 47.6575C314.771 47.6575 315.159 47.7056 315.508 47.8029C315.855 47.9001 316.177 48.0348 316.474 48.2096L316.121 50.2513C316.049 50.5078 315.891 50.6355 315.645 50.6355C315.502 50.6355 315.281 50.5874 314.985 50.4901C314.688 50.3928 314.273 50.3437 313.741 50.3437C312.789 50.3437 311.994 50.6198 311.354 51.1739C310.714 51.7261 310.179 52.5298 309.748 53.5841V63.489H307.016Z" fill="#3D4543"/>
<path d="M321.701 63.2664H318.969V47.7111H321.701V63.2664ZM322.317 42.8269C322.317 43.0931 322.263 43.3407 322.155 43.5726C322.048 43.8026 321.904 44.0069 321.724 44.1867C321.547 44.3645 321.339 44.506 321.102 44.6082C320.867 44.7114 320.616 44.7624 320.351 44.7624C320.085 44.7624 319.836 44.7114 319.606 44.6082C319.376 44.506 319.171 44.3645 318.992 44.1867C318.812 44.0069 318.671 43.8026 318.57 43.5726C318.467 43.3407 318.417 43.0931 318.417 42.8269C318.417 42.5606 318.467 42.3081 318.57 42.0664C318.671 41.8266 318.812 41.6164 318.992 41.4376C319.171 41.2578 319.376 41.1183 319.606 41.0151C319.836 40.9129 320.085 40.8618 320.351 40.8618C320.616 40.8618 320.867 40.9129 321.102 41.0151C321.339 41.1183 321.547 41.2578 321.724 41.4376C321.904 41.6164 322.048 41.8266 322.155 42.0664C322.263 42.3081 322.317 42.5606 322.317 42.8269Z" fill="#3D4543"/>
<path d="M330.539 63.6579C329.312 63.6579 328.366 63.315 327.706 62.6292C327.046 61.9434 326.716 60.9549 326.716 59.6659V50.1442H324.842C324.679 50.1442 324.541 50.096 324.428 49.9988C324.316 49.9015 324.258 49.7512 324.258 49.5459V48.4553L326.808 48.1329L327.438 43.3265C327.458 43.1722 327.526 43.0474 327.638 42.9501C327.75 42.8529 327.894 42.8037 328.066 42.8037H329.45V48.1635H333.902V50.1442H329.45V59.4812C329.45 60.1365 329.608 60.6229 329.925 60.9393C330.242 61.2576 330.651 61.4158 331.154 61.4158C331.44 61.4158 331.689 61.3775 331.898 61.3008C332.109 61.2232 332.289 61.1397 332.443 61.0474C332.598 60.9549 332.728 60.8705 332.835 60.7939C332.943 60.7172 333.037 60.6789 333.12 60.6789C333.262 60.6789 333.389 60.7663 333.504 60.9393L334.302 62.246C333.831 62.6862 333.262 63.0311 332.598 63.2816C331.932 63.5322 331.246 63.6579 330.539 63.6579Z" fill="#3D4543"/>
<path d="M342.83 68.7749C342.738 68.9803 342.623 69.1434 342.485 69.2662C342.347 69.389 342.134 69.4499 341.848 69.4499H339.821L342.661 63.2777L336.243 48.6282H338.607C338.842 48.6282 339.027 48.6871 339.161 48.805C339.293 48.9229 339.391 49.0536 339.452 49.1961L343.613 58.9939C343.706 59.2179 343.785 59.4438 343.851 59.6689C343.917 59.8948 343.977 60.1247 344.028 60.3605C344.1 60.1247 344.171 59.8948 344.242 59.6689C344.315 59.4438 344.396 59.2139 344.487 58.9781L348.527 49.1961C348.587 49.032 348.693 48.8974 348.842 48.7893C348.99 48.6822 349.152 48.6282 349.326 48.6282H351.505L342.83 68.7749Z" fill="#3D4543"/>
</g>
<defs>
<clipPath id="clip0_40_1776">
<rect width="380.99" height="72" fill="white"/>
</clipPath>
</defs>
</svg>
