
<svg width="1521" height="311" viewBox="0 0 1521 311" fill="none" xmlns="http://www.w3.org/2000/svg">
<path d="M152.483 111.634C163.892 111.634 174.712 114.138 184.436 118.618C177.499 98.8314 159.099 74.1241 152.483 65.5989C145.867 74.1241 127.467 98.8314 120.53 118.618C130.254 114.138 141.074 111.634 152.483 111.634Z" fill="#2B7DE1"/>
<path d="M304.965 46.2141C261.59 17.7223 211.396 1.04719 157.829 0.00268555C184.459 34.8497 241.171 113.113 267.695 180.056C287.709 139.766 300.77 94.463 304.965 46.2141Z" fill="#3D4543"/>
<path d="M147.138 0C93.5707 1.04448 43.3798 17.7196 0 46.2114C4.19636 94.4639 17.2562 139.763 37.2708 180.054C63.7951 113.114 120.507 34.8506 147.138 0Z" fill="#3D4543"/>
<path d="M152.485 165.066C112.978 165.066 75.3616 173.113 41.147 187.618C68.1347 238.846 106.564 281.478 152.485 310.97C198.406 281.478 236.832 238.846 263.823 187.618C229.609 173.113 191.992 165.066 152.485 165.066Z" fill="#3D4543"/>
<path d="M410.738 79.6585H387.108L399.097 42.2485C400.741 47.5764 404.068 58.2704 410.738 79.6585ZM411.235 16H386.822L345.222 129.118H369.976L380.913 98.1108H416.984L427.845 129.118H452.217L411.634 17.0917L411.235 16Z" fill="#3D4543"/>
<path d="M480.076 16H456.45V129.041H525.328L526.052 109.548H480.076V16Z" fill="#3D4543"/>
<path d="M530.292 129.041H553.916V16H530.292V129.041Z" fill="#3D4543"/>
<path d="M623.668 79.6585H600.044L612.03 42.2485C613.674 47.5764 616.998 58.2704 623.668 79.6585ZM624.168 16H599.751L558.158 129.118H582.906L593.843 98.1108H629.917L640.777 129.118H665.147L624.563 17.0917L624.168 16Z" fill="#3D4543"/>
<path d="M720.407 64.0107L711.261 61.0918C706.609 59.6046 703.69 58.6401 702.409 58.1643C697.023 56.5159 694.518 53.2402 694.518 47.9123C694.697 43.4807 696.067 40.4385 698.712 38.6117C701.481 36.6956 705.764 35.7225 711.434 35.7225C719.544 35.7225 728.489 37.8938 738.017 42.1679L739.579 42.8689L746.937 25.1049L745.659 24.3784C735.86 18.8169 724.069 16 710.608 16C698.604 16 688.801 18.8338 681.472 24.4294C674.008 30.1269 670.222 38.3058 670.222 48.7408C670.222 63.6366 678.027 73.9441 693.377 79.3485C694.547 79.8073 696.469 80.4574 699.136 81.2945C701.771 82.1271 704.588 82.977 707.6 83.8565C710.579 84.7273 712.396 85.2585 713.072 85.4666C721.536 87.9053 725.65 92.0605 725.65 98.1746C725.65 102.891 724.225 106.387 721.3 108.852C718.323 111.35 713.769 112.616 707.762 112.616C702.696 112.616 697.418 111.83 692.084 110.288C686.717 108.728 681.676 106.659 677.106 104.131L675.315 103.146L669.384 122.469L670.528 123.127C681.217 129.343 693.473 132.491 706.94 132.491C719.786 132.491 730.178 129.543 737.833 123.726C745.621 117.804 749.573 109.255 749.573 98.3234C749.573 89.2099 747.253 81.9614 742.68 76.7779C738.18 71.6839 730.685 67.3884 720.407 64.0107Z" fill="#3D4543"/>
<path d="M874.739 48.4431C874.739 54.0304 873.235 58.0965 870.258 60.5265C867.186 63.0375 861.89 64.308 854.532 64.308C853.732 64.308 849.994 64.2952 843.305 64.2739C838.773 64.2529 835.606 64.2442 833.796 64.2356V34.3758H855.427C862.119 34.3758 867.11 35.5526 870.246 37.8724C873.27 40.1071 874.739 43.5658 874.739 48.4431ZM877.939 77.6491C890.402 72.5293 896.715 62.6169 896.715 48.1458C896.715 43.0305 896.014 38.5183 894.631 34.7241C893.229 30.8917 891.282 27.7223 888.837 25.3175C886.412 22.9126 883.209 20.9838 879.325 19.5775C875.548 18.222 871.52 17.2705 867.355 16.7606C863.229 16.2549 858.308 16 852.734 16H810.398V129.343H833.796V82.174L849.14 82.3142C852.782 82.3142 855.287 82.3269 856.622 82.3524C857.974 84.8166 860.816 90.6374 865.077 99.6786L878.321 129.343H904.217L886.734 93.1057C883.331 86.087 880.437 80.9969 877.939 77.6491Z" fill="#3D4543"/>
<path d="M986.442 102.581C981.315 109.132 973.864 112.314 963.673 112.314C953.478 112.314 946.018 109.119 940.859 102.542C935.68 95.9356 933.055 86.427 933.055 74.284C933.055 61.984 935.696 52.3352 940.9 45.6052C946.085 38.9048 953.558 35.6504 963.743 35.6504C973.883 35.6504 981.302 38.8921 986.433 45.5628C991.595 52.2714 994.215 61.9372 994.215 74.284C994.215 86.4735 991.602 95.9949 986.442 102.581ZM963.673 16C946.751 16 933.169 21.1877 923.303 31.4146C913.45 41.6198 908.456 55.9678 908.456 74.0588C908.456 92.048 913.431 106.379 923.255 116.661C933.096 126.964 946.672 132.19 963.596 132.19C980.473 132.19 994.027 126.951 1003.9 116.627C1013.74 106.315 1018.74 92.0225 1018.74 74.1352C1018.74 56.0484 1013.77 41.688 1003.97 31.4528C994.151 21.2004 980.591 16 963.673 16Z" fill="#3D4543"/>
<path d="M1062.32 61.3126H1046.61V34.227H1058.2C1066.32 34.227 1072.26 35.2381 1075.86 37.2393C1079.19 39.0875 1080.81 42.4821 1080.81 47.6188C1080.81 56.8301 1074.76 61.3126 1062.32 61.3126ZM1046.61 78.7876H1062.02C1069.78 78.7876 1075.53 80.0495 1079.13 82.5391C1082.58 84.9313 1084.25 88.8188 1084.25 94.4313C1084.25 105.61 1077.15 111.044 1062.55 111.044H1046.61V78.7876ZM1090.63 68.6076C1091.79 68.0085 1092.87 67.3371 1093.87 66.5895C1096.05 64.9749 1097.78 63.2797 1099.03 61.5503C1100.26 59.8296 1101.26 57.8922 1102.02 55.7722C1102.75 53.7032 1103.23 51.8123 1103.44 50.1511C1103.65 48.541 1103.76 46.884 1103.76 45.2225C1103.76 34.7579 1099.88 27.1443 1092.24 22.5981C1084.86 18.2178 1073.64 16 1058.87 16H1022.98V129.041H1065.32C1078.55 129.041 1089.11 126.191 1096.68 120.552C1104.41 114.808 1108.32 106.396 1108.32 95.553C1108.32 88.3683 1106.4 82.2205 1102.59 77.275C1099.62 73.4298 1095.61 70.5236 1090.63 68.6076Z" fill="#3D4543"/>
<path d="M1190.55 102.581C1185.42 109.132 1177.98 112.314 1167.78 112.314C1157.59 112.314 1150.13 109.119 1144.96 102.542C1139.79 95.9356 1137.16 86.427 1137.16 74.284C1137.16 61.984 1139.8 52.3352 1145.01 45.6052C1150.19 38.9048 1157.67 35.6504 1167.85 35.6504C1177.99 35.6504 1185.41 38.8921 1190.54 45.5628C1195.71 52.2714 1198.32 61.9372 1198.32 74.284C1198.32 86.4735 1195.71 95.9949 1190.55 102.581ZM1167.78 16C1150.86 16 1137.28 21.1877 1127.41 31.4146C1117.55 41.6198 1112.56 55.9678 1112.56 74.0588C1112.56 92.048 1117.54 106.379 1127.36 116.661C1137.2 126.964 1150.78 132.19 1167.7 132.19C1184.58 132.19 1198.14 126.951 1208 116.627C1217.85 106.315 1222.85 92.0225 1222.85 74.1352C1222.85 56.0484 1217.88 41.688 1208.07 31.4528C1198.26 21.2004 1184.7 16 1167.78 16Z" fill="#3D4543"/>
<path d="M1227.09 35.5736H1259.07V129.041H1282.77V35.5736H1314.61V16H1227.09V35.5736Z" fill="#3D4543"/>
<path d="M1318.85 129.041H1342.48V16H1318.85V129.041Z" fill="#3D4543"/>
<path d="M1402.08 35.7269C1410.36 35.7269 1418.74 38.293 1426.97 43.345L1428.63 44.3647L1436.27 25.9506L1435.14 25.1944C1426.01 19.0932 1414.73 16 1401.63 16C1385.35 16 1371.99 21.3238 1361.89 31.8266C1351.82 42.3125 1346.71 56.3671 1346.71 73.6126C1346.71 91.7377 1351.6 106.175 1361.24 116.538C1370.91 126.926 1384.15 132.19 1400.58 132.19C1413.46 132.19 1424.35 129.594 1432.96 124.47L1433.94 123.888L1430.68 104.662L1428.67 105.682C1419.9 110.135 1410.96 112.395 1402.08 112.395C1392.02 112.395 1384.52 109.187 1379.14 102.593C1373.75 95.9908 1371.01 86.4439 1371.01 74.2117C1371.01 62.4215 1373.84 52.9342 1379.44 46.0045C1385.03 39.0878 1392.43 35.7269 1402.08 35.7269Z" fill="#3D4543"/>
<path d="M1513.8 76.7779C1509.3 71.6839 1501.81 67.3884 1491.53 64.0107L1482.38 61.0918C1477.73 59.6046 1474.82 58.6401 1473.53 58.1643C1468.15 56.5159 1465.64 53.2402 1465.64 47.9123C1465.82 43.4807 1467.19 40.4385 1469.83 38.6158C1472.61 36.6956 1476.88 35.7225 1482.55 35.7225C1490.67 35.7225 1499.61 37.8938 1509.14 42.1679L1510.7 42.8731L1518.06 25.1049L1516.78 24.3784C1506.99 18.8169 1495.19 16 1481.73 16C1469.73 16 1459.92 18.8338 1452.6 24.4294C1445.13 30.1314 1441.34 38.3058 1441.34 48.7408C1441.34 63.6366 1449.15 73.9441 1464.49 79.3485C1465.67 79.8073 1467.59 80.4574 1470.26 81.2945C1472.89 82.1271 1475.71 82.977 1478.72 83.8565C1481.7 84.7273 1483.52 85.2585 1484.19 85.4666C1492.65 87.9053 1496.77 92.0605 1496.77 98.1746C1496.77 102.891 1495.35 106.387 1492.42 108.852C1489.45 111.35 1484.9 112.62 1478.88 112.62C1473.82 112.62 1468.54 111.83 1463.21 110.288C1457.84 108.733 1452.8 106.659 1448.23 104.131L1446.44 103.146L1440.51 122.469L1441.65 123.127C1452.34 129.343 1464.59 132.491 1478.06 132.491C1490.91 132.491 1501.3 129.543 1508.95 123.726C1516.74 117.804 1520.69 109.26 1520.69 98.3234C1520.69 89.2099 1518.37 81.9614 1513.8 76.7779Z" fill="#3D4543"/>
<path d="M356.562 217.873H369.777C373.463 217.873 376.708 217.431 379.507 216.54C382.305 215.649 384.645 214.391 386.534 212.762C388.421 211.134 389.842 209.193 390.801 206.936C391.75 204.679 392.228 202.184 392.228 199.452C392.228 193.896 390.395 189.707 386.731 186.891C383.061 184.067 377.608 182.66 370.361 182.66H356.562V217.873ZM356.562 227.047V265.975H344V172.698H370.361C376.258 172.698 381.359 173.297 385.657 174.489C389.955 175.684 393.5 177.408 396.298 179.661C399.097 181.918 401.171 184.642 402.514 187.832C403.857 191.022 404.535 194.592 404.535 198.54C404.535 201.838 404.013 204.92 402.973 207.781C401.933 210.647 400.421 213.221 398.447 215.499C396.473 217.777 394.065 219.713 391.219 221.321C388.38 222.929 385.157 224.145 381.556 224.965C383.117 225.877 384.507 227.202 385.722 228.938L412.927 265.975H401.736C399.434 265.975 397.741 265.084 396.654 263.306L372.442 229.979C371.705 228.938 370.902 228.193 370.037 227.731C369.165 227.277 367.866 227.047 366.129 227.047H356.562Z" fill="#3D4543"/>
<path d="M448.665 256.229C455.174 256.229 460.034 254.05 463.245 249.69C466.456 245.329 468.064 239.241 468.064 231.432C468.064 223.577 466.456 217.455 463.245 213.078C460.034 208.692 455.174 206.502 448.665 206.502C445.367 206.502 442.506 207.064 440.073 208.192C437.646 209.321 435.619 210.95 433.988 213.078C432.361 215.202 431.146 217.813 430.346 220.916C429.54 224.023 429.141 227.525 429.141 231.432C429.141 235.334 429.54 238.828 430.346 241.91C431.146 244.992 432.361 247.587 433.988 249.69C435.619 251.797 437.646 253.409 440.073 254.538C442.506 255.666 445.367 256.229 448.665 256.229ZM448.665 197.389C453.484 197.389 457.832 198.189 461.718 199.796C465.597 201.404 468.895 203.682 471.613 206.631C474.324 209.583 476.404 213.149 477.859 217.338C479.312 221.528 480.036 226.201 480.036 231.365C480.036 236.571 479.312 241.256 477.859 245.425C476.404 249.59 474.324 253.151 471.613 256.099C468.895 259.052 465.597 261.322 461.718 262.905C457.832 264.483 453.484 265.279 448.665 265.279C443.852 265.279 439.498 264.483 435.619 262.905C431.736 261.322 428.425 259.052 425.689 256.099C422.956 253.151 420.851 249.59 419.377 245.425C417.903 241.256 417.166 236.571 417.166 231.365C417.166 226.201 417.903 221.528 419.377 217.338C420.851 213.149 422.956 209.583 425.689 206.631C428.425 203.682 431.736 201.404 435.619 199.796C439.498 198.189 443.852 197.389 448.665 197.389Z" fill="#3D4543"/>
<path d="M513.69 206.721C509.913 206.721 506.606 207.591 503.763 209.323C500.921 211.06 498.307 213.513 495.917 216.683V248.576C498.004 251.437 500.315 253.457 502.851 254.628C505.391 255.798 508.224 256.385 511.347 256.385C517.506 256.385 522.235 254.195 525.533 249.813C528.832 245.432 530.481 239.181 530.481 231.068C530.481 226.77 530.1 223.084 529.344 219.998C528.582 216.92 527.489 214.392 526.055 212.418C524.621 210.444 522.866 208.999 520.783 208.087C518.699 207.175 516.335 206.721 513.69 206.721ZM484.273 264.456V168.58H495.917V208.02C498.657 204.859 501.789 202.306 505.325 200.378C508.864 198.445 512.912 197.479 517.463 197.479C521.283 197.479 524.731 198.195 527.817 199.628C530.893 201.061 533.517 203.193 535.688 206.037C537.858 208.882 539.526 212.393 540.698 216.583C541.872 220.773 542.456 225.595 542.456 231.068C542.456 235.928 541.806 240.451 540.501 244.637C539.201 248.822 537.327 252.445 534.876 255.506C532.424 258.568 529.428 260.975 525.893 262.732C522.357 264.49 518.375 265.368 513.949 265.368C509.698 265.368 506.087 264.544 503.114 262.895C500.14 261.249 497.548 258.946 495.333 255.994L494.746 261.987C494.399 263.632 493.4 264.456 491.751 264.456H484.273Z" fill="#3D4543"/>
<path d="M578.197 256.229C584.706 256.229 589.566 254.05 592.777 249.69C595.988 245.329 597.593 239.241 597.593 231.432C597.593 223.577 595.988 217.455 592.777 213.078C589.566 208.692 584.706 206.502 578.197 206.502C574.899 206.502 572.038 207.064 569.604 208.192C567.178 209.321 565.147 210.95 563.52 213.078C561.893 215.202 560.675 217.813 559.875 220.916C559.072 224.023 558.673 227.525 558.673 231.432C558.673 235.334 559.072 238.828 559.875 241.91C560.675 244.992 561.893 247.587 563.52 249.69C565.147 251.797 567.178 253.409 569.604 254.538C572.038 255.666 574.899 256.229 578.197 256.229ZM578.197 197.389C583.013 197.389 587.361 198.189 591.246 199.796C595.129 201.404 598.427 203.682 601.141 206.631C603.852 209.583 605.936 213.149 607.388 217.338C608.844 221.528 609.568 226.201 609.568 231.365C609.568 236.571 608.844 241.256 607.388 245.425C605.936 249.59 603.852 253.151 601.141 256.099C598.427 259.052 595.129 261.322 591.246 262.905C587.361 264.483 583.013 265.279 578.197 265.279C573.381 265.279 569.03 264.483 565.147 262.905C561.268 261.322 557.957 259.052 555.221 256.099C552.488 253.151 550.38 249.59 548.906 245.425C547.431 241.256 546.694 236.571 546.694 231.365C546.694 226.201 547.431 221.528 548.906 217.338C550.38 213.149 552.488 209.583 555.221 206.631C557.957 203.682 561.268 201.404 565.147 199.796C569.03 198.189 573.381 197.389 578.197 197.389Z" fill="#3D4543"/>
<path d="M640.435 265.21C635.232 265.21 631.224 263.756 628.426 260.849C625.627 257.942 624.228 253.752 624.228 248.288V207.928H616.285C615.595 207.928 615.011 207.724 614.53 207.311C614.055 206.899 613.812 206.262 613.812 205.392V200.769L624.618 199.403L627.289 179.029C627.373 178.375 627.661 177.846 628.135 177.434C628.61 177.021 629.222 176.813 629.953 176.813H635.819V199.532H654.691V207.928H635.819V247.505C635.819 250.283 636.487 252.345 637.834 253.686C639.173 255.035 640.91 255.706 643.04 255.706C644.255 255.706 645.308 255.544 646.195 255.219C647.088 254.889 647.853 254.536 648.503 254.144C649.162 253.752 649.715 253.395 650.168 253.07C650.624 252.745 651.024 252.582 651.373 252.582C651.976 252.582 652.517 252.953 653.001 253.686L656.383 259.225C654.388 261.091 651.976 262.553 649.162 263.615C646.339 264.677 643.431 265.21 640.435 265.21Z" fill="#3D4543"/>
<path d="M765.467 247.75C766.16 247.75 766.785 248.029 767.353 248.596L772.304 253.997C768.484 258.425 763.846 261.877 758.408 264.347C752.954 266.821 746.395 268.058 738.712 268.058C731.987 268.058 725.89 266.9 720.427 264.576C714.958 262.252 710.295 258.999 706.428 254.81C702.565 250.624 699.575 245.601 697.452 239.742C695.321 233.886 694.256 227.439 694.256 220.413C694.256 213.379 695.396 206.936 697.68 201.08C699.956 195.221 703.152 190.189 707.275 185.979C711.401 181.768 716.332 178.503 722.083 176.179C727.836 173.859 734.176 172.698 741.12 172.698C747.979 172.698 753.891 173.76 758.861 175.888C763.824 178.016 768.243 180.898 772.104 184.546L768.003 190.339C767.697 190.773 767.353 191.131 766.96 191.414C766.572 191.697 766.007 191.835 765.27 191.835C764.704 191.835 764.108 191.63 763.48 191.218C762.849 190.806 762.1 190.293 761.234 189.69C760.363 189.082 759.348 188.432 758.177 187.736C757.008 187.041 755.615 186.391 754.01 185.783C752.401 185.175 750.54 184.667 748.413 184.255C746.289 183.838 743.834 183.634 741.057 183.634C736.063 183.634 731.5 184.492 727.361 186.208C723.213 187.92 719.643 190.36 716.648 193.525C713.659 196.695 711.323 200.56 709.652 205.116C707.984 209.668 707.147 214.77 707.147 220.413C707.147 226.227 707.984 231.412 709.652 235.968C711.323 240.525 713.6 244.373 716.486 247.521C719.372 250.666 722.792 253.064 726.74 254.714C730.684 256.363 734.938 257.188 739.496 257.188C742.272 257.188 744.768 257.025 746.982 256.696C749.194 256.371 751.243 255.863 753.129 255.168C755.016 254.476 756.774 253.598 758.408 252.532C760.032 251.474 761.669 250.203 763.318 248.725C764.055 248.075 764.77 247.75 765.467 247.75Z" fill="#3D4543"/>
<path d="M804.472 286.9C804.082 287.771 803.595 288.462 803.008 288.983C802.424 289.503 801.521 289.761 800.309 289.761H791.716L803.757 263.599L776.549 201.502H786.575C787.569 201.502 788.353 201.752 788.918 202.252C789.477 202.752 789.892 203.305 790.155 203.91L807.793 245.44C808.183 246.39 808.52 247.348 808.801 248.302C809.079 249.259 809.332 250.234 809.551 251.233C809.854 250.234 810.157 249.259 810.457 248.302C810.766 247.348 811.113 246.373 811.5 245.373L828.619 203.91C828.879 203.214 829.328 202.643 829.956 202.185C830.584 201.731 831.268 201.502 832.005 201.502H841.247L804.472 286.9Z" fill="#3D4543"/>
<path d="M874.899 206.721C871.122 206.721 867.815 207.591 864.972 209.323C862.13 211.06 859.516 213.513 857.126 216.683V248.576C859.213 251.437 861.524 253.457 864.06 254.628C866.6 255.798 869.433 256.385 872.556 256.385C878.715 256.385 883.444 254.195 886.742 249.813C890.041 245.432 891.69 239.181 891.69 231.068C891.69 226.77 891.309 223.084 890.553 219.998C889.791 216.92 888.698 214.392 887.264 212.418C885.83 210.444 884.075 208.999 881.992 208.087C879.908 207.175 877.544 206.721 874.899 206.721ZM845.482 264.456V168.58H857.126V208.02C859.866 204.859 862.998 202.306 866.534 200.378C870.073 198.445 874.121 197.479 878.672 197.479C882.492 197.479 885.94 198.195 889.026 199.628C892.102 201.061 894.726 203.193 896.897 206.037C899.067 208.882 900.735 212.393 901.907 216.583C903.081 220.773 903.665 225.595 903.665 231.068C903.665 235.928 903.015 240.451 901.71 244.637C900.41 248.822 898.536 252.445 896.085 255.506C893.633 258.568 890.637 260.975 887.102 262.732C883.566 264.49 879.584 265.368 875.158 265.368C870.907 265.368 867.296 264.544 864.323 262.895C861.349 261.249 858.757 258.946 856.542 255.994L855.955 261.987C855.608 263.632 854.609 264.456 852.96 264.456H845.482Z" fill="#3D4543"/>
<path d="M938.946 205.914C933.349 205.914 928.945 207.534 925.731 210.762C922.524 213.994 920.525 218.479 919.747 224.206H955.607C955.607 221.515 955.241 219.054 954.501 216.817C953.767 214.581 952.68 212.653 951.246 211.025C949.816 209.396 948.067 208.138 946.008 207.247C943.947 206.36 941.595 205.914 938.946 205.914ZM938.687 197.389C942.635 197.389 946.28 198.047 949.619 199.376C952.964 200.696 955.85 202.607 958.28 205.102C960.71 207.597 962.609 210.679 963.974 214.344C965.339 218.009 966.023 222.186 966.023 226.875C966.023 228.699 965.826 229.911 965.436 230.52C965.049 231.128 964.312 231.432 963.225 231.432H919.357C919.438 235.596 920.006 239.22 921.046 242.302C922.086 245.384 923.52 247.953 925.341 250.015C927.168 252.076 929.333 253.617 931.853 254.633C934.367 255.654 937.188 256.162 940.311 256.162C943.219 256.162 945.724 255.829 947.832 255.154C949.934 254.484 951.746 253.755 953.264 252.976C954.788 252.193 956.053 251.468 957.078 250.794C958.093 250.123 958.974 249.786 959.711 249.786C960.663 249.786 961.404 250.156 961.925 250.894L965.177 255.121C963.746 256.857 962.028 258.369 960.036 259.648C958.04 260.931 955.9 261.98 953.62 262.805C951.346 263.629 948.991 264.25 946.561 264.658C944.131 265.07 941.723 265.279 939.337 265.279C934.78 265.279 930.582 264.508 926.743 262.967C922.898 261.426 919.585 259.169 916.786 256.195C913.987 253.226 911.804 249.552 910.239 245.167C908.678 240.781 907.9 235.751 907.9 230.066C907.9 225.463 908.606 221.17 910.014 217.176C911.426 213.182 913.453 209.721 916.102 206.793C918.747 203.865 921.98 201.566 925.797 199.896C929.617 198.222 933.915 197.389 938.687 197.389Z" fill="#3D4543"/>
<path d="M970.272 264.495V198.559H976.909C978.168 198.559 979.033 198.797 979.514 199.276C979.992 199.75 980.317 200.575 980.489 201.749L981.269 212.032C983.528 207.434 986.317 203.844 989.634 201.258C992.951 198.676 996.849 197.389 1001.32 197.389C1003.14 197.389 1004.79 197.593 1006.27 198.005C1007.74 198.417 1009.11 198.988 1010.36 199.729L1008.87 208.384C1008.56 209.471 1007.89 210.012 1006.85 210.012C1006.24 210.012 1005.31 209.808 1004.05 209.396C1002.79 208.984 1001.03 208.775 998.779 208.775C994.744 208.775 991.37 209.946 988.659 212.295C985.948 214.635 983.681 218.042 981.854 222.511V264.495H970.272Z" fill="#3D4543"/>
<path d="M1057.82 209.296C1057.3 210.25 1056.5 210.729 1055.41 210.729C1054.76 210.729 1054.02 210.491 1053.2 210.012C1052.37 209.537 1051.36 209.004 1050.17 208.417C1048.98 207.83 1047.56 207.293 1045.91 206.789C1044.26 206.293 1042.31 206.043 1040.05 206.043C1038.1 206.043 1036.34 206.293 1034.78 206.789C1033.21 207.293 1031.88 207.976 1030.77 208.842C1029.66 209.712 1028.82 210.72 1028.23 211.87C1027.65 213.019 1027.36 214.265 1027.36 215.614C1027.36 217.305 1027.84 218.717 1028.82 219.841C1029.79 220.974 1031.09 221.949 1032.69 222.769C1034.3 223.598 1036.12 224.322 1038.16 224.951C1040.2 225.58 1042.29 226.251 1044.44 226.971C1046.59 227.687 1048.68 228.475 1050.73 229.345C1052.76 230.211 1054.59 231.298 1056.19 232.602C1057.8 233.901 1059.09 235.496 1060.06 237.383C1061.04 239.27 1061.53 241.539 1061.53 244.188C1061.53 247.224 1060.99 250.036 1059.9 252.613C1058.81 255.196 1057.21 257.436 1055.09 259.323C1052.96 261.209 1050.35 262.692 1047.27 263.779C1044.19 264.866 1040.63 265.407 1036.6 265.407C1032 265.407 1027.83 264.658 1024.1 263.163C1020.37 261.663 1017.2 259.744 1014.6 257.403L1017.33 252.972C1017.68 252.413 1018.09 251.976 1018.57 251.672C1019.05 251.372 1019.68 251.214 1020.46 251.214C1021.24 251.214 1022.06 251.522 1022.93 252.126C1023.8 252.738 1024.85 253.409 1026.09 254.146C1027.33 254.883 1028.82 255.554 1030.58 256.162C1032.34 256.77 1034.54 257.078 1037.19 257.078C1039.44 257.078 1041.42 256.782 1043.11 256.195C1044.8 255.608 1046.21 254.821 1047.33 253.817C1048.47 252.822 1049.3 251.672 1049.85 250.369C1050.39 249.069 1050.66 247.682 1050.66 246.204C1050.66 244.384 1050.17 242.876 1049.2 241.681C1048.21 240.486 1046.93 239.465 1045.32 238.62C1043.71 237.774 1041.88 237.037 1039.82 236.408C1037.76 235.78 1035.66 235.117 1033.51 234.422C1031.35 233.726 1029.26 232.939 1027.19 232.048C1025.13 231.157 1023.3 230.036 1021.69 228.695C1020.09 227.35 1018.8 225.692 1017.82 223.714C1016.84 221.74 1016.36 219.345 1016.36 216.522C1016.36 214.006 1016.87 211.586 1017.92 209.262C1018.96 206.947 1020.48 204.902 1022.48 203.145C1024.47 201.391 1026.92 199.992 1029.83 198.951C1032.74 197.91 1036.05 197.389 1039.79 197.389C1044.13 197.389 1048.02 198.072 1051.48 199.438C1054.92 200.804 1057.9 202.678 1060.42 205.064L1057.82 209.296Z" fill="#3D4543"/>
<path d="M1096.81 205.914C1091.21 205.914 1086.81 207.534 1083.6 210.762C1080.39 213.994 1078.39 218.479 1077.62 224.206H1113.47C1113.47 221.515 1113.11 219.054 1112.37 216.817C1111.64 214.581 1110.55 212.653 1109.11 211.025C1107.68 209.396 1105.93 208.138 1103.88 207.247C1101.82 206.36 1099.46 205.914 1096.81 205.914ZM1096.56 197.389C1100.5 197.389 1104.15 198.047 1107.49 199.376C1110.83 200.696 1113.72 202.607 1116.15 205.102C1118.58 207.597 1120.47 210.679 1121.84 214.344C1123.21 218.009 1123.89 222.186 1123.89 226.875C1123.89 228.699 1123.69 229.911 1123.3 230.52C1122.92 231.128 1122.18 231.432 1121.09 231.432H1077.22C1077.31 235.596 1077.87 239.22 1078.91 242.302C1079.95 245.384 1081.39 247.953 1083.21 250.015C1085.04 252.076 1087.2 253.617 1089.72 254.633C1092.24 255.654 1095.06 256.162 1098.18 256.162C1101.08 256.162 1103.59 255.829 1105.7 255.154C1107.8 254.484 1109.61 253.755 1111.13 252.976C1112.65 252.193 1113.92 251.468 1114.95 250.794C1115.96 250.123 1116.84 249.786 1117.58 249.786C1118.53 249.786 1119.27 250.156 1119.79 250.894L1123.05 255.121C1121.61 256.857 1119.9 258.369 1117.9 259.648C1115.91 260.931 1113.77 261.98 1111.49 262.805C1109.21 263.629 1106.86 264.25 1104.43 264.658C1102 265.07 1099.59 265.279 1097.21 265.279C1092.65 265.279 1088.45 264.508 1084.61 262.967C1080.77 261.426 1077.45 259.169 1074.65 256.195C1071.86 253.226 1069.67 249.552 1068.11 245.167C1066.55 240.781 1065.77 235.751 1065.77 230.066C1065.77 225.463 1066.47 221.17 1067.88 217.176C1069.29 213.182 1071.32 209.721 1073.97 206.793C1076.62 203.865 1079.85 201.566 1083.67 199.896C1087.49 198.222 1091.78 197.389 1096.56 197.389Z" fill="#3D4543"/>
<path d="M1177.8 210.146C1177.45 210.624 1177.1 210.991 1176.76 211.258C1176.41 211.516 1175.91 211.645 1175.26 211.645C1174.61 211.645 1173.9 211.374 1173.14 210.828C1172.38 210.287 1171.42 209.691 1170.25 209.038C1169.07 208.388 1167.65 207.797 1165.99 207.251C1164.31 206.71 1162.27 206.435 1159.84 206.435C1156.62 206.435 1153.78 207.014 1151.31 208.159C1148.83 209.312 1146.76 210.97 1145.09 213.144C1143.42 215.31 1142.16 217.938 1141.31 221.016C1140.47 224.102 1140.05 227.55 1140.05 231.369C1140.05 235.363 1140.5 238.907 1141.41 242.01C1142.32 245.113 1143.61 247.716 1145.26 249.819C1146.9 251.926 1148.91 253.53 1151.28 254.637C1153.64 255.741 1156.3 256.295 1159.25 256.295C1162.07 256.295 1164.39 255.962 1166.21 255.287C1168.03 254.617 1169.56 253.867 1170.77 253.042C1171.99 252.222 1172.98 251.472 1173.76 250.797C1174.54 250.127 1175.32 249.79 1176.1 249.79C1177.1 249.79 1177.84 250.156 1178.32 250.893L1181.57 255.125C1178.71 258.644 1175.13 261.214 1170.83 262.838C1166.54 264.466 1162 265.278 1157.23 265.278C1153.1 265.278 1149.28 264.52 1145.74 263C1142.21 261.484 1139.14 259.281 1136.53 256.391C1133.93 253.509 1131.88 249.965 1130.38 245.754C1128.88 241.544 1128.13 236.75 1128.13 231.369C1128.13 226.463 1128.82 221.928 1130.18 217.763C1131.56 213.598 1133.55 210.008 1136.18 206.989C1138.8 203.977 1142.04 201.62 1145.9 199.929C1149.77 198.239 1154.19 197.389 1159.18 197.389C1163.78 197.389 1167.86 198.139 1171.42 199.638C1174.98 201.133 1178.13 203.249 1180.86 205.981L1177.8 210.146Z" fill="#3D4543"/>
<path d="M1197.39 201.502V243.549C1197.39 248.543 1198.54 252.404 1200.85 255.136C1203.15 257.868 1206.61 259.234 1211.26 259.234C1214.65 259.234 1217.83 258.434 1220.83 256.827C1223.82 255.223 1226.58 252.987 1229.09 250.125V201.502H1240.68V267.438H1233.78C1232.13 267.438 1231.09 266.639 1230.65 265.031L1229.75 257.934C1226.88 261.104 1223.67 263.653 1220.11 265.585C1216.56 267.517 1212.47 268.479 1207.88 268.479C1204.27 268.479 1201.1 267.88 1198.34 266.689C1195.58 265.498 1193.28 263.815 1191.41 261.645C1189.54 259.475 1188.14 256.852 1187.21 253.77C1186.28 250.692 1185.81 247.281 1185.81 243.549V201.502H1197.39Z" fill="#3D4543"/>
<path d="M1244.92 268.732V202.796H1251.56C1252.82 202.796 1253.68 203.034 1254.16 203.513C1254.64 203.987 1254.96 204.812 1255.14 205.986L1255.92 216.269C1258.18 211.671 1260.96 208.081 1264.28 205.495C1267.6 202.913 1271.5 201.626 1275.97 201.626C1277.79 201.626 1279.44 201.83 1280.91 202.242C1282.39 202.655 1283.75 203.225 1285.01 203.966L1283.52 212.621C1283.21 213.708 1282.54 214.249 1281.5 214.249C1280.89 214.249 1279.95 214.045 1278.7 213.633C1277.44 213.221 1275.68 213.012 1273.43 213.012C1269.39 213.012 1266.02 214.183 1263.31 216.532C1260.6 218.872 1258.33 222.279 1256.5 226.748V268.732H1244.92Z" fill="#3D4543"/>
<path d="M1303.18 267.79H1291.6V201.854H1303.18V267.79ZM1305.79 181.151C1305.79 182.28 1305.56 183.329 1305.1 184.312C1304.65 185.287 1304.04 186.153 1303.27 186.915C1302.52 187.669 1301.64 188.269 1300.64 188.702C1299.64 189.139 1298.58 189.356 1297.45 189.356C1296.33 189.356 1295.27 189.139 1294.3 188.702C1293.32 188.269 1292.45 187.669 1291.69 186.915C1290.93 186.153 1290.33 185.287 1289.9 184.312C1289.47 183.329 1289.25 182.28 1289.25 181.151C1289.25 180.023 1289.47 178.952 1289.9 177.928C1290.33 176.911 1290.93 176.02 1291.69 175.262C1292.45 174.5 1293.32 173.909 1294.3 173.471C1295.27 173.038 1296.33 172.822 1297.45 172.822C1298.58 172.822 1299.64 173.038 1300.64 173.471C1301.64 173.909 1302.52 174.5 1303.27 175.262C1304.04 176.02 1304.65 176.911 1305.1 177.928C1305.56 178.952 1305.79 180.023 1305.79 181.151Z" fill="#3D4543"/>
<path d="M1336.65 269.449C1331.44 269.449 1327.44 267.996 1324.64 265.089C1321.84 262.182 1320.44 257.992 1320.44 252.528V212.168H1312.5C1311.81 212.168 1311.22 211.963 1310.74 211.551C1310.27 211.139 1310.02 210.501 1310.02 209.631V205.008L1320.83 203.642L1323.5 183.268C1323.59 182.614 1323.87 182.085 1324.35 181.673C1324.82 181.261 1325.44 181.052 1326.17 181.052H1332.03V203.771H1350.9V212.168H1332.03V251.745C1332.03 254.523 1332.7 256.584 1334.05 257.925C1335.39 259.275 1337.12 259.945 1339.25 259.945C1340.47 259.945 1341.52 259.783 1342.41 259.458C1343.3 259.129 1344.07 258.775 1344.72 258.384C1345.37 257.992 1345.93 257.634 1346.38 257.309C1346.84 256.984 1347.24 256.822 1347.59 256.822C1348.19 256.822 1348.73 257.192 1349.21 257.925L1352.6 263.464C1350.6 265.33 1348.19 266.792 1345.37 267.854C1342.55 268.916 1339.64 269.449 1336.65 269.449Z" fill="#3D4543"/>
<path d="M1384.76 291.139C1384.37 292.009 1383.88 292.701 1383.29 293.221C1382.71 293.742 1381.8 294 1380.59 294H1372L1384.04 267.837L1356.83 205.741H1366.86C1367.85 205.741 1368.64 205.991 1369.2 206.49C1369.76 206.99 1370.18 207.544 1370.44 208.148L1388.08 249.679C1388.47 250.628 1388.8 251.586 1389.08 252.54C1389.36 253.498 1389.62 254.472 1389.83 255.472C1390.14 254.472 1390.44 253.498 1390.74 252.54C1391.05 251.586 1391.39 250.612 1391.78 249.612L1408.9 208.148C1409.16 207.452 1409.61 206.882 1410.24 206.424C1410.87 205.97 1411.55 205.741 1412.29 205.741H1421.53L1384.76 291.139Z" fill="#3D4543"/>
</svg>
