
<svg width="1260" height="311" viewBox="0 0 1260 311" fill="none" xmlns="http://www.w3.org/2000/svg">
<path d="M152.483 111.634C163.892 111.634 174.712 114.138 184.436 118.618C177.499 98.8314 159.099 74.1241 152.483 65.5989C145.867 74.1241 127.467 98.8314 120.53 118.618C130.254 114.138 141.074 111.634 152.483 111.634Z" fill="#2B7DE1"/>
<path d="M304.965 46.2141C261.59 17.7223 211.396 1.04719 157.829 0.00268555C184.459 34.8497 241.171 113.113 267.695 180.056C287.709 139.766 300.77 94.463 304.965 46.2141Z" fill="#3D4543"/>
<path d="M147.138 0C93.5707 1.04448 43.3798 17.7196 0 46.2114C4.19636 94.4639 17.2562 139.763 37.2708 180.054C63.7951 113.114 120.507 34.8506 147.138 0Z" fill="#3D4543"/>
<path d="M152.485 165.066C112.978 165.066 75.3616 173.113 41.147 187.618C68.1347 238.846 106.564 281.478 152.485 310.97C198.406 281.478 236.832 238.846 263.823 187.618C229.609 173.113 191.992 165.066 152.485 165.066Z" fill="#3D4543"/>
<path d="M389.334 95.9192H370.804L380.206 66.5833C381.495 70.7613 384.104 79.1473 389.334 95.9192ZM389.724 46H370.58L337.958 134.704H357.37L365.946 110.389H394.232L402.749 134.704H421.861L390.036 46.8561L389.724 46Z" fill="#3D4543"/>
<path d="M443.708 46H425.18V134.644H479.193L479.76 119.358H443.708V46Z" fill="#3D4543"/>
<path d="M483.085 134.644H501.61V46H483.085V134.644Z" fill="#3D4543"/>
<path d="M556.307 95.9192H537.782L547.181 66.5833C548.47 70.7613 551.077 79.1473 556.307 95.9192ZM556.7 46H537.553L504.936 134.704H524.343L532.919 110.389H561.208L569.724 134.704H588.834L557.009 46.8561L556.7 46Z" fill="#3D4543"/>
<path d="M632.168 83.6486L624.996 81.3597C621.347 80.1935 619.058 79.4371 618.054 79.0641C613.83 77.7714 611.866 75.2027 611.866 71.0247C612.006 67.5496 613.081 65.164 615.155 63.7315C617.326 62.2289 620.685 61.4658 625.131 61.4658C631.49 61.4658 638.505 63.1685 645.977 66.5201L647.201 67.0698L652.972 53.1398L651.97 52.5701C644.285 48.2089 635.039 46 624.483 46C615.07 46 607.383 48.2222 601.635 52.6101C595.783 57.0779 592.814 63.4916 592.814 71.6744C592.814 83.3552 598.934 91.4381 610.972 95.6761C611.889 96.0359 613.396 96.5456 615.487 97.2021C617.554 97.855 619.763 98.5214 622.124 99.2111C624.461 99.894 625.885 100.311 626.415 100.474C633.052 102.386 636.279 105.644 636.279 110.439C636.279 114.137 635.161 116.879 632.867 118.812C630.533 120.771 626.962 121.763 622.252 121.763C618.279 121.763 614.14 121.147 609.957 119.938C605.749 118.715 601.795 117.092 598.212 115.11L596.807 114.337L592.157 129.49L593.054 130.006C601.435 134.88 611.046 137.349 621.607 137.349C631.68 137.349 639.83 135.037 645.832 130.476C651.94 125.832 655.038 119.128 655.038 110.556C655.038 103.409 653.219 97.7251 649.633 93.6603C646.104 89.6657 640.227 86.2973 632.168 83.6486Z" fill="#3D4543"/>
<path d="M753.191 71.441C753.191 75.8224 752.012 79.0108 749.678 80.9164C747.269 82.8855 743.116 83.8817 737.345 83.8817C736.718 83.8817 733.787 83.8718 728.542 83.855C724.988 83.8385 722.504 83.8318 721.085 83.825V60.4098H738.048C743.296 60.4098 747.209 61.3326 749.668 63.1517C752.039 64.9041 753.191 67.6163 753.191 71.441ZM755.7 94.3435C765.474 90.3286 770.424 82.5556 770.424 71.2079C770.424 67.1965 769.875 63.6582 768.79 60.6829C767.69 57.6776 766.164 55.1923 764.247 53.3065C762.345 51.4206 759.834 49.9081 756.787 48.8054C753.826 47.7424 750.668 46.9963 747.401 46.5965C744.165 46.1999 740.307 46 735.936 46H702.737V134.88H721.085V97.8917L733.117 98.0017C735.974 98.0017 737.938 98.0117 738.985 98.0317C740.044 99.964 742.273 104.529 745.615 111.618L756 134.88H776.307L762.598 106.464C759.929 100.96 757.66 96.9687 755.7 94.3435Z" fill="#3D4543"/>
<path d="M840.786 113.894C836.765 119.031 830.922 121.527 822.93 121.527C814.936 121.527 809.086 119.022 805.04 113.864C800.98 108.683 798.92 101.227 798.92 91.7047C798.92 82.0594 800.992 74.493 805.073 69.2155C809.139 63.9613 814.999 61.4093 822.985 61.4093C830.937 61.4093 836.755 63.9513 840.778 69.1823C844.826 74.443 846.88 82.0226 846.88 91.7047C846.88 101.263 844.831 108.73 840.786 113.894ZM822.93 46C809.661 46 799.01 50.068 791.274 58.0877C783.547 66.0903 779.631 77.3416 779.631 91.528C779.631 105.635 783.532 116.873 791.236 124.935C798.953 133.015 809.598 137.113 822.87 137.113C836.105 137.113 846.733 133.005 854.472 124.909C862.194 116.823 866.113 105.615 866.113 91.588C866.113 77.4048 862.214 66.1438 854.53 58.1177C846.831 50.078 836.197 46 822.93 46Z" fill="#3D4543"/>
<path d="M900.288 81.5329H887.968V60.2931H897.057C903.421 60.2931 908.082 61.086 910.908 62.6552C913.517 64.1045 914.787 66.7665 914.787 70.7945C914.787 78.0178 910.041 81.5329 900.288 81.5329ZM887.968 95.2363H900.055C906.135 95.2363 910.648 96.2258 913.467 98.1781C916.171 100.054 917.486 103.102 917.486 107.504C917.486 116.269 911.918 120.531 900.465 120.531H887.968V95.2363ZM922.484 87.2534C923.393 86.7836 924.243 86.2571 925.028 85.6709C926.734 84.4047 928.094 83.0754 929.071 81.7193C930.035 80.3699 930.823 78.8507 931.415 77.1882C931.992 75.5657 932.364 74.083 932.534 72.7803C932.699 71.5177 932.779 70.2183 932.779 68.9155C932.779 60.7094 929.741 54.739 923.746 51.174C917.965 47.7392 909.162 46 897.584 46H869.438V134.644H902.637C913.017 134.644 921.294 132.408 927.232 127.987C933.289 123.483 936.363 116.886 936.363 108.383C936.363 102.749 934.851 97.9282 931.862 94.0501C929.536 91.0348 926.394 88.7559 922.484 87.2534Z" fill="#3D4543"/>
<path d="M1000.84 113.894C996.818 119.031 990.981 121.527 982.987 121.527C974.992 121.527 969.142 119.022 965.094 113.864C961.033 108.683 958.977 101.227 958.977 91.7047C958.977 82.0594 961.048 74.493 965.132 69.2155C969.195 63.9613 975.057 61.4093 983.044 61.4093C990.993 61.4093 996.811 63.9513 1000.84 69.1823C1004.89 74.443 1006.94 82.0226 1006.94 91.7047C1006.94 101.263 1004.89 108.73 1000.84 113.894ZM982.987 46C969.72 46 959.066 50.068 951.33 58.0877C943.6 66.0903 939.687 77.3416 939.687 91.528C939.687 105.635 943.59 116.873 951.292 124.935C959.009 133.015 969.652 137.113 982.924 137.113C996.159 137.113 1006.79 133.005 1014.53 124.909C1022.25 116.823 1026.17 105.615 1026.17 91.588C1026.17 77.4048 1022.27 66.1438 1014.58 58.1177C1006.88 50.078 996.254 46 982.987 46Z" fill="#3D4543"/>
<path d="M1029.49 61.3491H1054.57V134.644H1073.16V61.3491H1098.12V46H1029.49V61.3491Z" fill="#3D4543"/>
<path d="M1101.45 134.644H1119.98V46H1101.45V134.644Z" fill="#3D4543"/>
<path d="M1166.71 61.4693C1173.21 61.4693 1179.78 63.4816 1186.24 67.4432L1187.54 68.2428L1193.53 53.803L1192.64 53.21C1185.48 48.4256 1176.64 46 1166.36 46C1153.6 46 1143.12 50.1747 1135.2 58.4108C1127.31 66.6335 1123.3 77.6547 1123.3 91.1782C1123.3 105.391 1127.13 116.713 1134.69 124.839C1142.27 132.985 1152.66 137.113 1165.54 137.113C1175.64 137.113 1184.18 135.077 1190.93 131.059L1191.7 130.602L1189.14 115.526L1187.57 116.326C1180.69 119.818 1173.68 121.59 1166.71 121.59C1158.83 121.59 1152.95 119.075 1148.73 113.904C1144.5 108.726 1142.35 101.24 1142.35 91.648C1142.35 82.4024 1144.57 74.9628 1148.96 69.5286C1153.34 64.1048 1159.15 61.4693 1166.71 61.4693Z" fill="#3D4543"/>
<path d="M1254.32 93.6603C1250.8 89.6657 1244.92 86.2973 1236.86 83.6486L1229.69 81.3597C1226.04 80.1935 1223.75 79.4371 1222.74 79.0641C1218.52 77.7714 1216.56 75.2027 1216.56 71.0247C1216.7 67.5496 1217.77 65.164 1219.84 63.7347C1222.02 62.2289 1225.38 61.4658 1229.82 61.4658C1236.19 61.4658 1243.2 63.1685 1250.67 66.5201L1251.9 67.0731L1257.66 53.1398L1256.66 52.5701C1248.98 48.2089 1239.73 46 1229.18 46C1219.77 46 1212.08 48.2222 1206.33 52.6101C1200.47 57.0814 1197.51 63.4916 1197.51 71.6744C1197.51 83.3552 1203.63 91.4381 1215.66 95.6761C1216.58 96.0359 1218.09 96.5456 1220.18 97.2021C1222.25 97.855 1224.45 98.5214 1226.82 99.2111C1229.16 99.894 1230.58 100.311 1231.11 100.474C1237.74 102.386 1240.97 105.644 1240.97 110.439C1240.97 114.137 1239.86 116.879 1237.56 118.812C1235.23 120.771 1231.66 121.767 1226.94 121.767C1222.97 121.767 1218.84 121.147 1214.65 119.938C1210.44 118.718 1206.49 117.092 1202.9 115.11L1201.5 114.337L1196.85 129.49L1197.75 130.006C1206.13 134.88 1215.74 137.349 1226.3 137.349C1236.37 137.349 1244.52 135.037 1250.52 130.476C1256.63 125.832 1259.73 119.131 1259.73 110.556C1259.73 103.409 1257.91 97.7251 1254.32 93.6603Z" fill="#3D4543"/>
<path d="M346.851 204.302H357.214C360.104 204.302 362.649 203.956 364.843 203.257C367.038 202.558 368.872 201.572 370.354 200.295C371.834 199.018 372.948 197.496 373.7 195.726C374.445 193.956 374.819 192 374.819 189.857C374.819 185.501 373.382 182.215 370.509 180.007C367.631 177.793 363.354 176.689 357.672 176.689H346.851V204.302ZM346.851 211.497V242.023H337V168.877H357.672C362.296 168.877 366.296 169.347 369.666 170.282C373.036 171.219 375.816 172.571 378.011 174.338C380.205 176.108 381.832 178.244 382.885 180.746C383.938 183.247 384.47 186.046 384.47 189.142C384.47 191.729 384.06 194.145 383.245 196.389C382.429 198.636 381.244 200.654 379.696 202.441C378.148 204.227 376.26 205.746 374.028 207.006C371.802 208.267 369.274 209.221 366.45 209.864C367.675 210.579 368.765 211.618 369.718 212.98L391.051 242.023H382.275C380.47 242.023 379.142 241.324 378.29 239.93L359.303 213.796C358.725 212.98 358.096 212.395 357.417 212.033C356.734 211.677 355.715 211.497 354.353 211.497H346.851Z" fill="#3D4543"/>
<path d="M419.075 234.38C424.18 234.38 427.991 232.672 430.509 229.252C433.027 225.833 434.288 221.058 434.288 214.935C434.288 208.775 433.027 203.975 430.509 200.542C427.991 197.103 424.18 195.385 419.075 195.385C416.489 195.385 414.246 195.826 412.338 196.711C410.434 197.596 408.845 198.873 407.566 200.542C406.29 202.208 405.338 204.255 404.71 206.688C404.079 209.125 403.765 211.871 403.765 214.935C403.765 217.995 404.079 220.735 404.71 223.152C405.338 225.568 406.29 227.603 407.566 229.252C408.845 230.905 410.434 232.169 412.338 233.054C414.246 233.939 416.489 234.38 419.075 234.38ZM419.075 188.24C422.855 188.24 426.264 188.867 429.311 190.127C432.353 191.388 434.939 193.174 437.07 195.487C439.196 197.802 440.828 200.598 441.969 203.883C443.108 207.169 443.676 210.833 443.676 214.883C443.676 218.965 443.108 222.639 441.969 225.908C440.828 229.174 439.196 231.966 437.07 234.279C434.939 236.594 432.353 238.374 429.311 239.615C426.264 240.853 422.855 241.477 419.075 241.477C415.301 241.477 411.887 240.853 408.845 239.615C405.8 238.374 403.204 236.594 401.059 234.279C398.915 231.966 397.265 229.174 396.109 225.908C394.953 222.639 394.375 218.965 394.375 214.883C394.375 210.833 394.953 207.169 396.109 203.883C397.265 200.598 398.915 197.802 401.059 195.487C403.204 193.174 405.8 191.388 408.845 190.127C411.887 188.867 415.301 188.24 419.075 188.24Z" fill="#3D4543"/>
<path d="M470.065 195.558C467.104 195.558 464.51 196.24 462.282 197.599C460.053 198.961 458.003 200.884 456.129 203.37V228.38C457.765 230.623 459.578 232.207 461.566 233.125C463.558 234.043 465.779 234.503 468.228 234.503C473.058 234.503 476.767 232.785 479.353 229.35C481.939 225.914 483.233 221.012 483.233 214.65C483.233 211.28 482.934 208.389 482.341 205.969C481.744 203.556 480.886 201.573 479.762 200.025C478.638 198.477 477.261 197.344 475.628 196.629C473.994 195.914 472.14 195.558 470.065 195.558ZM446.998 240.832V165.649H456.129V196.577C458.277 194.098 460.734 192.096 463.506 190.584C466.281 189.068 469.455 188.311 473.024 188.311C476.02 188.311 478.724 188.872 481.143 189.996C483.556 191.119 485.613 192.792 487.316 195.022C489.018 197.253 490.326 200.006 491.244 203.291C492.165 206.577 492.623 210.359 492.623 214.65C492.623 218.461 492.114 222.008 491.09 225.29C490.071 228.572 488.602 231.414 486.679 233.814C484.756 236.215 482.407 238.102 479.635 239.48C476.862 240.859 473.739 241.548 470.269 241.548C466.935 241.548 464.104 240.901 461.772 239.608C459.44 238.318 457.407 236.512 455.671 234.196L455.21 238.896C454.939 240.186 454.155 240.832 452.862 240.832H446.998Z" fill="#3D4543"/>
<path d="M520.652 234.38C525.756 234.38 529.567 232.672 532.085 229.252C534.603 225.833 535.862 221.058 535.862 214.935C535.862 208.775 534.603 203.975 532.085 200.542C529.567 197.103 525.756 195.385 520.652 195.385C518.065 195.385 515.822 195.826 513.914 196.711C512.011 197.596 510.419 198.873 509.143 200.542C507.866 202.208 506.911 204.255 506.284 206.688C505.655 209.125 505.341 211.871 505.341 214.935C505.341 217.995 505.655 220.735 506.284 223.152C506.911 225.568 507.866 227.603 509.143 229.252C510.419 230.905 512.011 232.169 513.914 233.054C515.822 233.939 518.065 234.38 520.652 234.38ZM520.652 188.24C524.428 188.24 527.838 188.867 530.885 190.127C533.929 191.388 536.516 193.174 538.644 195.487C540.77 197.802 542.404 200.598 543.543 203.883C544.684 207.169 545.252 210.833 545.252 214.883C545.252 218.965 544.684 222.639 543.543 225.908C542.404 229.174 540.77 231.966 538.644 234.279C536.516 236.594 533.929 238.374 530.885 239.615C527.838 240.853 524.428 241.477 520.652 241.477C516.875 241.477 513.463 240.853 510.419 239.615C507.377 238.374 504.78 236.594 502.635 234.279C500.492 231.966 498.838 229.174 497.682 225.908C496.526 222.639 495.948 218.965 495.948 214.883C495.948 210.833 496.526 207.169 497.682 203.883C498.838 200.598 500.492 197.802 502.635 195.487C504.78 193.174 507.377 191.388 510.419 190.127C513.463 188.867 516.875 188.24 520.652 188.24Z" fill="#3D4543"/>
<path d="M569.456 241.423C565.375 241.423 562.233 240.283 560.038 238.004C557.844 235.724 556.746 232.439 556.746 228.154V196.504H550.518C549.977 196.504 549.519 196.344 549.141 196.021C548.769 195.698 548.578 195.198 548.578 194.516V190.89L557.053 189.819L559.147 173.843C559.213 173.33 559.438 172.915 559.811 172.592C560.183 172.268 560.663 172.105 561.236 172.105H565.836V189.92H580.634V196.504H565.836V227.54C565.836 229.718 566.36 231.335 567.416 232.387C568.466 233.445 569.828 233.971 571.498 233.971C572.451 233.971 573.277 233.843 573.972 233.588C574.673 233.33 575.273 233.053 575.782 232.746C576.299 232.439 576.733 232.158 577.088 231.903C577.445 231.649 577.759 231.521 578.033 231.521C578.506 231.521 578.93 231.812 579.309 232.387L581.962 236.73C580.397 238.193 578.506 239.34 576.299 240.172C574.085 241.005 571.805 241.423 569.456 241.423Z" fill="#3D4543"/>
<path d="M667.503 227.732C668.046 227.732 668.536 227.95 668.982 228.395L672.864 232.63C669.869 236.102 666.232 238.809 661.967 240.746C657.691 242.686 652.547 243.656 646.522 243.656C641.249 243.656 636.468 242.748 632.184 240.926C627.895 239.103 624.239 236.553 621.206 233.267C618.177 229.985 615.833 226.046 614.167 221.451C612.497 216.859 611.662 211.804 611.662 206.294C611.662 200.778 612.556 195.726 614.346 191.134C616.132 186.539 618.637 182.594 621.87 179.292C625.106 175.99 628.973 173.43 633.482 171.608C637.994 169.788 642.966 168.877 648.411 168.877C653.789 168.877 658.426 169.71 662.323 171.379C666.214 173.048 669.68 175.308 672.707 178.169L669.492 182.711C669.252 183.051 668.982 183.332 668.673 183.554C668.37 183.776 667.926 183.884 667.348 183.884C666.905 183.884 666.437 183.724 665.945 183.4C665.45 183.077 664.862 182.675 664.184 182.202C663.501 181.725 662.705 181.216 661.786 180.67C660.87 180.125 659.778 179.615 658.519 179.138C657.257 178.662 655.798 178.263 654.13 177.94C652.464 177.614 650.539 177.453 648.362 177.453C644.445 177.453 640.867 178.126 637.622 179.472C634.369 180.814 631.569 182.728 629.221 185.21C626.877 187.695 625.044 190.726 623.734 194.299C622.426 197.868 621.77 201.869 621.77 206.294C621.77 210.853 622.426 214.919 623.734 218.492C625.044 222.065 626.83 225.083 629.093 227.552C631.356 230.018 634.038 231.899 637.134 233.192C640.228 234.485 643.563 235.132 647.137 235.132C649.314 235.132 651.271 235.005 653.008 234.747C654.742 234.492 656.349 234.093 657.828 233.548C659.307 233.006 660.686 232.317 661.967 231.481C663.241 230.651 664.524 229.655 665.818 228.496C666.396 227.986 666.957 227.732 667.503 227.732Z" fill="#3D4543"/>
<path d="M698.09 258.432C697.784 259.114 697.402 259.657 696.941 260.065C696.483 260.473 695.775 260.675 694.825 260.675H688.087L697.529 240.159L676.193 191.465H684.056C684.834 191.465 685.449 191.661 685.892 192.053C686.331 192.445 686.657 192.879 686.862 193.353L700.693 225.92C701 226.665 701.264 227.416 701.485 228.164C701.703 228.915 701.901 229.679 702.072 230.463C702.31 229.679 702.548 228.915 702.783 228.164C703.025 227.416 703.297 226.652 703.601 225.868L717.025 193.353C717.229 192.807 717.581 192.36 718.074 192.001C718.566 191.645 719.102 191.465 719.68 191.465H726.928L698.09 258.432Z" fill="#3D4543"/>
<path d="M753.316 195.558C750.355 195.558 747.761 196.24 745.532 197.599C743.303 198.961 741.253 200.884 739.379 203.37V228.38C741.016 230.623 742.828 232.207 744.817 233.125C746.808 234.043 749.03 234.503 751.479 234.503C756.309 234.503 760.017 232.785 762.604 229.35C765.19 225.914 766.483 221.012 766.483 214.65C766.483 211.28 766.184 208.389 765.592 205.969C764.994 203.556 764.137 201.573 763.013 200.025C761.888 198.477 760.512 197.344 758.878 196.629C757.245 195.914 755.39 195.558 753.316 195.558ZM730.249 240.832V165.649H739.379V196.577C741.527 194.098 743.984 192.096 746.757 190.584C749.532 189.068 752.706 188.311 756.275 188.311C759.27 188.311 761.974 188.872 764.394 189.996C766.807 191.119 768.864 192.792 770.566 195.022C772.268 197.253 773.576 200.006 774.495 203.291C775.416 206.577 775.874 210.359 775.874 214.65C775.874 218.461 775.364 222.008 774.341 225.29C773.322 228.572 771.852 231.414 769.929 233.814C768.007 236.215 765.658 238.102 762.885 239.48C760.113 240.859 756.99 241.548 753.519 241.548C750.186 241.548 747.354 240.901 745.023 239.608C742.691 238.318 740.658 236.512 738.921 234.196L738.461 238.896C738.189 240.186 737.405 240.832 736.112 240.832H730.249Z" fill="#3D4543"/>
<path d="M803.541 194.925C799.152 194.925 795.698 196.195 793.178 198.726C790.662 201.261 789.095 204.778 788.485 209.269H816.605C816.605 207.159 816.319 205.229 815.738 203.475C815.162 201.721 814.31 200.209 813.186 198.932C812.064 197.655 810.693 196.669 809.078 195.97C807.462 195.274 805.618 194.925 803.541 194.925ZM803.337 188.24C806.433 188.24 809.292 188.756 811.91 189.797C814.533 190.833 816.796 192.332 818.702 194.288C820.607 196.244 822.096 198.661 823.167 201.535C824.237 204.409 824.773 207.685 824.773 211.362C824.773 212.792 824.619 213.743 824.313 214.22C824.009 214.697 823.431 214.935 822.579 214.935H788.179C788.242 218.201 788.688 221.042 789.504 223.459C790.319 225.876 791.444 227.891 792.872 229.507C794.304 231.124 796.002 232.332 797.978 233.129C799.95 233.929 802.162 234.328 804.611 234.328C806.891 234.328 808.856 234.066 810.509 233.537C812.157 233.011 813.578 232.44 814.768 231.829C815.963 231.215 816.955 230.647 817.759 230.118C818.555 229.592 819.245 229.328 819.823 229.328C820.571 229.328 821.151 229.618 821.56 230.196L824.11 233.511C822.988 234.873 821.641 236.059 820.078 237.061C818.513 238.067 816.835 238.89 815.047 239.537C813.264 240.183 811.418 240.67 809.512 240.99C807.606 241.313 805.718 241.477 803.847 241.477C800.273 241.477 796.981 240.872 793.971 239.664C790.956 238.456 788.358 236.686 786.163 234.354C783.968 232.025 782.256 229.145 781.029 225.706C779.805 222.267 779.195 218.322 779.195 213.864C779.195 210.255 779.748 206.888 780.853 203.756C781.96 200.624 783.55 197.91 785.627 195.614C787.701 193.318 790.236 191.515 793.229 190.206C796.225 188.893 799.595 188.24 803.337 188.24Z" fill="#3D4543"/>
<path d="M828.105 240.863V189.157H833.31C834.297 189.157 834.976 189.343 835.353 189.719C835.728 190.091 835.982 190.738 836.117 191.659L836.729 199.722C838.5 196.117 840.687 193.302 843.289 191.274C845.89 189.249 848.946 188.24 852.451 188.24C853.882 188.24 855.173 188.399 856.331 188.723C857.487 189.046 858.557 189.494 859.544 190.075L858.371 196.861C858.131 197.714 857.605 198.138 856.789 198.138C856.311 198.138 855.579 197.978 854.594 197.655C853.607 197.332 852.228 197.168 850.46 197.168C847.296 197.168 844.65 198.086 842.524 199.928C840.398 201.763 838.62 204.435 837.187 207.939V240.863H828.105Z" fill="#3D4543"/>
<path d="M896.755 197.577C896.349 198.324 895.722 198.7 894.869 198.7C894.36 198.7 893.777 198.514 893.135 198.138C892.484 197.766 891.695 197.348 890.76 196.888C889.824 196.427 888.71 196.006 887.416 195.61C886.123 195.222 884.592 195.026 882.822 195.026C881.293 195.026 879.914 195.222 878.69 195.61C877.462 196.006 876.414 196.541 875.55 197.221C874.68 197.903 874.016 198.694 873.556 199.595C873.1 200.496 872.87 201.473 872.87 202.531C872.87 203.857 873.252 204.964 874.016 205.846C874.781 206.734 875.797 207.498 877.053 208.142C878.315 208.792 879.743 209.36 881.342 209.853C882.942 210.346 884.582 210.872 886.268 211.437C887.953 211.999 889.594 212.616 891.196 213.299C892.792 213.978 894.223 214.83 895.479 215.852C896.741 216.871 897.752 218.122 898.516 219.602C899.281 221.081 899.665 222.861 899.665 224.938C899.665 227.319 899.241 229.523 898.389 231.545C897.537 233.57 896.28 235.327 894.615 236.806C892.944 238.286 890.904 239.448 888.487 240.301C886.074 241.153 883.282 241.578 880.117 241.578C876.512 241.578 873.242 240.99 870.318 239.817C867.391 238.642 864.905 237.136 862.865 235.301L865.008 231.826C865.282 231.388 865.605 231.045 865.98 230.807C866.353 230.572 866.85 230.448 867.46 230.448C868.074 230.448 868.716 230.689 869.399 231.163C870.078 231.643 870.906 232.169 871.876 232.747C872.846 233.325 874.016 233.851 875.395 234.328C876.774 234.804 878.501 235.046 880.578 235.046C882.344 235.046 883.897 234.814 885.222 234.354C886.547 233.893 887.654 233.276 888.536 232.489C889.425 231.708 890.079 230.807 890.505 229.785C890.931 228.766 891.142 227.678 891.142 226.519C891.142 225.092 890.76 223.909 889.995 222.972C889.226 222.035 888.217 221.235 886.956 220.572C885.694 219.909 884.262 219.331 882.645 218.837C881.029 218.344 879.38 217.825 877.695 217.28C876.005 216.734 874.359 216.117 872.74 215.418C871.124 214.719 869.686 213.841 868.43 212.789C867.168 211.734 866.159 210.434 865.392 208.883C864.626 207.335 864.244 205.457 864.244 203.243C864.244 201.27 864.65 199.373 865.468 197.55C866.286 195.735 867.477 194.131 869.044 192.753C870.604 191.378 872.527 190.281 874.807 189.464C877.09 188.648 879.689 188.24 882.618 188.24C886.023 188.24 889.072 188.775 891.783 189.846C894.487 190.917 896.824 192.387 898.798 194.258L896.755 197.577Z" fill="#3D4543"/>
<path d="M927.334 194.925C922.945 194.925 919.494 196.195 916.974 198.726C914.458 201.261 912.891 204.778 912.281 209.269H940.401C940.401 207.159 940.115 205.229 939.532 203.475C938.958 201.721 938.106 200.209 936.982 198.932C935.858 197.655 934.486 196.669 932.874 195.97C931.258 195.274 929.411 194.925 927.334 194.925ZM927.133 188.24C930.229 188.24 933.085 188.756 935.706 189.797C938.327 190.833 940.59 192.332 942.498 194.288C944.401 196.244 945.89 198.661 946.963 201.535C948.033 204.409 948.569 207.685 948.569 211.362C948.569 212.792 948.415 213.743 948.109 214.22C947.805 214.697 947.227 214.935 946.375 214.935H911.972C912.038 218.201 912.482 221.042 913.3 223.459C914.115 225.876 915.24 227.891 916.665 229.507C918.1 231.124 919.798 232.332 921.774 233.129C923.746 233.929 925.958 234.328 928.407 234.328C930.685 234.328 932.652 234.066 934.305 233.537C935.953 233.011 937.374 232.44 938.562 231.829C939.757 231.215 940.751 230.647 941.555 230.118C942.351 229.592 943.039 229.328 943.617 229.328C944.366 229.328 944.947 229.618 945.356 230.196L947.906 233.511C946.781 234.873 945.437 236.059 943.872 237.061C942.309 238.067 940.629 238.89 938.843 239.537C937.06 240.183 935.211 240.67 933.308 240.99C931.4 241.313 929.514 241.477 927.643 241.477C924.069 241.477 920.777 240.872 917.767 239.664C914.752 238.456 912.154 236.686 909.959 234.354C907.764 232.025 906.052 229.145 904.825 225.706C903.601 222.267 902.988 218.322 902.988 213.864C902.988 210.255 903.544 206.888 904.649 203.756C905.756 200.624 907.346 197.91 909.423 195.614C911.497 193.318 914.03 191.515 917.025 190.206C920.021 188.893 923.391 188.24 927.133 188.24Z" fill="#3D4543"/>
<path d="M990.844 198.243C990.57 198.618 990.298 198.906 990.026 199.115C989.752 199.317 989.36 199.419 988.85 199.419C988.338 199.419 987.787 199.206 987.192 198.778C986.594 198.354 985.84 197.887 984.922 197.374C984.001 196.865 982.884 196.401 981.578 195.973C980.268 195.549 978.661 195.333 976.756 195.333C974.238 195.333 972.007 195.787 970.069 196.685C968.129 197.59 966.503 198.89 965.195 200.594C963.885 202.292 962.895 204.353 962.231 206.767C961.57 209.187 961.24 211.891 961.24 214.886C961.24 218.018 961.595 220.797 962.31 223.23C963.023 225.663 964.029 227.704 965.322 229.354C966.616 231.006 968.188 232.263 970.045 233.132C971.896 233.998 973.983 234.432 976.295 234.432C978.509 234.432 980.327 234.171 981.757 233.642C983.185 233.116 984.378 232.528 985.331 231.881C986.283 231.238 987.065 230.65 987.675 230.121C988.289 229.595 988.899 229.331 989.514 229.331C990.298 229.331 990.876 229.618 991.251 230.196L993.803 233.514C991.559 236.274 988.747 238.289 985.38 239.563C982.012 240.839 978.455 241.476 974.713 241.476C971.477 241.476 968.477 240.882 965.705 239.69C962.932 238.501 960.524 236.773 958.484 234.507C956.441 232.247 954.835 229.468 953.657 226.166C952.483 222.864 951.896 219.105 951.896 214.886C951.896 211.039 952.432 207.482 953.502 204.216C954.58 200.95 956.143 198.135 958.202 195.767C960.26 193.406 962.805 191.557 965.832 190.232C968.862 188.906 972.33 188.24 976.241 188.24C979.852 188.24 983.048 188.827 985.84 190.003C988.63 191.175 991.099 192.835 993.239 194.977L990.844 198.243Z" fill="#3D4543"/>
<path d="M1006.21 191.465V224.437C1006.21 228.353 1007.11 231.381 1008.92 233.523C1010.72 235.665 1013.44 236.736 1017.08 236.736C1019.74 236.736 1022.24 236.109 1024.59 234.849C1026.93 233.591 1029.09 231.838 1031.06 229.594V191.465H1040.15V243.17H1034.74C1033.45 243.17 1032.63 242.543 1032.29 241.283L1031.58 235.718C1029.33 238.203 1026.82 240.202 1024.02 241.717C1021.24 243.232 1018.03 243.987 1014.43 243.987C1011.6 243.987 1009.11 243.516 1006.95 242.582C1004.79 241.649 1002.98 240.329 1001.52 238.627C1000.05 236.926 998.954 234.869 998.224 232.452C997.489 230.038 997.127 227.364 997.127 224.437V191.465H1006.21Z" fill="#3D4543"/>
<path d="M1043.48 244.186V192.48H1048.68C1049.67 192.48 1050.35 192.666 1050.72 193.042C1051.1 193.414 1051.35 194.061 1051.49 194.982L1052.1 203.045C1053.87 199.44 1056.06 196.625 1058.66 194.597C1061.26 192.572 1064.32 191.562 1067.82 191.562C1069.25 191.562 1070.54 191.722 1071.7 192.046C1072.86 192.369 1073.93 192.817 1074.92 193.398L1073.74 200.184C1073.5 201.037 1072.98 201.461 1072.16 201.461C1071.68 201.461 1070.95 201.301 1069.97 200.978C1068.98 200.655 1067.6 200.491 1065.83 200.491C1062.67 200.491 1060.02 201.409 1057.9 203.251C1055.77 205.086 1053.99 207.758 1052.56 211.262V244.186H1043.48Z" fill="#3D4543"/>
<path d="M1089.16 243.447H1080.08V191.742H1089.16V243.447ZM1091.21 175.507C1091.21 176.392 1091.03 177.215 1090.67 177.986C1090.31 178.75 1089.84 179.429 1089.24 180.027C1088.65 180.618 1087.96 181.088 1087.17 181.428C1086.39 181.771 1085.55 181.941 1084.67 181.941C1083.79 181.941 1082.96 181.771 1082.2 181.428C1081.43 181.088 1080.75 180.618 1080.16 180.027C1079.56 179.429 1079.09 178.75 1078.75 177.986C1078.41 177.215 1078.24 176.392 1078.24 175.507C1078.24 174.622 1078.41 173.783 1078.75 172.979C1079.09 172.182 1079.56 171.483 1080.16 170.889C1080.75 170.291 1081.43 169.827 1082.2 169.485C1082.96 169.145 1083.79 168.975 1084.67 168.975C1085.55 168.975 1086.39 169.145 1087.17 169.485C1087.96 169.827 1088.65 170.291 1089.24 170.889C1089.84 171.483 1090.31 172.182 1090.67 172.979C1091.03 173.783 1091.21 174.622 1091.21 175.507Z" fill="#3D4543"/>
<path d="M1115.41 244.747C1111.33 244.747 1108.18 243.607 1105.99 241.328C1103.8 239.048 1102.7 235.763 1102.7 231.478V199.828H1096.47C1095.93 199.828 1095.47 199.668 1095.09 199.345C1094.72 199.022 1094.53 198.522 1094.53 197.84V194.214L1103 193.143L1105.1 177.167C1105.16 176.654 1105.39 176.239 1105.76 175.916C1106.13 175.592 1106.62 175.429 1107.19 175.429H1111.79V193.244H1126.59V199.828H1111.79V230.864C1111.79 233.042 1112.31 234.659 1113.37 235.711C1114.42 236.769 1115.78 237.295 1117.45 237.295C1118.4 237.295 1119.23 237.167 1119.92 236.912C1120.62 236.654 1121.22 236.377 1121.73 236.07C1122.25 235.763 1122.68 235.482 1123.04 235.227C1123.4 234.973 1123.71 234.845 1123.99 234.845C1124.46 234.845 1124.88 235.136 1125.26 235.711L1127.91 240.054C1126.35 241.517 1124.46 242.664 1122.25 243.496C1120.04 244.329 1117.76 244.747 1115.41 244.747Z" fill="#3D4543"/>
<path d="M1153.13 261.756C1152.83 262.439 1152.44 262.981 1151.98 263.389C1151.53 263.797 1150.82 264 1149.87 264H1143.13L1152.57 243.484L1131.24 194.79H1139.1C1139.88 194.79 1140.49 194.985 1140.94 195.377C1141.37 195.769 1141.7 196.204 1141.91 196.677L1155.74 229.245C1156.04 229.989 1156.31 230.74 1156.53 231.488C1156.75 232.239 1156.94 233.003 1157.11 233.787C1157.35 233.003 1157.59 232.239 1157.83 231.488C1158.07 230.74 1158.34 229.976 1158.64 229.192L1172.07 196.677C1172.27 196.132 1172.62 195.684 1173.12 195.325C1173.61 194.969 1174.15 194.79 1174.72 194.79H1181.97L1153.13 261.756Z" fill="#3D4543"/>
</svg>
