
<svg width="428" height="72" viewBox="0 0 428 72" fill="none" xmlns="http://www.w3.org/2000/svg">
<g clip-path="url(#clip0_39_1457)">
<path d="M41.3048 25.8468C43.9463 25.8468 46.4515 26.4267 48.703 27.4639C47.0969 22.8827 42.8368 17.1621 41.3048 15.1882C39.7729 17.1621 35.5127 22.8827 33.9067 27.4639C36.1582 26.4267 38.6634 25.8468 41.3048 25.8468Z" fill="#2B7DE1"/>
<path d="M76.6094 10.7002C66.5667 4.10341 54.945 0.24257 42.5425 0.000732422C48.7084 8.069 61.839 26.1896 67.9803 41.6892C72.614 32.3607 75.638 21.8715 76.6094 10.7002Z" fill="#3D4543"/>
<path d="M40.0673 0C27.6647 0.241832 16.0438 4.10268 6 10.6995C6.9716 21.8716 9.99539 32.3599 14.6294 41.6885C20.7707 26.1897 33.9013 8.06909 40.0673 0Z" fill="#3D4543"/>
<path d="M41.3053 38.2183C32.1581 38.2183 23.4487 40.0814 15.5269 43.4399C21.7754 55.3008 30.6731 65.1716 41.3053 72C51.9375 65.1716 60.8343 55.3008 67.0837 43.4399C59.1619 40.0814 50.4524 38.2183 41.3053 38.2183Z" fill="#3D4543"/>
<path d="M112.682 20.4994H107.094L109.929 11.6517C110.318 12.9118 111.105 15.441 112.682 20.4994ZM112.8 5.44385H107.026L97.188 32.1968H103.042L105.629 24.8635H114.159L116.728 32.1968H122.492L112.894 5.70204L112.8 5.44385Z" fill="#3D4543"/>
<path d="M132.786 5.46143H127.199V32.1963H143.488L143.659 27.5861H132.786V5.46143Z" fill="#3D4543"/>
<path d="M150.247 32.1963H155.834V5.46143H150.247V32.1963Z" fill="#3D4543"/>
<path d="M176.387 20.4994H170.8L173.634 11.6517C174.023 12.9118 174.809 15.441 176.387 20.4994ZM176.505 5.44385H170.731L160.894 32.1968H166.747L169.333 24.8635H177.865L180.433 32.1968H186.196L176.599 5.70204L176.505 5.44385Z" fill="#3D4543"/>
<path d="M201.8 16.3548L199.637 15.6644C198.537 15.3127 197.846 15.0846 197.543 14.9721C196.27 14.5822 195.677 13.8075 195.677 12.5474C195.72 11.4993 196.044 10.7798 196.669 10.3478C197.324 9.89462 198.337 9.66446 199.678 9.66446C201.596 9.66446 203.711 10.178 205.965 11.1888L206.334 11.3546L208.074 7.15336L207.772 6.98153C205.455 5.66621 202.666 5 199.483 5C196.644 5 194.325 5.6702 192.592 6.99358C190.827 8.34108 189.932 10.2754 189.932 12.7434C189.932 16.2663 191.777 18.7041 195.408 19.9822C195.684 20.0907 196.139 20.2445 196.769 20.4425C197.393 20.6394 198.059 20.8404 198.771 21.0484C199.476 21.2544 199.905 21.38 200.065 21.4292C202.067 22.006 203.04 22.9887 203.04 24.4347C203.04 25.5501 202.703 26.377 202.011 26.9599C201.307 27.5507 200.23 27.8502 198.81 27.8502C197.611 27.8502 196.363 27.6642 195.102 27.2995C193.833 26.9307 192.64 26.4414 191.559 25.8435L191.136 25.6104L189.733 30.1804L190.004 30.3362C192.532 31.8062 195.43 32.5508 198.615 32.5508C201.653 32.5508 204.111 31.8535 205.921 30.4778C207.763 29.0771 208.698 27.0553 208.698 24.4699C208.698 22.3145 208.149 20.6002 207.067 19.3743C206.003 18.1695 204.231 17.1536 201.8 16.3548Z" fill="#3D4543"/>
<path d="M241.139 13.0619C241.139 14.3833 240.783 15.3449 240.079 15.9197C239.352 16.5135 238.1 16.814 236.36 16.814C236.17 16.814 235.286 16.811 233.705 16.8059C232.633 16.801 231.884 16.7989 231.456 16.7969V9.73489H236.571C238.154 9.73489 239.334 10.0132 240.076 10.5619C240.791 11.0904 241.139 11.9084 241.139 13.0619ZM241.895 19.9692C244.843 18.7584 246.336 16.414 246.336 12.9916C246.336 11.7818 246.17 10.7146 245.843 9.81726C245.511 8.91087 245.051 8.16131 244.473 7.59254C243.899 7.02377 243.142 6.5676 242.223 6.23502C241.33 5.91443 240.377 5.68939 239.392 5.56881C238.416 5.44921 237.253 5.38892 235.935 5.38892H225.922V32.1951H231.456V21.0394L235.084 21.0725C235.946 21.0725 236.538 21.0756 236.854 21.0816C237.174 21.6644 237.846 23.041 238.853 25.1793L241.986 32.1951H248.11L243.975 23.6248C243.17 21.9648 242.486 20.761 241.895 19.9692Z" fill="#3D4543"/>
<path d="M270.646 25.5646C269.433 27.1141 267.671 27.8668 265.261 27.8668C262.85 27.8668 261.086 27.1111 259.866 25.5556C258.641 23.9931 258.02 21.7442 258.02 18.8724C258.02 15.9633 258.645 13.6813 259.876 12.0897C261.102 10.505 262.869 9.73532 265.278 9.73532C267.676 9.73532 269.43 10.502 270.644 12.0796C271.865 13.6663 272.484 15.9523 272.484 18.8724C272.484 21.7552 271.866 24.0071 270.646 25.5646ZM265.261 5.08789C261.259 5.08789 258.047 6.3148 255.714 8.73351C253.384 11.1471 252.203 14.5405 252.203 18.8191C252.203 23.0736 253.379 26.463 255.703 28.8947C258.03 31.3314 261.24 32.5674 265.243 32.5674C269.234 32.5674 272.44 31.3284 274.774 28.8866C277.102 26.4479 278.284 23.0676 278.284 18.8372C278.284 14.5595 277.108 11.1632 274.791 8.74256C272.469 6.31782 269.262 5.08789 265.261 5.08789Z" fill="#3D4543"/>
<path d="M293.932 16.1781H290.216V9.77221H292.957C294.877 9.77221 296.282 10.0113 297.135 10.4846C297.922 10.9217 298.304 11.7246 298.304 12.9394C298.304 15.118 296.873 16.1781 293.932 16.1781ZM290.216 20.311H293.862C295.695 20.311 297.056 20.6094 297.906 21.1983C298.722 21.764 299.118 22.6834 299.118 24.0108C299.118 26.6546 297.439 27.9397 293.985 27.9397H290.216V20.311ZM300.626 17.9034C300.9 17.7617 301.156 17.6029 301.393 17.4261C301.908 17.0442 302.318 16.6433 302.612 16.2343C302.903 15.8273 303.141 15.3691 303.319 14.8677C303.493 14.3784 303.606 13.9312 303.657 13.5383C303.707 13.1575 303.731 12.7656 303.731 12.3727C303.731 9.89776 302.814 8.09711 301.006 7.0219C299.263 5.98595 296.608 5.46143 293.116 5.46143H284.628V32.1963H294.64C297.771 32.1963 300.267 31.5221 302.058 30.1886C303.884 28.8301 304.811 26.8405 304.811 24.2761C304.811 22.5769 304.355 21.1229 303.454 19.9533C302.752 19.0439 301.805 18.3565 300.626 17.9034Z" fill="#3D4543"/>
<path d="M328.223 25.5646C327.009 27.1141 325.249 27.8668 322.838 27.8668C320.427 27.8668 318.663 27.1111 317.442 25.5556C316.217 23.9931 315.597 21.7442 315.597 18.8724C315.597 15.9633 316.221 13.6813 317.453 12.0897C318.678 10.505 320.446 9.73532 322.855 9.73532C325.252 9.73532 327.007 10.502 328.221 12.0796C329.442 13.6663 330.061 15.9523 330.061 18.8724C330.061 21.7552 329.443 24.0071 328.223 25.5646ZM322.838 5.08789C318.837 5.08789 315.624 6.3148 313.291 8.73351C310.96 11.1471 309.779 14.5405 309.779 18.8191C309.779 23.0736 310.957 26.463 313.279 28.8947C315.607 31.3314 318.816 32.5674 322.819 32.5674C326.81 32.5674 330.016 31.3284 332.35 28.8866C334.679 26.4479 335.861 23.0676 335.861 18.8372C335.861 14.5595 334.685 11.1632 332.367 8.74256C330.045 6.31782 326.839 5.08789 322.838 5.08789Z" fill="#3D4543"/>
<path d="M339.157 10.0907H346.721V32.1963H352.325V10.0907H359.855V5.46143H339.157V10.0907Z" fill="#3D4543"/>
<path d="M365.504 32.1963H371.093V5.46143H365.504V32.1963Z" fill="#3D4543"/>
<path d="M390.69 9.75341C392.65 9.75341 394.632 10.3603 396.578 11.5551L396.971 11.7963L398.778 7.44126L398.509 7.26242C396.35 5.81944 393.684 5.08789 390.585 5.08789C386.735 5.08789 383.574 6.34699 381.187 8.83096C378.805 11.3109 377.597 14.6349 377.597 18.7136C377.597 23.0002 378.752 26.4147 381.033 28.8655C383.32 31.3224 386.45 32.5674 390.337 32.5674C393.382 32.5674 395.959 31.9534 397.995 30.7416L398.227 30.6039L397.454 26.057L396.979 26.2981C394.906 27.3513 392.791 27.8858 390.69 27.8858C388.313 27.8858 386.538 27.1271 385.266 25.5676C383.99 24.0061 383.343 21.7482 383.343 18.8553C383.343 16.0668 384.013 13.823 385.336 12.1841C386.658 10.5483 388.408 9.75341 390.69 9.75341Z" fill="#3D4543"/>
<path d="M421.059 19.3743C419.995 18.1695 418.224 17.1536 415.792 16.3548L413.63 15.6644C412.53 15.3127 411.84 15.0846 411.534 14.9721C410.262 14.5822 409.67 13.8075 409.669 12.5474C409.711 11.4993 410.036 10.7798 410.66 10.3488C411.317 9.89462 412.329 9.66446 413.669 9.66446C415.589 9.66446 417.704 10.178 419.957 11.1888L420.326 11.3556L422.066 7.15336L421.764 6.98153C419.448 5.66621 416.658 5 413.474 5C410.637 5 408.318 5.6702 406.585 6.99358C404.819 8.34214 403.923 10.2754 403.923 12.7434C403.923 16.2663 405.77 18.7041 409.399 19.9822C409.676 20.0907 410.13 20.2445 410.761 20.4425C411.384 20.6394 412.051 20.8404 412.763 21.0484C413.468 21.2544 413.898 21.38 414.058 21.4292C416.058 22.006 417.031 22.9887 417.031 24.4347C417.031 25.5501 416.695 26.377 416.003 26.9599C415.3 27.5507 414.223 27.8511 412.801 27.8511C411.604 27.8511 410.356 27.6642 409.094 27.2995C407.824 26.9317 406.633 26.4414 405.551 25.8435L405.128 25.6104L403.727 30.1804L403.996 30.3362C406.525 31.8062 409.422 32.5508 412.608 32.5508C415.645 32.5508 418.103 31.8535 419.912 30.4778C421.755 29.0771 422.689 27.0564 422.689 24.4699C422.689 22.3145 422.14 20.6002 421.059 19.3743Z" fill="#3D4543"/>
<path d="M100.031 50.0067H103.22C104.109 50.0067 104.892 49.9003 105.567 49.6852C106.243 49.4702 106.807 49.1667 107.263 48.7738C107.718 48.3809 108.061 47.9126 108.293 47.368C108.522 46.8234 108.637 46.2215 108.637 45.5623C108.637 44.2219 108.195 43.211 107.311 42.5317C106.425 41.8504 105.109 41.5108 103.361 41.5108H100.031V50.0067ZM100.031 52.2204V61.6127H97V39.1072H103.361C104.784 39.1072 106.014 39.2519 107.051 39.5393C108.088 39.8276 108.944 40.2437 109.619 40.7873C110.294 41.3319 110.795 41.9891 111.119 42.7588C111.443 43.5285 111.606 44.3897 111.606 45.3423C111.606 46.1381 111.481 46.8817 111.23 47.572C110.979 48.2634 110.614 48.8844 110.138 49.434C109.661 49.9836 109.08 50.4509 108.394 50.8388C107.709 51.2266 106.931 51.52 106.062 51.718C106.439 51.9381 106.774 52.2576 107.067 52.6766L113.632 61.6127H110.931C110.376 61.6127 109.967 61.3977 109.705 60.9686L103.863 52.9278C103.685 52.6766 103.491 52.4967 103.282 52.3852C103.072 52.2757 102.759 52.2204 102.34 52.2204H100.031Z" fill="#3D4543"/>
<path d="M123.698 59.6481C125.269 59.6481 126.441 59.1226 127.216 58.0705C127.991 57.0184 128.379 55.5494 128.379 53.6653C128.379 51.7701 127.991 50.293 127.216 49.2369C126.441 48.1788 125.269 47.6503 123.698 47.6503C122.902 47.6503 122.212 47.786 121.625 48.0583C121.039 48.3305 120.55 48.7235 120.157 49.2369C119.764 49.7494 119.471 50.3794 119.278 51.128C119.084 51.8777 118.987 52.7227 118.987 53.6653C118.987 54.6068 119.084 55.4499 119.278 56.1935C119.471 56.937 119.764 57.5631 120.157 58.0705C120.55 58.579 121.039 58.9678 121.625 59.2401C122.212 59.5125 122.902 59.6481 123.698 59.6481ZM123.698 45.4517C124.861 45.4517 125.91 45.6446 126.848 46.0325C127.784 46.4204 128.58 46.97 129.235 47.6814C129.889 48.3938 130.391 49.254 130.743 50.2649C131.093 51.2757 131.268 52.4032 131.268 53.6492C131.268 54.9052 131.093 56.0357 130.743 57.0416C130.391 58.0464 129.889 58.9055 129.235 59.617C128.58 60.3294 127.784 60.877 126.848 61.2589C125.91 61.6397 124.861 61.8317 123.698 61.8317C122.537 61.8317 121.486 61.6397 120.55 61.2589C119.613 60.877 118.815 60.3294 118.154 59.617C117.495 58.9055 116.987 58.0464 116.631 57.0416C116.276 56.0357 116.098 54.9052 116.098 53.6492C116.098 52.4032 116.276 51.2757 116.631 50.2649C116.987 49.254 117.495 48.3938 118.154 47.6814C118.815 46.97 119.613 46.4204 120.55 46.0325C121.486 45.6446 122.537 45.4517 123.698 45.4517Z" fill="#3D4543"/>
<path d="M142.704 47.683C141.793 47.683 140.995 47.8931 140.309 48.311C139.623 48.73 138.992 49.3219 138.416 50.0866V57.7817C138.919 58.472 139.477 58.9594 140.089 59.2417C140.701 59.5241 141.385 59.6658 142.139 59.6658C143.625 59.6658 144.766 59.1373 145.562 58.0801C146.358 57.023 146.755 55.5148 146.755 53.5574C146.755 52.5204 146.663 51.6311 146.481 50.8865C146.297 50.1439 146.033 49.5339 145.688 49.0577C145.342 48.5814 144.918 48.2326 144.415 48.0126C143.913 47.7926 143.342 47.683 142.704 47.683ZM135.606 61.6132V38.4807H138.416V47.9965C139.077 47.2339 139.832 46.6179 140.686 46.1526C141.539 45.6864 142.516 45.4532 143.614 45.4532C144.536 45.4532 145.368 45.6261 146.113 45.9717C146.855 46.3174 147.488 46.8319 148.012 47.5182C148.536 48.2045 148.938 49.0516 149.221 50.0625C149.504 51.0734 149.645 52.237 149.645 53.5574C149.645 54.73 149.488 55.8213 149.173 56.8311C148.86 57.841 148.407 58.7152 147.816 59.4538C147.224 60.1923 146.501 60.7731 145.648 61.1972C144.795 61.6212 143.834 61.8332 142.766 61.8332C141.741 61.8332 140.869 61.6343 140.152 61.2364C139.434 60.8394 138.809 60.2838 138.275 59.5714L138.133 61.0173C138.049 61.4142 137.808 61.6132 137.41 61.6132H135.606Z" fill="#3D4543"/>
<path d="M160.291 59.6481C161.861 59.6481 163.034 59.1226 163.809 58.0705C164.584 57.0184 164.971 55.5494 164.971 53.6653C164.971 51.7701 164.584 50.293 163.809 49.2369C163.034 48.1788 161.861 47.6503 160.291 47.6503C159.495 47.6503 158.805 47.786 158.217 48.0583C157.632 48.3305 157.142 48.7235 156.749 49.2369C156.357 49.7494 156.063 50.3794 155.87 51.128C155.676 51.8777 155.58 52.7227 155.58 53.6653C155.58 54.6068 155.676 55.4499 155.87 56.1935C156.063 56.937 156.357 57.5631 156.749 58.0705C157.142 58.579 157.632 58.9678 158.217 59.2401C158.805 59.5125 159.495 59.6481 160.291 59.6481ZM160.291 45.4517C161.453 45.4517 162.502 45.6446 163.44 46.0325C164.376 46.4204 165.172 46.97 165.827 47.6814C166.481 48.3938 166.984 49.254 167.334 50.2649C167.686 51.2757 167.86 52.4032 167.86 53.6492C167.86 54.9052 167.686 56.0357 167.334 57.0416C166.984 58.0464 166.481 58.9055 165.827 59.617C165.172 60.3294 164.376 60.877 163.44 61.2589C162.502 61.6397 161.453 61.8317 160.291 61.8317C159.129 61.8317 158.079 61.6397 157.142 61.2589C156.206 60.877 155.407 60.3294 154.747 59.617C154.087 58.9055 153.579 58.0464 153.223 57.0416C152.867 56.0357 152.689 54.9052 152.689 53.6492C152.689 52.4032 152.867 51.2757 153.223 50.2649C153.579 49.254 154.087 48.3938 154.747 47.6814C155.407 46.97 156.206 46.4204 157.142 46.0325C158.079 45.6446 159.129 45.4517 160.291 45.4517Z" fill="#3D4543"/>
<path d="M176.923 61.8637C175.667 61.8637 174.7 61.513 174.025 60.8116C173.35 60.1103 173.012 59.0994 173.012 57.781V48.0431H171.095C170.929 48.0431 170.788 47.9938 170.672 47.8944C170.557 47.7949 170.499 47.6411 170.499 47.4312V46.3158L173.106 45.9862L173.751 41.0705C173.771 40.9127 173.84 40.7851 173.955 40.6856C174.069 40.5862 174.217 40.5359 174.393 40.5359H175.809V46.0174H180.362V48.0431H175.809V57.5921C175.809 58.2624 175.97 58.7598 176.295 59.0833C176.618 59.4089 177.037 59.5707 177.551 59.5707C177.844 59.5707 178.098 59.5315 178.312 59.4531C178.528 59.3737 178.713 59.2883 178.869 59.1939C179.028 59.0994 179.162 59.013 179.271 58.9346C179.381 58.8563 179.478 58.8171 179.562 58.8171C179.707 58.8171 179.838 58.9064 179.955 59.0833L180.771 60.4197C180.289 60.87 179.707 61.2227 179.028 61.4789C178.347 61.7351 177.645 61.8637 176.923 61.8637Z" fill="#3D4543"/>
<path d="M207.752 56.964C207.919 56.964 208.07 57.0313 208.207 57.168L209.402 58.4713C208.48 59.5394 207.361 60.3725 206.049 60.9683C204.733 61.5652 203.15 61.8636 201.296 61.8636C199.673 61.8636 198.202 61.5843 196.884 61.0236C195.565 60.4629 194.439 59.6781 193.506 58.6672C192.574 57.6573 191.853 56.4455 191.34 55.0317C190.826 53.6189 190.569 52.0634 190.569 50.3682C190.569 48.671 190.844 47.1165 191.395 45.7037C191.945 44.2899 192.716 43.0761 193.711 42.0602C194.706 41.0443 195.896 40.2565 197.284 39.6958C198.672 39.1361 200.202 38.8557 201.877 38.8557C203.532 38.8557 204.959 39.1119 206.158 39.6254C207.355 40.1389 208.422 40.8342 209.353 41.7145L208.364 43.1122C208.29 43.2168 208.207 43.3031 208.112 43.3715C208.019 43.4398 207.882 43.473 207.704 43.473C207.568 43.473 207.424 43.4237 207.272 43.3242C207.12 43.2247 206.939 43.1012 206.731 42.9555C206.52 42.8087 206.275 42.652 205.993 42.4842C205.711 42.3164 205.375 42.1596 204.987 42.0129C204.599 41.8663 204.15 41.7436 203.637 41.6442C203.124 41.5437 202.532 41.4944 201.862 41.4944C200.657 41.4944 199.556 41.7014 198.557 42.1154C197.556 42.5284 196.695 43.1173 195.972 43.8809C195.251 44.6456 194.687 45.5781 194.284 46.6774C193.882 47.7757 193.68 49.0066 193.68 50.3682C193.68 51.7709 193.882 53.022 194.284 54.1213C194.687 55.2206 195.237 56.1491 195.933 56.9088C196.629 57.6674 197.455 58.2462 198.407 58.6441C199.359 59.042 200.386 59.241 201.485 59.241C202.155 59.241 202.757 59.2018 203.292 59.1224C203.825 59.044 204.32 58.9214 204.775 58.7537C205.23 58.5868 205.654 58.3748 206.049 58.1176C206.44 57.8623 206.835 57.5558 207.233 57.1991C207.411 57.0424 207.584 56.964 207.752 56.964Z" fill="#3D4543"/>
<path d="M218.416 66.3096C218.322 66.5197 218.205 66.6865 218.063 66.8121C217.922 66.9376 217.704 67 217.412 67H215.338L218.244 60.6875L211.679 45.7053H214.098C214.338 45.7053 214.527 45.7656 214.663 45.8862C214.798 46.0068 214.898 46.1404 214.962 46.2861L219.217 56.3064C219.312 56.5356 219.393 56.7666 219.461 56.9968C219.528 57.2278 219.589 57.463 219.642 57.7041C219.715 57.463 219.788 57.2278 219.86 56.9968C219.935 56.7666 220.019 56.5315 220.112 56.2903L224.243 46.2861C224.305 46.1183 224.414 45.9806 224.565 45.8701C224.717 45.7606 224.882 45.7053 225.06 45.7053H227.29L218.416 66.3096Z" fill="#3D4543"/>
<path d="M237.811 47.683C236.9 47.683 236.102 47.8931 235.416 48.311C234.73 48.73 234.1 49.3219 233.523 50.0866V57.7817C234.026 58.472 234.584 58.9594 235.196 59.2417C235.809 59.5241 236.492 59.6658 237.246 59.6658C238.732 59.6658 239.873 59.1373 240.669 58.0801C241.465 57.023 241.863 55.5148 241.863 53.5574C241.863 52.5204 241.771 51.6311 241.589 50.8865C241.405 50.1439 241.141 49.5339 240.795 49.0577C240.449 48.5814 240.025 48.2326 239.523 48.0126C239.02 47.7926 238.45 47.683 237.811 47.683ZM230.713 61.6132V38.4807H233.523V47.9965C234.184 47.2339 234.94 46.6179 235.793 46.1526C236.647 45.6864 237.624 45.4532 238.722 45.4532C239.643 45.4532 240.475 45.6261 241.22 45.9717C241.962 46.3174 242.595 46.8319 243.119 47.5182C243.643 48.2045 244.045 49.0516 244.328 50.0625C244.611 51.0734 244.752 52.237 244.752 53.5574C244.752 54.73 244.596 55.8213 244.281 56.8311C243.967 57.841 243.515 58.7152 242.923 59.4538C242.332 60.1923 241.609 60.7731 240.756 61.1972C239.903 61.6212 238.942 61.8332 237.874 61.8332C236.848 61.8332 235.977 61.6343 235.259 61.2364C234.542 60.8394 233.916 60.2838 233.382 59.5714L233.24 61.0173C233.157 61.4142 232.916 61.6132 232.518 61.6132H230.713Z" fill="#3D4543"/>
<path d="M255.324 47.5086C253.974 47.5086 252.911 47.8995 252.136 48.6783C251.362 49.458 250.879 50.5402 250.692 51.9219H259.344C259.344 51.2727 259.256 50.6789 259.077 50.1393C258.9 49.5997 258.638 49.1344 258.292 48.7416C257.947 48.3486 257.525 48.0452 257.028 47.8301C256.531 47.6161 255.963 47.5086 255.324 47.5086ZM255.262 45.4517C256.214 45.4517 257.094 45.6105 257.899 45.931C258.707 46.2495 259.403 46.7108 259.989 47.3127C260.576 47.9145 261.034 48.6581 261.363 49.5424C261.693 50.4267 261.858 51.4345 261.858 52.566C261.858 53.0061 261.81 53.2985 261.716 53.4452C261.623 53.592 261.445 53.6653 261.182 53.6653H250.597C250.617 54.6701 250.754 55.5443 251.005 56.2879C251.256 57.0315 251.602 57.6515 252.041 58.1489C252.482 58.6463 253.005 59.0181 253.613 59.2633C254.219 59.5095 254.9 59.632 255.654 59.632C256.355 59.632 256.96 59.5517 257.468 59.3889C257.976 59.2271 258.413 59.0513 258.779 58.8633C259.147 58.6745 259.452 58.4996 259.699 58.3368C259.944 58.175 260.157 58.0936 260.335 58.0936C260.564 58.0936 260.743 58.1831 260.869 58.3609L261.653 59.3808C261.308 59.7999 260.894 60.1646 260.413 60.4731C259.931 60.7826 259.415 61.0358 258.865 61.2348C258.316 61.4337 257.748 61.5835 257.162 61.6819C256.575 61.7814 255.994 61.8317 255.418 61.8317C254.319 61.8317 253.306 61.6457 252.38 61.274C251.452 60.9022 250.652 60.3575 249.977 59.6401C249.302 58.9236 248.775 58.0373 248.397 56.9792C248.021 55.9211 247.833 54.7073 247.833 53.3357C247.833 52.2253 248.003 51.1894 248.343 50.2257C248.684 49.262 249.173 48.427 249.812 47.7206C250.45 47.0142 251.23 46.4596 252.151 46.0566C253.073 45.6527 254.11 45.4517 255.262 45.4517Z" fill="#3D4543"/>
<path d="M266.208 61.6122V45.7035H267.809C268.113 45.7035 268.322 45.7608 268.438 45.8763C268.553 45.9909 268.631 46.1898 268.673 46.4732L268.861 48.9542C269.406 47.8448 270.079 46.9787 270.879 46.3547C271.68 45.7316 272.62 45.4211 273.699 45.4211C274.139 45.4211 274.536 45.4704 274.893 45.5698C275.248 45.6693 275.578 45.807 275.881 45.9858L275.52 48.0739C275.447 48.3362 275.284 48.4668 275.034 48.4668C274.887 48.4668 274.661 48.4176 274.358 48.3181C274.055 48.2186 273.63 48.1684 273.086 48.1684C272.112 48.1684 271.298 48.4507 270.644 49.0175C269.99 49.5822 269.443 50.4042 269.002 51.4824V61.6122H266.208Z" fill="#3D4543"/>
<path d="M288.757 48.3255C288.632 48.5556 288.439 48.6712 288.177 48.6712C288.02 48.6712 287.841 48.6139 287.643 48.4983C287.443 48.3837 287.2 48.2552 286.912 48.1135C286.625 47.9718 286.282 47.8422 285.884 47.7205C285.486 47.601 285.015 47.5407 284.47 47.5407C284 47.5407 283.575 47.601 283.198 47.7205C282.821 47.8422 282.498 48.0069 282.232 48.216C281.965 48.4259 281.76 48.6691 281.619 48.9465C281.479 49.2238 281.408 49.5243 281.408 49.8499C281.408 50.2578 281.525 50.5984 281.76 50.8698C281.996 51.1431 282.308 51.3782 282.695 51.5761C283.083 51.7761 283.523 51.951 284.015 52.1027C284.507 52.2544 285.012 52.4162 285.53 52.5901C286.049 52.7629 286.554 52.9528 287.047 53.1628C287.538 53.3718 287.978 53.6341 288.365 53.9486C288.753 54.2621 289.064 54.647 289.299 55.1022C289.534 55.5573 289.653 56.105 289.653 56.7441C289.653 57.4766 289.522 58.1549 289.26 58.7769C288.998 59.3999 288.611 59.9405 288.099 60.3957C287.585 60.8509 286.957 61.2086 286.213 61.4709C285.471 61.7331 284.612 61.8637 283.638 61.8637C282.528 61.8637 281.522 61.6829 280.622 61.3221C279.722 60.9604 278.957 60.4972 278.329 59.9324L278.989 58.8633C279.073 58.7286 279.172 58.6231 279.288 58.5498C279.402 58.4774 279.555 58.4392 279.743 58.4392C279.932 58.4392 280.13 58.5136 280.34 58.6593C280.549 58.807 280.803 58.9688 281.102 59.1467C281.4 59.3245 281.76 59.4863 282.185 59.633C282.609 59.7797 283.14 59.854 283.779 59.854C284.323 59.854 284.801 59.7827 285.208 59.6411C285.616 59.4994 285.957 59.3095 286.228 59.0672C286.502 58.8271 286.703 58.5498 286.834 58.2352C286.965 57.9217 287.03 57.5871 287.03 57.2304C287.03 56.7913 286.912 56.4276 286.677 56.1392C286.441 55.8507 286.13 55.6046 285.742 55.4006C285.354 55.1966 284.913 55.0187 284.416 54.867C283.918 54.7153 283.411 54.5555 282.892 54.3877C282.372 54.2199 281.866 54.03 281.368 53.8149C280.87 53.5999 280.428 53.3296 280.041 53.0061C279.653 52.6815 279.343 52.2815 279.107 51.8043C278.871 51.328 278.753 50.7502 278.753 50.0689C278.753 49.462 278.879 48.8781 279.13 48.3174C279.382 47.7588 279.748 47.2654 280.231 46.8414C280.711 46.4183 281.302 46.0806 282.004 45.8295C282.706 45.5783 283.506 45.4526 284.407 45.4526C285.455 45.4526 286.393 45.6175 287.227 45.947C288.059 46.2766 288.778 46.7288 289.386 47.3045L288.757 48.3255Z" fill="#3D4543"/>
<path d="M300.427 47.5086C299.076 47.5086 298.014 47.8995 297.239 48.6783C296.465 49.458 295.983 50.5402 295.795 51.9219H304.448C304.448 51.2727 304.359 50.6789 304.18 50.1393C304.004 49.5997 303.741 49.1344 303.395 48.7416C303.05 48.3486 302.627 48.0452 302.132 47.8301C301.634 47.6161 301.066 47.5086 300.427 47.5086ZM300.365 45.4517C301.318 45.4517 302.196 45.6105 303.003 45.931C303.809 46.2495 304.506 46.7108 305.093 47.3127C305.678 47.9145 306.136 48.6581 306.467 49.5424C306.796 50.4267 306.961 51.4345 306.961 52.566C306.961 53.0061 306.913 53.2985 306.819 53.4452C306.726 53.592 306.548 53.6653 306.286 53.6653H295.7C295.72 54.6701 295.857 55.5443 296.108 56.2879C296.359 57.0315 296.705 57.6515 297.144 58.1489C297.586 58.6463 298.108 59.0181 298.716 59.2633C299.323 59.5095 300.003 59.632 300.757 59.632C301.458 59.632 302.063 59.5517 302.572 59.3889C303.079 59.2271 303.516 59.0513 303.882 58.8633C304.249 58.6745 304.555 58.4996 304.803 58.3368C305.047 58.175 305.259 58.0936 305.437 58.0936C305.668 58.0936 305.846 58.1831 305.972 58.3609L306.757 59.3808C306.411 59.7999 305.997 60.1646 305.515 60.4731C305.035 60.7826 304.518 61.0358 303.968 61.2348C303.42 61.4337 302.851 61.5835 302.265 61.6819C301.678 61.7814 301.098 61.8317 300.522 61.8317C299.422 61.8317 298.409 61.6457 297.483 61.274C296.555 60.9022 295.756 60.3575 295.08 59.6401C294.405 58.9236 293.878 58.0373 293.501 56.9792C293.124 55.9211 292.936 54.7073 292.936 53.3357C292.936 52.2253 293.107 51.1894 293.447 50.2257C293.787 49.262 294.276 48.427 294.915 47.7206C295.554 47.0142 296.333 46.4596 297.255 46.0566C298.176 45.6527 299.213 45.4517 300.365 45.4517Z" fill="#3D4543"/>
<path d="M322.163 48.5293C322.078 48.6448 321.995 48.7332 321.911 48.7975C321.827 48.8598 321.706 48.891 321.549 48.891C321.392 48.891 321.222 48.8257 321.039 48.694C320.855 48.5634 320.623 48.4197 320.34 48.2619C320.057 48.1052 319.713 47.9625 319.312 47.8309C318.908 47.7003 318.414 47.6339 317.828 47.6339C317.053 47.6339 316.366 47.7736 315.77 48.0499C315.173 48.3283 314.673 48.7282 314.271 49.2527C313.867 49.7752 313.563 50.4093 313.359 51.1519C313.155 51.8965 313.053 52.7285 313.053 53.6499C313.053 54.6136 313.163 55.4687 313.383 56.2173C313.602 56.9659 313.912 57.5939 314.31 58.1014C314.708 58.6098 315.192 58.9967 315.763 59.264C316.333 59.5303 316.975 59.6639 317.686 59.6639C318.367 59.6639 318.927 59.5835 319.367 59.4208C319.806 59.259 320.173 59.0781 320.466 58.8791C320.759 58.6811 321 58.5003 321.188 58.3375C321.377 58.1758 321.564 58.0944 321.754 58.0944C321.995 58.0944 322.173 58.1828 322.288 58.3606L323.073 59.3816C322.383 60.2306 321.518 60.8506 320.481 61.2425C319.445 61.6354 318.351 61.8313 317.199 61.8313C316.204 61.8313 315.28 61.6485 314.427 61.2817C313.574 60.916 312.833 60.3843 312.206 59.687C311.577 58.9916 311.083 58.1366 310.72 57.1207C310.359 56.1048 310.178 54.9482 310.178 53.6499C310.178 52.4662 310.343 51.372 310.673 50.3671C311.004 49.3622 311.485 48.4961 312.119 47.7676C312.752 47.0411 313.535 46.4723 314.466 46.0643C315.399 45.6564 316.466 45.4514 317.67 45.4514C318.78 45.4514 319.764 45.6323 320.623 45.994C321.481 46.3547 322.241 46.8652 322.9 47.5244L322.163 48.5293Z" fill="#3D4543"/>
<path d="M329.184 45.7056V55.8504C329.184 57.0553 329.461 57.9868 330.017 58.6459C330.572 59.3051 331.408 59.6347 332.529 59.6347C333.346 59.6347 334.116 59.4417 334.838 59.0539C335.561 58.667 336.225 58.1274 336.832 57.4371V45.7056H339.629V61.6142H337.964C337.566 61.6142 337.314 61.4213 337.209 61.0334L336.99 59.3211C336.298 60.0859 335.525 60.7008 334.666 61.1671C333.807 61.6333 332.822 61.8654 331.713 61.8654C330.843 61.8654 330.078 61.7207 329.412 61.4334C328.747 61.146 328.19 60.74 327.74 60.2165C327.289 59.693 326.951 59.0599 326.727 58.3163C326.501 57.5738 326.389 56.7508 326.389 55.8504V45.7056H329.184Z" fill="#3D4543"/>
<path d="M345.016 61.6122V45.7035H346.617C346.921 45.7035 347.13 45.7608 347.246 45.8763C347.361 45.9909 347.439 46.1898 347.481 46.4732L347.669 48.9542C348.214 47.8448 348.887 46.9787 349.688 46.3547C350.488 45.7316 351.428 45.4211 352.507 45.4211C352.947 45.4211 353.344 45.4704 353.701 45.5698C354.056 45.6693 354.386 45.807 354.689 45.9858L354.328 48.0739C354.255 48.3362 354.093 48.4668 353.842 48.4668C353.695 48.4668 353.469 48.4176 353.166 48.3181C352.863 48.2186 352.438 48.1684 351.894 48.1684C350.92 48.1684 350.107 48.4507 349.452 49.0175C348.798 49.5822 348.251 50.4042 347.81 51.4824V61.6122H345.016Z" fill="#3D4543"/>
<path d="M361.567 61.6127H358.773V45.704H361.567V61.6127ZM362.197 40.7089C362.197 40.9812 362.142 41.2344 362.032 41.4716C361.922 41.7067 361.775 41.9157 361.591 42.0996C361.409 42.2815 361.197 42.4262 360.955 42.5307C360.714 42.6362 360.457 42.6884 360.186 42.6884C359.914 42.6884 359.659 42.6362 359.424 42.5307C359.189 42.4262 358.979 42.2815 358.796 42.0996C358.612 41.9157 358.468 41.7067 358.364 41.4716C358.26 41.2344 358.208 40.9812 358.208 40.7089C358.208 40.4366 358.26 40.1784 358.364 39.9312C358.468 39.686 358.612 39.4709 358.796 39.288C358.979 39.1041 359.189 38.9615 359.424 38.856C359.659 38.7514 359.914 38.6992 360.186 38.6992C360.457 38.6992 360.714 38.7514 360.955 38.856C361.197 38.9615 361.409 39.1041 361.591 39.288C361.775 39.4709 361.922 39.686 362.032 39.9312C362.142 40.1784 362.197 40.4366 362.197 40.7089Z" fill="#3D4543"/>
<path d="M372.105 61.8637C370.849 61.8637 369.882 61.513 369.207 60.8116C368.532 60.1103 368.194 59.0994 368.194 57.781V48.0431H366.278C366.111 48.0431 365.97 47.9938 365.854 47.8944C365.739 47.7949 365.681 47.6411 365.681 47.4312V46.3158L368.288 45.9862L368.933 41.0705C368.953 40.9127 369.022 40.7851 369.137 40.6856C369.251 40.5862 369.399 40.5359 369.576 40.5359H370.991V46.0174H375.544V48.0431H370.991V57.5921C370.991 58.2624 371.152 58.7598 371.477 59.0833C371.8 59.4089 372.219 59.5707 372.733 59.5707C373.026 59.5707 373.28 59.5315 373.495 59.4531C373.71 59.3737 373.895 59.2883 374.051 59.1939C374.21 59.0994 374.344 59.013 374.453 58.9346C374.563 58.8563 374.66 58.8171 374.744 58.8171C374.889 58.8171 375.02 58.9064 375.137 59.0833L375.953 60.4197C375.471 60.87 374.889 61.2227 374.21 61.4789C373.529 61.7351 372.827 61.8637 372.105 61.8637Z" fill="#3D4543"/>
<path d="M384.45 66.3096C384.356 66.5197 384.238 66.6865 384.097 66.8121C383.956 66.9376 383.738 67 383.445 67H381.372L384.277 60.6875L377.712 45.7053H380.131C380.371 45.7053 380.56 45.7656 380.697 45.8862C380.832 46.0068 380.932 46.1404 380.995 46.2861L385.251 56.3064C385.345 56.5356 385.427 56.7666 385.494 56.9968C385.562 57.2278 385.623 57.463 385.675 57.7041C385.749 57.463 385.822 57.2278 385.894 56.9968C385.969 56.7666 386.052 56.5315 386.145 56.2903L390.277 46.2861C390.338 46.1183 390.447 45.9806 390.599 45.8701C390.751 45.7606 390.916 45.7053 391.093 45.7053H393.323L384.45 66.3096Z" fill="#3D4543"/>
</g>
<defs>
<clipPath id="clip0_39_1457">
<rect width="427.2" height="72" fill="white"/>
</clipPath>
</defs>
</svg>
