<svg width="1057" height="311" viewBox="0 0 1057 311" fill="none" xmlns="http://www.w3.org/2000/svg">
<g clip-path="url(#clip0_43_1826)">
<path d="M152.483 111.634C163.892 111.634 174.712 114.138 184.436 118.618C177.499 98.8314 159.099 74.1241 152.483 65.5989C145.867 74.1241 127.467 98.8314 120.53 118.618C130.254 114.138 141.074 111.634 152.483 111.634Z" fill="#2B7DE1"/>
<path d="M304.965 46.2141C261.59 17.7223 211.396 1.04719 157.829 0.00268555C184.459 34.8497 241.171 113.113 267.695 180.056C287.709 139.766 300.77 94.463 304.965 46.2141Z" fill="#3D4543"/>
<path d="M147.138 0C93.5707 1.04448 43.3798 17.7196 0 46.2114C4.19636 94.4639 17.2562 139.763 37.2708 180.054C63.7951 113.114 120.507 34.8506 147.138 0Z" fill="#3D4543"/>
<path d="M152.485 165.066C112.978 165.066 75.3616 173.113 41.147 187.618C68.1347 238.846 106.564 281.478 152.485 310.97C198.406 281.478 236.832 238.846 263.823 187.618C229.609 173.113 191.992 165.066 152.485 165.066Z" fill="#3D4543"/>
<path d="M385.331 108.47H371.051L378.296 85.8624C379.29 89.0821 381.3 95.5447 385.331 108.47ZM385.631 70H370.878L345.738 138.359H360.698L367.307 119.621H389.106L395.669 138.359H410.397L385.872 70.6597L385.631 70Z" fill="#3D4543"/>
<path d="M427.234 70H412.956V138.313H454.58L455.017 126.533H427.234V70Z" fill="#3D4543"/>
<path d="M457.58 138.313H471.856V70H457.58V138.313Z" fill="#3D4543"/>
<path d="M514.007 108.47H499.731L506.974 85.8624C507.967 89.0821 509.976 95.5447 514.007 108.47ZM514.309 70H499.554L474.418 138.359H489.374L495.983 119.621H517.783L524.346 138.359H539.073L514.548 70.6597L514.309 70Z" fill="#3D4543"/>
<path d="M572.468 99.0136L566.941 97.2497C564.129 96.3509 562.365 95.768 561.591 95.4805C558.336 94.4844 556.823 92.5048 556.823 89.2851C556.931 86.607 557.759 84.7686 559.357 83.6646C561.031 82.5067 563.619 81.9186 567.045 81.9186C571.946 81.9186 577.352 83.2307 583.11 85.8136L584.054 86.2373L588.5 75.5022L587.728 75.0632C581.806 71.7023 574.681 70 566.546 70C559.292 70 553.368 71.7125 548.938 75.094C544.428 78.5371 542.14 83.4797 542.14 89.7857C542.14 98.7875 546.857 105.016 556.133 108.282C556.84 108.56 558.001 108.953 559.613 109.458C561.206 109.962 562.908 110.475 564.728 111.007C566.529 111.533 567.626 111.854 568.035 111.98C573.15 113.453 575.636 115.965 575.636 119.659C575.636 122.509 574.775 124.622 573.007 126.112C571.208 127.621 568.457 128.386 564.826 128.386C561.764 128.386 558.575 127.911 555.351 126.979C552.108 126.037 549.062 124.787 546.3 123.259L545.218 122.663L541.634 134.341L542.325 134.739C548.784 138.495 556.191 140.397 564.329 140.397C572.092 140.397 578.372 138.616 582.998 135.101C587.705 131.521 590.093 126.355 590.093 119.749C590.093 114.242 588.691 109.861 585.927 106.729C583.208 103.651 578.679 101.055 572.468 99.0136Z" fill="#3D4543"/>
<path d="M665.735 89.6059C665.735 92.9824 664.826 95.4395 663.027 96.908C661.171 98.4255 657.97 99.1932 653.524 99.1932C653.04 99.1932 650.781 99.1855 646.739 99.1726C644 99.1599 642.086 99.1547 640.992 99.1495V81.1048H654.065C658.109 81.1048 661.125 81.8159 663.02 83.2178C664.847 84.5683 665.735 86.6584 665.735 89.6059ZM667.669 107.255C675.2 104.161 679.016 98.1713 679.016 89.4262C679.016 86.3349 678.592 83.6082 677.756 81.3153C676.909 78.9993 675.732 77.084 674.255 75.6307C672.789 74.1774 670.854 73.0118 668.506 72.162C666.224 71.3428 663.79 70.7678 661.273 70.4597C658.779 70.1541 655.806 70 652.437 70H626.853V138.495H640.992V109.99L650.265 110.075C652.466 110.075 653.98 110.082 654.787 110.098C655.603 111.587 657.321 115.105 659.896 120.568L667.9 138.495H683.549L672.984 116.596C670.927 112.355 669.178 109.279 667.669 107.255Z" fill="#3D4543"/>
<path d="M733.238 122.322C730.14 126.281 725.637 128.204 719.478 128.204C713.318 128.204 708.809 126.273 705.691 122.299C702.562 118.306 700.975 112.56 700.975 105.222C700.975 97.7888 702.572 91.9579 705.717 87.8909C708.85 83.8417 713.366 81.8751 719.521 81.8751C725.649 81.8751 730.132 83.834 733.232 87.8653C736.352 91.9194 737.935 97.7605 737.935 105.222C737.935 112.588 736.356 118.342 733.238 122.322ZM719.478 70C709.252 70 701.045 73.135 695.082 79.3153C689.128 85.4824 686.11 94.1532 686.11 105.086C686.11 115.957 689.116 124.617 695.053 130.831C701 137.057 709.204 140.215 719.432 140.215C729.631 140.215 737.822 137.049 743.786 130.81C749.737 124.579 752.756 115.942 752.756 105.132C752.756 94.2019 749.752 85.5236 743.83 79.3384C737.897 73.1427 729.702 70 719.478 70Z" fill="#3D4543"/>
<path d="M779.093 97.3831H769.599V81.0149H776.603C781.508 81.0149 785.1 81.6259 787.278 82.8352C789.288 83.9521 790.267 86.0035 790.267 89.1077C790.267 94.6743 786.609 97.3831 779.093 97.3831ZM769.599 107.944H778.914C783.599 107.944 787.077 108.706 789.25 110.211C791.333 111.656 792.346 114.006 792.346 117.397C792.346 124.152 788.056 127.436 779.23 127.436H769.599V107.944ZM796.198 101.792C796.899 101.43 797.554 101.024 798.158 100.572C799.474 99.5963 800.521 98.5718 801.274 97.5268C802.018 96.4869 802.624 95.3161 803.081 94.0349C803.526 92.7846 803.813 91.6419 803.944 90.638C804.071 89.665 804.132 88.6636 804.132 87.6596C804.132 81.3357 801.791 76.7347 797.171 73.9873C792.716 71.3403 785.932 70 777.009 70H755.319V138.313H780.903C788.903 138.313 795.281 136.59 799.857 133.183C804.525 129.711 806.894 124.628 806.894 118.075C806.894 113.733 805.729 110.018 803.426 107.029C801.633 104.706 799.212 102.949 796.198 101.792Z" fill="#3D4543"/>
<path d="M856.585 122.322C853.484 126.281 848.986 128.204 842.825 128.204C836.664 128.204 832.156 126.273 829.036 122.299C825.907 118.306 824.322 112.56 824.322 105.222C824.322 97.7888 825.918 91.9579 829.065 87.8909C832.197 83.8417 836.714 81.8751 842.869 81.8751C848.995 81.8751 853.479 83.834 856.581 87.8653C859.701 91.9194 861.282 97.7605 861.282 105.222C861.282 112.588 859.703 118.342 856.585 122.322ZM842.825 70C832.601 70 824.391 73.135 818.429 79.3153C812.472 85.4824 809.457 94.1532 809.457 105.086C809.457 115.957 812.465 124.617 818.4 130.831C824.347 137.057 832.549 140.215 842.777 140.215C852.976 140.215 861.168 137.049 867.131 130.81C873.083 124.579 876.103 115.942 876.103 105.132C876.103 94.2019 873.099 85.5236 867.175 79.3384C861.242 73.1427 853.049 70 842.825 70Z" fill="#3D4543"/>
<path d="M878.666 81.8287H897.993V138.313H912.313V81.8287H931.554V70H878.666V81.8287Z" fill="#3D4543"/>
<path d="M934.115 138.313H948.395V70H934.115V138.313Z" fill="#3D4543"/>
<path d="M984.413 81.9213C989.42 81.9213 994.485 83.472 999.457 86.525L1000.46 87.1412L1005.08 76.0133L1004.39 75.5563C998.875 71.8693 992.062 70 984.143 70C974.306 70 966.229 73.2172 960.128 79.5642C954.043 85.9011 950.956 94.3944 950.956 104.816C950.956 115.769 953.908 124.494 959.735 130.756C965.578 137.034 973.578 140.215 983.509 140.215C991.292 140.215 997.876 138.646 1003.08 135.55L1003.67 135.198L1001.7 123.58L1000.48 124.196C995.186 126.887 989.782 128.253 984.413 128.253C978.339 128.253 973.803 126.314 970.551 122.33C967.292 118.34 965.638 112.57 965.638 105.178C965.638 98.0532 967.35 92.3199 970.732 88.1321C974.11 83.9523 978.581 81.9213 984.413 81.9213Z" fill="#3D4543"/>
<path d="M1051.93 106.729C1049.21 103.651 1044.68 101.055 1038.47 99.0136L1032.94 97.2497C1030.13 96.3509 1028.37 95.768 1027.59 95.4805C1024.34 94.4844 1022.83 92.5048 1022.82 89.2851C1022.93 86.607 1023.76 84.7686 1025.36 83.6671C1027.04 82.5067 1029.62 81.9186 1033.05 81.9186C1037.95 81.9186 1043.36 83.2307 1049.11 85.8136L1050.06 86.2398L1054.5 75.5022L1053.73 75.0632C1047.81 71.7023 1040.68 70 1032.55 70C1025.3 70 1019.37 71.7125 1014.94 75.094C1010.43 78.5398 1008.14 83.4797 1008.14 89.7857C1008.14 98.7875 1012.86 105.016 1022.13 108.282C1022.84 108.56 1024 108.953 1025.61 109.458C1027.21 109.962 1028.91 110.475 1030.73 111.007C1032.53 111.533 1033.63 111.854 1034.04 111.98C1039.15 113.453 1041.64 115.965 1041.64 119.659C1041.64 122.509 1040.78 124.622 1039.01 126.112C1037.21 127.621 1034.46 128.389 1030.83 128.389C1027.77 128.389 1024.58 127.911 1021.35 126.979C1018.11 126.04 1015.07 124.787 1012.3 123.259L1011.22 122.663L1007.64 134.341L1008.33 134.739C1014.79 138.495 1022.19 140.397 1030.33 140.397C1038.09 140.397 1044.38 138.616 1049 135.101C1053.71 131.521 1056.09 126.358 1056.09 119.749C1056.09 114.242 1054.69 109.861 1051.93 106.729Z" fill="#3D4543"/>
<path d="M352.592 191.994H360.578C362.805 191.994 364.766 191.727 366.457 191.188C368.149 190.65 369.562 189.89 370.704 188.906C371.844 187.922 372.703 186.749 373.283 185.385C373.856 184.021 374.145 182.513 374.145 180.862C374.145 177.505 373.037 174.973 370.823 173.271C368.605 171.565 365.31 170.714 360.931 170.714H352.592V191.994ZM352.592 197.538V221.063H345V164.694H360.931C364.494 164.694 367.577 165.056 370.174 165.776C372.771 166.498 374.913 167.54 376.605 168.902C378.296 170.266 379.549 171.912 380.361 173.84C381.172 175.768 381.582 177.925 381.582 180.311C381.582 182.304 381.267 184.166 380.638 185.896C380.01 187.627 379.096 189.183 377.903 190.559C376.71 191.936 375.255 193.106 373.536 194.078C371.82 195.049 369.872 195.784 367.696 196.28C368.639 196.831 369.479 197.632 370.214 198.681L386.654 221.063H379.891C378.5 221.063 377.477 220.525 376.82 219.45L362.188 199.31C361.742 198.681 361.257 198.23 360.734 197.951C360.208 197.677 359.423 197.538 358.373 197.538H352.592Z" fill="#3D4543"/>
<path d="M408.251 215.173C412.185 215.173 415.122 213.857 417.062 211.221C419.002 208.586 419.974 204.907 419.974 200.188C419.974 195.441 419.002 191.741 417.062 189.096C415.122 186.446 412.185 185.122 408.251 185.122C406.258 185.122 404.529 185.462 403.058 186.144C401.592 186.826 400.367 187.81 399.382 189.096C398.398 190.38 397.664 191.958 397.181 193.833C396.694 195.71 396.452 197.827 396.452 200.188C396.452 202.546 396.694 204.658 397.181 206.52C397.664 208.382 398.398 209.951 399.382 211.221C400.367 212.495 401.592 213.469 403.058 214.151C404.529 214.833 406.258 215.173 408.251 215.173ZM408.251 179.615C411.163 179.615 413.791 180.098 416.139 181.07C418.483 182.042 420.476 183.418 422.119 185.2C423.757 186.984 425.014 189.139 425.894 191.671C426.771 194.203 427.209 197.027 427.209 200.148C427.209 203.293 426.771 206.125 425.894 208.644C425.014 211.161 423.757 213.313 422.119 215.095C420.476 216.879 418.483 218.251 416.139 219.207C413.791 220.161 411.163 220.642 408.251 220.642C405.342 220.642 402.711 220.161 400.367 219.207C398.021 218.251 396.02 216.879 394.366 215.095C392.715 213.313 391.443 211.161 390.552 208.644C389.661 206.125 389.215 203.293 389.215 200.148C389.215 197.027 389.661 194.203 390.552 191.671C391.443 189.139 392.715 186.984 394.366 185.2C396.02 183.418 398.021 182.042 400.367 181.07C402.711 180.098 405.342 179.615 408.251 179.615Z" fill="#3D4543"/>
<path d="M447.545 185.255C445.263 185.255 443.264 185.781 441.547 186.828C439.829 187.878 438.249 189.36 436.805 191.276V210.549C438.066 212.278 439.463 213.499 440.996 214.206C442.53 214.914 444.242 215.268 446.13 215.268C449.852 215.268 452.709 213.945 454.703 211.297C456.696 208.649 457.693 204.871 457.693 199.969C457.693 197.371 457.462 195.144 457.005 193.279C456.545 191.419 455.884 189.891 455.018 188.698C454.152 187.505 453.091 186.632 451.832 186.081C450.573 185.53 449.144 185.255 447.545 185.255ZM429.769 220.146V162.207H436.805V186.041C438.461 184.13 440.354 182.588 442.49 181.422C444.629 180.255 447.075 179.671 449.825 179.671C452.134 179.671 454.218 180.104 456.082 180.969C457.942 181.835 459.527 183.124 460.839 184.843C462.151 186.562 463.159 188.683 463.867 191.215C464.576 193.747 464.929 196.662 464.929 199.969C464.929 202.906 464.537 205.639 463.748 208.169C462.962 210.698 461.83 212.888 460.348 214.737C458.867 216.587 457.056 218.042 454.92 219.104C452.783 220.166 450.376 220.697 447.702 220.697C445.133 220.697 442.951 220.199 441.154 219.202C439.357 218.208 437.791 216.816 436.452 215.032L436.097 218.654C435.888 219.648 435.284 220.146 434.287 220.146H429.769Z" fill="#3D4543"/>
<path d="M486.53 215.173C490.464 215.173 493.401 213.857 495.341 211.221C497.282 208.586 498.252 204.907 498.252 200.188C498.252 195.441 497.282 191.741 495.341 189.096C493.401 186.446 490.464 185.122 486.53 185.122C484.537 185.122 482.808 185.462 481.338 186.144C479.871 186.826 478.644 187.81 477.661 189.096C476.677 190.38 475.941 191.958 475.458 193.833C474.973 195.71 474.731 197.827 474.731 200.188C474.731 202.546 474.973 204.658 475.458 206.52C475.941 208.382 476.677 209.951 477.661 211.221C478.644 212.495 479.871 213.469 481.338 214.151C482.808 214.833 484.537 215.173 486.53 215.173ZM486.53 179.615C489.441 179.615 492.068 180.098 494.416 181.07C496.762 182.042 498.756 183.418 500.396 185.2C502.034 186.984 503.293 189.139 504.171 191.671C505.051 194.203 505.488 197.027 505.488 200.148C505.488 203.293 505.051 206.125 504.171 208.644C503.293 211.161 502.034 213.313 500.396 215.095C498.756 216.879 496.762 218.251 494.416 219.207C492.068 220.161 489.441 220.642 486.53 220.642C483.62 220.642 480.99 220.161 478.644 219.207C476.3 218.251 474.299 216.879 472.646 215.095C470.994 213.313 469.72 211.161 468.829 208.644C467.938 206.125 467.493 203.293 467.493 200.148C467.493 197.027 467.938 194.203 468.829 191.671C469.72 189.139 470.994 186.984 472.646 185.2C474.299 183.418 476.3 182.042 478.644 181.07C480.99 180.098 483.62 179.615 486.53 179.615Z" fill="#3D4543"/>
<path d="M524.14 220.601C520.995 220.601 518.573 219.723 516.882 217.966C515.191 216.21 514.345 213.678 514.345 210.376V185.985H509.545C509.128 185.985 508.775 185.862 508.484 185.613C508.198 185.363 508.05 184.978 508.05 184.452V181.659L514.581 180.833L516.195 168.521C516.246 168.126 516.42 167.806 516.706 167.557C516.993 167.308 517.363 167.182 517.805 167.182H521.35V180.911H532.754V185.985H521.35V209.902C521.35 211.581 521.754 212.827 522.567 213.637C523.377 214.453 524.426 214.858 525.714 214.858C526.448 214.858 527.084 214.76 527.62 214.564C528.16 214.365 528.622 214.151 529.015 213.914C529.413 213.678 529.747 213.461 530.021 213.265C530.297 213.069 530.538 212.97 530.75 212.97C531.114 212.97 531.44 213.194 531.733 213.637L533.777 216.985C532.571 218.112 531.114 218.996 529.413 219.638C527.707 220.279 525.95 220.601 524.14 220.601Z" fill="#3D4543"/>
<path d="M599.7 210.049C600.119 210.049 600.496 210.218 600.84 210.56L603.831 213.825C601.523 216.5 598.72 218.587 595.434 220.079C592.138 221.574 588.174 222.321 583.531 222.321C579.467 222.321 575.783 221.622 572.482 220.217C569.176 218.813 566.358 216.847 564.022 214.315C561.687 211.786 559.88 208.751 558.597 205.21C557.31 201.671 556.666 197.775 556.666 193.529C556.666 189.278 557.355 185.385 558.735 181.846C560.111 178.305 562.042 175.264 564.533 172.72C567.027 170.175 570.007 168.202 573.482 166.798C576.959 165.396 580.79 164.694 584.986 164.694C589.131 164.694 592.704 165.336 595.707 166.622C598.707 167.908 601.378 169.649 603.711 171.854L601.232 175.355C601.047 175.617 600.84 175.833 600.602 176.004C600.368 176.176 600.026 176.259 599.581 176.259C599.239 176.259 598.878 176.135 598.499 175.886C598.118 175.637 597.665 175.327 597.142 174.962C596.615 174.595 596.002 174.202 595.294 173.782C594.588 173.362 593.746 172.969 592.776 172.602C591.804 172.234 590.679 171.927 589.394 171.678C588.11 171.426 586.627 171.303 584.949 171.303C581.93 171.303 579.173 171.821 576.672 172.858C574.165 173.893 572.008 175.368 570.198 177.28C568.391 179.196 566.979 181.531 565.97 184.285C564.962 187.036 564.456 190.119 564.456 193.529C564.456 197.042 564.962 200.176 565.97 202.929C566.979 205.683 568.355 208.008 570.1 209.911C571.844 211.811 573.91 213.261 576.296 214.257C578.68 215.254 581.251 215.752 584.005 215.752C585.683 215.752 587.191 215.654 588.529 215.456C589.866 215.259 591.104 214.952 592.244 214.532C593.384 214.114 594.447 213.583 595.434 212.939C596.415 212.299 597.404 211.532 598.401 210.638C598.846 210.246 599.279 210.049 599.7 210.049Z" fill="#3D4543"/>
<path d="M623.271 233.708C623.035 234.234 622.741 234.652 622.386 234.967C622.033 235.281 621.488 235.437 620.755 235.437H615.563L622.839 219.627L606.397 182.101H612.456C613.056 182.101 613.53 182.252 613.872 182.554C614.209 182.856 614.46 183.191 614.619 183.556L625.278 208.654C625.514 209.227 625.718 209.806 625.887 210.383C626.055 210.961 626.208 211.55 626.341 212.154C626.524 211.55 626.707 210.961 626.888 210.383C627.075 209.806 627.284 209.217 627.518 208.613L637.864 183.556C638.02 183.135 638.292 182.791 638.672 182.514C639.051 182.239 639.464 182.101 639.91 182.101H645.495L623.271 233.708Z" fill="#3D4543"/>
<path d="M665.83 185.255C663.548 185.255 661.549 185.781 659.831 186.828C658.114 187.878 656.534 189.36 655.09 191.276V210.549C656.351 212.278 657.748 213.499 659.28 214.206C660.815 214.914 662.527 215.268 664.414 215.268C668.136 215.268 670.994 213.945 672.987 211.297C674.981 208.649 675.977 204.871 675.977 199.969C675.977 197.371 675.747 195.144 675.29 193.279C674.83 191.419 674.169 189.891 673.303 188.698C672.436 187.505 671.375 186.632 670.116 186.081C668.857 185.53 667.429 185.255 665.83 185.255ZM648.053 220.146V162.207H655.09V186.041C656.745 184.13 658.638 182.588 660.775 181.422C662.914 180.255 665.36 179.671 668.11 179.671C670.418 179.671 672.502 180.104 674.367 180.969C676.226 181.835 677.812 183.124 679.124 184.843C680.436 186.562 681.443 188.683 682.151 191.215C682.861 193.747 683.214 196.662 683.214 199.969C683.214 202.906 682.821 205.639 682.032 208.169C681.247 210.698 680.115 212.888 678.633 214.737C677.151 216.587 675.341 218.042 673.204 219.104C671.068 220.166 668.661 220.697 665.987 220.697C663.418 220.697 661.236 220.199 659.439 219.202C657.642 218.208 656.075 216.816 654.737 215.032L654.382 218.654C654.173 219.648 653.569 220.146 652.572 220.146H648.053Z" fill="#3D4543"/>
<path d="M704.536 184.767C701.153 184.767 698.492 185.746 696.55 187.697C694.611 189.65 693.403 192.36 692.933 195.821H714.604C714.604 194.195 714.383 192.708 713.936 191.356C713.492 190.005 712.835 188.839 711.969 187.855C711.104 186.871 710.047 186.111 708.804 185.573C707.558 185.036 706.137 184.767 704.536 184.767ZM704.379 179.615C706.765 179.615 708.968 180.013 710.986 180.816C713.007 181.614 714.751 182.769 716.22 184.277C717.688 185.784 718.836 187.646 719.661 189.861C720.485 192.076 720.899 194.6 720.899 197.434C720.899 198.537 720.78 199.269 720.544 199.637C720.31 200.004 719.864 200.188 719.208 200.188H692.697C692.746 202.705 693.09 204.894 693.718 206.757C694.347 208.619 695.213 210.172 696.314 211.418C697.418 212.664 698.726 213.595 700.249 214.209C701.769 214.826 703.473 215.133 705.361 215.133C707.118 215.133 708.632 214.931 709.906 214.524C711.176 214.118 712.271 213.678 713.188 213.207C714.109 212.734 714.874 212.296 715.493 211.889C716.106 211.483 716.639 211.279 717.084 211.279C717.66 211.279 718.107 211.503 718.422 211.949L720.387 214.503C719.523 215.553 718.485 216.467 717.28 217.239C716.074 218.014 714.781 218.649 713.403 219.147C712.029 219.645 710.606 220.02 709.138 220.267C707.669 220.516 706.214 220.642 704.772 220.642C702.018 220.642 699.481 220.176 697.161 219.245C694.838 218.314 692.835 216.95 691.144 215.153C689.453 213.358 688.133 211.138 687.188 208.488C686.244 205.838 685.774 202.798 685.774 199.362C685.774 196.581 686.201 193.986 687.052 191.573C687.905 189.159 689.13 187.068 690.731 185.298C692.329 183.529 694.283 182.14 696.589 181.13C698.898 180.119 701.495 179.615 704.379 179.615Z" fill="#3D4543"/>
<path d="M723.466 220.169V180.323H727.477C728.238 180.323 728.761 180.466 729.052 180.755C729.34 181.042 729.537 181.541 729.64 182.25L730.112 188.464C731.477 185.686 733.163 183.516 735.167 181.953C737.172 180.393 739.527 179.615 742.228 179.615C743.331 179.615 744.325 179.738 745.218 179.988C746.109 180.237 746.934 180.582 747.695 181.03L746.79 186.26C746.605 186.917 746.2 187.244 745.571 187.244C745.203 187.244 744.639 187.12 743.88 186.871C743.119 186.622 742.057 186.496 740.694 186.496C738.255 186.496 736.217 187.203 734.578 188.623C732.94 190.037 731.569 192.096 730.465 194.797V220.169H723.466Z" fill="#3D4543"/>
<path d="M776.372 186.811C776.058 187.387 775.575 187.677 774.918 187.677C774.525 187.677 774.076 187.533 773.582 187.244C773.08 186.957 772.472 186.635 771.751 186.28C771.03 185.925 770.171 185.6 769.174 185.296C768.178 184.996 766.998 184.845 765.633 184.845C764.456 184.845 763.393 184.996 762.449 185.296C761.504 185.6 760.696 186.013 760.029 186.537C759.359 187.062 758.848 187.672 758.493 188.366C758.142 189.061 757.964 189.813 757.964 190.629C757.964 191.651 758.259 192.504 758.848 193.183C759.437 193.868 760.22 194.457 761.188 194.953C762.16 195.454 763.261 195.892 764.493 196.272C765.726 196.652 766.991 197.057 768.289 197.492C769.588 197.925 770.852 198.401 772.087 198.927C773.317 199.45 774.42 200.107 775.388 200.895C776.36 201.68 777.14 202.644 777.729 203.784C778.318 204.924 778.614 206.296 778.614 207.897C778.614 209.732 778.287 211.43 777.63 212.988C776.974 214.549 776.005 215.903 774.722 217.043C773.435 218.183 771.862 219.079 769.999 219.736C768.14 220.393 765.988 220.72 763.55 220.72C760.771 220.72 758.251 220.267 755.998 219.363C753.742 218.457 751.826 217.297 750.254 215.883L751.905 213.205C752.117 212.867 752.366 212.603 752.655 212.419C752.942 212.238 753.325 212.143 753.795 212.143C754.269 212.143 754.763 212.329 755.29 212.694C755.813 213.064 756.451 213.469 757.198 213.914C757.946 214.36 758.848 214.765 759.91 215.133C760.973 215.5 762.304 215.686 763.904 215.686C765.265 215.686 766.462 215.508 767.483 215.153C768.504 214.798 769.357 214.322 770.037 213.716C770.722 213.114 771.226 212.419 771.555 211.632C771.883 210.846 772.045 210.008 772.045 209.115C772.045 208.015 771.751 207.104 771.162 206.382C770.569 205.659 769.792 205.043 768.82 204.532C767.847 204.021 766.743 203.575 765.497 203.195C764.252 202.815 762.981 202.415 761.683 201.995C760.38 201.574 759.112 201.099 757.864 200.56C756.619 200.022 755.511 199.345 754.542 198.534C753.57 197.721 752.793 196.719 752.202 195.524C751.611 194.331 751.317 192.884 751.317 191.177C751.317 189.657 751.63 188.195 752.26 186.791C752.891 185.391 753.808 184.156 755.016 183.094C756.218 182.034 757.7 181.188 759.457 180.559C761.217 179.93 763.219 179.615 765.477 179.615C768.1 179.615 770.45 180.028 772.54 180.854C774.624 181.679 776.424 182.812 777.946 184.254L776.372 186.811Z" fill="#3D4543"/>
<path d="M799.936 184.767C796.554 184.767 793.894 185.746 791.952 187.697C790.014 189.65 788.806 192.36 788.336 195.821H810.006C810.006 194.195 809.785 192.708 809.336 191.356C808.894 190.005 808.238 188.839 807.371 187.855C806.505 186.871 805.448 186.111 804.206 185.573C802.96 185.036 801.537 184.767 799.936 184.767ZM799.781 179.615C802.167 179.615 804.368 180.013 806.388 180.816C808.407 181.614 810.152 182.769 811.622 184.277C813.089 185.784 814.236 187.646 815.063 189.861C815.888 192.076 816.301 194.6 816.301 197.434C816.301 198.537 816.182 199.269 815.946 199.637C815.712 200.004 815.267 200.188 814.61 200.188H788.098C788.149 202.705 788.49 204.894 789.121 206.757C789.749 208.619 790.616 210.172 791.714 211.418C792.82 212.664 794.128 213.595 795.652 214.209C797.171 214.826 798.875 215.133 800.763 215.133C802.518 215.133 804.034 214.931 805.308 214.524C806.578 214.118 807.673 213.678 808.589 213.207C809.51 212.734 810.276 212.296 810.895 211.889C811.509 211.483 812.039 211.279 812.485 211.279C813.062 211.279 813.509 211.503 813.825 211.949L815.79 214.503C814.923 215.553 813.887 216.467 812.681 217.239C811.477 218.014 810.182 218.649 808.806 219.147C807.432 219.645 806.007 220.02 804.54 220.267C803.07 220.516 801.616 220.642 800.174 220.642C797.42 220.642 794.883 220.176 792.564 219.245C790.24 218.314 788.237 216.95 786.546 215.153C784.855 213.358 783.536 211.138 782.59 208.488C781.646 205.838 781.174 202.798 781.174 199.362C781.174 196.581 781.603 193.986 782.454 191.573C783.307 189.159 784.532 187.068 786.133 185.298C787.732 183.529 789.683 182.14 791.992 181.13C794.3 180.119 796.897 179.615 799.781 179.615Z" fill="#3D4543"/>
<path d="M848.88 187.324C848.669 187.614 848.459 187.835 848.25 187.996C848.038 188.152 847.736 188.23 847.344 188.23C846.949 188.23 846.524 188.067 846.066 187.737C845.605 187.41 845.024 187.05 844.316 186.655C843.606 186.262 842.746 185.905 841.74 185.575C840.73 185.248 839.492 185.082 838.023 185.082C836.083 185.082 834.363 185.432 832.87 186.124C831.375 186.821 830.122 187.823 829.114 189.136C828.104 190.445 827.342 192.033 826.83 193.893C826.32 195.758 826.066 197.842 826.066 200.15C826.066 202.564 826.339 204.705 826.89 206.58C827.44 208.455 828.216 210.028 829.212 211.299C830.209 212.573 831.421 213.542 832.851 214.211C834.278 214.878 835.886 215.213 837.668 215.213C839.375 215.213 840.775 215.012 841.877 214.604C842.978 214.199 843.897 213.746 844.631 213.247C845.366 212.752 845.968 212.299 846.438 211.891C846.911 211.486 847.381 211.282 847.855 211.282C848.459 211.282 848.905 211.503 849.193 211.949L851.16 214.506C849.431 216.632 847.264 218.185 844.669 219.167C842.074 220.151 839.333 220.642 836.449 220.642C833.955 220.642 831.643 220.184 829.507 219.265C827.37 218.349 825.514 217.018 823.942 215.271C822.368 213.529 821.13 211.388 820.222 208.843C819.318 206.299 818.865 203.402 818.865 200.15C818.865 197.185 819.278 194.444 820.103 191.927C820.933 189.411 822.138 187.241 823.725 185.416C825.311 183.597 827.272 182.172 829.605 181.15C831.94 180.129 834.612 179.615 837.627 179.615C840.409 179.615 842.872 180.068 845.024 180.974C847.174 181.878 849.076 183.156 850.726 184.807L848.88 187.324Z" fill="#3D4543"/>
<path d="M860.721 182.101V207.511C860.721 210.529 861.415 212.862 862.808 214.513C864.197 216.164 866.293 216.989 869.099 216.989C871.145 216.989 873.073 216.506 874.883 215.534C876.693 214.565 878.356 213.214 879.875 211.485V182.101H886.88V221.947H882.71C881.714 221.947 881.083 221.464 880.819 220.492L880.272 216.204C878.539 218.119 876.602 219.659 874.45 220.827C872.301 221.995 869.834 222.576 867.055 222.576C864.877 222.576 862.959 222.214 861.293 221.494C859.626 220.775 858.233 219.758 857.104 218.446C855.975 217.135 855.13 215.55 854.567 213.687C854.001 211.827 853.722 209.766 853.722 207.511V182.101H860.721Z" fill="#3D4543"/>
<path d="M889.44 222.73V182.884H893.451C894.212 182.884 894.735 183.027 895.026 183.317C895.314 183.604 895.511 184.102 895.615 184.812L896.086 191.026C897.451 188.247 899.137 186.078 901.141 184.515C903.146 182.954 905.501 182.177 908.202 182.177C909.305 182.177 910.299 182.3 911.192 182.549C912.083 182.798 912.908 183.143 913.669 183.591L912.765 188.821C912.58 189.478 912.174 189.805 911.545 189.805C911.177 189.805 910.613 189.682 909.854 189.432C909.093 189.183 908.031 189.057 906.668 189.057C904.229 189.057 902.191 189.765 900.552 191.184C898.914 192.599 897.544 194.657 896.439 197.358V222.73H889.44Z" fill="#3D4543"/>
<path d="M924.647 222.161H917.649V182.315H924.647V222.161ZM926.224 169.803C926.224 170.485 926.086 171.12 925.81 171.714C925.535 172.303 925.167 172.826 924.706 173.287C924.251 173.742 923.719 174.105 923.113 174.366C922.511 174.631 921.867 174.761 921.188 174.761C920.506 174.761 919.868 174.631 919.279 174.366C918.69 174.105 918.166 173.742 917.707 173.287C917.247 172.826 916.886 172.303 916.626 171.714C916.363 171.12 916.233 170.485 916.233 169.803C916.233 169.121 916.363 168.475 916.626 167.855C916.886 167.241 917.247 166.703 917.707 166.245C918.166 165.784 918.69 165.427 919.279 165.162C919.868 164.901 920.506 164.77 921.188 164.77C921.867 164.77 922.511 164.901 923.113 165.162C923.719 165.427 924.251 165.784 924.706 166.245C925.167 166.703 925.535 167.241 925.81 167.855C926.086 168.475 926.224 169.121 926.224 169.803Z" fill="#3D4543"/>
<path d="M944.874 223.162C941.73 223.162 939.308 222.284 937.617 220.527C935.926 218.771 935.08 216.239 935.08 212.937V188.546H930.28C929.863 188.546 929.51 188.423 929.219 188.174C928.932 187.924 928.785 187.539 928.785 187.013V184.22L935.316 183.394L936.93 171.082C936.981 170.687 937.154 170.367 937.441 170.118C937.728 169.869 938.098 169.743 938.54 169.743H942.085V183.472H953.489V188.546H942.085V212.463C942.085 214.142 942.489 215.388 943.302 216.198C944.112 217.014 945.161 217.419 946.449 217.419C947.183 217.419 947.819 217.321 948.355 217.125C948.895 216.926 949.357 216.712 949.75 216.475C950.148 216.239 950.482 216.022 950.756 215.826C951.031 215.63 951.273 215.532 951.484 215.532C951.849 215.532 952.175 215.755 952.468 216.198L954.512 219.546C953.306 220.673 951.849 221.557 950.148 222.199C948.442 222.84 946.684 223.162 944.874 223.162Z" fill="#3D4543"/>
<path d="M973.947 236.271C973.711 236.797 973.416 237.215 973.061 237.53C972.708 237.844 972.163 238 971.431 238H966.238L973.514 222.19L957.072 184.664H963.129C963.731 184.664 964.205 184.815 964.547 185.117C964.885 185.419 965.136 185.754 965.294 186.119L975.953 211.216C976.189 211.79 976.393 212.369 976.561 212.945C976.731 213.524 976.884 214.113 977.014 214.717C977.199 214.113 977.382 213.524 977.563 212.945C977.75 212.369 977.958 211.78 978.192 211.176L988.539 186.119C988.694 185.698 988.966 185.353 989.347 185.077C989.726 184.802 990.14 184.664 990.585 184.664H996.168L973.947 236.271Z" fill="#3D4543"/>
</g>
<defs>
<clipPath id="clip0_43_1826">
<rect width="1056.09" height="310.967" fill="white"/>
</clipPath>
</defs>
</svg>