<svg width="583" height="113" viewBox="0 0 583 113" fill="none" xmlns="http://www.w3.org/2000/svg">
<path d="M55.2809 40.4714C59.4169 40.4714 63.3396 41.3794 66.8649 43.0034C64.3502 35.8301 57.6796 26.8728 55.2809 23.7821C52.8822 26.8728 46.2116 35.8301 43.6969 43.0034C47.2222 41.3794 51.1449 40.4714 55.2809 40.4714Z" fill="#2B7DE1"/>
<path d="M110.561 16.7542C94.8361 6.42486 76.6388 0.379532 57.2188 0.000862122C66.8734 12.6342 87.4334 41.0075 97.0494 65.2769C104.305 50.6702 109.04 34.2462 110.561 16.7542Z" fill="#3D4543"/>
<path d="M53.3427 -0.00012207C33.9227 0.37854 15.7267 6.42387 0 16.7532C1.52133 34.2465 6.256 50.6692 13.512 65.2759C23.128 41.0079 43.688 12.6345 53.3427 -0.00012207Z" fill="#3D4543"/>
<path d="M55.2809 59.8423C40.9582 59.8423 27.3209 62.7596 14.9169 68.0183C24.7009 86.5903 38.6329 102.046 55.2809 112.738C71.9289 102.046 85.8595 86.5903 95.6449 68.0183C83.2409 62.7596 69.6035 59.8423 55.2809 59.8423Z" fill="#3D4543"/>
<path d="M170.859 36.4362H163.444L167.206 24.6962C167.722 26.3682 168.766 29.7242 170.859 36.4362ZM171.015 16.4589H163.354L150.3 51.9575H158.068L161.5 42.2269H172.819L176.227 51.9575H183.875L171.14 16.8015L171.015 16.4589Z" fill="#3D4543"/>
<path d="M197.539 16.4819H190.125V51.9565H211.739L211.966 45.8392H197.539V16.4819Z" fill="#3D4543"/>
<path d="M220.705 51.957H228.118V16.4824H220.705V51.957Z" fill="#3D4543"/>
<path d="M255.387 36.4362H247.974L251.735 24.6962C252.251 26.3682 253.294 29.7242 255.387 36.4362ZM255.544 16.4589H247.882L234.83 51.9575H242.596L246.028 42.2269H257.348L260.756 51.9575H268.403L255.668 16.8015L255.544 16.4589Z" fill="#3D4543"/>
<path d="M289.108 30.9376L286.238 30.0216C284.778 29.5549 283.862 29.2522 283.46 29.1029C281.77 28.5856 280.984 27.5576 280.984 25.8856C281.04 24.4949 281.47 23.5402 282.3 22.9669C283.169 22.3656 284.513 22.0602 286.292 22.0602C288.837 22.0602 291.644 22.7416 294.634 24.0829L295.124 24.3029L297.433 18.7282L297.032 18.5002C293.957 16.7549 290.257 15.8709 286.033 15.8709C282.266 15.8709 279.19 16.7602 276.89 18.5162C274.548 20.3042 273.36 22.8709 273.36 26.1456C273.36 30.8202 275.809 34.0549 280.626 35.7509C280.993 35.8949 281.596 36.0989 282.433 36.3616C283.26 36.6229 284.144 36.8896 285.089 37.1656C286.024 37.4389 286.594 37.6056 286.806 37.6709C289.462 38.4362 290.753 39.7402 290.753 41.6589C290.753 43.1389 290.306 44.2362 289.388 45.0096C288.454 45.7936 287.025 46.1909 285.14 46.1909C283.55 46.1909 281.894 45.9442 280.22 45.4602C278.536 44.9709 276.954 44.3216 275.52 43.5282L274.958 43.2189L273.097 49.2829L273.456 49.4896C276.81 51.4402 280.656 52.4282 284.882 52.4282C288.913 52.4282 292.174 51.5029 294.576 49.6776C297.02 47.8189 298.26 45.1362 298.26 41.7056C298.26 38.8456 297.532 36.5709 296.097 34.9442C294.685 33.3456 292.333 31.9976 289.108 30.9376Z" fill="#3D4543"/>
<path d="M341.306 26.569C341.306 28.3224 340.834 29.5984 339.9 30.361C338.936 31.149 337.274 31.5477 334.965 31.5477C334.714 31.5477 333.541 31.5437 331.442 31.537C330.02 31.5304 329.026 31.5277 328.458 31.525V22.1544H335.246C337.346 22.1544 338.912 22.5237 339.896 23.2517C340.845 23.953 341.306 25.0384 341.306 26.569ZM342.31 35.7344C346.221 34.1277 348.202 31.017 348.202 26.4757C348.202 24.8704 347.982 23.4544 347.548 22.2637C347.108 21.061 346.497 20.0664 345.73 19.3117C344.969 18.557 343.964 17.9517 342.745 17.5104C341.56 17.085 340.296 16.7864 338.989 16.6264C337.694 16.4677 336.15 16.3877 334.401 16.3877H321.116V51.957H328.458V37.1544L333.273 37.1984C334.416 37.1984 335.202 37.2024 335.621 37.2104C336.045 37.9837 336.937 39.8104 338.274 42.6477L342.43 51.957H350.556L345.07 40.585C344.002 38.3824 343.094 36.785 342.31 35.7344Z" fill="#3D4543"/>
<path d="M380.46 43.1587C378.851 45.2147 376.513 46.2134 373.315 46.2134C370.116 46.2134 367.775 45.2107 366.156 43.1467C364.531 41.0734 363.707 38.0894 363.707 34.2787C363.707 30.4187 364.536 27.3907 366.169 25.2787C367.796 23.176 370.141 22.1547 373.337 22.1547C376.519 22.1547 378.847 23.172 380.457 25.2654C382.077 27.3707 382.899 30.404 382.899 34.2787C382.899 38.104 382.079 41.092 380.46 43.1587ZM373.315 15.988C368.005 15.988 363.743 17.616 360.647 20.8254C357.555 24.028 355.988 28.5307 355.988 34.208C355.988 39.8534 357.549 44.3507 360.632 47.5774C363.72 50.8107 367.98 52.4507 373.291 52.4507C378.587 52.4507 382.84 50.8067 385.937 47.5667C389.027 44.3307 390.595 39.8454 390.595 34.232C390.595 28.556 389.035 24.0494 385.96 20.8374C382.879 17.62 378.624 15.988 373.315 15.988Z" fill="#3D4543"/>
<path d="M411.358 30.7019H406.428V22.2019H410.065C412.612 22.2019 414.477 22.5192 415.608 23.1472C416.652 23.7272 417.16 24.7925 417.16 26.4045C417.16 29.2952 415.261 30.7019 411.358 30.7019ZM406.428 36.1859H411.265C413.698 36.1859 415.504 36.5819 416.632 37.3632C417.714 38.1139 418.24 39.3339 418.24 41.0952C418.24 44.6032 416.012 46.3085 411.429 46.3085H406.428V36.1859ZM420.24 32.9912C420.604 32.8032 420.944 32.5925 421.258 32.3579C421.941 31.8512 422.485 31.3192 422.876 30.7765C423.262 30.2365 423.577 29.6285 423.814 28.9632C424.045 28.3139 424.194 27.7205 424.262 27.1992C424.328 26.6939 424.36 26.1739 424.36 25.6525C424.36 22.3685 423.144 19.9792 420.745 18.5525C418.432 17.1779 414.909 16.4819 410.276 16.4819H399.013V51.9565H412.298C416.452 51.9565 419.764 51.0619 422.14 49.2925C424.564 47.4899 425.794 44.8499 425.794 41.4472C425.794 39.1925 425.189 37.2632 423.993 35.7112C423.062 34.5045 421.805 33.5925 420.24 32.9912Z" fill="#3D4543"/>
<path d="M456.854 43.1587C455.244 45.2147 452.908 46.2134 449.709 46.2134C446.51 46.2134 444.169 45.2107 442.549 43.1467C440.924 41.0734 440.101 38.0894 440.101 34.2787C440.101 30.4187 440.93 27.3907 442.564 25.2787C444.19 23.176 446.536 22.1547 449.732 22.1547C452.913 22.1547 455.241 23.172 456.852 25.2654C458.472 27.3707 459.293 30.404 459.293 34.2787C459.293 38.104 458.473 41.092 456.854 43.1587ZM449.709 15.988C444.4 15.988 440.137 17.616 437.041 20.8254C433.948 24.028 432.382 28.5307 432.382 34.208C432.382 39.8534 433.944 44.3507 437.026 47.5774C440.114 50.8107 444.373 52.4507 449.684 52.4507C454.98 52.4507 459.234 50.8067 462.33 47.5667C465.421 44.3307 466.989 39.8454 466.989 34.232C466.989 28.556 465.429 24.0494 462.353 20.8374C459.272 17.62 455.018 15.988 449.709 15.988Z" fill="#3D4543"/>
<path d="M471.365 22.625H481.401V51.957H488.837V22.625H498.828V16.4824H471.365V22.625Z" fill="#3D4543"/>
<path d="M506.323 51.957H513.738V16.4824H506.323V51.957Z" fill="#3D4543"/>
<path d="M539.742 22.1787C542.342 22.1787 544.972 22.984 547.554 24.5694L548.076 24.8894L550.473 19.1107L550.116 18.8734C547.252 16.9587 543.714 15.988 539.602 15.988C534.494 15.988 530.3 17.6587 527.132 20.9547C523.972 24.2454 522.369 28.656 522.369 34.068C522.369 39.756 523.902 44.2867 526.928 47.5387C529.962 50.7987 534.116 52.4507 539.273 52.4507C543.314 52.4507 546.733 51.636 549.434 50.028L549.742 49.8453L548.717 43.812L548.086 44.132C545.336 45.5294 542.53 46.2387 539.742 46.2387C536.588 46.2387 534.233 45.232 532.544 43.1627C530.852 41.0907 529.993 38.0947 529.993 34.256C529.993 30.556 530.882 27.5787 532.638 25.404C534.392 23.2334 536.714 22.1787 539.742 22.1787Z" fill="#3D4543"/>
<path d="M580.039 34.9442C578.627 33.3456 576.277 31.9976 573.05 30.9376L570.181 30.0216C568.722 29.5549 567.806 29.2522 567.401 29.1029C565.713 28.5856 564.927 27.5576 564.926 25.8856C564.982 24.4949 565.413 23.5402 566.241 22.9682C567.113 22.3656 568.455 22.0602 570.234 22.0602C572.781 22.0602 575.587 22.7416 578.577 24.0829L579.067 24.3042L581.375 18.7282L580.974 18.5002C577.901 16.7549 574.199 15.8709 569.975 15.8709C566.21 15.8709 563.133 16.7602 560.834 18.5162C558.49 20.3056 557.302 22.8709 557.302 26.1456C557.302 30.8202 559.753 34.0549 564.567 35.7509C564.935 35.8949 565.538 36.0989 566.375 36.3616C567.202 36.6229 568.086 36.8896 569.031 37.1656C569.967 37.4389 570.537 37.6056 570.749 37.6709C573.403 38.4362 574.695 39.7402 574.695 41.6589C574.695 43.1389 574.249 44.2362 573.331 45.0096C572.398 45.7936 570.969 46.1922 569.082 46.1922C567.493 46.1922 565.838 45.9442 564.163 45.4602C562.478 44.9722 560.898 44.3216 559.462 43.5282L558.901 43.2189L557.041 49.2829L557.398 49.4896C560.754 51.4402 564.598 52.4282 568.825 52.4282C572.855 52.4282 576.117 51.5029 578.517 49.6776C580.962 47.8189 582.202 45.1376 582.202 41.7056C582.202 38.8456 581.474 36.5709 580.039 34.9442Z" fill="#3D4543"/>
<path d="M154.074 75.5912H158.305C159.485 75.5912 160.524 75.4499 161.42 75.1645C162.316 74.8792 163.065 74.4765 163.67 73.9552C164.274 73.4339 164.729 72.8125 165.036 72.0899C165.34 71.3672 165.493 70.5685 165.493 69.6939C165.493 67.9152 164.906 66.5739 163.733 65.6725C162.558 64.7685 160.812 64.3179 158.492 64.3179H154.074V75.5912ZM154.074 78.5285V90.9912H150.052V61.1285H158.492C160.38 61.1285 162.013 61.3205 163.389 61.7019C164.765 62.0845 165.9 62.6365 166.796 63.3579C167.692 64.0805 168.356 64.9525 168.786 65.9739C169.216 66.9952 169.433 68.1379 169.433 69.4019C169.433 70.4579 169.266 71.4445 168.933 72.3605C168.6 73.2779 168.116 74.1019 167.484 74.8312C166.852 75.5605 166.081 76.1805 165.17 76.6952C164.261 77.2099 163.229 77.5992 162.076 77.8619C162.576 78.1539 163.021 78.5779 163.41 79.1339L172.12 90.9912H168.537C167.8 90.9912 167.258 90.7059 166.91 90.1365L159.158 79.4672C158.922 79.1339 158.665 78.8952 158.388 78.7472C158.109 78.6019 157.693 78.5285 157.137 78.5285H154.074Z" fill="#3D4543"/>
<path d="M185.478 88.3854C187.562 88.3854 189.118 87.688 190.146 86.292C191.174 84.896 191.689 82.9467 191.689 80.4467C191.689 77.932 191.174 75.972 190.146 74.5707C189.118 73.1667 187.562 72.4654 185.478 72.4654C184.422 72.4654 183.506 72.6454 182.727 73.0067C181.95 73.368 181.301 73.8894 180.779 74.5707C180.258 75.2507 179.869 76.0867 179.613 77.08C179.355 78.0747 179.227 79.196 179.227 80.4467C179.227 81.696 179.355 82.8147 179.613 83.8014C179.869 84.788 180.258 85.6187 180.779 86.292C181.301 86.9667 181.95 87.4827 182.727 87.844C183.506 88.2054 184.422 88.3854 185.478 88.3854ZM185.478 69.548C187.021 69.548 188.413 69.804 189.657 70.3187C190.899 70.8334 191.955 71.5627 192.825 72.5067C193.693 73.452 194.359 74.5934 194.825 75.9347C195.29 77.276 195.522 78.772 195.522 80.4254C195.522 82.092 195.29 83.592 194.825 84.9267C194.359 86.26 193.693 87.4 192.825 88.344C191.955 89.2894 190.899 90.016 189.657 90.5227C188.413 91.028 187.021 91.2827 185.478 91.2827C183.937 91.2827 182.543 91.028 181.301 90.5227C180.058 90.016 178.998 89.2894 178.122 88.344C177.247 87.4 176.573 86.26 176.101 84.9267C175.629 83.592 175.393 82.092 175.393 80.4254C175.393 78.772 175.629 77.276 176.101 75.9347C176.573 74.5934 177.247 73.452 178.122 72.5067C178.998 71.5627 180.058 70.8334 181.301 70.3187C182.543 69.804 183.937 69.548 185.478 69.548Z" fill="#3D4543"/>
<path d="M210.694 72.5067C209.485 72.5067 208.426 72.7854 207.516 73.34C206.606 73.896 205.769 74.6814 205.004 75.696V85.9067C205.672 86.8227 206.412 87.4694 207.224 87.844C208.037 88.2187 208.944 88.4067 209.944 88.4067C211.916 88.4067 213.43 87.7054 214.486 86.3027C215.542 84.9 216.07 82.8987 216.07 80.3014C216.07 78.9254 215.948 77.7454 215.706 76.7574C215.462 75.772 215.112 74.9627 214.653 74.3307C214.194 73.6987 213.632 73.236 212.965 72.944C212.298 72.6521 211.541 72.5067 210.694 72.5067ZM201.276 90.9907V60.2961H205.004V72.9227C205.881 71.9107 206.884 71.0934 208.016 70.476C209.149 69.8574 210.445 69.548 211.902 69.548C213.125 69.548 214.229 69.7774 215.217 70.236C216.202 70.6947 217.042 71.3774 217.737 72.288C218.432 73.1987 218.966 74.3227 219.341 75.664C219.717 77.0054 219.904 78.5494 219.904 80.3014C219.904 81.8574 219.696 83.3054 219.278 84.6454C218.862 85.9854 218.262 87.1454 217.477 88.1254C216.692 89.1054 215.733 89.876 214.601 90.4387C213.469 91.0014 212.194 91.2827 210.777 91.2827C209.416 91.2827 208.26 91.0187 207.308 90.4907C206.356 89.964 205.526 89.2267 204.817 88.2814L204.629 90.2C204.518 90.7267 204.198 90.9907 203.67 90.9907H201.276Z" fill="#3D4543"/>
<path d="M234.032 88.3854C236.116 88.3854 237.672 87.688 238.7 86.292C239.728 84.896 240.242 82.9467 240.242 80.4467C240.242 77.932 239.728 75.972 238.7 74.5707C237.672 73.1667 236.116 72.4654 234.032 72.4654C232.976 72.4654 232.06 72.6454 231.281 73.0067C230.504 73.368 229.854 73.8894 229.333 74.5707C228.812 75.2507 228.422 76.0867 228.166 77.08C227.909 78.0747 227.781 79.196 227.781 80.4467C227.781 81.696 227.909 82.8147 228.166 83.8014C228.422 84.788 228.812 85.6187 229.333 86.292C229.854 86.9667 230.504 87.4827 231.281 87.844C232.06 88.2054 232.976 88.3854 234.032 88.3854ZM234.032 69.548C235.574 69.548 236.966 69.804 238.21 70.3187C239.453 70.8334 240.509 71.5627 241.378 72.5067C242.246 73.452 242.913 74.5934 243.378 75.9347C243.844 77.276 244.076 78.772 244.076 80.4254C244.076 82.092 243.844 83.592 243.378 84.9267C242.913 86.26 242.246 87.4 241.378 88.344C240.509 89.2894 239.453 90.016 238.21 90.5227C236.966 91.028 235.574 91.2827 234.032 91.2827C232.49 91.2827 231.097 91.028 229.854 90.5227C228.612 90.016 227.552 89.2894 226.676 88.344C225.801 87.4 225.126 86.26 224.654 84.9267C224.182 83.592 223.946 82.092 223.946 80.4254C223.946 78.772 224.182 77.276 224.654 75.9347C225.126 74.5934 225.801 73.452 226.676 72.5067C227.552 71.5627 228.612 70.8334 229.854 70.3187C231.097 69.804 232.49 69.548 234.032 69.548Z" fill="#3D4543"/>
<path d="M256.1 91.3242C254.434 91.3242 253.151 90.8589 252.255 89.9282C251.359 88.9976 250.911 87.6562 250.911 85.9069V72.9856H248.368C248.147 72.9856 247.96 72.9202 247.806 72.7882C247.654 72.6562 247.576 72.4522 247.576 72.1736V70.6936L251.036 70.2562L251.891 63.7336C251.918 63.5242 252.01 63.3549 252.162 63.2229C252.314 63.0909 252.51 63.0242 252.744 63.0242H254.622V70.2976H260.664V72.9856H254.622V85.6562C254.622 86.5456 254.836 87.2056 255.267 87.6349C255.696 88.0669 256.252 88.2816 256.934 88.2816C257.323 88.2816 257.66 88.2296 257.944 88.1256C258.23 88.0202 258.475 87.9069 258.683 87.7816C258.894 87.6562 259.071 87.5416 259.216 87.4376C259.362 87.3336 259.49 87.2816 259.602 87.2816C259.795 87.2816 259.968 87.4002 260.123 87.6349L261.206 89.4082C260.567 90.0056 259.795 90.4736 258.894 90.8136C257.99 91.1536 257.059 91.3242 256.1 91.3242Z" fill="#3D4543"/>
<path d="M297.007 84.8229C297.229 84.8229 297.429 84.9122 297.611 85.0936L299.196 86.8229C297.973 88.2402 296.488 89.3456 294.747 90.1362C293.001 90.9282 290.901 91.3242 288.441 91.3242C286.288 91.3242 284.336 90.9536 282.587 90.2096C280.836 89.4656 279.343 88.4242 278.105 87.0829C276.868 85.7429 275.911 84.1349 275.231 82.2589C274.549 80.3842 274.208 78.3202 274.208 76.0709C274.208 73.8189 274.573 71.7562 275.304 69.8816C276.033 68.0056 277.056 66.3949 278.376 65.0469C279.697 63.6989 281.276 62.6536 283.117 61.9096C284.959 61.1669 286.989 60.7949 289.212 60.7949C291.408 60.7949 293.301 61.1349 294.892 61.8162C296.481 62.4976 297.896 63.4202 299.132 64.5882L297.819 66.4429C297.721 66.5816 297.611 66.6962 297.485 66.7869C297.361 66.8776 297.18 66.9216 296.944 66.9216C296.763 66.9216 296.572 66.8562 296.371 66.7242C296.169 66.5922 295.929 66.4282 295.652 66.2349C295.373 66.0402 295.048 65.8322 294.673 65.6096C294.299 65.3869 293.853 65.1789 293.339 64.9842C292.824 64.7896 292.228 64.6269 291.547 64.4949C290.867 64.3616 290.081 64.2962 289.192 64.2962C287.593 64.2962 286.132 64.5709 284.807 65.1202C283.479 65.6682 282.336 66.4496 281.377 67.4629C280.42 68.4776 279.672 69.7149 279.137 71.1736C278.603 72.6309 278.335 74.2642 278.335 76.0709C278.335 77.9322 278.603 79.5922 279.137 81.0509C279.672 82.5096 280.401 83.7416 281.325 84.7496C282.249 85.7562 283.344 86.5242 284.608 87.0522C285.871 87.5802 287.233 87.8442 288.692 87.8442C289.581 87.8442 290.38 87.7922 291.089 87.6869C291.797 87.5829 292.453 87.4202 293.057 87.1976C293.661 86.9762 294.224 86.6949 294.747 86.3536C295.267 86.0149 295.791 85.6082 296.319 85.1349C296.555 84.9269 296.784 84.8229 297.007 84.8229Z" fill="#3D4543"/>
<path d="M311.156 97.2212C311.031 97.4999 310.875 97.7212 310.687 97.8879C310.5 98.0545 310.211 98.1372 309.823 98.1372H307.072L310.927 89.7612L302.216 69.8812H305.426C305.744 69.8812 305.995 69.9612 306.176 70.1212C306.355 70.2812 306.488 70.4585 306.572 70.6519L312.219 83.9479C312.344 84.2519 312.452 84.5585 312.542 84.8639C312.631 85.1705 312.712 85.4825 312.782 85.8025C312.879 85.4825 312.976 85.1705 313.072 84.8639C313.171 84.5585 313.282 84.2465 313.406 83.9265L318.887 70.6519C318.97 70.4292 319.114 70.2465 319.315 70.0999C319.516 69.9545 319.735 69.8812 319.971 69.8812H322.93L311.156 97.2212Z" fill="#3D4543"/>
<path d="M336.892 72.5067C335.683 72.5067 334.624 72.7854 333.714 73.34C332.804 73.896 331.967 74.6814 331.202 75.696V85.9067C331.87 86.8227 332.61 87.4694 333.422 87.844C334.235 88.2187 335.142 88.4067 336.142 88.4067C338.114 88.4067 339.628 87.7054 340.684 86.3027C341.74 84.9 342.268 82.8987 342.268 80.3014C342.268 78.9254 342.146 77.7454 341.904 76.7574C341.66 75.772 341.31 74.9627 340.851 74.3307C340.392 73.6987 339.83 73.236 339.163 72.944C338.496 72.6521 337.739 72.5067 336.892 72.5067ZM327.474 90.9907V60.2961H331.202V72.9227C332.079 71.9107 333.082 71.0934 334.214 70.476C335.347 69.8574 336.643 69.548 338.1 69.548C339.323 69.548 340.427 69.7774 341.415 70.236C342.4 70.6947 343.24 71.3774 343.935 72.288C344.63 73.1987 345.164 74.3227 345.539 75.664C345.915 77.0054 346.102 78.5494 346.102 80.3014C346.102 81.8574 345.894 83.3054 345.476 84.6454C345.06 85.9854 344.46 87.1454 343.675 88.1254C342.89 89.1054 341.931 89.876 340.799 90.4387C339.667 91.0014 338.392 91.2827 336.975 91.2827C335.614 91.2827 334.458 91.0187 333.506 90.4907C332.554 89.964 331.724 89.2267 331.015 88.2814L330.827 90.2C330.716 90.7267 330.396 90.9907 329.868 90.9907H327.474Z" fill="#3D4543"/>
<path d="M360.127 72.2774C358.335 72.2774 356.925 72.796 355.896 73.8294C354.869 74.864 354.229 76.3 353.98 78.1334H365.461C365.461 77.272 365.344 76.484 365.107 75.768C364.872 75.052 364.524 74.4347 364.065 73.9134C363.607 73.392 363.047 72.9894 362.388 72.704C361.728 72.42 360.975 72.2774 360.127 72.2774ZM360.044 69.548C361.308 69.548 362.475 69.7587 363.544 70.184C364.615 70.6067 365.539 71.2187 366.317 72.0174C367.095 72.816 367.703 73.8027 368.14 74.976C368.577 76.1494 368.796 77.4867 368.796 78.988C368.796 79.572 368.733 79.96 368.608 80.1547C368.484 80.3494 368.248 80.4467 367.9 80.4467H353.855C353.881 81.78 354.063 82.94 354.396 83.9267C354.729 84.9134 355.188 85.736 355.771 86.396C356.356 87.056 357.049 87.5494 357.856 87.8747C358.661 88.2014 359.564 88.364 360.564 88.364C361.495 88.364 362.297 88.2574 362.972 88.0414C363.645 87.8267 364.225 87.5934 364.711 87.344C365.199 87.0934 365.604 86.8614 365.932 86.6454C366.257 86.4307 366.539 86.3227 366.775 86.3227C367.08 86.3227 367.317 86.4414 367.484 86.6774L368.525 88.0307C368.067 88.5867 367.517 89.0707 366.879 89.48C366.24 89.8907 365.555 90.2267 364.825 90.4907C364.097 90.7547 363.343 90.9534 362.565 91.084C361.787 91.216 361.016 91.2827 360.252 91.2827C358.793 91.2827 357.449 91.036 356.22 90.5427C354.989 90.0494 353.928 89.3267 353.032 88.3747C352.136 87.424 351.437 86.248 350.936 84.844C350.436 83.44 350.187 81.8294 350.187 80.0094C350.187 78.536 350.413 77.1614 350.864 75.8827C351.316 74.604 351.965 73.496 352.813 72.5587C353.66 71.6214 354.695 70.8854 355.917 70.3507C357.14 69.8147 358.516 69.548 360.044 69.548Z" fill="#3D4543"/>
<path d="M374.568 90.9912V69.8819H376.693C377.096 69.8819 377.373 69.9579 377.527 70.1112C377.68 70.2632 377.784 70.5272 377.839 70.9032L378.089 74.1952C378.812 72.7232 379.705 71.5739 380.767 70.7459C381.829 69.9192 383.077 69.5072 384.508 69.5072C385.092 69.5072 385.619 69.5725 386.092 69.7045C386.564 69.8365 387.001 70.0192 387.404 70.2565L386.925 73.0272C386.827 73.3752 386.612 73.5485 386.279 73.5485C386.084 73.5485 385.785 73.4832 385.383 73.3512C384.98 73.2192 384.417 73.1525 383.695 73.1525C382.403 73.1525 381.323 73.5272 380.455 74.2792C379.587 75.0285 378.861 76.1192 378.276 77.5499V90.9912H374.568Z" fill="#3D4543"/>
<path d="M404.492 73.3607C404.326 73.666 404.07 73.8194 403.722 73.8194C403.514 73.8194 403.276 73.7434 403.014 73.59C402.748 73.438 402.426 73.2674 402.044 73.0794C401.662 72.8914 401.207 72.7194 400.679 72.558C400.151 72.3994 399.526 72.3194 398.803 72.3194C398.179 72.3194 397.616 72.3994 397.116 72.558C396.615 72.7194 396.187 72.938 395.834 73.2154C395.479 73.494 395.208 73.8167 395.02 74.1847C394.834 74.5527 394.74 74.9514 394.74 75.3834C394.74 75.9247 394.896 76.3767 395.208 76.7367C395.52 77.0994 395.935 77.4114 396.448 77.674C396.963 77.9394 397.546 78.1714 398.199 78.3727C398.852 78.574 399.522 78.7887 400.21 79.0194C400.898 79.2487 401.568 79.5007 402.222 79.7794C402.874 80.0567 403.458 80.4047 403.971 80.822C404.486 81.238 404.899 81.7487 405.211 82.3527C405.523 82.9567 405.68 83.6834 405.68 84.5314C405.68 85.5034 405.507 86.4034 405.159 87.2287C404.811 88.0554 404.298 88.7727 403.618 89.3767C402.936 89.9807 402.103 90.4554 401.116 90.8034C400.131 91.1514 398.991 91.3247 397.699 91.3247C396.227 91.3247 394.892 91.0847 393.698 90.606C392.503 90.126 391.488 89.5114 390.655 88.762L391.53 87.3434C391.642 87.1647 391.774 87.0247 391.927 86.9274C392.079 86.8314 392.282 86.7807 392.531 86.7807C392.782 86.7807 393.044 86.8794 393.323 87.0727C393.6 87.2687 393.938 87.4834 394.334 87.7194C394.73 87.9554 395.208 88.17 395.771 88.3647C396.334 88.5594 397.039 88.658 397.887 88.658C398.608 88.658 399.242 88.5634 399.783 88.3754C400.324 88.1874 400.776 87.9354 401.136 87.614C401.499 87.2954 401.766 86.9274 401.94 86.51C402.114 86.094 402.2 85.65 402.2 85.1767C402.2 84.594 402.044 84.1114 401.732 83.7287C401.418 83.346 401.006 83.0194 400.491 82.7487C399.976 82.478 399.391 82.242 398.731 82.0407C398.071 81.8394 397.398 81.6274 396.71 81.4047C396.02 81.182 395.348 80.93 394.687 80.6447C394.027 80.3594 393.44 80.0007 392.927 79.5714C392.412 79.1407 392 78.61 391.687 77.9767C391.374 77.3447 391.218 76.578 391.218 75.674C391.218 74.8687 391.384 74.094 391.718 73.35C392.052 72.6087 392.538 71.954 393.178 71.3914C393.815 70.83 394.6 70.382 395.531 70.0487C396.463 69.7154 397.524 69.5487 398.72 69.5487C400.11 69.5487 401.355 69.7674 402.462 70.2047C403.566 70.642 404.52 71.242 405.326 72.006L404.492 73.3607Z" fill="#3D4543"/>
<path d="M419.974 72.2774C418.182 72.2774 416.773 72.796 415.744 73.8294C414.717 74.864 414.077 76.3 413.828 78.1334H425.309C425.309 77.272 425.192 76.484 424.954 75.768C424.72 75.052 424.372 74.4347 423.913 73.9134C423.454 73.392 422.894 72.9894 422.236 72.704C421.576 72.42 420.822 72.2774 419.974 72.2774ZM419.892 69.548C421.156 69.548 422.322 69.7587 423.392 70.184C424.462 70.6067 425.386 71.2187 426.165 72.0174C426.942 72.816 427.55 73.8027 427.988 74.976C428.425 76.1494 428.644 77.4867 428.644 78.988C428.644 79.572 428.581 79.96 428.456 80.1547C428.332 80.3494 428.096 80.4467 427.748 80.4467H413.702C413.729 81.78 413.91 82.94 414.244 83.9267C414.577 84.9134 415.036 85.736 415.618 86.396C416.204 87.056 416.897 87.5494 417.704 87.8747C418.509 88.2014 419.412 88.364 420.412 88.364C421.342 88.364 422.145 88.2574 422.82 88.0414C423.493 87.8267 424.073 87.5934 424.558 87.344C425.046 87.0934 425.452 86.8614 425.78 86.6454C426.105 86.4307 426.386 86.3227 426.622 86.3227C426.928 86.3227 427.165 86.4414 427.332 86.6774L428.373 88.0307C427.914 88.5867 427.365 89.0707 426.726 89.48C426.088 89.8907 425.402 90.2267 424.673 90.4907C423.945 90.7547 423.19 90.9534 422.413 91.084C421.634 91.216 420.864 91.2827 420.1 91.2827C418.641 91.2827 417.297 91.036 416.068 90.5427C414.837 90.0494 413.776 89.3267 412.88 88.3747C411.984 87.424 411.285 86.248 410.784 84.844C410.284 83.44 410.034 81.8294 410.034 80.0094C410.034 78.536 410.261 77.1614 410.712 75.8827C411.164 74.604 411.813 73.496 412.661 72.5587C413.508 71.6214 414.542 70.8854 415.765 70.3507C416.988 69.8147 418.364 69.548 419.892 69.548Z" fill="#3D4543"/>
<path d="M448.817 73.6316C448.705 73.7849 448.594 73.9022 448.483 73.9876C448.371 74.0702 448.211 74.1116 448.003 74.1116C447.794 74.1116 447.569 74.0249 447.326 73.8502C447.082 73.6769 446.774 73.4862 446.399 73.2769C446.023 73.0689 445.567 72.8796 445.034 72.7049C444.499 72.5316 443.843 72.4436 443.065 72.4436C442.037 72.4436 441.126 72.6289 440.335 72.9956C439.543 73.3649 438.879 73.8956 438.345 74.5916C437.81 75.2849 437.406 76.1262 437.135 77.1116C436.865 78.0996 436.73 79.2036 436.73 80.4262C436.73 81.7049 436.875 82.8396 437.167 83.8329C437.458 84.8262 437.869 85.6596 438.397 86.3329C438.925 87.0076 439.567 87.5209 440.325 87.8756C441.081 88.2289 441.933 88.4062 442.877 88.4062C443.781 88.4062 444.523 88.2996 445.107 88.0836C445.69 87.8689 446.177 87.6289 446.566 87.3649C446.955 87.1022 447.274 86.8622 447.523 86.6462C447.774 86.4316 448.023 86.3236 448.274 86.3236C448.594 86.3236 448.83 86.4409 448.983 86.6769L450.025 88.0316C449.109 89.1582 447.961 89.9809 446.586 90.5009C445.211 91.0222 443.759 91.2822 442.231 91.2822C440.91 91.2822 439.685 91.0396 438.553 90.5529C437.421 90.0676 436.438 89.3622 435.605 88.4369C434.771 87.5142 434.115 86.3796 433.634 85.0316C433.155 83.6836 432.915 82.1489 432.915 80.4262C432.915 78.8556 433.134 77.4036 433.571 76.0702C434.011 74.7369 434.649 73.5876 435.49 72.6209C436.33 71.6569 437.369 70.9022 438.605 70.3609C439.842 69.8196 441.258 69.5476 442.855 69.5476C444.329 69.5476 445.634 69.7876 446.774 70.2676C447.913 70.7462 448.921 71.4236 449.795 72.2982L448.817 73.6316Z" fill="#3D4543"/>
<path d="M458.13 69.8816V83.3429C458.13 84.9416 458.498 86.1776 459.236 87.0522C459.972 87.9269 461.082 88.3642 462.569 88.3642C463.653 88.3642 464.674 88.1082 465.633 87.5936C466.592 87.0802 467.473 86.3642 468.278 85.4482V69.8816H471.989V90.9909H469.78C469.252 90.9909 468.918 90.7349 468.778 90.2202L468.488 87.9482C467.57 88.9629 466.544 89.7789 465.404 90.3976C464.265 91.0162 462.958 91.3242 461.486 91.3242C460.332 91.3242 459.316 91.1322 458.433 90.7509C457.55 90.3696 456.812 89.8309 456.214 89.1362C455.616 88.4416 455.168 87.6016 454.87 86.6149C454.57 85.6296 454.422 84.5376 454.422 83.3429V69.8816H458.13Z" fill="#3D4543"/>
<path d="M479.137 90.9912V69.8819H481.262C481.665 69.8819 481.942 69.9579 482.096 70.1112C482.249 70.2632 482.353 70.5272 482.408 70.9032L482.658 74.1952C483.381 72.7232 484.274 71.5739 485.336 70.7459C486.398 69.9192 487.646 69.5072 489.077 69.5072C489.661 69.5072 490.188 69.5725 490.661 69.7045C491.133 69.8365 491.57 70.0192 491.973 70.2565L491.494 73.0272C491.396 73.3752 491.181 73.5485 490.848 73.5485C490.653 73.5485 490.354 73.4832 489.952 73.3512C489.549 73.2192 488.986 73.1525 488.264 73.1525C486.972 73.1525 485.892 73.5272 485.024 74.2792C484.156 75.0285 483.43 76.1192 482.845 77.5499V90.9912H479.137Z" fill="#3D4543"/>
<path d="M501.099 90.9917H497.391V69.8824H501.099V90.9917ZM501.934 63.2544C501.934 63.6157 501.861 63.9517 501.715 64.2664C501.569 64.5784 501.374 64.8557 501.13 65.0997C500.889 65.341 500.607 65.533 500.286 65.6717C499.967 65.8117 499.626 65.881 499.266 65.881C498.905 65.881 498.567 65.8117 498.255 65.6717C497.943 65.533 497.665 65.341 497.422 65.0997C497.178 64.8557 496.987 64.5784 496.849 64.2664C496.71 63.9517 496.641 63.6157 496.641 63.2544C496.641 62.893 496.71 62.5504 496.849 62.2224C496.987 61.897 497.178 61.6117 497.422 61.369C497.665 61.125 497.943 60.9357 498.255 60.7957C498.567 60.657 498.905 60.5877 499.266 60.5877C499.626 60.5877 499.967 60.657 500.286 60.7957C500.607 60.9357 500.889 61.125 501.13 61.369C501.374 61.6117 501.569 61.897 501.715 62.2224C501.861 62.5504 501.934 62.893 501.934 63.2544Z" fill="#3D4543"/>
<path d="M515.082 91.3242C513.416 91.3242 512.133 90.8589 511.237 89.9282C510.341 88.9976 509.893 87.6562 509.893 85.9069V72.9856H507.35C507.129 72.9856 506.942 72.9202 506.788 72.7882C506.636 72.6562 506.558 72.4522 506.558 72.1736V70.6936L510.018 70.2562L510.873 63.7336C510.9 63.5242 510.992 63.3549 511.144 63.2229C511.296 63.0909 511.492 63.0242 511.726 63.0242H513.604V70.2976H519.646V72.9856H513.604V85.6562C513.604 86.5456 513.818 87.2056 514.249 87.6349C514.678 88.0669 515.234 88.2816 515.916 88.2816C516.305 88.2816 516.642 88.2296 516.926 88.1256C517.212 88.0202 517.457 87.9069 517.665 87.7816C517.876 87.6562 518.053 87.5416 518.198 87.4376C518.344 87.3336 518.472 87.2816 518.584 87.2816C518.777 87.2816 518.95 87.4002 519.105 87.6349L520.188 89.4082C519.549 90.0056 518.777 90.4736 517.876 90.8136C516.972 91.1536 516.041 91.3242 515.082 91.3242Z" fill="#3D4543"/>
<path d="M531.461 97.2212C531.336 97.4999 531.18 97.7212 530.992 97.8879C530.805 98.0545 530.516 98.1372 530.128 98.1372H527.377L531.232 89.7612L522.521 69.8812H525.73C526.049 69.8812 526.3 69.9612 526.481 70.1212C526.66 70.2812 526.793 70.4585 526.877 70.6519L532.524 83.9479C532.649 84.2519 532.757 84.5585 532.846 84.8639C532.936 85.1705 533.017 85.4825 533.086 85.8025C533.184 85.4825 533.281 85.1705 533.377 84.8639C533.476 84.5585 533.586 84.2465 533.71 83.9265L539.192 70.6519C539.274 70.4292 539.418 70.2465 539.62 70.0999C539.821 69.9545 540.04 69.8812 540.276 69.8812H543.234L531.461 97.2212Z" fill="#3D4543"/>
</svg>
