<?xml version="1.0" encoding="utf-8"?>
<svg viewBox="0 0 1601.774 290.1" xmlns="http://www.w3.org/2000/svg" xmlns:xlink="http://www.w3.org/1999/xlink">
  <defs>
    <style>.cls-1{fill:url(#linear-gradient);}.cls-2{fill:url(#linear-gradient-2);}.cls-3{fill:url(#linear-gradient-3);}.cls-4{fill:url(#linear-gradient-4);}.cls-5{fill:url(#linear-gradient-5);}.cls-6{fill:url(#linear-gradient-6);}.cls-7{fill:url(#linear-gradient-7);}.cls-8{fill:url(#linear-gradient-8);}.cls-9{fill:url(#linear-gradient-9);}.cls-10{fill:url(#linear-gradient-10);}.cls-11{fill:url(#linear-gradient-11);}.cls-12{fill:url(#linear-gradient-12);}.cls-13{fill:url(#linear-gradient-13);}.cls-14{fill:url(#linear-gradient-14);}.cls-15{fill:url(#linear-gradient-15);}.cls-16{fill:url(#linear-gradient-16);}</style>
    <linearGradient id="linear-gradient" x1="79.75" y1="220.81" x2="305.36" y2="71.46" gradientUnits="userSpaceOnUse" gradientTransform="matrix(1.31672, 0, 0, 1.31672, -43.46544, 1.081256)">
      <stop offset="0.2" stop-color="#a53d3c"/>
      <stop offset="0.8" stop-color="#dba85f"/>
    </linearGradient>
    <linearGradient id="linear-gradient-2" x1="55.27" y1="183.82" x2="280.88" y2="34.47" gradientTransform="matrix(1.31672, 0, 0, 1.31672, -43.46544, 1.081256)" xlink:href="#linear-gradient"/>
    <linearGradient id="linear-gradient-3" x1="36.5" y1="155.46" x2="262.11" y2="6.11" gradientTransform="matrix(1.31672, 0, 0, 1.31672, -43.46544, 1.081256)" xlink:href="#linear-gradient"/>
    <linearGradient id="linear-gradient-4" x1="39.35" y1="159.78" x2="264.96" y2="10.43" gradientTransform="matrix(1.31672, 0, 0, 1.31672, -43.46544, 1.081256)" xlink:href="#linear-gradient"/>
    <linearGradient id="linear-gradient-5" x1="91.36" y1="238.34" x2="316.97" y2="89" gradientTransform="matrix(1.31672, 0, 0, 1.31672, -43.46544, 1.081256)" xlink:href="#linear-gradient"/>
    <linearGradient id="linear-gradient-6" x1="44.23" y1="167.14" x2="269.84" y2="17.8" gradientTransform="matrix(1.31672, 0, 0, 1.31672, -43.46544, 1.081256)" xlink:href="#linear-gradient"/>
    <linearGradient id="linear-gradient-7" x1="23.75" y1="136.21" x2="249.36" y2="-13.14" gradientTransform="matrix(1.31672, 0, 0, 1.31672, -43.46544, 1.081256)" xlink:href="#linear-gradient"/>
    <linearGradient id="linear-gradient-8" x1="48.08" y1="172.97" x2="273.69" y2="23.62" gradientTransform="matrix(1.31672, 0, 0, 1.31672, -43.46544, 1.081256)" xlink:href="#linear-gradient"/>
    <linearGradient id="linear-gradient-9" x1="62.96" y1="195.44" x2="288.57" y2="46.09" gradientTransform="matrix(1.31672, 0, 0, 1.31672, -43.46544, 1.081256)" xlink:href="#linear-gradient"/>
    <linearGradient id="linear-gradient-10" x1="92.36" y1="239.86" x2="317.97" y2="90.51" gradientTransform="matrix(1.31672, 0, 0, 1.31672, -43.46544, 1.081256)" xlink:href="#linear-gradient"/>
    <linearGradient id="linear-gradient-11" x1="64.5" y1="197.76" x2="290.11" y2="48.42" gradientTransform="matrix(1.31672, 0, 0, 1.31672, -43.46544, 1.081256)" xlink:href="#linear-gradient"/>
    <linearGradient id="linear-gradient-12" x1="21.05" y1="258.9" x2="181.26" y2="415.64" gradientTransform="matrix(4.032302, 0, 0, 4.032302, 396.24826, -920.652649)" xlink:href="#linear-gradient"/>
    <linearGradient id="linear-gradient-13" x1="77.13" y1="201.59" x2="237.33" y2="358.32" gradientTransform="matrix(4.032302, 0, 0, 4.032302, 396.24826, -920.652649)" xlink:href="#linear-gradient"/>
    <linearGradient id="linear-gradient-14" x1="101.47" y1="176.71" x2="261.67" y2="333.45" gradientTransform="matrix(4.032302, 0, 0, 4.032302, 396.24826, -920.652649)" xlink:href="#linear-gradient"/>
    <linearGradient id="linear-gradient-15" x1="140.32" y1="136.99" x2="300.53" y2="293.73" gradientTransform="matrix(4.032302, 0, 0, 4.032302, 396.24826, -920.652649)" xlink:href="#linear-gradient"/>
    <linearGradient id="linear-gradient-16" x1="45.95" y1="233.45" x2="206.16" y2="390.19" gradientTransform="matrix(4.032302, 0, 0, 4.032302, 396.24826, -920.652649)" xlink:href="#linear-gradient"/>
    <view id="view-1">
      <title>View 1</title>
    </view>
  </defs>
  <g id="Layer_2" data-name="Layer 2">
    <g id="Layer_1-2" data-name="Layer 1">
      <path class="cls-1" d="M 152.002 288.271 C 146.868 288.043 143.906 282.343 146.671 278.011 C 147.84 276.178 149.83 275.03 152.002 274.932 C 196.38 275.098 237.784 252.647 261.856 215.364 L 243.672 178.285 L 244.541 175.652 C 253.23 149.628 250.875 121.179 238.024 96.938 C 235.775 92.318 239.372 86.996 244.498 87.359 C 246.701 87.514 248.684 88.75 249.795 90.657 C 263.937 117.297 266.911 148.464 258.064 177.298 L 277.117 216.141 L 275.181 219.262 C 249.058 262.267 202.319 288.451 152.002 288.271 Z" style=""/>
      <path class="cls-2" d="M 193.545 209.847 C 188.415 209.855 185.201 204.309 187.759 199.862 C 188.275 198.964 188.994 198.199 189.858 197.628 C 231.206 170.112 227.261 108.154 182.757 86.103 C 180.225 84.848 177.614 83.762 174.939 82.849 C 170.103 81.111 168.962 74.79 172.885 71.47 C 174.642 69.985 177.04 69.508 179.232 70.209 C 235.951 89.483 250.535 162.93 205.485 202.413 C 202.868 204.705 200.103 206.819 197.205 208.741 C 196.12 209.464 194.847 209.848 193.545 209.847 Z" style=""/>
      <path class="cls-3" d="M 138.427 228.597 L 117.991 252.746 L 113.225 251.1 C 105.222 248.385 97.539 244.803 90.314 240.421 C 35.691 207.466 19.021 135.939 53.446 82.23 C 62.216 68.267 73.843 56.317 87.562 47.166 L 109.946 7.954 L 112.843 7.098 C 148.315 -3.528 186.52 -0.057 219.497 16.789 C 219.654 16.866 219.808 16.949 219.958 17.04 C 223.247 19.005 224.409 23.212 222.592 26.586 C 220.66 30.159 216.233 31.545 212.611 29.706 C 183.947 15.066 150.842 11.679 119.808 20.213 L 98.609 57.292 L 97.069 58.279 C 84.474 66.377 73.809 77.137 65.823 89.802 C 35.782 136.749 50.342 199.226 98.043 228.057 C 102.92 231.003 108.033 233.54 113.33 235.642 L 132.265 213.257 L 136.333 213.81 C 140.402 214.35 153.161 215.022 163.3 211.638 C 168.538 209.702 173.907 214.165 172.964 219.67 C 172.498 222.39 170.527 224.611 167.882 225.397 C 156.821 229.111 144.668 229.005 138.427 228.597 Z" style=""/>
      <path class="cls-4" d="M 140.534 61.716 C 145.25 64.592 145.085 71.495 140.236 74.142 C 139.596 74.492 138.905 74.742 138.19 74.883 C 119.312 78.737 102.824 90.127 92.539 106.419 C 71.852 139.179 82.221 182.547 115.49 202.408 C 118.93 204.456 120.002 208.94 117.86 212.322 C 115.679 215.721 111.19 216.766 107.734 214.679 C 67.585 190.694 55.092 138.339 80.083 98.808 C 92.501 79.151 112.395 65.404 135.174 60.742 C 137.019 60.383 138.932 60.731 140.534 61.716 Z" style=""/>
      <path class="cls-5" d="M 228.872 212.033 C 219.803 206.537 208.005 209.277 202.288 218.208 C 199.833 222.041 198.895 226.651 199.654 231.138 C 181.958 240.355 164.103 244.306 144.102 242.462 C 140.091 242.047 136.498 244.947 136.057 248.954 C 135.675 252.959 138.632 256.506 142.64 256.854 C 165.749 259.013 186.935 254.326 207.357 243.45 C 207.734 243.737 208.125 244.005 208.529 244.253 C 217.599 249.699 229.353 246.973 235.1 238.091 C 240.693 229.195 237.883 217.439 228.872 212.033 Z M 222.565 230.467 C 221.213 232.581 218.422 233.236 216.271 231.942 C 214.118 230.662 213.446 227.857 214.783 225.74 C 216.145 223.629 218.934 222.977 221.09 224.265 C 223.245 225.569 223.889 228.398 222.513 230.506 L 222.565 230.467 Z" style=""/>
      <path class="cls-6" d="M 202.354 272.813 C 201.036 269.032 196.959 266.977 193.137 268.165 C 155.269 280.23 114.038 275.368 80.017 254.826 C 16.314 216.286 -3.318 134.149 36.157 71.684 C 41.881 62.657 48.648 54.336 56.316 46.89 C 65.304 50.944 75.905 47.807 81.242 39.516 C 86.981 30.45 84.119 18.435 74.908 12.931 C 65.657 7.354 53.648 10.128 47.784 19.199 C 44.534 24.345 43.956 30.737 46.23 36.382 C 37.619 44.687 30.049 54.008 23.688 64.139 C 2.575 97.198 -4.153 137.431 5.056 175.56 C 14.194 213.87 38.407 246.871 72.209 267.085 C 109.929 289.855 155.635 295.259 197.627 281.911 C 201.448 280.708 203.565 276.631 202.354 272.813 Z M 60.319 26.81 C 61.779 24.509 64.816 23.806 67.14 25.23 C 69.465 26.614 70.196 29.639 68.759 31.932 C 67.282 34.252 64.218 34.96 61.873 33.525 C 59.568 32.115 58.868 29.089 60.319 26.81 Z" style=""/>
      <path class="cls-7" d="M 228.727 45.112 C 222.281 41.277 214.186 41.565 208.029 45.849 C 182.846 31.89 153.347 27.878 125.352 34.605 C 121.409 35.458 118.92 39.361 119.808 43.295 C 120.834 47.185 124.792 49.53 128.696 48.562 C 152.911 42.749 178.423 46.16 200.26 58.134 C 199.193 65.4 202.608 72.592 208.911 76.358 C 217.712 81.667 229.14 79.027 234.719 70.393 C 240.166 61.778 237.461 50.367 228.727 45.112 Z M 222.262 62.822 C 221.072 64.693 218.608 65.276 216.706 64.139 C 214.845 63.004 214.255 60.576 215.389 58.714 C 216.56 56.843 219.015 56.256 220.906 57.397 C 222.819 58.49 223.437 60.958 222.262 62.822 Z" style=""/>
      <path class="cls-8" d="M 190.727 161.431 C 192.465 163.704 192.586 166.826 191.03 169.226 C 189.099 172.26 186.843 175.072 184.301 177.614 L 184.196 177.706 C 178.439 183.445 171.322 187.631 163.51 189.872 C 158.513 191.326 153.319 191.983 148.118 191.821 C 135.907 191.426 124.287 186.475 115.542 177.943 C 109.483 172.133 105.052 164.838 102.691 156.783 C 92.007 120.58 124.521 86.387 161.215 95.237 C 174.356 98.406 185.606 106.858 192.307 118.598 C 194.79 123.287 191.317 128.917 186.013 128.803 L 185.644 128.803 C 183.195 128.707 180.974 127.339 179.785 125.195 C 166.175 102.12 132.69 102.429 119.509 125.752 C 118.997 126.659 118.526 127.59 118.097 128.54 C 116.322 132.351 115.293 136.467 115.068 140.667 C 114.185 155.115 122.323 168.603 135.517 174.559 C 139.313 176.334 143.418 177.349 147.604 177.548 C 156.409 178.085 165.092 175.262 171.898 169.648 C 174.073 167.863 176.019 165.816 177.691 163.551 C 178.104 163.02 178.487 162.466 178.837 161.892 C 179.569 160.749 180.611 159.837 181.839 159.259 C 181.491 159.91 181.315 160.64 181.326 161.379 C 181.133 165.023 184.957 167.508 188.209 165.853 C 189.879 165.003 190.892 163.25 190.793 161.379 L 190.727 161.431 Z" style=""/>
      <path class="cls-9" d="M 185.987 144.999 C 176.925 144.999 169.58 152.345 169.58 161.405 C 169.569 164.311 170.347 167.164 171.832 169.661 C 174.777 174.688 180.159 177.787 185.987 177.811 C 198.615 177.811 206.509 164.14 200.194 153.202 C 197.264 148.126 191.847 144.999 185.987 144.999 Z M 181.26 161.405 C 181.249 160.666 181.426 159.937 181.773 159.285 C 183.402 156.031 187.942 155.761 189.946 158.799 C 190.456 159.573 190.727 160.479 190.727 161.405 C 190.919 165.05 187.094 167.534 183.842 165.879 C 182.172 165.03 181.161 163.276 181.26 161.405 Z" style=""/>
      <path class="cls-10" d="M 288.27 159.087 C 273.815 159.087 264.781 174.735 272.008 187.252 C 279.236 199.77 297.302 199.77 304.53 187.252 C 306.178 184.397 307.046 181.16 307.046 177.864 C 307.053 167.491 298.643 159.081 288.27 159.087 Z M 288.27 182.077 C 285.025 182.077 282.999 178.567 284.62 175.757 C 286.242 172.949 290.296 172.949 291.918 175.757 C 292.288 176.398 292.483 177.124 292.483 177.864 C 292.454 180.171 290.575 182.025 288.27 182.025 L 288.27 182.077 Z" style=""/>
      <path class="cls-11" d="M 281.765 161.997 C 283.342 161.613 284.959 161.414 286.584 161.405 C 289.505 161.406 292.392 162.036 295.051 163.248 C 300.443 123.39 288.966 83.089 263.384 52.051 C 260.119 48.093 253.794 49.153 251.999 53.958 C 251.166 56.188 251.584 58.694 253.1 60.531 C 276.424 88.856 286.82 125.655 281.765 161.997 Z" style=""/>
      <path class="cls-12" d="M 396.247 145.326 C 396.247 84.842 442.377 41.536 504.393 41.536 C 537.256 41.536 565.522 53.352 584.273 75.246 L 560.08 98.028 C 546.372 82.704 526.687 74.085 506.126 74.4 C 464.354 74.4 434.07 103.796 434.07 145.326 C 434.07 186.86 464.313 216.457 506.087 216.457 C 526.755 216.723 546.488 207.87 560.04 192.264 L 584.233 215.327 C 565.601 237.304 537.378 249.117 504.112 249.117 C 442.377 249.117 396.247 205.61 396.247 145.326 Z" style=""/>
      <path class="cls-13" d="M 947.221 44.398 L 984.721 44.398 L 984.721 246.253 L 947.221 246.253 L 947.221 44.398 Z" style=""/>
      <path class="cls-14" d="M 1096.857 44.398 L 1185.088 44.398 C 1250.529 44.398 1295.247 84.721 1295.247 145.208 C 1295.247 205.693 1250.529 246.014 1185.088 246.014 L 1096.857 246.014 L 1096.857 44.398 Z M 1183.354 214.523 C 1228.349 214.523 1257.468 187.139 1257.468 145.326 C 1257.468 103.512 1228.349 76.133 1183.354 76.133 L 1134.157 76.133 L 1134.157 214.523 L 1183.354 214.523 Z" style=""/>
      <path class="cls-15" d="M 1378.233 145.326 C 1378.233 85.65 1424.403 41.536 1487.107 41.536 C 1549.807 41.536 1595.979 85.365 1595.979 145.326 C 1595.979 205.287 1549.848 249.117 1487.107 249.117 C 1424.363 249.117 1378.233 205.005 1378.233 145.326 Z M 1557.872 145.326 C 1557.872 104.078 1527.591 74.4 1486.942 74.4 C 1446.296 74.4 1416.013 104.078 1416.013 145.326 C 1416.013 186.579 1446.296 216.457 1486.942 216.457 C 1527.591 216.457 1557.872 186.579 1557.872 145.326 Z" style=""/>
      <polygon class="cls-16" points="772.823 44.398 735.888 44.398 645.041 246.253 683.709 246.253 703.588 199.52 703.711 199.52 716.293 170.127 716.293 170.127 754.074 81.899 792.098 170.127 791.976 170.127 824.721 246.253 863.913 246.253 772.823 44.398" style=""/>
    </g>
  </g>
</svg>