<?xml version="1.0" encoding="iso-8859-1"?>
<!-- Uploaded to: SVG Repo, www.svgrepo.com, Generator: SVG Repo Mixer Tools -->
<svg height="800px" width="800px" version="1.1" id="Layer_1" xmlns="http://www.w3.org/2000/svg" xmlns:xlink="http://www.w3.org/1999/xlink" 
	 viewBox="0 0 512 512" xml:space="preserve">
<polygon style="fill:#2DD4AA;" points="470.626,132.082 437.945,205.418 223.319,78.583 256,8.167 "/>
<g>
	<polygon style="fill:#4CF5CB;" points="256,8.167 256,78.583 223.319,27.035 	"/>
	<polygon style="fill:#4CF5CB;" points="437.945,150.95 256,321.358 190.638,183.63 256,45.902 	"/>
</g>
<polygon style="fill:#A3FBE5;" points="256,45.902 256,321.358 41.374,132.082 223.319,27.035 "/>
<polygon style="fill:#68AEF4;" points="256,255.997 310.468,373.43 256,503.827 41.374,379.912 111.054,243.51 "/>
<polygon style="fill:#8FE1EA;" points="256,255.997 41.374,379.912 41.374,132.082 "/>
<polygon style="fill:#FFE08F;" points="470.626,379.912 437.945,398.779 396.549,284.789 "/>
<polygon style="fill:#FFEAB2;" points="437.945,273.895 437.945,398.779 256,503.827 256,255.997 "/>
<polygon style="fill:#FFD159;" points="470.626,132.082 470.626,379.912 437.945,361.044 416.158,255.997 437.945,150.95 "/>
<polygon style="fill:#FFE08F;" points="437.945,150.95 437.945,361.044 256,255.997 "/>
<g>
	<path style="fill:#FFFFFF;" d="M256,264.17c-4.513,0-8.17-3.658-8.17-8.17v-23.421c0-4.512,3.657-8.17,8.17-8.17
		s8.17,3.658,8.17,8.17V256C264.17,260.512,260.513,264.17,256,264.17z"/>
	<path style="fill:#FFFFFF;" d="M256,208.068c-4.513,0-8.17-3.658-8.17-8.17v-23.421c0-4.512,3.657-8.17,8.17-8.17
		s8.17,3.658,8.17,8.17v23.421C264.17,204.41,260.513,208.068,256,208.068z"/>
	<path style="fill:#FFFFFF;" d="M256,151.966c-4.513,0-8.17-3.658-8.17-8.17v-23.421c0-4.512,3.657-8.17,8.17-8.17
		s8.17,3.658,8.17,8.17v23.421C264.17,148.308,260.513,151.966,256,151.966z"/>
	<path style="fill:#FFFFFF;" d="M256,95.864c-4.513,0-8.17-3.658-8.17-8.17V64.272c0-4.512,3.657-8.17,8.17-8.17
		s8.17,3.658,8.17,8.17v23.421C264.17,92.206,260.513,95.864,256,95.864z"/>
	<path style="fill:#FFFFFF;" d="M256,39.762c-4.513,0-8.17-3.658-8.17-8.17V8.17c0-4.512,3.657-8.17,8.17-8.17s8.17,3.658,8.17,8.17
		v23.421C264.17,36.104,260.513,39.762,256,39.762z"/>
	<path style="fill:#FFFFFF;" d="M276.276,275.883c-1.386,0-2.791-0.353-4.077-1.096l-20.284-11.711
		c-3.908-2.256-5.246-7.253-2.99-11.16c2.255-3.909,7.251-5.247,11.161-2.99l20.284,11.711c3.908,2.256,5.246,7.253,2.99,11.161
		C281.847,274.418,279.1,275.883,276.276,275.883z"/>
	<path style="fill:#FFFFFF;" d="M324.863,303.934c-1.386,0-2.791-0.353-4.077-1.096l-20.284-11.711
		c-3.908-2.256-5.246-7.253-2.99-11.161c2.255-3.909,7.251-5.247,11.16-2.99l20.284,11.711c3.908,2.256,5.246,7.253,2.99,11.161
		C330.433,302.468,327.687,303.934,324.863,303.934z"/>
	<path style="fill:#FFFFFF;" d="M373.447,331.985c-1.386,0-2.792-0.353-4.077-1.096l-20.283-11.711
		c-3.908-2.256-5.246-7.253-2.99-11.161c2.255-3.909,7.254-5.247,11.16-2.99l20.283,11.711c3.908,2.256,5.246,7.253,2.99,11.16
		C379.018,330.52,376.271,331.985,373.447,331.985z"/>
	<path style="fill:#FFFFFF;" d="M422.034,360.036c-1.386,0-2.792-0.353-4.077-1.096l-20.283-11.711
		c-3.908-2.256-5.246-7.253-2.99-11.16c2.255-3.909,7.254-5.249,11.161-2.99l20.283,11.711c3.908,2.256,5.246,7.253,2.99,11.16
		C427.604,358.571,424.858,360.036,422.034,360.036z"/>
	<path style="fill:#FFFFFF;" d="M470.62,388.086c-1.386,0-2.791-0.353-4.078-1.096l-20.283-11.711
		c-3.908-2.256-5.246-7.253-2.99-11.16c2.254-3.908,7.251-5.247,11.161-2.99l20.283,11.711c3.908,2.256,5.246,7.253,2.99,11.161
		C476.189,386.621,473.442,388.086,470.62,388.086z"/>
	<path style="fill:#FFFFFF;" d="M235.724,275.883c-2.824,0-5.569-1.465-7.083-4.086c-2.256-3.908-0.917-8.904,2.99-11.16
		l20.284-11.711c3.906-2.256,8.903-0.917,11.161,2.99c2.256,3.908,0.917,8.904-2.99,11.161l-20.284,11.711
		C238.515,275.53,237.109,275.883,235.724,275.883z"/>
	<path style="fill:#FFFFFF;" d="M187.137,303.934c-2.824,0-5.57-1.465-7.083-4.086c-2.256-3.908-0.917-8.904,2.99-11.161
		l20.284-11.711c3.906-2.256,8.906-0.918,11.161,2.99c2.256,3.908,0.917,8.904-2.99,11.161l-20.284,11.711
		C189.929,303.581,188.524,303.934,187.137,303.934z"/>
	<path style="fill:#FFFFFF;" d="M138.553,331.985c-2.824,0-5.569-1.465-7.083-4.086c-2.256-3.908-0.917-8.904,2.99-11.16
		l20.283-11.711c3.906-2.256,8.903-0.918,11.16,2.99c2.256,3.908,0.917,8.904-2.99,11.161l-20.283,11.711
		C141.344,331.632,139.938,331.985,138.553,331.985z"/>
	<path style="fill:#FFFFFF;" d="M89.966,360.036c-2.824,0-5.569-1.465-7.083-4.086c-2.256-3.908-0.917-8.904,2.99-11.16
		l20.283-11.711c3.906-2.257,8.903-0.917,11.161,2.99c2.256,3.908,0.917,8.904-2.99,11.16L94.043,358.94
		C92.757,359.683,91.352,360.036,89.966,360.036z"/>
	<path style="fill:#FFFFFF;" d="M41.38,388.086c-2.824,0-5.57-1.465-7.083-4.086c-2.256-3.908-0.917-8.904,2.99-11.161
		l20.283-11.711c3.906-2.256,8.906-0.917,11.161,2.99c2.256,3.908,0.917,8.904-2.99,11.16L45.458,386.99
		C44.173,387.733,42.767,388.086,41.38,388.086z"/>
</g>
<path d="M474.712,125.01L260.085,1.095c-2.527-1.46-5.643-1.46-8.17,0L37.288,125.01c-2.527,1.46-4.085,4.156-4.085,7.075v247.83
	c0,2.919,1.558,5.616,4.085,7.075l214.627,123.915c1.264,0.73,2.674,1.095,4.085,1.095s2.821-0.365,4.085-1.095L474.712,386.99
	c2.527-1.46,4.085-4.156,4.085-7.075v-247.83C478.797,129.166,477.24,126.469,474.712,125.01z M256,17.604l198.287,114.481
	L256,246.566L57.713,132.085L256,17.604z M49.543,146.236L247.83,260.717v228.962L49.543,375.198V146.236z M264.17,489.679V260.717
	l198.287-114.481v228.962L264.17,489.679z"/>
</svg>