<svg width="1057" height="311" viewBox="0 0 1057 311" fill="none" xmlns="http://www.w3.org/2000/svg">
<g clip-path="url(#clip0_43_1952)">
<path d="M223.785 98.062L221.454 96.9742L218.812 96.6633L217.258 107.542L226.738 106.299L230.157 100.238L223.785 98.062Z" fill="#1A1A1A"/>
<path d="M63.7144 170.793L66.2009 162.09L68.2212 158.516L74.1266 174.212L70.3969 175.61H64.336L63.7144 170.793Z" fill="#1A1A1A"/>
<path d="M190.84 214.306C190.529 217.414 187.887 219.59 184.779 219.59C183.692 219.59 182.759 219.279 181.827 218.813C179.962 217.725 178.718 215.705 178.718 213.529C178.718 212.286 179.029 211.042 179.806 209.954C180.894 208.245 182.759 207.313 184.779 207.313H184.935C188.354 207.313 190.84 210.11 190.84 213.373C190.84 213.684 190.84 213.995 190.84 214.306ZM184.779 298.692C181.36 298.692 178.718 295.895 178.718 292.631C178.718 289.368 181.516 286.57 184.779 286.57C188.043 286.57 190.84 289.368 190.84 292.631C190.84 295.895 188.198 298.692 184.779 298.692ZM98.0622 35.7429C95.1095 35.7429 92.7784 37.9186 92.3122 40.7159C50.1969 51.7499 29.0615 69.7771 28.2845 70.5541L27.3521 71.3312L27.5075 72.419C30.6156 113.291 37.7643 135.514 39.163 139.555C37.7643 140.643 36.8319 142.352 36.8319 144.217C36.8319 147.481 39.4738 149.967 42.5819 149.967C45.6901 149.967 48.332 147.325 48.332 144.217C48.332 141.42 46.3117 138.933 43.5144 138.467C42.8927 136.602 35.2778 114.379 32.0143 73.1961C36.3657 69.7771 56.8794 54.5472 93.4 45.0673C94.4879 46.466 96.0419 47.3985 97.9068 47.3985C101.17 47.3985 103.657 44.7565 103.657 41.6484C103.812 38.3848 101.17 35.7429 98.0622 35.7429ZM42.5819 142.197C43.6698 142.197 44.4468 143.129 44.4468 144.062C44.4468 144.994 43.5144 145.927 42.5819 145.927C41.4941 145.927 40.7171 144.994 40.7171 144.062C40.7171 143.129 41.4941 142.197 42.5819 142.197ZM98.0622 43.5133C96.9744 43.5133 96.1974 42.5808 96.1974 41.6484C96.1974 40.5605 97.1298 39.7835 98.0622 39.7835C99.1501 39.7835 99.9271 40.7159 99.9271 41.6484C99.9271 42.5808 99.1501 43.5133 98.0622 43.5133ZM296.051 56.4121C236.219 4.97226 152.921 6.99255 149.347 7.14796L140.644 7.45877V76.9258C143.596 76.4596 146.705 76.3042 149.813 76.3042C152.921 76.3042 155.874 76.4596 158.826 76.9258C175.921 79.2569 190.996 87.9598 201.563 100.548C203.273 102.568 204.982 104.899 206.381 107.075C212.753 117.021 216.793 128.832 217.104 141.42C217.104 142.197 217.104 142.974 217.104 143.751C217.104 145.927 216.949 147.947 216.793 150.123C215.084 168.772 205.604 185.4 191.773 196.434C189.752 195.502 187.421 195.035 185.09 195.035H184.779C178.874 195.035 173.124 197.988 169.705 202.806C167.529 205.914 166.286 209.644 166.286 213.529C166.286 220.211 169.86 226.428 175.766 229.691C178.563 231.245 181.671 232.022 184.779 232.022C194.104 232.022 201.874 225.029 203.117 215.86C203.273 215.083 203.273 214.306 203.273 213.529C203.273 212.596 203.117 211.664 203.117 210.732C222.699 195.035 235.442 170.947 235.442 143.906C235.442 142.041 235.442 140.177 235.287 138.312C234.976 134.582 234.665 131.008 233.888 127.433C232.489 120.129 230.003 112.98 226.895 106.453C225.341 103.19 223.631 100.082 221.611 97.1288C207.935 76.1488 185.09 61.5405 158.982 58.7432V25.3306C180.583 26.2631 237.773 32.1685 281.132 67.2906C280.044 84.23 274.294 147.17 248.807 198.299C227.827 240.414 208.712 257.82 191.928 273.205C191.306 273.827 190.84 274.293 190.219 274.759C188.665 274.293 186.955 273.982 185.09 273.982C174.833 273.982 166.597 282.219 166.597 292.476C166.597 302.577 174.833 310.969 185.09 310.969C195.347 310.969 203.584 302.733 203.584 292.476C203.584 290.766 203.273 289.212 202.962 287.658C203.428 287.347 203.739 286.881 204.205 286.415C221.3 270.719 242.591 251.293 265.125 206.225C296.362 143.44 299.47 66.669 299.625 63.5608L299.781 59.2094L296.051 56.4121Z" fill="#1A1A1A"/>
<path d="M101.947 117.643C103.235 117.643 104.278 116.599 104.278 115.312C104.278 114.024 103.235 112.98 101.947 112.98C100.66 112.98 99.6162 114.024 99.6162 115.312C99.6162 116.599 100.66 117.643 101.947 117.643Z" fill="#1A1A1A"/>
<path d="M133.805 140.643C135.092 140.643 136.136 139.6 136.136 138.312C136.136 137.025 135.092 135.981 133.805 135.981C132.517 135.981 131.474 137.025 131.474 138.312C131.474 139.6 132.517 140.643 133.805 140.643Z" fill="#1A1A1A"/>
<path d="M103.19 164.886C104.478 164.886 105.522 163.842 105.522 162.555C105.522 161.268 104.478 160.224 103.19 160.224C101.903 160.224 100.859 161.268 100.859 162.555C100.859 163.842 101.903 164.886 103.19 164.886Z" fill="#1A1A1A"/>
<path d="M143.907 165.198C145.195 165.198 146.238 164.154 146.238 162.867C146.238 161.579 145.195 160.535 143.907 160.535C142.62 160.535 141.576 161.579 141.576 162.867C141.576 164.154 142.62 165.198 143.907 165.198Z" fill="#1A1A1A"/>
<path d="M120.906 112.826C122.622 112.826 124.014 111.434 124.014 109.718C124.014 108.001 122.622 106.609 120.906 106.609C119.189 106.609 117.797 108.001 117.797 109.718C117.797 111.434 119.189 112.826 120.906 112.826Z" fill="#1A1A1A"/>
<path d="M99.3015 144.218C101.018 144.218 102.41 142.826 102.41 141.11C102.41 139.393 101.018 138.002 99.3015 138.002C97.5849 138.002 96.1934 139.393 96.1934 141.11C96.1934 142.826 97.5849 144.218 99.3015 144.218Z" fill="#1A1A1A"/>
<path d="M135.982 194.103C137.698 194.103 139.09 192.711 139.09 190.994C139.09 189.278 137.698 187.886 135.982 187.886C134.265 187.886 132.874 189.278 132.874 190.994C132.874 192.711 134.265 194.103 135.982 194.103Z" fill="#1A1A1A"/>
<path d="M177.01 187.422C178.298 187.422 179.341 186.378 179.341 185.091C179.341 183.803 178.298 182.76 177.01 182.76C175.723 182.76 174.679 183.803 174.679 185.091C174.679 186.378 175.723 187.422 177.01 187.422Z" fill="#00FF22"/>
<path d="M163.335 149.347C164.622 149.347 165.666 148.304 165.666 147.016C165.666 145.729 164.622 144.685 163.335 144.685C162.047 144.685 161.003 145.729 161.003 147.016C161.003 148.304 162.047 149.347 163.335 149.347Z" fill="#00FF22"/>
<path d="M174.367 121.839C175.655 121.839 176.698 120.796 176.698 119.508C176.698 118.221 175.655 117.177 174.367 117.177C173.08 117.177 172.036 118.221 172.036 119.508C172.036 120.796 173.08 121.839 174.367 121.839Z" fill="#00FF22"/>
<path d="M195.037 109.252C196.325 109.252 197.368 108.208 197.368 106.921C197.368 105.634 196.325 104.59 195.037 104.59C193.75 104.59 192.706 105.634 192.706 106.921C192.706 108.208 193.75 109.252 195.037 109.252Z" fill="#00FF22"/>
<path d="M147.947 112.826C149.234 112.826 150.278 111.783 150.278 110.495C150.278 109.208 149.234 108.164 147.947 108.164C146.659 108.164 145.616 109.208 145.616 110.495C145.616 111.783 146.659 112.826 147.947 112.826Z" fill="#00FF22"/>
<path d="M166.753 90.6029C168.04 90.6029 169.084 89.5592 169.084 88.2718C169.084 86.9843 168.04 85.9407 166.753 85.9407C165.466 85.9407 164.422 86.9843 164.422 88.2718C164.422 89.5592 165.466 90.6029 166.753 90.6029Z" fill="#00FF22"/>
<path d="M207.156 139.866C208.873 139.866 210.264 138.475 210.264 136.758C210.264 135.042 208.873 133.65 207.156 133.65C205.439 133.65 204.048 135.042 204.048 136.758C204.048 138.475 205.439 139.866 207.156 139.866Z" fill="#00FF22"/>
<path d="M195.968 156.962C197.685 156.962 199.077 155.571 199.077 153.854C199.077 152.137 197.685 150.746 195.968 150.746C194.252 150.746 192.86 152.137 192.86 153.854C192.86 155.571 194.252 156.962 195.968 156.962Z" fill="#00FF22"/>
<path d="M271.962 71.332L271.03 70.5549C269.631 69.4671 237.617 43.0478 178.096 35.122C177.164 33.2572 175.144 31.8585 172.968 31.8585C169.704 31.8585 167.218 34.5004 167.218 37.6086C167.218 40.8721 169.86 43.3586 172.968 43.3586C175.455 43.3586 177.63 41.8046 178.407 39.6289C230.779 46.7776 261.861 69.0008 267.3 73.1968C264.658 119.197 249.428 161.624 246.631 168.772C243.523 168.772 240.881 171.414 240.881 174.522C240.881 177.786 243.523 180.272 246.631 180.272C249.739 180.272 252.381 177.631 252.381 174.522C252.381 172.968 251.759 171.57 250.671 170.482C253.313 163.488 269.165 119.664 271.651 72.2644L271.962 71.332ZM172.968 39.6289C171.88 39.6289 171.103 38.6964 171.103 37.764C171.103 36.6761 172.036 35.8991 172.968 35.8991C174.056 35.8991 174.833 36.8315 174.833 37.764C174.833 38.8518 174.056 39.6289 172.968 39.6289ZM246.631 176.698C245.543 176.698 244.766 175.766 244.766 174.833C244.766 173.901 245.698 172.968 246.631 172.968C247.719 172.968 248.496 173.901 248.496 174.833C248.496 175.766 247.719 176.698 246.631 176.698ZM114.69 66.9805C118.109 66.9805 120.751 69.7779 120.751 73.0414C120.751 76.4604 117.954 79.1023 114.69 79.1023C111.271 79.1023 108.63 76.305 108.63 73.0414C108.63 69.7779 111.271 66.9805 114.69 66.9805ZM114.38 12.4326C117.799 12.4326 120.44 15.2299 120.44 18.4935C120.44 21.9124 117.643 24.5544 114.38 24.5544C110.961 24.5544 108.319 21.757 108.319 18.4935C108.319 15.2299 111.116 12.4326 114.38 12.4326ZM149.812 211.199C146.704 211.199 143.751 211.043 140.643 210.577C126.968 208.712 114.535 202.807 104.744 193.948C102.413 191.773 100.238 189.597 98.2172 187.266C91.3793 179.185 86.4063 169.549 84.0752 158.982C83.4536 156.029 82.9873 153.232 82.6765 150.123C82.5211 148.103 82.3657 145.927 82.3657 143.752C82.3657 122.15 92.6226 102.88 108.474 90.447C110.494 91.2241 112.515 91.5349 114.846 91.5349C125.103 91.5349 133.339 83.2983 133.339 73.0414C133.339 62.7845 124.947 54.548 114.69 54.548C104.434 54.548 96.1969 62.94 96.1969 73.0414C96.1969 74.2847 96.3523 75.5279 96.5078 76.6158C76.7711 92.3119 64.0277 116.555 64.0277 143.596C64.0277 149.968 64.6493 156.029 66.048 161.934C67.1358 166.597 68.5345 171.103 70.244 175.455C71.6426 178.718 73.0413 181.982 74.7508 184.935C77.0819 189.131 79.8792 193.171 82.8319 196.901C96.6632 214.151 117.177 225.962 140.488 228.449V285.328C120.751 276.314 79.1022 251.138 49.264 190.84C24.2435 140.177 19.1151 82.8321 18.1826 66.9805C50.3519 41.4937 88.1158 32.7909 100.238 30.4598C103.656 34.5004 108.629 36.9869 114.38 36.9869C124.636 36.9869 132.873 28.7503 132.873 18.4935C132.873 8.39199 124.636 0 114.38 0C106.298 0 99.4605 5.28385 96.974 12.588C82.3657 15.2299 39.4734 25.3314 3.26355 56.4129L0 59.2102L0.155407 63.5616C0.155407 66.5143 2.1757 136.448 33.2571 199.388C77.3927 288.591 144.529 307.085 147.481 307.862L158.826 310.815V210.732C155.718 211.043 152.765 211.199 149.812 211.199Z" fill="#00FF22"/>
<path d="M52.683 225.185C7.30413 158.049 5.75006 62.7844 5.75006 62.7844C31.2368 38.6963 76.7711 19.5811 92.4672 13.5203C75.0616 17.25 36.2098 28.1286 3.26355 56.4127L0 59.21L0.155407 63.5614C0.155407 66.5142 2.1757 136.447 33.2571 199.387C68.6899 270.875 118.886 296.983 138.778 304.909C117.177 294.497 84.6968 272.429 52.683 225.185Z" fill="#00A816"/>
<path d="M98.0617 11.3453L97.7509 10.7236C97.5955 11.0344 97.4401 11.3453 97.2847 11.6561C97.7509 11.5007 98.0617 11.3453 98.0617 11.3453Z" fill="#00A816"/>
<path d="M71.0187 158.981C60.9173 119.197 87.6473 86.0955 94.6406 78.1697C75.9917 93.8658 64.0254 117.332 64.0254 143.596C64.0254 149.968 64.647 156.029 66.0457 161.934C67.1335 166.596 68.5322 171.103 70.2417 175.455C71.6403 178.718 73.039 181.982 74.7485 184.935C77.0796 189.131 79.8769 193.171 82.8296 196.901C94.6406 211.665 111.269 222.232 130.229 226.739C114.688 221.611 82.6742 205.137 71.0187 158.981Z" fill="#00A816"/>
<path d="M150.744 6.9936C171.879 9.1693 248.184 19.8924 293.563 63.251C293.563 63.251 290.299 130.542 270.096 184.935C254.089 228.138 225.339 263.882 212.129 278.956C227.67 264.348 245.853 244.456 264.812 206.381C296.049 143.597 299.157 66.8254 299.313 63.7173L299.468 59.3659L296.205 56.5685C239.481 7.77063 162.244 6.83819 150.744 6.9936Z" fill="#464646"/>
<path d="M235.287 143.753C235.287 141.888 235.287 140.023 235.132 138.158C234.821 134.428 234.355 130.854 233.733 127.28C232.335 119.975 229.848 112.827 226.74 106.3C225.186 103.036 223.476 99.9279 221.456 96.9752C209.49 78.6371 190.685 65.1167 168.618 60.2991C184.625 66.9816 220.213 86.0967 227.517 124.638C235.443 166.598 218.037 194.26 209.49 204.983C225.497 189.287 235.287 167.686 235.287 143.753Z" fill="#464646"/>
<path d="M260.149 104.278C257.041 96.5077 242.433 94.332 221.453 96.9739C223.473 99.9267 225.183 103.035 226.737 106.298C233.575 107.075 237.926 109.096 239.48 112.67C241.034 116.555 238.859 121.528 233.885 127.278C230 131.63 224.406 136.447 217.257 141.42C203.892 150.9 185.243 160.691 164.108 169.238C139.243 179.34 115.621 185.556 98.2152 187.11C87.9583 188.043 79.7217 187.576 74.9041 185.245C72.7284 184.157 71.1743 182.759 70.3973 180.894C69.7757 179.34 69.7757 177.63 70.2419 175.61C68.5324 171.259 67.1338 166.752 66.0459 162.09C53.3025 172.813 46.9308 182.603 49.5728 189.286C52.3701 196.279 64.8026 198.766 82.8299 197.212C89.357 196.59 96.6611 195.502 104.587 193.948C122.769 190.218 144.06 183.691 166.128 174.833C185.088 167.218 202.338 158.671 216.791 150.123C223.473 146.083 229.689 142.197 234.973 138.312C253.467 124.792 263.413 112.359 260.149 104.278Z" fill="#1A1A1A"/>
<path d="M409.143 237.974H397.171V125.054H396.864L383.869 237.974H375.274L362.279 125.476H361.972V237.974H350V73.281H370.362L380.697 167.451H381.004L391.646 73.281H409.143V237.974Z" fill="#1A1A1A"/>
<path d="M463.888 237.97H448.846L445.367 199.458H430.94L427.154 237.97H415.489L432.167 73.1089H448.232L463.888 237.97ZM444.651 190.759L438.409 123.784H438.102L431.861 190.759H444.651Z" fill="#1A1A1A"/>
<path d="M513.806 237.97H499.072V170.151C499.072 162.719 495.9 159.002 489.658 159.002H484.337V237.886H469.603V73.1089H493.649C501.016 73.1089 506.234 74.798 509.304 78.1764C512.374 81.5547 513.909 87.4667 513.909 95.9969V134.51C513.909 144.982 511.248 151.486 506.03 154.104V154.526C511.248 157.144 513.909 162.719 513.909 171.249V237.97H513.806ZM499.072 138.817V93.5477C499.072 86.3688 496.411 82.8215 491.193 82.8215H484.235V149.374H489.249C495.797 149.374 499.072 145.827 499.072 138.817Z" fill="#1A1A1A"/>
<path d="M560.682 82.8244H547.483V237.973H533.362V82.8244H520.469V72.9429H560.682V82.8244Z" fill="#1A1A1A"/>
<path d="M585.13 237.974H569.065V73.281H585.13V237.974Z" fill="#1A1A1A"/>
<path d="M641.12 237.97H626.078L622.599 199.458H608.172L604.386 237.97H592.721L609.399 73.1089H625.464L641.12 237.97ZM621.985 190.759L615.641 123.784H615.334L609.092 190.759H621.985Z" fill="#1A1A1A"/>
<path d="M692.059 73.1089L691.752 237.97H678.859L660.032 125.642H659.725V237.97H647.753V73.1089H664.125L679.575 167.702H679.882V73.1089H692.059Z" fill="#1A1A1A"/>
<path d="M746.811 92.2808V223.528C746.811 229.44 744.969 233.494 741.183 235.69C738.216 237.21 733.407 237.97 726.756 237.97H702.812V73.1089H726.039C733.611 73.1089 738.727 74.2068 741.49 76.4027C744.969 79.1898 746.811 84.4262 746.811 92.2808ZM731.974 220.234V93.5477C731.974 86.3688 729.314 82.8215 723.993 82.8215H717.547V229.356H723.993C729.314 229.356 731.974 226.315 731.974 220.234Z" fill="#00FF22"/>
<path d="M798.388 229.359V237.973H757.868V72.9429H798.388V82.8244H772.603V149.377H794.091V159.09H772.603V229.359H798.388Z" fill="#00FF22"/>
<path d="M844.84 82.8244H821.613V149.208H843.101V158.921H821.613L821.92 238.058H806.878V72.9429H844.84V82.8244Z" fill="#00FF22"/>
<path d="M893.534 229.359V237.973H853.014V72.9429H893.534V82.8244H867.748V149.377H889.236V159.09H867.748V229.359H893.534Z" fill="#00FF22"/>
<path d="M946.445 73.1089L946.138 237.97H933.245L914.417 125.642H914.111V237.97H902.139V73.1089H918.51L933.961 167.702H934.268V73.1089H946.445Z" fill="#00FF22"/>
<path d="M998.32 221.926C998.32 228.091 995.66 232.821 990.441 236.115C986.45 238.733 981.539 240 975.707 240C970.488 240 965.781 238.649 961.586 235.862C956.981 232.737 954.628 228.007 954.628 221.842V184.089H967.521V217.027C967.521 225.135 970.386 229.189 976.014 229.189C981.437 229.189 984.199 225.304 984.199 217.45V199.714C984.199 191.099 981.948 182.231 977.548 173.109L963.735 144.225C958.312 132.654 955.549 123.026 955.549 115.171V94.3103C955.549 78.7701 962.711 71 976.934 71C983.688 71 988.599 72.6047 991.669 75.7296C995.25 79.6147 996.99 85.8646 996.99 94.6482V123.871H984.097V95.5772C984.097 87.047 981.846 82.8241 977.344 82.8241C972.637 82.8241 970.283 86.8781 970.283 94.986V109.428C970.283 118.043 972.023 126.32 975.604 134.174L989.009 162.806C995.25 176.234 998.32 187.383 998.32 196.166V221.926Z" fill="#00FF22"/>
<path d="M1047.34 229.359V237.973H1006.82V72.9429H1047.34V82.8244H1021.55V149.377H1043.04V159.09H1021.55V229.359H1047.34Z" fill="#00FF22"/>
</g>
<defs>
<clipPath id="clip0_43_1952">
<rect width="1056.09" height="310.967" fill="white"/>
</clipPath>
</defs>
</svg>