
<svg width="1068" height="231" viewBox="0 0 1068 231" fill="none" xmlns="http://www.w3.org/2000/svg">
<path d="M166.214 72.8352L164.483 72.0272L162.52 71.7964L161.366 79.8763L168.407 78.9529L170.947 74.4512L166.214 72.8352Z" fill="#1A1A1A"/>
<path d="M47.3237 126.855L49.1706 120.391L50.6711 117.737L55.0573 129.395L52.2871 130.434H47.7854L47.3237 126.855Z" fill="#1A1A1A"/>
<path d="M75.7197 87.3784C76.6759 87.3784 77.4511 86.6032 77.4511 85.6469C77.4511 84.6907 76.6759 83.9155 75.7197 83.9155C74.7635 83.9155 73.9883 84.6907 73.9883 85.6469C73.9883 86.6032 74.7635 87.3784 75.7197 87.3784Z" fill="#1A1A1A"/>
<path d="M99.3813 104.462C100.338 104.462 101.113 103.687 101.113 102.73C101.113 101.774 100.338 100.999 99.3813 100.999C98.4251 100.999 97.6499 101.774 97.6499 102.73C97.6499 103.687 98.4251 104.462 99.3813 104.462Z" fill="#1A1A1A"/>
<path d="M76.644 122.468C77.6002 122.468 78.3754 121.693 78.3754 120.737C78.3754 119.781 77.6002 119.005 76.644 119.005C75.6878 119.005 74.9126 119.781 74.9126 120.737C74.9126 121.693 75.6878 122.468 76.644 122.468Z" fill="#1A1A1A"/>
<path d="M106.886 122.7C107.842 122.7 108.618 121.924 108.618 120.968C108.618 120.012 107.842 119.237 106.886 119.237C105.93 119.237 105.155 120.012 105.155 120.968C105.155 121.924 105.93 122.7 106.886 122.7Z" fill="#1A1A1A"/>
<path d="M89.8017 83.8009C91.0767 83.8009 92.1102 82.7674 92.1102 81.4924C92.1102 80.2174 91.0767 79.1838 89.8017 79.1838C88.5267 79.1838 87.4932 80.2174 87.4932 81.4924C87.4932 82.7674 88.5267 83.8009 89.8017 83.8009Z" fill="#1A1A1A"/>
<path d="M73.7558 107.117C75.0308 107.117 76.0643 106.084 76.0643 104.809C76.0643 103.534 75.0308 102.5 73.7558 102.5C72.4808 102.5 71.4473 103.534 71.4473 104.809C71.4473 106.084 72.4808 107.117 73.7558 107.117Z" fill="#1A1A1A"/>
<path d="M100.999 144.168C102.274 144.168 103.308 143.134 103.308 141.859C103.308 140.584 102.274 139.551 100.999 139.551C99.724 139.551 98.6904 140.584 98.6904 141.859C98.6904 143.134 99.724 144.168 100.999 144.168Z" fill="#1A1A1A"/>
<path d="M131.473 139.206C132.429 139.206 133.204 138.431 133.204 137.474C133.204 136.518 132.429 135.743 131.473 135.743C130.516 135.743 129.741 136.518 129.741 137.474C129.741 138.431 130.516 139.206 131.473 139.206Z" fill="#00FF22"/>
<path d="M121.315 110.926C122.272 110.926 123.047 110.151 123.047 109.195C123.047 108.239 122.272 107.464 121.315 107.464C120.359 107.464 119.584 108.239 119.584 109.195C119.584 110.151 120.359 110.926 121.315 110.926Z" fill="#00FF22"/>
<path d="M129.509 90.4958C130.465 90.4958 131.241 89.7206 131.241 88.7644C131.241 87.8081 130.465 87.033 129.509 87.033C128.553 87.033 127.778 87.8081 127.778 88.7644C127.778 89.7206 128.553 90.4958 129.509 90.4958Z" fill="#00FF22"/>
<path d="M144.862 81.1467C145.818 81.1467 146.594 80.3715 146.594 79.4153C146.594 78.459 145.818 77.6838 144.862 77.6838C143.906 77.6838 143.131 78.459 143.131 79.4153C143.131 80.3715 143.906 81.1467 144.862 81.1467Z" fill="#00FF22"/>
<path d="M109.887 83.801C110.843 83.801 111.618 83.0258 111.618 82.0695C111.618 81.1133 110.843 80.3381 109.887 80.3381C108.93 80.3381 108.155 81.1133 108.155 82.0695C108.155 83.0258 108.93 83.801 109.887 83.801Z" fill="#00FF22"/>
<path d="M123.853 67.2944C124.81 67.2944 125.585 66.5192 125.585 65.563C125.585 64.6067 124.81 63.8315 123.853 63.8315C122.897 63.8315 122.122 64.6067 122.122 65.563C122.122 66.5192 122.897 67.2944 123.853 67.2944Z" fill="#00FF22"/>
<path d="M153.863 103.885C155.138 103.885 156.172 102.851 156.172 101.576C156.172 100.301 155.138 99.2676 153.863 99.2676C152.588 99.2676 151.555 100.301 151.555 101.576C151.555 102.851 152.588 103.885 153.863 103.885Z" fill="#00FF22"/>
<path d="M145.554 116.582C146.829 116.582 147.862 115.549 147.862 114.274C147.862 112.999 146.829 111.965 145.554 111.965C144.279 111.965 143.245 112.999 143.245 114.274C143.245 115.549 144.279 116.582 145.554 116.582Z" fill="#00FF22"/>
<path d="M201.997 52.9813L201.304 52.4041C200.266 51.5962 176.488 31.9735 132.279 26.0866C131.587 24.7015 130.086 23.6627 128.47 23.6627C126.046 23.6627 124.199 25.6249 124.199 27.9335C124.199 30.3575 126.162 32.2043 128.47 32.2043C130.317 32.2043 131.933 31.05 132.51 29.434C171.409 34.7437 194.494 51.2499 198.534 54.3664C196.572 88.533 185.26 120.045 183.182 125.354C180.874 125.354 178.912 127.317 178.912 129.625C178.912 132.049 180.874 133.896 183.182 133.896C185.491 133.896 187.453 131.934 187.453 129.625C187.453 128.471 186.991 127.432 186.183 126.624C188.146 121.43 199.919 88.8793 201.766 53.6739L201.997 52.9813ZM128.47 29.434C127.662 29.434 127.085 28.7415 127.085 28.0489C127.085 27.2409 127.778 26.6638 128.47 26.6638C129.278 26.6638 129.855 27.3564 129.855 28.0489C129.855 28.8569 129.278 29.434 128.47 29.434ZM183.182 131.241C182.374 131.241 181.797 130.549 181.797 129.856C181.797 129.164 182.49 128.471 183.182 128.471C183.99 128.471 184.568 129.164 184.568 129.856C184.568 130.549 183.99 131.241 183.182 131.241ZM85.185 49.7493C87.7244 49.7493 89.6867 51.827 89.6867 54.251C89.6867 56.7904 87.609 58.7527 85.185 58.7527C82.6456 58.7527 80.6834 56.675 80.6834 54.251C80.6834 51.827 82.6456 49.7493 85.185 49.7493ZM84.9542 9.23421C87.4936 9.23421 89.4558 11.3119 89.4558 13.7359C89.4558 16.2753 87.3781 18.2376 84.9542 18.2376C82.4148 18.2376 80.4525 16.1599 80.4525 13.7359C80.4525 11.3119 82.5302 9.23421 84.9542 9.23421ZM111.271 156.866C108.963 156.866 106.77 156.751 104.461 156.404C94.3037 155.019 85.0696 150.633 77.7977 144.054C76.0663 142.438 74.4503 140.822 72.9498 139.09C67.871 133.088 64.1773 125.932 62.4459 118.082C61.9842 115.889 61.6379 113.812 61.4071 111.503C61.2917 110.003 61.1762 108.387 61.1762 106.771C61.1762 90.7261 68.7944 76.4131 80.5679 67.1789C82.0685 67.756 83.569 67.9869 85.3004 67.9869C92.9186 67.9869 99.0362 61.8692 99.0362 54.251C99.0362 46.6328 92.8032 40.5151 85.185 40.5151C77.5668 40.5151 71.4492 46.7482 71.4492 54.251C71.4492 55.1744 71.5646 56.0978 71.6801 56.9058C57.0209 68.564 47.5559 86.5707 47.5559 106.655C47.5559 111.388 48.0176 115.889 49.0564 120.276C49.8644 123.738 50.9032 127.086 52.1729 130.318C53.2118 132.742 54.2506 135.166 55.5203 137.359C57.2517 140.475 59.3294 143.477 61.5225 146.247C71.7955 159.059 87.0318 167.832 104.346 169.679V211.925C89.6867 205.23 58.7523 186.531 36.5903 141.745C18.0066 104.116 14.1975 61.5229 13.5049 49.7493C37.3983 30.8192 65.447 24.3552 74.4503 22.6238C76.9897 25.6249 80.6834 27.4718 84.9542 27.4718C92.5723 27.4718 98.69 21.3541 98.69 13.7359C98.69 6.23309 92.5723 0 84.9542 0C78.952 0 73.8732 3.92454 72.0264 9.34964C61.1762 11.3119 29.3184 18.8147 2.42396 41.9002L0 43.9779L0.115427 47.2099C0.115427 49.403 1.61598 101.345 24.7013 148.094C57.4826 214.349 107.347 228.085 109.54 228.662L117.966 230.855V156.52C115.658 156.751 113.465 156.866 111.271 156.866Z" fill="#00FF22"/>
<path d="M39.1297 167.254C5.42506 117.39 4.27079 46.6324 4.27079 46.6324C23.2008 28.7412 57.0209 14.5435 68.679 10.0419C55.7512 12.8121 26.8945 20.8921 2.42396 41.8999L0 43.9776L0.115427 47.2096C0.115427 49.4027 1.61598 101.345 24.7013 148.093C51.0187 201.19 88.3015 220.582 103.076 226.469C87.0318 218.735 62.9076 202.344 39.1297 167.254Z" fill="#00A816"/>
<path d="M72.8345 8.42631L72.6036 7.9646C72.4882 8.19545 72.3728 8.42631 72.2573 8.65717C72.6036 8.54174 72.8345 8.42631 72.8345 8.42631Z" fill="#00A816"/>
<path d="M52.7474 118.083C45.2447 88.5333 65.0981 63.9472 70.2923 58.0604C56.4411 69.7186 47.5532 87.1482 47.5532 106.655C47.5532 111.388 48.0149 115.89 49.0538 120.276C49.8618 123.739 50.9006 127.086 52.1703 130.318C53.2091 132.742 54.248 135.166 55.5177 137.359C57.2491 140.476 59.3268 143.477 61.5199 146.247C70.2923 157.213 82.643 165.062 96.7251 168.409C85.1824 164.6 61.4044 152.365 52.7474 118.083Z" fill="#00A816"/>
<path d="M111.963 5.19416C127.661 6.81015 184.336 14.7746 218.04 46.979C218.04 46.979 215.616 96.9591 200.611 137.359C188.722 169.448 167.368 195.996 157.557 207.192C169.099 196.342 182.604 181.568 196.686 153.288C219.887 106.655 222.196 49.6338 222.311 47.3252L222.426 44.0933L220.002 42.0156C177.872 5.7713 120.504 5.07873 111.963 5.19416Z" fill="#464646"/>
<path d="M174.757 106.772C174.757 105.386 174.757 104.001 174.642 102.616C174.411 99.8459 174.065 97.191 173.603 94.5362C172.564 89.1111 170.717 83.8014 168.409 78.9534C167.255 76.5295 165.985 74.2209 164.484 72.0278C155.597 58.4073 141.63 48.3651 125.239 44.7869C137.128 49.7503 163.561 63.9479 168.986 92.5739C174.873 123.739 161.945 144.285 155.597 152.25C167.485 140.592 174.757 124.547 174.757 106.772Z" fill="#464646"/>
<path d="M193.223 77.4518C190.914 71.6805 180.064 70.0645 164.482 72.0267C165.982 74.2199 167.252 76.5284 168.406 78.9524C173.485 79.5295 176.717 81.0301 177.871 83.6849C179.025 86.5706 177.409 90.2643 173.716 94.5351C170.83 97.7671 166.675 101.345 161.365 105.039C151.438 112.08 137.587 119.352 121.889 125.701C103.421 133.203 85.876 137.82 72.9482 138.975C65.33 139.667 59.2124 139.321 55.6342 137.59C54.0182 136.782 52.8639 135.743 52.2868 134.358C51.8251 133.203 51.8251 131.934 52.1714 130.433C50.9017 127.201 49.8628 123.854 49.0548 120.391C39.5898 128.355 34.8573 135.627 36.8196 140.591C38.8973 145.785 48.1314 147.632 61.5209 146.478C66.3689 146.016 71.7939 145.208 77.6807 144.054C91.1856 141.283 106.999 136.435 123.39 129.856C137.472 124.2 150.284 117.852 161.019 111.503C165.982 108.502 170.599 105.616 174.524 102.73C188.26 92.6883 195.647 83.4541 193.223 77.4518Z" fill="#1A1A1A"/>
<path d="M141.745 159.174C141.515 161.483 139.552 163.099 137.244 163.099C136.436 163.099 135.743 162.868 135.051 162.521C133.666 161.713 132.742 160.213 132.742 158.597C132.742 157.673 132.973 156.75 133.55 155.942C134.358 154.672 135.743 153.98 137.244 153.98H137.359C139.899 153.98 141.745 156.057 141.745 158.481C141.745 158.712 141.745 158.943 141.745 159.174ZM137.244 221.851C134.704 221.851 132.742 219.774 132.742 217.35C132.742 214.926 134.82 212.848 137.244 212.848C139.668 212.848 141.745 214.926 141.745 217.35C141.745 219.774 139.783 221.851 137.244 221.851ZM72.8356 26.5477C70.6425 26.5477 68.9111 28.1637 68.5648 30.2414C37.2842 38.4367 21.5861 51.8263 21.009 52.4035L20.3164 52.9806L20.4318 53.7886C22.7404 84.1461 28.05 100.652 29.0888 103.653C28.05 104.461 27.3574 105.731 27.3574 107.116C27.3574 109.54 29.3197 111.387 31.6282 111.387C33.9368 111.387 35.899 109.425 35.899 107.116C35.899 105.038 34.3985 103.192 32.3208 102.845C31.8591 101.46 26.2032 84.9541 23.7792 54.3657C27.0112 51.8263 42.2475 40.5144 69.3728 33.4733C70.1808 34.5122 71.3351 35.2047 72.7202 35.2047C75.1442 35.2047 76.991 33.2425 76.991 30.9339C77.1064 28.5099 75.1442 26.5477 72.8356 26.5477ZM31.6282 105.616C32.4362 105.616 33.0134 106.308 33.0134 107.001C33.0134 107.693 32.3208 108.386 31.6282 108.386C30.8202 108.386 30.2431 107.693 30.2431 107.001C30.2431 106.308 30.8202 105.616 31.6282 105.616ZM72.8356 32.3191C72.0276 32.3191 71.4505 31.6265 71.4505 30.9339C71.4505 30.1259 72.1431 29.5488 72.8356 29.5488C73.6436 29.5488 74.2207 30.2414 74.2207 30.9339C74.2207 31.6265 73.6436 32.3191 72.8356 32.3191ZM219.889 41.8995C175.45 3.69301 113.581 5.19356 110.926 5.30899L104.463 5.53985V57.136C106.656 56.7897 108.964 56.6743 111.273 56.6743C113.581 56.6743 115.774 56.7897 117.968 57.136C130.664 58.8674 141.861 65.3314 149.71 74.681C150.98 76.1815 152.249 77.913 153.288 79.529C158.021 86.9163 161.022 95.6888 161.253 105.038C161.253 105.616 161.253 106.193 161.253 106.77C161.253 108.386 161.137 109.886 161.022 111.502C159.752 125.354 152.711 137.704 142.438 145.9C140.937 145.207 139.206 144.861 137.475 144.861H137.244C132.858 144.861 128.587 147.054 126.047 150.632C124.431 152.941 123.508 155.711 123.508 158.597C123.508 163.56 126.163 168.177 130.549 170.601C132.627 171.756 134.935 172.333 137.244 172.333C144.169 172.333 149.941 167.139 150.864 160.328C150.98 159.751 150.98 159.174 150.98 158.597C150.98 157.904 150.864 157.212 150.864 156.519C165.408 144.861 174.873 126.97 174.873 106.885C174.873 105.5 174.873 104.115 174.758 102.73C174.527 99.9596 174.296 97.3048 173.719 94.65C172.68 89.2249 170.833 83.9152 168.524 79.0672C167.37 76.6433 166.101 74.3347 164.6 72.1416C154.442 56.5589 137.475 45.7087 118.083 43.631V18.814C134.127 19.5066 176.604 23.8928 208.808 49.9795C208 62.5611 203.73 109.309 184.8 147.285C169.217 178.566 155.02 191.494 142.553 202.921C142.092 203.383 141.745 203.729 141.284 204.075C140.129 203.729 138.86 203.498 137.475 203.498C129.856 203.498 123.739 209.616 123.739 217.234C123.739 224.737 129.856 230.97 137.475 230.97C145.093 230.97 151.21 224.852 151.21 217.234C151.21 215.964 150.98 214.81 150.749 213.656C151.095 213.425 151.326 213.079 151.672 212.732C164.369 201.074 180.183 186.646 196.919 153.172C220.12 106.539 222.429 49.5178 222.544 47.2092L222.66 43.9772L219.889 41.8995Z" fill="#1A1A1A"/>
<path d="M326.143 197.693H314.171V84.7726H313.864L300.869 197.693H292.274L279.279 85.1949H278.972V197.693H267V33H287.362L297.697 127.17H298.004L308.646 33H326.143V197.693Z" fill="#1A1A1A"/>
<path d="M390.542 197.862H375.5L372.021 159.349H357.594L353.808 197.862H342.143L358.822 33H374.887L390.542 197.862ZM371.305 150.65L365.063 83.6747H364.757L358.515 150.65H371.305Z" fill="#1A1A1A"/>
<path d="M450.746 197.862H436.011V130.042C436.011 122.61 432.839 118.894 426.597 118.894H421.277V197.777H406.542V33H430.588C437.955 33 443.174 34.6892 446.243 38.0675C449.313 41.4458 450.848 47.3578 450.848 55.8881V94.4008C450.848 104.874 448.188 111.377 442.969 113.995V114.417C448.188 117.035 450.848 122.61 450.848 131.14V197.862H450.746ZM436.011 98.7082V53.4388C436.011 46.2599 433.351 42.7126 428.132 42.7126H421.174V109.265H426.188C432.737 109.265 436.011 105.718 436.011 98.7082Z" fill="#1A1A1A"/>
<path d="M507.061 42.8816H493.861V198.031H479.741V42.8816H466.848V33H507.061V42.8816Z" fill="#1A1A1A"/>
<path d="M539.126 197.693H523.061V33H539.126V197.693Z" fill="#1A1A1A"/>
<path d="M603.525 197.862H588.483L585.004 159.349H570.577L566.791 197.862H555.126L571.805 33H587.869L603.525 197.862ZM584.39 150.65L578.046 83.6747H577.739L571.498 150.65H584.39Z" fill="#1A1A1A"/>
<path d="M663.831 33L663.524 197.862H650.631L631.804 85.5327H631.497V197.862H619.525V33H635.897L651.347 127.593H651.654V33H663.831Z" fill="#1A1A1A"/>
<path d="M723.83 52.1719V183.419C723.83 189.331 721.988 193.385 718.202 195.581C715.235 197.101 710.426 197.862 703.775 197.862H679.831V33H703.058C710.63 33 715.747 34.098 718.509 36.2939C721.988 39.081 723.83 44.3173 723.83 52.1719ZM708.993 180.125V53.4388C708.993 46.2599 706.333 42.7126 701.012 42.7126H694.566V189.247H701.012C706.333 189.247 708.993 186.206 708.993 180.125Z" fill="#00FF22"/>
<path d="M780.35 189.416V198.031H739.83V33H780.35V42.8816H754.565V109.434H776.053V119.147H754.565V189.416H780.35Z" fill="#00FF22"/>
<path d="M834.312 42.8816H811.085V109.265H832.573V118.978H811.085L811.392 198.115H796.35V33H834.312V42.8816Z" fill="#00FF22"/>
<path d="M890.832 189.416V198.031H850.312V33H890.832V42.8816H865.047V109.434H886.534V119.147H865.047V189.416H890.832Z" fill="#00FF22"/>
<path d="M951.138 33L950.831 197.862H937.938L919.111 85.5327H918.804V197.862H906.832V33H923.204L938.655 127.593H938.962V33H951.138Z" fill="#00FF22"/>
<path d="M1010.83 181.926C1010.83 188.091 1008.17 192.821 1002.95 196.115C998.961 198.733 994.049 200 988.217 200C982.998 200 978.291 198.649 974.096 195.862C969.492 192.737 967.138 188.007 967.138 181.842V144.089H980.031V177.027C980.031 185.135 982.896 189.189 988.524 189.189C993.947 189.189 996.71 185.304 996.71 177.45V159.714C996.71 151.099 994.459 142.231 990.059 133.109L976.245 104.225C970.822 92.6542 968.059 83.026 968.059 75.1714V54.3103C968.059 38.7701 975.222 31 989.445 31C996.198 31 1001.11 32.6047 1004.18 35.7296C1007.76 39.6147 1009.5 45.8646 1009.5 54.6482V83.8706H996.607V55.5772C996.607 47.047 994.356 42.8241 989.854 42.8241C985.147 42.8241 982.794 46.8781 982.794 54.986V69.4283C982.794 78.043 984.533 86.3198 988.114 94.1744L1001.52 122.806C1007.76 136.234 1010.83 147.383 1010.83 156.166V181.926Z" fill="#00FF22"/>
<path d="M1067.35 189.416V198.031H1026.83V33H1067.35V42.8816H1041.56V109.434H1063.05V119.147H1041.56V189.416H1067.35Z" fill="#00FF22"/>
</svg>
