<?xml version="1.0" encoding="utf-8"?>
<!-- Generator: Adobe Illustrator 25.2.1, SVG Export Plug-In . SVG Version: 6.00 Build 0)  -->
<!DOCTYPE svg PUBLIC "-//W3C//DTD SVG 1.1//EN" "http://www.w3.org/Graphics/SVG/1.1/DTD/svg11.dtd" [
	<!ENTITY ns_extend "http://ns.adobe.com/Extensibility/1.0/">
	<!ENTITY ns_ai "http://ns.adobe.com/AdobeIllustrator/10.0/">
	<!ENTITY ns_graphs "http://ns.adobe.com/Graphs/1.0/">
	<!ENTITY ns_vars "http://ns.adobe.com/Variables/1.0/">
	<!ENTITY ns_imrep "http://ns.adobe.com/ImageReplacement/1.0/">
	<!ENTITY ns_sfw "http://ns.adobe.com/SaveForWeb/1.0/">
	<!ENTITY ns_custom "http://ns.adobe.com/GenericCustomNamespace/1.0/">
	<!ENTITY ns_adobe_xpath "http://ns.adobe.com/XPath/1.0/">
]>
<svg version="1.1" id="Layer_1" xmlns:x="&ns_extend;" xmlns:i="&ns_ai;" xmlns:graph="&ns_graphs;"
	 xmlns="http://www.w3.org/2000/svg" xmlns:xlink="http://www.w3.org/1999/xlink" x="0px" y="0px" width="900px" height="250px"
	 viewBox="0 0 900 250" style="enable-background:new 0 0 900 250;" xml:space="preserve">
<style type="text/css">
	.st0{fill:#1A1A1A;}
	.st1{fill:#00FF22;}
	.st2{fill:#00A816;}
	.st3{fill:#464646;}
</style>
<metadata>
	<sfw  xmlns="&ns_sfw;">
		<slices></slices>
		<sliceSourceBounds  bottomLeftOrigin="true" height="200.1" width="891.8" x="4.1" y="25"></sliceSourceBounds>
	</sfw>
</metadata>
<g>
	<g>
		<polygon class="st0" points="148.1,88 146.6,87.3 144.9,87.1 143.9,94.1 150,93.3 152.2,89.4 		"/>
		<polygon class="st0" points="45.1,134.8 46.7,129.2 48,126.9 51.8,137 49.4,137.9 45.5,137.9 		"/>
		<path class="st0" d="M126.9,162.8c-0.2,2-1.9,3.4-3.9,3.4c-0.7,0-1.3-0.2-1.9-0.5c-1.2-0.7-2-2-2-3.4c0-0.8,0.2-1.6,0.7-2.3
			c0.7-1.1,1.9-1.7,3.2-1.7h0.1c2.2,0,3.8,1.8,3.8,3.9C126.9,162.4,126.9,162.6,126.9,162.8z M123,217.1c-2.2,0-3.9-1.8-3.9-3.9
			s1.8-3.9,3.9-3.9s3.9,1.8,3.9,3.9S125.2,217.1,123,217.1z M67.2,47.9c-1.9,0-3.4,1.4-3.7,3.2c-27.1,7.1-40.7,18.7-41.2,19.2
			l-0.6,0.5l0.1,0.7c2,26.3,6.6,40.6,7.5,43.2c-0.9,0.7-1.5,1.8-1.5,3c0,2.1,1.7,3.7,3.7,3.7s3.7-1.7,3.7-3.7c0-1.8-1.3-3.4-3.1-3.7
			c-0.4-1.2-5.3-15.5-7.4-42c2.8-2.2,16-12,39.5-18.1c0.7,0.9,1.7,1.5,2.9,1.5c2.1,0,3.7-1.7,3.7-3.7C70.9,49.6,69.2,47.9,67.2,47.9
			z M31.5,116.4c0.7,0,1.2,0.6,1.2,1.2s-0.6,1.2-1.2,1.2c-0.7,0-1.2-0.6-1.2-1.2S30.8,116.4,31.5,116.4z M67.2,52.9
			c-0.7,0-1.2-0.6-1.2-1.2c0-0.7,0.6-1.2,1.2-1.2c0.7,0,1.2,0.6,1.2,1.2C68.4,52.3,67.9,52.9,67.2,52.9z M194.6,61.2
			c-38.5-33.1-92.1-31.8-94.4-31.7l-5.6,0.2v44.7c1.9-0.3,3.9-0.4,5.9-0.4c2,0,3.9,0.1,5.8,0.4c11,1.5,20.7,7.1,27.5,15.2
			c1.1,1.3,2.2,2.8,3.1,4.2c4.1,6.4,6.7,14,6.9,22.1c0,0.5,0,1,0,1.5c0,1.4-0.1,2.7-0.2,4.1c-1.1,12-7.2,22.7-16.1,29.8
			c-1.3-0.6-2.8-0.9-4.3-0.9H123c-3.8,0-7.5,1.9-9.7,5c-1.4,2-2.2,4.4-2.2,6.9c0,4.3,2.3,8.3,6.1,10.4c1.8,1,3.8,1.5,5.8,1.5
			c6,0,11-4.5,11.8-10.4c0.1-0.5,0.1-1,0.1-1.5c0-0.6-0.1-1.2-0.1-1.8c12.6-10.1,20.8-25.6,20.8-43c0-1.2,0-2.4-0.1-3.6
			c-0.2-2.4-0.4-4.7-0.9-7c-0.9-4.7-2.5-9.3-4.5-13.5c-1-2.1-2.1-4.1-3.4-6c-8.8-13.5-23.5-22.9-40.3-24.7V41.2
			c13.9,0.6,50.7,4.4,78.6,27c-0.7,10.9-4.4,51.4-20.8,84.3c-13.5,27.1-25.8,38.3-36.6,48.2c-0.4,0.4-0.7,0.7-1.1,1
			c-1-0.3-2.1-0.5-3.3-0.5c-6.6,0-11.9,5.3-11.9,11.9c0,6.5,5.3,11.9,11.9,11.9c6.6,0,11.9-5.3,11.9-11.9c0-1.1-0.2-2.1-0.4-3.1
			c0.3-0.2,0.5-0.5,0.8-0.8c11-10.1,24.7-22.6,39.2-51.6c20.1-40.4,22.1-89.8,22.2-91.8l0.1-2.8L194.6,61.2z"/>
		<g>
			<circle class="st0" cx="69.7" cy="99.1" r="1.5"/>
			<circle class="st0" cx="90.2" cy="113.9" r="1.5"/>
			<circle class="st0" cx="70.5" cy="129.5" r="1.5"/>
			<circle class="st0" cx="96.7" cy="129.7" r="1.5"/>
			<circle class="st0" cx="81.9" cy="95.5" r="2"/>
			<circle class="st0" cx="68" cy="115.7" r="2"/>
			<circle class="st0" cx="91.6" cy="147.8" r="2"/>
		</g>
		<g>
			<circle class="st1" cx="118" cy="144" r="1.5"/>
			<circle class="st1" cx="109.2" cy="119.5" r="1.5"/>
			<circle class="st1" cx="116.3" cy="101.8" r="1.5"/>
			<circle class="st1" cx="129.6" cy="93.7" r="1.5"/>
			<circle class="st1" cx="99.3" cy="96" r="1.5"/>
			<circle class="st1" cx="111.4" cy="81.7" r="1.5"/>
			<circle class="st1" cx="137.4" cy="112.9" r="2"/>
			<circle class="st1" cx="130.2" cy="123.9" r="2"/>
		</g>
		<path class="st1" d="M179.1,70.8l-0.6-0.5c-0.9-0.7-21.5-17.7-59.8-22.8c-0.6-1.2-1.9-2.1-3.3-2.1c-2.1,0-3.7,1.7-3.7,3.7
			c0,2.1,1.7,3.7,3.7,3.7c1.6,0,3-1,3.5-2.4c33.7,4.6,53.7,18.9,57.2,21.6c-1.7,29.6-11.5,56.9-13.3,61.5c-2,0-3.7,1.7-3.7,3.7
			c0,2.1,1.7,3.7,3.7,3.7s3.7-1.7,3.7-3.7c0-1-0.4-1.9-1.1-2.6c1.7-4.5,11.9-32.7,13.5-63.2L179.1,70.8z M115.4,50.4
			c-0.7,0-1.2-0.6-1.2-1.2c0-0.7,0.6-1.2,1.2-1.2c0.7,0,1.2,0.6,1.2,1.2C116.6,49.9,116.1,50.4,115.4,50.4z M162.8,138.6
			c-0.7,0-1.2-0.6-1.2-1.2s0.6-1.2,1.2-1.2c0.7,0,1.2,0.6,1.2,1.2S163.5,138.6,162.8,138.6z M77.9,68c2.2,0,3.9,1.8,3.9,3.9
			c0,2.2-1.8,3.9-3.9,3.9c-2.2,0-3.9-1.8-3.9-3.9C74,69.8,75.7,68,77.9,68z M77.7,32.9c2.2,0,3.9,1.8,3.9,3.9c0,2.2-1.8,3.9-3.9,3.9
			c-2.2,0-3.9-1.8-3.9-3.9C73.8,34.7,75.6,32.9,77.7,32.9z M100.5,160.8c-2,0-3.9-0.1-5.9-0.4c-8.8-1.2-16.8-5-23.1-10.7
			c-1.5-1.4-2.9-2.8-4.2-4.3c-4.4-5.2-7.6-11.4-9.1-18.2c-0.4-1.9-0.7-3.7-0.9-5.7c-0.1-1.3-0.2-2.7-0.2-4.1
			c0-13.9,6.6-26.3,16.8-34.3c1.3,0.5,2.6,0.7,4.1,0.7c6.6,0,11.9-5.3,11.9-11.9S84.5,60,77.9,60S66,65.4,66,71.9
			c0,0.8,0.1,1.6,0.2,2.3c-12.7,10.1-20.9,25.7-20.9,43.1c0,4.1,0.4,8,1.3,11.8c0.7,3,1.6,5.9,2.7,8.7c0.9,2.1,1.8,4.2,2.9,6.1
			c1.5,2.7,3.3,5.3,5.2,7.7c8.9,11.1,22.1,18.7,37.1,20.3v36.6c-12.7-5.8-39.5-22-58.7-60.8c-16.1-32.6-19.4-69.5-20-79.7
			C36.5,51.6,60.8,46,68.6,44.5c2.2,2.6,5.4,4.2,9.1,4.2c6.6,0,11.9-5.3,11.9-11.9c0-6.5-5.3-11.9-11.9-11.9
			c-5.2,0-9.6,3.4-11.2,8.1c-9.4,1.7-37,8.2-60.3,28.2L4.1,63l0.1,2.8c0,1.9,1.3,46.9,21.3,87.4c28.4,57.4,71.6,69.3,73.5,69.8
			l7.3,1.9v-64.4C104.3,160.7,102.4,160.8,100.5,160.8z"/>
		<g>
			<path class="st2" d="M38,169.8C8.8,126.6,7.8,65.3,7.8,65.3c16.4-15.5,45.7-27.8,55.8-31.7C52.4,36,27.4,43,6.2,61.2L4.1,63
				l0.1,2.8c0,1.9,1.3,46.9,21.3,87.4c22.8,46,55.1,62.8,67.9,67.9C79.5,214.4,58.6,200.2,38,169.8z"/>
			<path class="st2" d="M67.2,32.2L67,31.8c-0.1,0.2-0.2,0.4-0.3,0.6C67,32.3,67.2,32.2,67.2,32.2z"/>
			<path class="st2" d="M49.8,127.2c-6.5-25.6,10.7-46.9,15.2-52c-12,10.1-19.7,25.2-19.7,42.1c0,4.1,0.4,8,1.3,11.8
				c0.7,3,1.6,5.9,2.7,8.7c0.9,2.1,1.8,4.2,2.9,6.1c1.5,2.7,3.3,5.3,5.2,7.7c7.6,9.5,18.3,16.3,30.5,19.2
				C77.9,167.5,57.3,156.9,49.8,127.2z"/>
		</g>
		<g>
			<path class="st3" d="M101.1,29.4c13.6,1.4,62.7,8.3,91.9,36.2c0,0-2.1,43.3-15.1,78.3c-10.3,27.8-28.8,50.8-37.3,60.5
				c10-9.4,21.7-22.2,33.9-46.7c20.1-40.4,22.1-89.8,22.2-91.8l0.1-2.8l-2.1-1.8C158.2,29.9,108.5,29.3,101.1,29.4z"/>
			<path class="st3" d="M155.5,117.4c0-1.2,0-2.4-0.1-3.6c-0.2-2.4-0.5-4.7-0.9-7c-0.9-4.7-2.5-9.3-4.5-13.5c-1-2.1-2.1-4.1-3.4-6
				c-7.7-11.8-19.8-20.5-34-23.6c10.3,4.3,33.2,16.6,37.9,41.4c5.1,27-6.1,44.8-11.6,51.7C149.2,146.7,155.5,132.8,155.5,117.4z"/>
		</g>
		<path class="st0" d="M171.5,92c-2-5-11.4-6.4-24.9-4.7c1.3,1.9,2.4,3.9,3.4,6c4.4,0.5,7.2,1.8,8.2,4.1c1,2.5-0.4,5.7-3.6,9.4
			c-2.5,2.8-6.1,5.9-10.7,9.1c-8.6,6.1-20.6,12.4-34.2,17.9c-16,6.5-31.2,10.5-42.4,11.5c-6.6,0.6-11.9,0.3-15-1.2
			c-1.4-0.7-2.4-1.6-2.9-2.8c-0.4-1-0.4-2.1-0.1-3.4c-1.1-2.8-2-5.7-2.7-8.7c-8.2,6.9-12.3,13.2-10.6,17.5c1.8,4.5,9.8,6.1,21.4,5.1
			c4.2-0.4,8.9-1.1,14-2.1c11.7-2.4,25.4-6.6,39.6-12.3c12.2-4.9,23.3-10.4,32.6-15.9c4.3-2.6,8.3-5.1,11.7-7.6
			C167.2,105.2,173.6,97.2,171.5,92z"/>
	</g>
	<g>
		<path class="st0" d="M272.2,222.6h-11.7V88.9h-0.3l-12.7,133.7h-8.4L226.4,89.4h-0.3v133.2h-11.7v-195h19.9l10.1,111.5h0.3
			l10.4-111.5h17.1V222.6z"/>
		<path class="st0" d="M325.7,222.6h-14.7l-3.4-45.6h-14.1l-3.7,45.6h-11.4l16.3-195.2h15.7L325.7,222.6z M306.9,166.7l-6.1-79.3
			h-0.3l-6.1,79.3H306.9z"/>
		<path class="st0" d="M374.5,222.6h-14.4v-80.3c0-8.8-3.1-13.2-9.2-13.2h-5.2v93.4h-14.4V27.4h23.5c7.2,0,12.3,2,15.3,6
			c3,4,4.5,11,4.5,21.1v45.6c0,12.4-2.6,20.1-7.7,23.2v0.5c5.1,3.1,7.7,9.7,7.7,19.8V222.6z M360.1,105.2V51.6
			c0-8.5-2.6-12.7-7.7-12.7h-6.8v78.8h4.9C356.9,117.7,360.1,113.5,360.1,105.2z"/>
		<path class="st0" d="M420.3,38.9h-12.9v183.7h-13.8V38.9H381V27.2h39.3V38.9z"/>
		<path class="st0" d="M444.2,222.6h-15.7v-195h15.7V222.6z"/>
		<path class="st0" d="M498.9,222.6h-14.7l-3.4-45.6h-14.1l-3.7,45.6h-11.4l16.3-195.2h15.7L498.9,222.6z M480.2,166.7L474,87.4
			h-0.3l-6.1,79.3H480.2z"/>
		<path class="st0" d="M548.7,27.4l-0.3,195.2h-12.6l-18.4-133h-0.3v133h-11.7V27.4h16l15.1,112h0.3v-112H548.7z"/>
		<path class="st1" d="M602.2,50.1v155.4c0,7-1.8,11.8-5.5,14.4c-2.9,1.8-7.6,2.7-14.1,2.7h-23.4V27.4h22.7c7.4,0,12.4,1.3,15.1,3.9
			C600.4,34.6,602.2,40.8,602.2,50.1z M587.7,201.6V51.6c0-8.5-2.6-12.7-7.8-12.7h-6.3v173.5h6.3
			C585.1,212.4,587.7,208.8,587.7,201.6z"/>
		<path class="st1" d="M652.6,212.4v10.2h-39.6V27.2h39.6v11.7h-25.2v78.8h21v11.5h-21v83.2H652.6z"/>
		<path class="st1" d="M698,38.9h-22.7v78.6h21v11.5h-21l0.3,93.7h-14.7V27.2H698V38.9z"/>
		<path class="st1" d="M745.6,212.4v10.2H706V27.2h39.6v11.7h-25.2v78.8h21v11.5h-21v83.2H745.6z"/>
		<path class="st1" d="M797.3,27.4L797,222.6h-12.6l-18.4-133h-0.3v133h-11.7V27.4h16l15.1,112h0.3v-112H797.3z"/>
		<path class="st1" d="M848,203.6c0,7.3-2.6,12.9-7.7,16.8c-3.9,3.1-8.7,4.6-14.4,4.6c-5.1,0-9.7-1.6-13.8-4.9
			c-4.5-3.7-6.8-9.3-6.8-16.6v-44.7h12.6v39c0,9.6,2.8,14.4,8.3,14.4c5.3,0,8-4.6,8-13.9v-21c0-10.2-2.2-20.7-6.5-31.5l-13.5-34.2
			c-5.3-13.7-8-25.1-8-34.4V52.5c0-18.4,7-27.6,20.9-27.6c6.6,0,11.4,1.9,14.4,5.6c3.5,4.6,5.2,12,5.2,22.4v34.6h-12.6V54
			c0-10.1-2.2-15.1-6.6-15.1c-4.6,0-6.9,4.8-6.9,14.4v17.1c0,10.2,1.7,20,5.2,29.3l13.1,33.9c6.1,15.9,9.1,29.1,9.1,39.5V203.6z"/>
		<path class="st1" d="M895.9,212.4v10.2h-39.6V27.2h39.6v11.7h-25.2v78.8h21v11.5h-21v83.2H895.9z"/>
	</g>
</g>
</svg>
