
<svg width="267" height="72" viewBox="0 0 267 72" fill="none" xmlns="http://www.w3.org/2000/svg">
<g clip-path="url(#clip0_39_1457)">
<path d="M51.5907 22.607L51.0533 22.3562L50.4442 22.2845L50.0859 24.7924L52.2714 24.5058L53.0596 23.1086L51.5907 22.607Z" fill="#1A1A1A"/>
<path d="M14.6885 39.3739L15.2617 37.3676L15.7275 36.5436L17.0889 40.1621L16.229 40.4846H14.8318L14.6885 39.3739Z" fill="#1A1A1A"/>
<path d="M43.9957 49.4055C43.924 50.1221 43.315 50.6236 42.5984 50.6236C42.3477 50.6236 42.1327 50.552 41.9177 50.4445C41.4878 50.1937 41.2012 49.728 41.2012 49.2264C41.2012 48.9398 41.2728 48.6531 41.452 48.4024C41.7028 48.0083 42.1327 47.7933 42.5984 47.7933H42.6343C43.4225 47.7933 43.9957 48.4382 43.9957 49.1906C43.9957 49.2622 43.9957 49.3339 43.9957 49.4055ZM42.5984 68.8596C41.8102 68.8596 41.2012 68.2147 41.2012 67.4624C41.2012 66.71 41.8461 66.0651 42.5984 66.0651C43.3508 66.0651 43.9957 66.71 43.9957 67.4624C43.9957 68.2147 43.3866 68.8596 42.5984 68.8596ZM22.607 8.24019C21.9262 8.24019 21.3888 8.74177 21.2814 9.38666C11.5722 11.9304 6.69976 16.0863 6.52063 16.2655L6.30566 16.4446L6.34149 16.6954C7.05803 26.1179 8.70607 31.2412 9.02852 32.1727C8.70607 32.4235 8.49111 32.8176 8.49111 33.2475C8.49111 33.9999 9.10017 34.5731 9.81671 34.5731C10.5333 34.5731 11.1423 33.964 11.1423 33.2475C11.1423 32.6026 10.6766 32.0294 10.0317 31.9219C9.88837 31.492 8.13284 26.3687 7.38047 16.8745C8.38363 16.0863 13.1128 12.5753 21.5321 10.3898C21.7829 10.7123 22.1412 10.9272 22.5711 10.9272C23.3235 10.9272 23.8967 10.3182 23.8967 9.60162C23.9326 8.84925 23.3235 8.24019 22.607 8.24019ZM9.81671 32.7817C10.0675 32.7817 10.2466 32.9967 10.2466 33.2117C10.2466 33.4266 10.0317 33.6416 9.81671 33.6416C9.56592 33.6416 9.38679 33.4266 9.38679 33.2117C9.38679 32.9967 9.56592 32.7817 9.81671 32.7817ZM22.607 10.0315C22.3562 10.0315 22.177 9.81658 22.177 9.60162C22.177 9.35083 22.392 9.17169 22.607 9.17169C22.8577 9.17169 23.0369 9.38666 23.0369 9.60162C23.0369 9.81658 22.8577 10.0315 22.607 10.0315ZM68.2506 13.0052C54.4572 1.14643 35.2539 1.61218 34.4299 1.64801L32.4236 1.71966V17.7344C33.1043 17.6269 33.8208 17.5911 34.5374 17.5911C35.2539 17.5911 35.9346 17.6269 36.6153 17.7344C40.5563 18.2718 44.0315 20.2781 46.4678 23.1801C46.8619 23.6458 47.256 24.1832 47.5784 24.6848C49.0473 26.9778 49.9788 29.7006 50.0505 32.6026C50.0505 32.7817 50.0505 32.9609 50.0505 33.14C50.0505 33.6416 50.0146 34.1073 49.9788 34.6089C49.5847 38.9082 47.3993 42.7417 44.2107 45.2854C43.7449 45.0704 43.2075 44.963 42.6701 44.963H42.5984C41.237 44.963 39.9114 45.6437 39.1232 46.7543C38.6216 47.4708 38.335 48.3307 38.335 49.2264C38.335 50.7669 39.159 52.2 40.5205 52.9524C41.1654 53.3107 41.8819 53.4898 42.5984 53.4898C44.7481 53.4898 46.5394 51.8776 46.826 49.7638C46.8619 49.5847 46.8619 49.4055 46.8619 49.2264C46.8619 49.0114 46.826 48.7965 46.826 48.5815C51.3402 44.963 54.2781 39.4098 54.2781 33.1758C54.2781 32.7459 54.278 32.316 54.2422 31.8861C54.1706 31.0262 54.0989 30.2022 53.9198 29.3782C53.5973 27.6943 53.0241 26.0463 52.3076 24.5415C51.9493 23.7891 51.5552 23.0726 51.0894 22.3919C47.9367 17.5552 42.6701 14.1875 36.6512 13.5426V5.83978C41.6311 6.05474 54.8155 7.41617 64.8112 15.5131C64.5604 19.4182 63.2348 33.9282 57.3592 45.7153C52.5225 55.4245 48.1158 59.4371 44.2465 62.984C44.1032 63.1273 43.9957 63.2348 43.8524 63.3423C43.4941 63.2348 43.1 63.1631 42.6701 63.1631C40.3055 63.1631 38.4067 65.062 38.4067 67.4265C38.4067 69.7553 40.3055 71.69 42.6701 71.69C45.0347 71.69 46.9335 69.7911 46.9335 67.4265C46.9335 67.0324 46.8619 66.6742 46.7902 66.3159C46.8977 66.2442 46.9693 66.1368 47.0768 66.0293C51.0178 62.4107 55.9261 57.9324 61.121 47.5425C68.3222 33.0684 69.0388 15.3698 69.0746 14.6532L69.1104 13.6501L68.2506 13.0052Z" fill="#1A1A1A"/>
<path d="M23.5027 27.1211C23.7995 27.1211 24.0401 26.8805 24.0401 26.5837C24.0401 26.2869 23.7995 26.0463 23.5027 26.0463C23.2059 26.0463 22.9653 26.2869 22.9653 26.5837C22.9653 26.8805 23.2059 27.1211 23.5027 27.1211Z" fill="#1A1A1A"/>
<path d="M30.847 32.4236C31.1438 32.4236 31.3844 32.183 31.3844 31.8862C31.3844 31.5894 31.1438 31.3488 30.847 31.3488C30.5502 31.3488 30.3096 31.5894 30.3096 31.8862C30.3096 32.183 30.5502 32.4236 30.847 32.4236Z" fill="#1A1A1A"/>
<path d="M23.7894 38.0124C24.0862 38.0124 24.3268 37.7718 24.3268 37.475C24.3268 37.1782 24.0862 36.9376 23.7894 36.9376C23.4926 36.9376 23.252 37.1782 23.252 37.475C23.252 37.7718 23.4926 38.0124 23.7894 38.0124Z" fill="#1A1A1A"/>
<path d="M33.1761 38.0842C33.4729 38.0842 33.7135 37.8436 33.7135 37.5468C33.7135 37.25 33.4729 37.0094 33.1761 37.0094C32.8793 37.0094 32.6387 37.25 32.6387 37.5468C32.6387 37.8436 32.8793 38.0842 33.1761 38.0842Z" fill="#1A1A1A"/>
<path d="M27.8733 26.0106C28.269 26.0106 28.5898 25.6898 28.5898 25.2941C28.5898 24.8983 28.269 24.5775 27.8733 24.5775C27.4775 24.5775 27.1567 24.8983 27.1567 25.2941C27.1567 25.6898 27.4775 26.0106 27.8733 26.0106Z" fill="#1A1A1A"/>
<path d="M22.8928 33.2477C23.2885 33.2477 23.6094 32.9269 23.6094 32.5311C23.6094 32.1354 23.2885 31.8146 22.8928 31.8146C22.4971 31.8146 22.1763 32.1354 22.1763 32.5311C22.1763 32.9269 22.4971 33.2477 22.8928 33.2477Z" fill="#1A1A1A"/>
<path d="M31.3489 44.7479C31.7446 44.7479 32.0654 44.4271 32.0654 44.0314C32.0654 43.6356 31.7446 43.3148 31.3489 43.3148C30.9531 43.3148 30.6323 43.6356 30.6323 44.0314C30.6323 44.4271 30.9531 44.7479 31.3489 44.7479Z" fill="#1A1A1A"/>
<path d="M40.8074 43.2076C41.1042 43.2076 41.3448 42.967 41.3448 42.6702C41.3448 42.3734 41.1042 42.1328 40.8074 42.1328C40.5106 42.1328 40.27 42.3734 40.27 42.6702C40.27 42.967 40.5106 43.2076 40.8074 43.2076Z" fill="#00FF22"/>
<path d="M37.6546 34.4299C37.9514 34.4299 38.192 34.1893 38.192 33.8925C38.192 33.5957 37.9514 33.3551 37.6546 33.3551C37.3578 33.3551 37.1172 33.5957 37.1172 33.8925C37.1172 34.1893 37.3578 34.4299 37.6546 34.4299Z" fill="#00FF22"/>
<path d="M40.198 28.0884C40.4949 28.0884 40.7355 27.8478 40.7355 27.551C40.7355 27.2542 40.4949 27.0135 40.198 27.0135C39.9012 27.0135 39.6606 27.2542 39.6606 27.551C39.6606 27.8478 39.9012 28.0884 40.198 28.0884Z" fill="#00FF22"/>
<path d="M44.9632 25.1865C45.26 25.1865 45.5006 24.9459 45.5006 24.6491C45.5006 24.3523 45.26 24.1117 44.9632 24.1117C44.6664 24.1117 44.4258 24.3523 44.4258 24.6491C44.4258 24.9459 44.6664 25.1865 44.9632 25.1865Z" fill="#00FF22"/>
<path d="M34.1072 26.0106C34.404 26.0106 34.6446 25.77 34.6446 25.4732C34.6446 25.1764 34.404 24.9358 34.1072 24.9358C33.8104 24.9358 33.5698 25.1764 33.5698 25.4732C33.5698 25.77 33.8104 26.0106 34.1072 26.0106Z" fill="#00FF22"/>
<path d="M38.4427 20.8872C38.7395 20.8872 38.9801 20.6466 38.9801 20.3498C38.9801 20.053 38.7395 19.8124 38.4427 19.8124C38.1459 19.8124 37.9053 20.053 37.9053 20.3498C37.9053 20.6466 38.1459 20.8872 38.4427 20.8872Z" fill="#00FF22"/>
<path d="M47.7571 32.2442C48.1528 32.2442 48.4736 31.9234 48.4736 31.5277C48.4736 31.132 48.1528 30.8112 47.7571 30.8112C47.3613 30.8112 47.0405 31.132 47.0405 31.5277C47.0405 31.9234 47.3613 32.2442 47.7571 32.2442Z" fill="#00FF22"/>
<path d="M45.178 36.1854C45.5737 36.1854 45.8945 35.8646 45.8945 35.4689C45.8945 35.0731 45.5737 34.7523 45.178 34.7523C44.7822 34.7523 44.4614 35.0731 44.4614 35.4689C44.4614 35.8646 44.7822 36.1854 45.178 36.1854Z" fill="#00FF22"/>
<path d="M62.6973 16.4446L62.4823 16.2655C62.1599 16.0147 54.7795 9.9241 41.0578 8.09692C40.8428 7.667 40.3771 7.34455 39.8755 7.34455C39.1231 7.34455 38.5499 7.95361 38.5499 8.67015C38.5499 9.42252 39.1589 9.99576 39.8755 9.99576C40.4487 9.99576 40.9503 9.63749 41.1294 9.13591C53.2031 10.784 60.3685 15.9072 61.6225 16.8746C61.0134 27.4794 57.5024 37.2602 56.8575 38.9082C56.1409 38.9082 55.5319 39.5173 55.5319 40.2338C55.5319 40.9862 56.1409 41.5594 56.8575 41.5594C57.574 41.5594 58.1831 40.9504 58.1831 40.2338C58.1831 39.8755 58.0398 39.5531 57.789 39.3023C58.398 37.6901 62.0524 27.5869 62.6256 16.6596L62.6973 16.4446ZM39.8755 9.13591C39.6247 9.13591 39.4456 8.92095 39.4456 8.70598C39.4456 8.45519 39.6605 8.27606 39.8755 8.27606C40.1263 8.27606 40.3054 8.49102 40.3054 8.70598C40.3054 8.95677 40.1263 9.13591 39.8755 9.13591ZM56.8575 40.7354C56.6067 40.7354 56.4276 40.5204 56.4276 40.3055C56.4276 40.0905 56.6425 39.8755 56.8575 39.8755C57.1083 39.8755 57.2874 40.0905 57.2874 40.3055C57.2874 40.5204 57.1083 40.7354 56.8575 40.7354ZM26.4403 15.4415C27.2285 15.4415 27.8376 16.0864 27.8376 16.8387C27.8376 17.6269 27.1927 18.236 26.4403 18.236C25.6521 18.236 25.0431 17.5911 25.0431 16.8387C25.0431 16.0864 25.6521 15.4415 26.4403 15.4415ZM26.3687 2.86617C27.1569 2.86617 27.7659 3.51105 27.7659 4.26342C27.7659 5.05162 27.1211 5.66068 26.3687 5.66068C25.5805 5.66068 24.9714 5.01579 24.9714 4.26342C24.9714 3.51105 25.6163 2.86617 26.3687 2.86617ZM34.5373 48.689C33.8207 48.689 33.14 48.6532 32.4235 48.5457C29.2707 48.1158 26.4045 46.7543 24.1474 44.7122C23.61 44.2106 23.1084 43.709 22.6427 43.1716C21.0663 41.3086 19.9198 39.0874 19.3824 36.6511C19.2391 35.9704 19.1316 35.3255 19.06 34.609C19.0241 34.1432 18.9883 33.6416 18.9883 33.1401C18.9883 28.1601 21.3529 23.7175 25.0073 20.8514C25.473 21.0305 25.9388 21.1022 26.4762 21.1022C28.8408 21.1022 30.7396 19.2033 30.7396 16.8387C30.7396 14.4741 28.8049 12.5753 26.4403 12.5753C24.0758 12.5753 22.1769 14.51 22.1769 16.8387C22.1769 17.1253 22.2128 17.412 22.2486 17.6628C17.6985 21.2813 14.7607 26.8703 14.7607 33.1042C14.7607 34.5731 14.904 35.9704 15.2265 37.3318C15.4773 38.4066 15.7997 39.4456 16.1938 40.4488C16.5163 41.2012 16.8387 41.9535 17.2328 42.6342C17.7702 43.6016 18.4151 44.5331 19.0958 45.3929C22.2844 49.3697 27.0136 52.0926 32.3876 52.6658V65.7785C27.8376 63.7006 18.236 57.8966 11.3572 43.9957C5.58902 32.316 4.40672 19.0958 4.19176 15.4415C11.608 9.56583 20.3139 7.55952 23.1084 7.02211C23.8966 7.95361 25.0431 8.52685 26.3687 8.52685C28.7333 8.52685 30.6321 6.62801 30.6321 4.26342C30.6321 1.93466 28.7333 0 26.3687 0C24.5057 0 22.9293 1.21812 22.3561 2.90199C18.9883 3.51105 9.10006 5.83982 0.752367 13.0052L0 13.6501L0.035827 14.6533C0.035827 15.334 0.501578 31.4562 7.66698 45.9662C17.8419 66.5309 33.3191 70.7943 33.9998 70.9735L36.6152 71.6542V48.5815C35.8987 48.6532 35.218 48.689 34.5373 48.689Z" fill="#00FF22"/>
<path d="M12.1454 51.9136C1.68387 36.4363 1.3256 14.4743 1.3256 14.4743C7.20123 8.92106 17.6985 4.51432 21.3171 3.11707C17.3045 3.97692 8.3477 6.48481 0.752367 13.0053L0 13.6502L0.035827 14.6534C0.035827 15.3341 0.501578 31.4563 7.66698 45.9663C15.8355 62.4467 27.4077 68.4657 31.9935 70.2929C27.0136 67.8924 19.5257 62.805 12.1454 51.9136Z" fill="#00A816"/>
<path d="M22.6069 2.61548L22.5352 2.47217C22.4994 2.54382 22.4636 2.61548 22.4277 2.68713C22.5352 2.6513 22.6069 2.61548 22.6069 2.61548Z" fill="#00A816"/>
<path d="M16.3725 36.6512C14.0437 27.4795 20.206 19.8483 21.8182 18.0211C17.5189 21.6397 14.7603 27.0495 14.7603 33.1043C14.7603 34.5732 14.9036 35.9705 15.226 37.3319C15.4768 38.4067 15.7992 39.4457 16.1933 40.4489C16.5158 41.2013 16.8382 41.9536 17.2323 42.6343C17.7697 43.6017 18.4146 44.5332 19.0953 45.393C21.8182 48.7966 25.6517 51.2328 30.0226 52.2718C26.4399 51.0895 19.0595 47.2919 16.3725 36.6512Z" fill="#00A816"/>
<path d="M34.752 1.61227C39.6244 2.11385 57.2155 4.58592 67.677 14.5817C67.677 14.5817 66.9246 30.0948 62.2671 42.6343C58.5769 52.5942 51.9489 60.8345 48.9036 64.3097C52.4863 60.9419 56.6781 56.3561 61.049 47.5784C68.2502 33.1043 68.9668 15.4057 69.0026 14.6892L69.0384 13.686L68.286 13.0411C55.2092 1.79141 37.4032 1.57644 34.752 1.61227Z" fill="#464646"/>
<path d="M54.2424 33.1403C54.2424 32.7103 54.2423 32.2804 54.2065 31.8505C54.1349 30.9906 54.0274 30.1666 53.8841 29.3426C53.5616 27.6587 52.9884 26.0107 52.2719 24.5059C51.9136 23.7536 51.5195 23.037 51.0537 22.3563C48.2951 18.1287 43.96 15.0118 38.8726 13.9011C42.5627 15.4417 50.7671 19.8484 52.451 28.7335C54.2782 38.4069 50.2656 44.7841 48.2951 47.2561C51.9852 43.6376 54.2424 38.6576 54.2424 33.1403Z" fill="#464646"/>
<path d="M59.974 24.0401C59.2574 22.2487 55.8897 21.7471 51.053 22.3562C51.5188 23.0369 51.9129 23.7534 52.2712 24.5058C53.8475 24.6849 54.8507 25.1507 55.209 25.9747C55.5672 26.8704 55.0657 28.0169 53.9192 29.3425C53.0235 30.3456 51.7337 31.4563 50.0857 32.6027C47.0046 34.7882 42.7053 37.0453 37.8329 39.0158C32.1005 41.3445 26.6548 42.7776 22.6422 43.1359C20.2776 43.3509 18.3788 43.2434 17.2682 42.706C16.7666 42.4552 16.4083 42.1327 16.2292 41.7028C16.0859 41.3445 16.0859 40.9504 16.1933 40.4847C15.7992 39.4815 15.4768 38.4425 15.226 37.3677C12.2882 39.8398 10.8193 42.0969 11.4284 43.6375C12.0732 45.2497 14.9394 45.8229 19.0953 45.4647C20.6001 45.3213 22.2839 45.0705 24.1111 44.7123C28.3029 43.8524 33.2112 42.3477 38.2986 40.3055C42.6695 38.55 46.6463 36.5795 49.9782 34.609C51.5188 33.6775 52.9519 32.7819 54.17 31.8862C58.4334 28.7692 60.7263 25.9031 59.974 24.0401Z" fill="#1A1A1A"/>
<path d="M104.02 61.3766H100.98V26.6319H100.902L97.6017 61.3766H95.4188L92.1184 26.7619H92.0405V61.3766H89V10.7019H94.1714L96.7961 39.6774H96.8741L99.5767 10.7019H104.02V61.3766Z" fill="#1A1A1A"/>
<path d="M117.924 61.3761H114.104L113.22 49.526H109.556L108.594 61.3761H105.632L109.868 10.6494H113.948L117.924 61.3761ZM113.038 46.8493L111.453 26.2416H111.375L109.79 46.8493H113.038Z" fill="#1A1A1A"/>
<path d="M130.604 61.3761H126.862V40.5085C126.862 38.2216 126.056 37.0782 124.471 37.0782H123.12V61.3501H119.377V10.6494H125.484C127.355 10.6494 128.681 11.1692 129.46 12.2086C130.24 13.2481 130.63 15.0672 130.63 17.6919V29.542C130.63 32.7644 129.954 34.7654 128.629 35.571V35.7009C129.954 36.5065 130.63 38.2216 130.63 40.8463V61.3761H130.604ZM126.862 30.8673V16.9383C126.862 14.7294 126.186 13.6379 124.861 13.6379H123.094V34.1157H124.367C126.03 34.1157 126.862 33.0242 126.862 30.8673Z" fill="#1A1A1A"/>
<path d="M142.507 13.6381H139.155V61.3763H135.568V13.6381H132.294V10.5977H142.507V13.6381Z" fill="#1A1A1A"/>
<path d="M148.718 61.3766H144.638V10.7019H148.718V61.3766Z" fill="#1A1A1A"/>
<path d="M162.934 61.3761H159.114L158.23 49.526H154.566L153.605 61.3761H150.642L154.878 10.6494H158.958L162.934 61.3761ZM158.074 46.8493L156.463 26.2416H156.385L154.8 46.8493H158.074Z" fill="#1A1A1A"/>
<path d="M175.873 10.6494L175.795 61.3761H172.521L167.74 26.8133H167.662V61.3761H164.621V10.6494H168.779L172.703 39.7549H172.781V10.6494H175.873Z" fill="#1A1A1A"/>
<path d="M189.777 16.5485V56.9323C189.777 58.7514 189.31 59.9987 188.348 60.6744C187.595 61.1422 186.373 61.3761 184.684 61.3761H178.603V10.6494H184.502C186.425 10.6494 187.724 10.9872 188.426 11.6629C189.31 12.5205 189.777 14.1317 189.777 16.5485ZM186.009 55.9188V16.9383C186.009 14.7294 185.334 13.6379 183.982 13.6379H182.345V58.7254H183.982C185.334 58.7254 186.009 57.7898 186.009 55.9188Z" fill="#00FF22"/>
<path d="M202.875 58.7256V61.3763H192.584V10.5977H202.875V13.6381H196.327V34.1159H201.784V37.1044H196.327V58.7256H202.875Z" fill="#00FF22"/>
<path d="M214.673 13.6381H208.774V34.0639H214.232V37.0524H208.774L208.852 61.4023H205.032V10.5977H214.673V13.6381Z" fill="#00FF22"/>
<path d="M227.042 58.7256V61.3763H216.751V10.5977H227.042V13.6381H220.493V34.1159H225.95V37.1044H220.493V58.7256H227.042Z" fill="#00FF22"/>
<path d="M240.478 10.6494L240.4 61.3761H237.126L232.345 26.8133H232.267V61.3761H229.226V10.6494H233.384L237.308 39.7549H237.386V10.6494H240.478Z" fill="#00FF22"/>
<path d="M253.654 56.4388C253.654 58.3358 252.978 59.7911 251.653 60.8046C250.639 61.6102 249.392 62 247.91 62C246.585 62 245.39 61.5842 244.324 60.7266C243.155 59.7651 242.557 58.3098 242.557 56.4128V44.7966H245.831V54.9315C245.831 57.4263 246.559 58.6737 247.988 58.6737C249.366 58.6737 250.067 57.4783 250.067 55.0615V49.6042C250.067 46.9535 249.496 44.2249 248.378 41.4183L244.87 32.5307C243.493 28.9705 242.791 26.008 242.791 23.5912V17.1724C242.791 12.3908 244.61 10 248.222 10C249.937 10 251.185 10.4938 251.964 11.4553C252.874 12.6507 253.316 14.5737 253.316 17.2764V26.2679H250.041V17.5622C250.041 14.9375 249.47 13.6382 248.326 13.6382C247.131 13.6382 246.533 14.8856 246.533 17.3803V21.8241C246.533 24.4748 246.975 27.0215 247.884 29.4383L251.289 38.2479C252.874 42.3798 253.654 45.8101 253.654 48.5127V56.4388Z" fill="#00FF22"/>
<path d="M266.101 58.7256V61.3763H255.811V10.5977H266.101V13.6381H259.553V34.1159H265.01V37.1044H259.553V58.7256H266.101Z" fill="#00FF22"/>
</g>
<defs>
<clipPath id="clip0_39_1457">
<rect width="266.1" height="72" fill="white"/>
</clipPath>
</defs>
</svg>
