<?xml version="1.0" encoding="UTF-8"?>
<svg version="1.1" xmlns="http://www.w3.org/2000/svg" width="900" height="250">
<g>
<path d="M0 0 C3.49146858 2.41332593 5.60995912 5.09530036 6.46875 9.2890625 C6.65383799 13.90083814 6.13866432 17.44284711 3 21 C-1.45007288 24.17862349 -4.75230775 24.19270625 -9.94921875 23.51953125 C-12 23 -12 23 -15 21 C-20.68067676 21.33097163 -25.67210557 22.63172903 -31 24.5625 C-32.09042603 24.95405273 -32.09042603 24.95405273 -33.20288086 25.35351562 C-43.57757236 29.19657458 -54.09919214 33.78765974 -62.6171875 40.96875 C-64 42 -64 42 -66 42 C-63.4562997 67.24693824 -58.77042694 91.46434102 -49 115 C-48.2265625 114.01 -48.2265625 114.01 -47.4375 113 C-45 110 -45 110 -43.140625 108.1328125 C-42.49609375 107.47023438 -41.8515625 106.80765625 -41.1875 106.125 C-40.56230469 105.50882812 -39.93710938 104.89265625 -39.29296875 104.2578125 C-37.39851727 100.94967669 -38.31373184 98.68723742 -39 95 C-39.23339961 79.24552628 -35.42902748 66.14338817 -25 54 C-23.89128087 52.92052182 -22.76835763 51.8552198 -21.625 50.8125 C-18.69006197 47.66792354 -18.3133432 45.96007885 -17.55859375 41.8984375 C-16.62687885 38.73190995 -14.47902381 37.04519465 -12 35 C-8.78734554 33.39367277 -5.48478188 33.52068056 -2 34 C1.75212276 36.01502889 3.63644095 37.45466142 6 41 C6.66624845 45.07463524 6.94496094 49.24356703 4.94921875 52.953125 C3.18683214 55.0950226 1.49210321 56.7539484 -1 58 C-2.56242741 58.02570722 -4.12495089 58.04574986 -5.6875 58.0625 C-9.91182401 58.46423687 -11.9443771 59.29140924 -14.8125 62.4375 C-23.02886003 73.25053986 -26.17389099 84.49300742 -25 98 C-23.40665166 105.33801505 -20.74341464 111.20249321 -16 117 C-10.01454866 116.42855435 -4.31686936 115.57952726 1.5 114.0625 C2.29172607 113.8564917 3.08345215 113.6504834 3.89916992 113.43823242 C14.41378919 110.53601631 24.43045221 106.22472758 34.47119141 102.00634766 C37 101 37 101 40.66796875 99.94921875 C41.43753906 99.63597656 42.20710938 99.32273437 43 99 C43.96877057 96.96756452 43.96877057 96.96756452 44 95 C45.794375 94.62875 45.794375 94.62875 47.625 94.25 C51.79449098 93.22617481 54.5823753 91.56321852 58 89 C56.86787315 77.81536751 53.17858777 67.99684137 45 60 C33.40295405 51.40890836 24.7725778 49.96967704 10 48 C10 33.48 10 18.96 10 4 C37.828908 4 61.24386981 6.95031139 86 19 C86.99644531 19.48339844 87.99289062 19.96679688 89.01953125 20.46484375 C96.96839155 24.57004914 106.18508339 30.06662918 112 37 C114.87128463 80.45496439 96.49626388 133.91550533 67.94140625 166.55859375 C63.84491287 171.11302067 59.77654632 175.5407217 54.875 179.25 C51.47451967 182.50263336 51.15506019 184.39781113 50.4453125 188.8828125 C49.77678917 192.06123041 48.33269696 193.80060001 46 196 C42.27959308 198.27358201 39.11050089 198.21745864 34.9296875 197.5390625 C30.95452856 196.428593 28.72998873 194.19452701 26.625 190.75 C25.47092706 185.67207907 26.04024268 181.57674418 28.75 177.125 C32.11726354 173.94480666 34.69910477 173.08611127 39.3046875 172.78125 C43.72888647 171.84590138 45.84783209 169.95916623 48.8125 166.75 C49.32530518 166.2135083 49.83811035 165.6770166 50.36645508 165.12426758 C80.04370228 133.49209424 95.61739851 89.14860726 98.2265625 46.27734375 C98.28633101 43.11280517 98.28633101 43.11280517 96.84765625 41.3203125 C94.59375336 39.81113463 92.34200018 38.37234123 90 37 C89.42008301 36.65678711 88.84016602 36.31357422 88.24267578 35.95996094 C68.60020643 24.49811951 46.7023161 18.33543036 24 17 C23.67 23.27 23.34 29.54 23 36 C24.4025 36.226875 25.805 36.45375 27.25 36.6875 C41.47725077 39.60127311 53.53391945 47.05778042 62 59 C62 59.66 62 60.32 62 61 C62.66 60.67 63.32 60.34 64 60 C71.87504011 59.46259569 78.88481393 59.37265024 86 63 C86.33 63.66 86.66 64.32 87 65 C89.14468649 62.85531351 88.7395788 58.41555106 89.0625 55.4375 C89.15337891 54.63119141 89.24425781 53.82488281 89.33789062 52.99414062 C89.56247449 50.99652623 89.78173236 48.9983144 90 47 C74.76489384 36.38061456 52.98217324 25.67566233 34 27 C33.0925 27.20625 32.185 27.4125 31.25 27.625 C30.13625 27.810625 30.13625 27.810625 29 28 C27 26 27 26 26.6875 23.5 C26.790625 22.675 26.89375 21.85 27 21 C30 19 30 19 31.75 19.25 C32.4925 19.4975 33.235 19.745 34 20 C38.20504255 21.2542268 42.40245928 22.32802938 46.6940918 23.24121094 C62.53971421 26.68092092 77.34467276 32.19011146 91 41 C92.19109375 41.58974609 92.19109375 41.58974609 93.40625 42.19140625 C95 44 95 44 95.12890625 47.82421875 C94.96624154 49.44814343 94.77521481 51.06937034 94.5625 52.6875 C94.45905273 53.56599609 94.35560547 54.44449219 94.24902344 55.34960938 C92.24641128 71.09466475 88.78903554 86.58036173 83.87988281 101.66992188 C82.60086842 105.64646334 81.91277978 108.7896422 82 113 C81.34 113.66 80.68 114.32 80 115 C75.44444444 114.44444444 75.44444444 114.44444444 74 113 C73.75 110.5625 73.75 110.5625 74 108 C74.99 107.34 75.98 106.68 77 106 C77.90793307 104.21159906 77.90793307 104.21159906 78.5 102.10546875 C78.7460498 101.32018799 78.99209961 100.53490723 79.24560547 99.72583008 C79.49455566 98.88818115 79.74350586 98.05053223 80 97.1875 C80.39082764 95.91265747 80.39082764 95.91265747 80.78955078 94.61206055 C82.84243359 87.8057077 84.5741493 80.96665647 86 74 C85.57589844 74.50789063 85.15179688 75.01578125 84.71484375 75.5390625 C81.70359372 79.07314495 78.97813377 82.07885664 75.125 84.6875 C72.67371133 86.69853505 72.06679311 87.63941764 71.48046875 90.8046875 C71.36553066 93.03395189 71.27830573 95.26477059 71.21484375 97.49609375 C70.38799858 110.98118672 62.85137946 123.92841311 53 133 C52.34 133 51.68 133 51 133 C50.9175 134.216875 50.835 135.43375 50.75 136.6875 C50.24747824 140.79506915 48.96976785 143.03023215 46 146 C42.30514298 147.84742851 38.04130195 147.33783754 34 147 C30.0746518 145.58019321 29.22252613 144.38571195 27.125 140.75 C25.84568227 136.48560758 25.75930567 134.26488674 27 130 C29.12983222 126.5907362 31.08947645 124.30350785 35 123 C36.85625 123.185625 36.85625 123.185625 38.75 123.375 C42.31380139 123.38805422 44.002563 122.66264204 46.625 120.25 C52.50149475 113.63390065 55.75222463 105.4423488 58 97 C57.195625 97.46148437 56.39125 97.92296875 55.5625 98.3984375 C47.47139592 102.92686475 39.1871756 106.75414197 30.625 110.3125 C29.11099609 110.94260986 29.11099609 110.94260986 27.56640625 111.58544922 C21.77344614 113.96006676 15.96313579 116.09253731 10 118 C10 119.65 10 121.3 10 123 C8.515 123.495 8.515 123.495 7 124 C5 123 5 123 4 120 C0.04 120.99 -3.92 121.98 -8 123 C-8 123.66 -8 124.32 -8 125 C-6.08588443 125.98414433 -4.1686033 126.96213349 -2.25 127.9375 C-1.18265625 128.48277344 -0.1153125 129.02804688 0.984375 129.58984375 C8.4250916 133.0692462 14.01341921 132.40089461 23 133 C23 154.45 23 175.9 23 198 C9.00820014 194.50205004 9.00820014 194.50205004 3.0625 191.375 C2.38993164 191.02800049 1.71736328 190.68100098 1.02441406 190.32348633 C-10.66866236 184.14140046 -20.55269058 176.18847902 -30 167 C-30.56267578 166.45851318 -31.12535156 165.91702637 -31.70507812 165.35913086 C-61.69662743 136.0600094 -75.0750073 91.99027544 -78.78833008 51.22802734 C-78.96338201 49.38543923 -79.19845867 47.54866313 -79.44921875 45.71484375 C-79.8216454 41.37393635 -79.86130764 38.27135602 -77.3671875 34.58984375 C-74.73468211 32.05996145 -72.02555125 30.04712119 -69 28 C-68.40477539 27.59539551 -67.80955078 27.19079102 -67.19628906 26.77392578 C-52.90922449 17.26018923 -36.5914291 10.19218784 -19.51953125 7.86328125 C-18.68808594 7.57839844 -17.85664063 7.29351562 -17 7 C-15.73967261 4.57323031 -15.73967261 4.57323031 -15 2 C-10.22339207 -1.49507897 -5.50893266 -1.9050498 0 0 Z M-7 8 C-7.66 8.66 -8.32 9.32 -9 10 C-8.6814823 12.10820797 -8.6814823 12.10820797 -8 14 C-6.68 14 -5.36 14 -4 14 C-3.67 12.68 -3.34 11.36 -3 10 C-4.32 9.34 -5.64 8.68 -7 8 Z M-7 43 C-7.66 43.66 -8.32 44.32 -9 45 C-8.6814823 47.10820797 -8.6814823 47.10820797 -8 49 C-6.35 48.67 -4.7 48.34 -3 48 C-3.33 46.35 -3.66 44.7 -4 43 C-4.99 43 -5.98 43 -7 43 Z M67 68 C67.99 71.3 68.98 74.6 70 78 C70.99 77.01 71.98 76.02 73 75 C73.16210219 72.39351495 73.16210219 72.39351495 72 70 C69.52363988 68.62533375 69.52363988 68.62533375 67 68 Z M-45 124 C-34.48074266 147.37310725 -15.31229285 166.70416092 7 179 C7.99 179.33 8.98 179.66 10 180 C10 168.78 10 157.56 10 146 C5.60529688 144.53218418 5.60529688 144.53218418 1.17578125 143.17578125 C-7.7753643 140.47700476 -16.22415701 136.78312913 -22 129.1875 C-26.64415483 124.02218066 -34.6125241 124.61497215 -41.08984375 124.19140625 C-42.38019531 124.12824219 -43.67054688 124.06507812 -45 124 Z M37 132 C36.67 133.65 36.34 135.3 36 137 C38.475 137.495 38.475 137.495 41 138 C41.6814823 136.10820797 41.6814823 136.10820797 42 134 C41.34 133.34 40.68 132.68 40 132 C39.01 132 38.02 132 37 132 Z M38 182 C37.01 182.99 36.02 183.98 35 185 C35.33 185.99 35.66 186.98 36 188 C36.99 188.33 37.98 188.66 39 189 C39.99 188.01 40.98 187.02 42 186 C41.67 185.01 41.34 184.02 41 183 C40.01 182.67 39.02 182.34 38 182 Z " fill="#1A1A1A" transform="translate(219,1)"/>
<path d="M0 0 C3.49146858 2.41332593 5.60995912 5.09530036 6.46875 9.2890625 C6.65383799 13.90083814 6.13866432 17.44284711 3 21 C-1.45007288 24.17862349 -4.75230775 24.19270625 -9.94921875 23.51953125 C-12 23 -12 23 -15 21 C-20.68067676 21.33097163 -25.67210557 22.63172903 -31 24.5625 C-32.09042603 24.95405273 -32.09042603 24.95405273 -33.20288086 25.35351562 C-43.57757236 29.19657458 -54.09919214 33.78765974 -62.6171875 40.96875 C-64 42 -64 42 -66 42 C-63.61777093 65.64429104 -59.09279457 87.64539484 -51 110 C-50.61328125 111.10472656 -50.2265625 112.20945312 -49.828125 113.34765625 C-44.77896581 126.64743427 -36.34286178 139.34388456 -27 150 C-26.31679687 150.8146875 -25.63359375 151.629375 -24.9296875 152.46875 C-15.42981774 163.50085682 -4.0320625 172.48396875 9 179 C9 168.11 9 157.22 9 146 C4.05 144.68 -0.9 143.36 -6 142 C-13.61129404 138.14958066 -20.13831098 133.23583938 -26 127 C-26 126.34 -26 125.68 -26 125 C-12.92217365 121.8160624 -12.92217365 121.8160624 -6.59375 125.33984375 C-4.91832612 126.3718443 -3.26020159 127.43272689 -1.625 128.52734375 C6.28767792 132.96645026 13.8787548 132.39191699 23 133 C23 154.45 23 175.9 23 198 C9.00820014 194.50205004 9.00820014 194.50205004 3.0625 191.375 C2.38993164 191.02800049 1.71736328 190.68100098 1.02441406 190.32348633 C-10.66866236 184.14140046 -20.55269058 176.18847902 -30 167 C-30.56267578 166.45851318 -31.12535156 165.91702637 -31.70507812 165.35913086 C-61.69662743 136.0600094 -75.0750073 91.99027544 -78.78833008 51.22802734 C-78.96338201 49.38543923 -79.19845867 47.54866313 -79.44921875 45.71484375 C-79.8216454 41.37393635 -79.86130764 38.27135602 -77.3671875 34.58984375 C-74.73468211 32.05996145 -72.02555125 30.04712119 -69 28 C-68.40477539 27.59539551 -67.80955078 27.19079102 -67.19628906 26.77392578 C-52.90922449 17.26018923 -36.5914291 10.19218784 -19.51953125 7.86328125 C-18.68808594 7.57839844 -17.85664063 7.29351562 -17 7 C-15.73967261 4.57323031 -15.73967261 4.57323031 -15 2 C-10.22339207 -1.49507897 -5.50893266 -1.9050498 0 0 Z M-7 8 C-7.66 8.66 -8.32 9.32 -9 10 C-8.6814823 12.10820797 -8.6814823 12.10820797 -8 14 C-6.68 14 -5.36 14 -4 14 C-3.67 12.68 -3.34 11.36 -3 10 C-4.32 9.34 -5.64 8.68 -7 8 Z " fill="#00FD21" transform="translate(219,1)"/>
<path d="M0 0 C3.75212276 2.01502889 5.63644095 3.45466142 8 7 C8.66624845 11.07463524 8.94496094 15.24356703 6.94921875 18.953125 C5.18683214 21.0950226 3.49210321 22.7539484 1 24 C-0.56242741 24.02570722 -2.12495089 24.04574986 -3.6875 24.0625 C-7.91182401 24.46423687 -9.9443771 25.29140924 -12.8125 28.4375 C-21.02886003 39.25053986 -24.17389099 50.49300742 -23 64 C-21.39097073 71.41023208 -18.64139661 77.06932655 -14 83 C-14 83.66 -14 84.32 -14 85 C-15.70750683 85.08203325 -17.41619348 85.13965342 -19.125 85.1875 C-20.07632813 85.22230469 -21.02765625 85.25710937 -22.0078125 85.29296875 C-25.72755659 84.92876404 -27.91012937 84.11640928 -31 82 C-32.42578125 78.8984375 -32.42578125 78.8984375 -33.3125 75.375 C-34.05346974 71.37868034 -34.05346974 71.37868034 -36 68 C-38.55479269 54.15862315 -36.47494156 39.95592293 -29.1015625 27.89453125 C-26.24029177 23.83284234 -23.29676261 20.16107568 -19.625 16.8125 C-16.69006197 13.66792354 -16.3133432 11.96007885 -15.55859375 7.8984375 C-14.62687885 4.73190995 -12.47902381 3.04519465 -10 1 C-6.78734554 -0.60632723 -3.48478188 -0.47931944 0 0 Z M-5 9 C-5.66 9.66 -6.32 10.32 -7 11 C-6.6814823 13.10820797 -6.6814823 13.10820797 -6 15 C-4.35 14.67 -2.7 14.34 -1 14 C-1.33 12.35 -1.66 10.7 -2 9 C-2.99 9 -3.98 9 -5 9 Z " fill="#00FD21" transform="translate(217,35)"/>
<path d="M0 0 C-0.52464844 0.20753906 -1.04929688 0.41507813 -1.58984375 0.62890625 C-3.29739044 1.30794728 -5.00284919 1.99224593 -6.70703125 2.6796875 C-9.09546332 3.63732693 -11.48768163 4.57768106 -13.88671875 5.5078125 C-28.26344292 11.15821509 -41.21604522 17.90599223 -53 28 C-53.74894531 28.44859375 -54.49789062 28.8971875 -55.26953125 29.359375 C-57.27643773 30.90657665 -57.27643773 30.90657665 -57.27734375 33.6171875 C-57.16519531 34.69226562 -57.05304688 35.76734375 -56.9375 36.875 C-56.74414062 38.74671875 -56.74414062 38.74671875 -56.546875 40.65625 C-56.36719558 42.10449315 -56.18472091 43.55239124 -56 45 C-55.90267578 45.80953125 -55.80535156 46.6190625 -55.70507812 47.453125 C-54.27285706 59.19555855 -52.3898139 70.64790519 -49 82 C-48.70883301 82.98242676 -48.41766602 83.96485352 -48.11767578 84.97705078 C-41.60435819 106.56266775 -33.05770034 126.25450523 -19 144 C-18.56187988 144.56154785 -18.12375977 145.1230957 -17.67236328 145.70166016 C-11.51286489 153.53356107 -4.98920867 159.97736577 3 166 C3.91136719 166.72574219 4.82273437 167.45148438 5.76171875 168.19921875 C15.71788621 175.98214365 26.63737419 182.47897492 38 188 C33.08314018 189.87028878 29.24479094 187.51917452 24.62890625 185.63671875 C-10.35341656 169.85890039 -34.5478094 138.80247978 -48.28515625 103.63500977 C-55.50775787 84.26752828 -59.91402974 63.80277939 -61.78833008 43.22802734 C-61.96338201 41.38543923 -62.19845867 39.54866313 -62.44921875 37.71484375 C-62.8216454 33.37393635 -62.86130764 30.27135602 -60.3671875 26.58984375 C-57.73468211 24.05996145 -55.02555125 22.04712119 -52 20 C-51.40477539 19.59539551 -50.80955078 19.19079102 -50.19628906 18.77392578 C-40.60377008 12.38628065 -11.55104432 -5.77552216 0 0 Z " fill="#00A816" transform="translate(202,9)"/>
<path d="M0 0 C25.74511081 -0.78633257 49.78562758 3.7007397 73 15 C73.99644531 15.48339844 74.99289062 15.96679688 76.01953125 16.46484375 C83.96839155 20.57004914 93.18508339 26.06662918 99 33 C101.87093735 76.44970849 83.49964566 129.86604857 54.9765625 162.5234375 C49.67937702 168.42439538 44.17516091 174.00538456 38 179 C38 176 38 176 40.2109375 173.61328125 C41.13132812 172.75089844 42.05171875 171.88851562 43 171 C58.98729029 154.71260699 71.54707412 134.57712932 79 113 C79.31324219 112.10087891 79.62648438 111.20175781 79.94921875 110.27539062 C86.79074943 90.2881602 91.25278193 69.80795093 92.79882812 48.71362305 C92.94216673 46.78011743 93.11579045 44.84875643 93.30981445 42.91967773 C93.65786538 39.15635612 93.83534247 36.26689402 91.70703125 33.0390625 C68.14266404 10.83127933 30.71939424 4.56571733 0 1 C0 0.67 0 0.34 0 0 Z " fill="#464646" transform="translate(232,5)"/>
<path d="M0 0 C0.7425 0.2475 1.485 0.495 2.25 0.75 C6.45504255 2.0042268 10.65245928 3.07802938 14.9440918 3.99121094 C30.78971421 7.43092092 45.59467276 12.94011146 59.25 21.75 C60.0440625 22.14316406 60.838125 22.53632812 61.65625 22.94140625 C63.25 24.75 63.25 24.75 63.37890625 28.57421875 C63.21624154 30.19814343 63.02521481 31.81937034 62.8125 33.4375 C62.70905273 34.31599609 62.60560547 35.19449219 62.49902344 36.09960938 C60.49641128 51.84466475 57.03903554 67.33036173 52.12988281 82.41992188 C50.85086842 86.39646334 50.16277978 89.5396422 50.25 93.75 C49.59 94.41 48.93 95.07 48.25 95.75 C43.69444444 95.19444444 43.69444444 95.19444444 42.25 93.75 C42 91.3125 42 91.3125 42.25 88.75 C43.24 88.09 44.23 87.43 45.25 86.75 C46.35391037 84.01435326 47.2759484 81.37774653 48.125 78.5625 C48.3818457 77.72605957 48.63869141 76.88961914 48.90332031 76.02783203 C53.61281653 60.22982407 56.77391522 44.16318155 58.25 27.75 C43.01489384 17.13061456 21.23217324 6.42566233 2.25 7.75 C1.3425 7.95625 0.435 8.1625 -0.5 8.375 C-1.2425 8.49875 -1.985 8.6225 -2.75 8.75 C-4.75 6.75 -4.75 6.75 -5.0625 4.25 C-4.959375 3.425 -4.85625 2.6 -4.75 1.75 C-1.75 -0.25 -1.75 -0.25 0 0 Z " fill="#00FF22" transform="translate(250.75,20.25)"/>
<path d="M0 0 C2.375 -0.1875 2.375 -0.1875 5 0 C7 3 7 3 6.6875 5.125 C6 7 6 7 5 8 C3.44539063 7.97292969 3.44539063 7.97292969 1.859375 7.9453125 C-10.99769248 8.12749767 -23.23800258 15.96095673 -34.15332031 22.04785156 C-36 23 -36 23 -39 24 C-38.32563681 28.07122691 -37.65012667 32.14226149 -36.97363281 36.21313477 C-36.74448976 37.59296748 -36.51563984 38.9728489 -36.28710938 40.3527832 C-34.92421471 48.58096086 -33.52618074 56.80028636 -32 65 C-31.01 65.33 -30.02 65.66 -29 66 C-28.1875 67.875 -28.1875 67.875 -28 70 C-28.66 70.99 -29.32 71.98 -30 73 C-32.5 73.3125 -32.5 73.3125 -35 73 C-35.66 72.34 -36.32 71.68 -37 71 C-36.98496912 69.16408558 -36.96435242 67.328078 -36.91845703 65.49267578 C-37.08532035 60.39185401 -38.38955061 55.41733244 -39.4375 50.4375 C-41.36583298 40.91957484 -42.82361562 31.71717599 -43 22 C-35.40700968 16.64898562 -27.76293693 12.17392351 -19.1875 8.5625 C-18.41237061 8.23314453 -17.63724121 7.90378906 -16.83862305 7.56445312 C-12.18003413 5.66594066 -7.71519241 4.40168335 -2.7434082 3.60522461 C-2.1680835 3.40550049 -1.59275879 3.20577637 -1 3 C-0.67 2.01 -0.34 1.02 0 0 Z " fill="#231F20" transform="translate(200,23)"/>
<path d="M0 0 C0.66 0.33 1.32 0.66 2 1 C1.56429687 1.43828125 1.12859375 1.8765625 0.6796875 2.328125 C-11.18904632 14.96755582 -14.4420649 29.8248427 -14.2265625 46.6796875 C-14.00511775 53.03431077 -12.83071809 59.44892626 -9.8984375 65.13671875 C-9 67 -9 67 -9 70 C-11.359375 69.41015625 -11.359375 69.41015625 -14 68 C-15.328125 64.99609375 -15.328125 64.99609375 -16.25 61.4375 C-17.02357801 57.40937715 -17.02357801 57.40937715 -19 54 C-21.55479269 40.15862315 -19.47494156 25.95592293 -12.1015625 13.89453125 C-8.50411287 8.78780678 -4.5822361 4.23856839 0 0 Z " fill="#00A316" transform="translate(200,49)"/>
<path d="M0 0 C15.92095451 2.09981093 28.22740207 8.61073129 38.54296875 21.00390625 C40.84000394 24.15078288 42.43662485 27.44565992 44 31 C44.38414062 31.76828125 44.76828125 32.5365625 45.1640625 33.328125 C48.01723929 39.1897535 48.01723929 39.1897535 47.9375 42.9375 C47 45 47 45 44 47 C43.85304688 46.26136719 43.70609375 45.52273437 43.5546875 44.76171875 C40.23439735 29.74408456 32.70581314 18.04953039 19.6875 9.625 C14.39660842 6.53397264 9.15766617 4.439451 3.265625 2.7890625 C1 2 1 2 0 0 Z " fill="#464646" transform="translate(241,37)"/>
<path d="M0 0 C0.66 0 1.32 0 2 0 C2.98295849 16.68298994 -2.07540034 29.15430808 -12.9375 41.6875 C-13.95069775 42.79867732 -14.96849828 43.90579301 -16 45 C-16.66 44.67 -17.32 44.34 -18 44 C-17.46890625 43.29875 -16.9378125 42.5975 -16.390625 41.875 C-7.49478936 29.92730833 -3.02962035 19.25569824 -2.30859375 4.1796875 C-2 2 -2 2 0 0 Z " fill="#484848" transform="translate(288,89)"/>
<path d="M0 0 C2.25 0.1875 2.25 0.1875 5 1 C5.556875 1.70125 6.11375 2.4025 6.6875 3.125 C13.64678219 11.77708056 24.48332221 16.31489078 35 19 C35 19.33 35 19.66 35 20 C20.76782797 19.2883914 9.50205729 12.38747627 0 2 C0 1.34 0 0.68 0 0 Z " fill="#00B017" transform="translate(193,126)"/>
<path d="M0 0 C0.66 0.33 1.32 0.66 2 1 C1.56429687 1.43828125 1.12859375 1.8765625 0.6796875 2.328125 C-4.61232629 7.96377605 -7.77858648 14.01860847 -11 21 C-11.66135286 22.33597702 -12.32574694 23.67048692 -13 25 C-13.33 24.34 -13.66 23.68 -14 23 C-14.66 23.33 -15.32 23.66 -16 24 C-14.26889671 14.26254399 -7.07087723 6.54056143 0 0 Z " fill="#00B317" transform="translate(200,49)"/>
<path d="M0 0 C-1.42332866 4.05611794 -3.38591603 7.17537252 -5.9375 10.625 C-6.97197266 12.03652344 -6.97197266 12.03652344 -8.02734375 13.4765625 C-9.59656146 15.48391823 -11.14338323 17.26560565 -13 19 C-13.66 18.67 -14.32 18.34 -15 18 C-14.45730469 17.27554688 -13.91460937 16.55109375 -13.35546875 15.8046875 C-12.64003906 14.83789062 -11.92460937 13.87109375 -11.1875 12.875 C-10.47980469 11.92367187 -9.77210938 10.97234375 -9.04296875 9.9921875 C-6.92142802 7.03351918 -6.92142802 7.03351918 -5.36328125 3.6953125 C-3.84447973 0.69252439 -3.3436177 0 0 0 Z " fill="#414141" transform="translate(285,115)"/>
<path d="M0 0 C-1.6017578 3.9761282 -4.3736223 6.67101247 -7.375 9.625 C-7.85710937 10.11484375 -8.33921875 10.6046875 -8.8359375 11.109375 C-11.37243881 13.63209098 -13.66236091 15.65545345 -17 17 C-15.4281491 13.14182051 -12.95541898 10.889743 -10 8 C-8.1974813 5.87263177 -6.41259486 3.73351543 -4.6484375 1.57421875 C-3 0 -3 0 0 0 Z " fill="#414141" transform="translate(286,167)"/>
<path d="M0 0 C2.97923003 -0.02727678 5.95820379 -0.04697128 8.9375 -0.0625 C9.76830078 -0.07087891 10.59910156 -0.07925781 11.45507812 -0.08789062 C17.05226441 -0.10966956 22.44733582 0.28840732 28 1 C28 1.33 28 1.66 28 2 C18.69787287 4.32553178 9.30885824 2.35754183 0 1 C0 0.67 0 0.34 0 0 Z " fill="#414141" transform="translate(232,5)"/>
<path d="M0 0 C1.77226453 0.28284018 3.542788 0.57660498 5.3125 0.875 C6.29863281 1.03742187 7.28476563 1.19984375 8.30078125 1.3671875 C11 2 11 2 14 4 C10.30962722 5.37095624 8.29116165 4.60010967 4.75 3.0625 C3.85796875 2.68222656 2.9659375 2.30195312 2.046875 1.91015625 C1.37140625 1.60980469 0.6959375 1.30945312 0 1 C0 0.67 0 0.34 0 0 Z " fill="#3F3F3F" transform="translate(241,37)"/>
<path d="M0 0 C0.99 0.33 1.98 0.66 3 1 C3 2.32 3 3.64 3 5 C2.01 5.33 1.02 5.66 0 6 C-0.66 5.67 -1.32 5.34 -2 5 C-1.125 1.125 -1.125 1.125 0 0 Z " fill="#231F20" transform="translate(226,119)"/>
<path d="M0 0 C0.99 0.33 1.98 0.66 3 1 C0.03 3.64 -2.94 6.28 -6 9 C-6 6 -6 6 -3.5625 3.375 C-2.716875 2.59125 -1.87125 1.8075 -1 1 C-0.67 0.67 -0.34 0.34 0 0 Z " fill="#3A3A3A" transform="translate(276,175)"/>
<path d="M0 0 C1.98 0.495 1.98 0.495 4 1 C4 1.99 4 2.98 4 4 C2.35 4.33 0.7 4.66 -1 5 C-0.67 3.35 -0.34 1.7 0 0 Z " fill="#231F20" transform="translate(216,68)"/>
<path d="M0 0 C2.0625 0.4375 2.0625 0.4375 4 1 C4 1.99 4 2.98 4 4 C2.68 4.33 1.36 4.66 0 5 C-0.5625 3.0625 -0.5625 3.0625 -1 1 C-0.67 0.67 -0.34 0.34 0 0 Z " fill="#231F20" transform="translate(202,88)"/>
<path d="M0 0 C0.99 0.33 1.98 0.66 3 1 C2.67 2.32 2.34 3.64 2 5 C0.68 4.67 -0.64 4.34 -2 4 C-2 3.01 -2 2.02 -2 1 C-1.34 0.67 -0.68 0.34 0 0 Z " fill="#00FF22" transform="translate(271,85)"/>
<path d="M0 0 C1.32 0 2.64 0 4 0 C3.67 1.32 3.34 2.64 3 4 C2.01 3.67 1.02 3.34 0 3 C0 2.01 0 1.02 0 0 Z " fill="#00FF22" transform="translate(249,75)"/>
<path d="M0 0 C0.99 0.33 1.98 0.66 3 1 C2.67 1.99 2.34 2.98 2 4 C1.01 4 0.02 4 -1 4 C-0.67 2.68 -0.34 1.36 0 0 Z " fill="#00FF22" transform="translate(252,116)"/>
<path d="M0 0 C0.99 0.33 1.98 0.66 3 1 C2.67 1.99 2.34 2.98 2 4 C1.01 4 0.02 4 -1 4 C-0.67 2.68 -0.34 1.36 0 0 Z " fill="#231F20" transform="translate(205,102)"/>
<path d="M0 0 C0.99 0 1.98 0 3 0 C2.67 1.32 2.34 2.64 2 4 C1.01 3.67 0.02 3.34 -1 3 C-0.67 2.01 -0.34 1.02 0 0 Z " fill="#00FF22" transform="translate(233,69)"/>
<path d="M0 0 C0.99 0.33 1.98 0.66 3 1 C2.67 1.99 2.34 2.98 2 4 C1.01 3.67 0.02 3.34 -1 3 C-0.67 2.01 -0.34 1.02 0 0 Z " fill="#00FF22" transform="translate(243,92)"/>
<path d="M0 0 C0.99 0.33 1.98 0.66 3 1 C2.67 1.99 2.34 2.98 2 4 C1.01 3.67 0.02 3.34 -1 3 C-0.67 2.01 -0.34 1.02 0 0 Z " fill="#231F20" transform="translate(204,72)"/>
<path d="M0 0 C0.99 0 1.98 0 3 0 C2.67 1.32 2.34 2.64 2 4 C1.34 4 0.68 4 0 4 C-0.33 3.01 -0.66 2.02 -1 1 C-0.67 0.67 -0.34 0.34 0 0 Z " fill="#00FF22" transform="translate(263,67)"/>
<path d="M0 0 C0.66 0 1.32 0 2 0 C2.33 0.99 2.66 1.98 3 3 C1.68 3 0.36 3 -1 3 C-0.67 2.01 -0.34 1.02 0 0 Z " fill="#231F20" transform="translate(231,102)"/>
<path d="M0 0 C0.99 0.33 1.98 0.66 3 1 C2.67 1.99 2.34 2.98 2 4 C1.34 4 0.68 4 0 4 C-0.33 3.01 -0.66 2.02 -1 1 C-0.67 0.67 -0.34 0.34 0 0 Z " fill="#231F20" transform="translate(224,87)"/>
<path d="M0 0 C0.99 0.33 1.98 0.66 3 1 C2.67 1.99 2.34 2.98 2 4 C1.34 4 0.68 4 0 4 C-0.33 3.01 -0.66 2.02 -1 1 C-0.67 0.67 -0.34 0.34 0 0 Z " fill="#00FF22" transform="translate(245,55)"/>
</g>
<g transform="translate(350, -150)">
<path d="M0 0 C3.3 0 6.6 0 10 0 C13.3 5.94 16.6 11.88 20 18 C21.90453634 15.46061822 23.51349526 13.25479528 25.04296875 10.546875 C25.56987305 9.61875 25.56987305 9.61875 26.10742188 8.671875 C26.46384766 8.03765625 26.82027344 7.4034375 27.1875 6.75 C27.73954102 5.77546875 27.73954102 5.77546875 28.30273438 4.78125 C29.20428903 3.18889373 30.10248417 1.5946362 31 0 C34.3 0 37.6 0 41 0 C41 13.2 41 26.4 41 40 C37.7 40 34.4 40 31 40 C30.67 34.39 30.34 28.78 30 23 C29.154375 24.65 28.30875 26.3 27.4375 28 C24.51302932 32.81677524 24.51302932 32.81677524 20.5 34.25 C14.89868609 32.24953075 13.66036596 28.19095796 11 23 C10.67 28.61 10.34 34.22 10 40 C6.7 40 3.4 40 0 40 C0 26.8 0 13.6 0 0 Z " fill="#FFFFFF" transform="translate(0,214)"/>
<path d="M0 0 C1.37478516 0.01740234 1.37478516 0.01740234 2.77734375 0.03515625 C3.69644531 0.04417969 4.61554688 0.05320313 5.5625 0.0625 C6.27277344 0.07410156 6.98304687 0.08570313 7.71484375 0.09765625 C11.71149131 9.89081671 15.66558775 19.6944322 19.21484375 29.66015625 C19.46959473 30.36712646 19.7243457 31.07409668 19.98681641 31.80249023 C21.00464205 34.70439888 21.71484375 36.99795549 21.71484375 40.09765625 C18.41484375 40.09765625 15.11484375 40.09765625 11.71484375 40.09765625 C10.72484375 36.63265625 10.72484375 36.63265625 9.71484375 33.09765625 C3.27984375 33.59265625 3.27984375 33.59265625 -3.28515625 34.09765625 C-3.94515625 36.07765625 -4.60515625 38.05765625 -5.28515625 40.09765625 C-8.91515625 40.09765625 -12.54515625 40.09765625 -16.28515625 40.09765625 C-14.03963483 31.3683776 -11.22035543 22.94773238 -8.16015625 14.47265625 C-7.70020926 13.18240269 -7.24057203 11.89203867 -6.78125 10.6015625 C-3.02279078 0.12917909 -3.02279078 0.12917909 0 0 Z M2.71484375 15.09765625 C1.72484375 18.06765625 0.73484375 21.03765625 -0.28515625 24.09765625 C1.69484375 24.09765625 3.67484375 24.09765625 5.71484375 24.09765625 C5.05484375 21.12765625 4.39484375 18.15765625 3.71484375 15.09765625 C3.38484375 15.09765625 3.05484375 15.09765625 2.71484375 15.09765625 Z " fill="#FFFFFF" transform="translate(60.28515625,213.90234375)"/>
<path d="M0 0 C20 0 20 0 27 3 C30.49460674 6.96055431 31.15895184 11.84289579 31 17 C29.97008214 21.11967145 28.08506273 24.10558722 25 27 C25.5053125 27.77085937 26.010625 28.54171875 26.53125 29.3359375 C27.1809375 30.33882812 27.830625 31.34171875 28.5 32.375 C29.1496875 33.37273437 29.799375 34.37046875 30.46875 35.3984375 C32 38 32 38 32 40 C27.8210248 40.6793408 24.14654833 40.96407249 20 40 C17.52067457 37.33989042 16.03003278 34.7468592 14.40234375 31.50390625 C13.19622678 28.69141626 13.19622678 28.69141626 10 28 C10 31.96 10 35.92 10 40 C6.7 40 3.4 40 0 40 C0 26.8 0 13.6 0 0 Z M10 9 C10 12.3 10 15.6 10 19 C15.58500567 18.80101292 15.58500567 18.80101292 20 16 C19.90888062 13.46048456 19.90888062 13.46048456 19 11 C15.5647952 8.70986347 14.014669 8.82157027 10 9 Z " fill="#FFFFFF" transform="translate(85,214)"/>
<path d="M0 0 C10.23 0 20.46 0 31 0 C31 2.97 31 5.94 31 9 C27.37 9 23.74 9 20 9 C20 19.23 20 29.46 20 40 C16.7 40 13.4 40 10 40 C10 29.77 10 19.54 10 9 C6.7 9 3.4 9 0 9 C0 6.03 0 3.06 0 0 Z " fill="#FFFFFF" transform="translate(118,214)"/>
<path d="M0 0 C3.3 0 6.6 0 10 0 C10 13.2 10 26.4 10 40 C6.7 40 3.4 40 0 40 C0 26.8 0 13.6 0 0 Z " fill="#FFFFFF" transform="translate(152,214)"/>
<path d="M0 0 C1.37478516 0.01740234 1.37478516 0.01740234 2.77734375 0.03515625 C3.69644531 0.04417969 4.61554688 0.05320313 5.5625 0.0625 C6.27277344 0.07410156 6.98304688 0.08570313 7.71484375 0.09765625 C11.71149131 9.89081671 15.66558775 19.6944322 19.21484375 29.66015625 C19.46959473 30.36712646 19.7243457 31.07409668 19.98681641 31.80249023 C21.00464205 34.70439888 21.71484375 36.99795549 21.71484375 40.09765625 C18.41484375 40.09765625 15.11484375 40.09765625 11.71484375 40.09765625 C10.72484375 36.63265625 10.72484375 36.63265625 9.71484375 33.09765625 C3.27984375 33.59265625 3.27984375 33.59265625 -3.28515625 34.09765625 C-3.94515625 36.07765625 -4.60515625 38.05765625 -5.28515625 40.09765625 C-8.91515625 40.09765625 -12.54515625 40.09765625 -16.28515625 40.09765625 C-14.03963483 31.3683776 -11.22035543 22.94773238 -8.16015625 14.47265625 C-7.70020926 13.18240269 -7.24057203 11.89203867 -6.78125 10.6015625 C-3.02279078 0.12917909 -3.02279078 0.12917909 0 0 Z M2.71484375 15.09765625 C1.72484375 18.06765625 0.73484375 21.03765625 -0.28515625 24.09765625 C1.69484375 24.09765625 3.67484375 24.09765625 5.71484375 24.09765625 C5.05484375 21.12765625 4.39484375 18.15765625 3.71484375 15.09765625 C3.38484375 15.09765625 3.05484375 15.09765625 2.71484375 15.09765625 Z " fill="#FFFFFF" transform="translate(181.28515625,213.90234375)"/>
<path d="M0 0 C3.63 0 7.26 0 11 0 C13.92424785 3.26094164 15.63241229 5.61662319 17.625 9.375 C18.13933594 10.26445312 18.65367187 11.15390625 19.18359375 12.0703125 C20.87065954 15.00821072 22.48496227 17.96992454 24 21 C24.33 14.07 24.66 7.14 25 0 C28.3 0 31.6 0 35 0 C35 13.2 35 26.4 35 40 C24 40 24 40 21.6496582 38.25585938 C21.20452881 37.45986328 20.75939941 36.66386719 20.30078125 35.84375 C19.79482422 34.98652344 19.28886719 34.12929687 18.76757812 33.24609375 C18.28740234 32.33988281 17.80722656 31.43367188 17.3125 30.5 C16.78978516 29.59378906 16.26707031 28.68757813 15.72851562 27.75390625 C14.44886505 25.52332267 13.21931114 23.26413097 12 21 C11.67 27.27 11.34 33.54 11 40 C7.37 40 3.74 40 0 40 C0 26.8 0 13.6 0 0 Z " fill="#FFFFFF" transform="translate(206,214)"/>
<path d="M0 0 C21.32352941 0 21.32352941 0 29.3125 5.125 C33.59175613 9.70280888 34.72885502 14.42412274 35.375 20.5625 C34.61418149 27.53666965 32.55301669 32.48010269 27 37 C21.46631749 40.61383348 16.48894246 40.35435046 10.125 40.1875 C6.78375 40.125625 3.4425 40.06375 0 40 C0 26.8 0 13.6 0 0 Z M10 9 C10 16.26 10 23.52 10 31 C16.28321608 31.48045589 16.28321608 31.48045589 20.375 28.625 C23.44841811 25.55158189 23.92663089 24.97214066 24.25 20.6875 C23.97973382 16.70107385 23.53712014 15.04454416 21 12 C16.84376189 9.37976293 15.05689498 9 10 9 Z " fill="#00FF22" transform="translate(244,214)"/>
<path d="M0 0 C8.58 0 17.16 0 26 0 C26 2.97 26 5.94 26 9 C20.72 9 15.44 9 10 9 C10 11.31 10 13.62 10 16 C14.29 16 18.58 16 23 16 C23 18.97 23 21.94 23 25 C18.71 25 14.42 25 10 25 C10 26.98 10 28.96 10 31 C15.61 31 21.22 31 27 31 C27 33.97 27 36.94 27 40 C18.09 40 9.18 40 0 40 C0 26.8 0 13.6 0 0 Z " fill="#00FF22" transform="translate(282,214)"/>
<path d="M0 0 C9.24 0 18.48 0 28 0 C28 2.97 28 5.94 28 9 C22.06 9 16.12 9 10 9 C10 11.64 10 14.28 10 17 C14.95 17 19.9 17 25 17 C25 19.97 25 22.94 25 26 C20.05 26 15.1 26 10 26 C10 30.62 10 35.24 10 40 C6.7 40 3.4 40 0 40 C0 26.8 0 13.6 0 0 Z " fill="#00FF22" transform="translate(312,214)"/>
<path d="M0 0 C8.58 0 17.16 0 26 0 C26 2.97 26 5.94 26 9 C20.72 9 15.44 9 10 9 C10 11.31 10 13.62 10 16 C14.29 16 18.58 16 23 16 C23 18.97 23 21.94 23 25 C18.71 25 14.42 25 10 25 C10 26.98 10 28.96 10 31 C15.61 31 21.22 31 27 31 C27 33.97 27 36.94 27 40 C18.09 40 9.18 40 0 40 C0 26.8 0 13.6 0 0 Z " fill="#00FF22" transform="translate(343,214)"/>
<path d="M0 0 C3.63 0 7.26 0 11 0 C13.76025184 3.1017263 15.26247555 5.22067039 17.0625 8.8125 C17.52076172 9.64587891 17.97902344 10.47925781 18.45117188 11.33789062 C19.29929052 12.88387556 20.13025925 14.43948868 20.93774414 16.00708008 C22.07387286 18.21712229 22.07387286 18.21712229 24 21 C24.33 14.07 24.66 7.14 25 0 C28.3 0 31.6 0 35 0 C35 13.2 35 26.4 35 40 C24 40 24 40 21.60546875 38.1640625 C21.13753906 37.32617188 20.66960937 36.48828125 20.1875 35.625 C19.38699219 34.27148438 19.38699219 34.27148438 18.5703125 32.890625 C18.05210937 31.93671875 17.53390625 30.9828125 17 30 C15.85827449 28.12249583 14.71265802 26.24735027 13.5625 24.375 C12.2940625 22.209375 12.2940625 22.209375 11 20 C10.67 26.6 10.34 33.2 10 40 C6.7 40 3.4 40 0 40 C0 26.8 0 13.6 0 0 Z " fill="#00FF22" transform="translate(373,214)"/>
<path d="M0 0 C1.91015625 1.1015625 1.91015625 1.1015625 4.66015625 3.1015625 C4.18813139 7.34978624 1.69360107 9.30145959 -1.33984375 12.1015625 C-2.08234375 11.6065625 -2.82484375 11.1115625 -3.58984375 10.6015625 C-6.40302563 8.78232775 -6.40302563 8.78232775 -10.33984375 9.1015625 C-10.33984375 10.0915625 -10.33984375 11.0815625 -10.33984375 12.1015625 C-9.11007812 12.55595703 -9.11007812 12.55595703 -7.85546875 13.01953125 C-6.7778125 13.43847656 -5.70015625 13.85742188 -4.58984375 14.2890625 C-3.5225 14.69511719 -2.45515625 15.10117188 -1.35546875 15.51953125 C2.0519213 17.30708691 3.6292113 18.85012094 5.66015625 22.1015625 C6.58630443 26.13190389 6.55472919 30.24008945 4.7421875 34.01171875 C1.9617612 37.6739631 -0.91397095 39.21638794 -5.33984375 40.1015625 C-10.85833029 40.61253348 -15.46333669 39.67763036 -20.33984375 37.1015625 C-22.078125 35.6171875 -22.078125 35.6171875 -23.33984375 34.1015625 C-23.24295662 31.09806144 -22.32136664 30.08140566 -20.27734375 27.8515625 C-19.63796875 27.2740625 -18.99859375 26.6965625 -18.33984375 26.1015625 C-17.7778125 26.40835938 -17.21578125 26.71515625 -16.63671875 27.03125 C-14.27637441 28.13113835 -12.13518813 28.70252101 -9.58984375 29.2265625 C-8.790625 29.39414063 -7.99140625 29.56171875 -7.16796875 29.734375 C-6.5646875 29.85554688 -5.96140625 29.97671875 -5.33984375 30.1015625 C-5.3943174 28.17724598 -5.3943174 28.17724598 -6.33984375 26.1015625 C-8.96927341 24.47515001 -8.96927341 24.47515001 -12.15234375 23.1640625 C-16.78935913 21.13642727 -19.57006758 19.40425518 -22.33984375 15.1015625 C-22.96376313 10.18819741 -22.87247432 8.1287786 -20.58984375 3.7265625 C-15.52923806 -2.17747748 -7.12501694 -2.73581619 0 0 Z " fill="#00FF22" transform="translate(434.33984375,214.8984375)"/>
<path d="M0 0 C8.91 0 17.82 0 27 0 C27 2.97 27 5.94 27 9 C21.39 9 15.78 9 10 9 C10 11.31 10 13.62 10 16 C14.29 16 18.58 16 23 16 C23 18.97 23 21.94 23 25 C18.71 25 14.42 25 10 25 C10 26.98 10 28.96 10 31 C15.94 31 21.88 31 28 31 C28 33.97 28 36.94 28 40 C18.76 40 9.52 40 0 40 C0 26.8 0 13.6 0 0 Z " fill="#00FF22" transform="translate(443,214)"/>
  </g>
</svg>