<svg xmlns="http://www.w3.org/2000/svg" width="61" height="84" viewBox="0 0 61 84" fill="none">
  <path d="M31.4872 9.55176H47.7942C50.2641 9.55176 52.6704 10.4371 54.7286 12.0813L58.75 15.338V43.7003C58.75 53.4388 54.6336 62.5453 47.7626 67.9205L31.5189 80.6313C31.5189 80.6313 30.8539 81.1687 30.1574 81.7063C29.4924 81.1687 28.7957 80.6313 28.7957 80.6313L12.552 67.9205C5.68092 62.5453 1.56458 53.4705 1.56458 43.7003V15.3697L5.58592 12.1129C7.61244 10.4687 10.0506 9.58338 12.5203 9.58338H28.8273H31.4872V9.55176Z" fill="url(#paint0_linear_25_1720)"/>
  <path opacity="0.1" d="M60.0798 44.1113C60.0798 54.2926 55.7419 63.7783 48.554 69.3749L31.5188 82.6233C31.5188 82.6233 30.7905 83.1923 30.094 83.7299C29.3657 83.1607 28.669 82.6233 28.669 82.6233L11.6338 69.3749C18.8532 65.1379 26.0726 60.8694 33.292 56.6324C42.253 52.4587 51.1822 48.2849 60.0798 44.1113Z" fill="white"/>
  <path d="M54.9819 57.0435C54.4119 55.5891 53.6837 54.261 52.7654 53.0279C52.2904 52.3955 51.1822 51.0675 49.3457 49.6131C48.8707 49.2336 48.4275 48.9174 48.0158 48.6646L48.0475 48.0954C48.0792 47.7792 48.4908 40.5068 46.9075 32.4755C45.9576 27.7011 44.5011 23.6855 42.6013 20.5236C40.1314 16.4764 36.9017 13.7888 32.9753 12.5873C30.7271 11.8916 28.4789 11.5122 26.3576 11.5122C21.2595 11.5122 16.4466 13.5674 12.4886 17.4883C9.82889 20.1126 8.40388 22.7054 8.0557 23.306L2.67273 21.314L3.59099 35.1L9.00555 35.5111C8.91055 40.3487 5.87085 43.6371 5.83918 43.6687L5.26918 44.2695L5.77585 44.9019C6.50402 45.7872 7.5807 46.2931 8.87888 46.2931H8.91055C8.91055 46.4196 8.91055 46.5145 8.87888 46.641C8.84722 46.7674 8.78388 46.8938 8.68888 46.9886L8.65721 47.0203L8.62555 47.0519C7.99237 48.0322 8.08737 48.7593 8.27721 49.202C8.37221 49.455 8.53055 49.6763 8.72055 49.8344C8.59388 50.2139 8.62555 50.5616 8.72055 50.8145C8.87888 51.3205 9.29055 51.6683 9.67056 51.8581C9.51222 53.6287 9.86056 54.8302 10.7154 55.5259C11.3487 56.0633 12.1403 56.3162 13.1219 56.3162C14.1668 56.3162 15.3068 56.0317 16.7316 55.6524C17.4915 55.4626 19.2647 54.8934 21.3862 53.6603C22.1462 55.431 22.4629 57.2965 22.2729 59.0988C21.7345 64.5373 17.175 67.541 16.2566 68.1102L15.0851 68.8059L16.1616 69.6279L30.2205 80.3783L36.2684 75.6988C36.2684 75.6988 36.395 75.509 36.395 75.4774L36.4584 75.5723L46.7491 67.7307V67.8256L47.6358 67.0667L47.7625 66.9718L48.3958 66.4344C49.6623 65.3593 50.8339 64.1578 51.8472 62.8615C53.082 61.3122 54.1269 59.6362 54.9819 57.8339L55.1402 57.4863L54.9819 57.0435ZM43.8994 55.6524C43.8678 55.5891 43.8361 55.5259 43.7728 55.431C45.071 57.17 45.8943 58.8142 46.306 60.3003C46.5593 61.3438 46.7175 62.5136 46.7491 62.8298C46.021 60.3003 45.071 57.8972 43.8994 55.6524Z" fill="black"/>
  <path d="M31.4871 8.5083H45.9893H47.7942C48.4592 8.5083 49.124 8.57153 49.789 8.69802C51.0872 8.91934 52.3537 9.39363 53.4937 10.026C54.0637 10.3422 54.6019 10.7216 55.1402 11.101C55.4252 11.3224 55.6152 11.4805 55.8686 11.6702L56.5651 12.2393L59.3833 14.5159C59.6365 14.7056 59.7631 14.9902 59.7631 15.3064V15.338L59.9848 34.8785L60.0481 39.7794L60.0798 42.2141C60.0798 43.0361 60.1115 43.8267 60.0798 44.6805C60.0481 48.0637 59.4783 51.4469 58.4649 54.7036C57.9266 56.3162 57.3251 57.9287 56.5334 59.4466C56.3434 59.8259 56.1218 60.2053 55.9319 60.5848C55.7419 60.9642 55.5202 61.3437 55.2986 61.6914L54.6019 62.7981L53.8421 63.8415C52.8287 65.2327 51.7205 66.5608 50.4224 67.7306C50.1057 68.0469 49.789 68.3315 49.4407 68.6161C49.124 68.9005 48.7757 69.1851 48.4592 69.4381L46.5593 70.9557L31.2655 83.1924C30.5688 83.7614 29.5873 83.7298 28.9223 83.1924L13.6286 70.9557L11.7288 69.4381C11.4121 69.1851 11.0638 68.9005 10.7471 68.6161C10.4304 68.3315 10.0821 68.0469 9.76557 67.7306C8.49889 66.5608 7.39071 65.2327 6.34586 63.8415L5.58586 62.7981L4.88918 61.6914C4.66758 61.3437 4.44594 60.9642 4.25596 60.5848C4.06597 60.2053 3.84432 59.8259 3.65434 59.4466C2.89439 57.9287 2.26112 56.3162 1.72283 54.7036C0.709569 51.4469 0.139613 48.0637 0.107946 44.6805C0.0762793 43.8267 0.107946 43.0047 0.107946 42.2141L0.139613 39.7794L0.202947 34.8785L0.424583 15.338C0.424583 15.0218 0.582917 14.7372 0.80457 14.5475L3.87599 12.0496L4.63593 11.4172C4.76252 11.3224 4.88918 11.1959 5.04752 11.101C5.17419 10.9746 5.33252 10.8797 5.49086 10.7849C6.06086 10.3738 6.69404 9.99438 7.35904 9.67819C8.65723 9.04582 10.0821 8.63477 11.5388 8.53991C11.8871 8.5083 12.2669 8.5083 12.6153 8.5083H13.5969H15.5918H31.4871ZM31.4871 10.5951H15.6233H13.6286H12.6786C12.3619 10.5951 12.0769 10.5951 11.7604 10.6268C10.5887 10.7216 9.41723 11.0378 8.34056 11.5753C7.80238 11.8283 7.29571 12.1445 6.78904 12.4923C6.66237 12.5871 6.5357 12.682 6.4407 12.7769C6.3142 12.8717 6.18753 12.9666 6.06086 13.0614L5.30085 13.6938L2.22945 16.1917L2.60942 15.3696L2.83106 34.9102L2.89439 39.811L2.92606 42.2458C2.92606 43.0678 2.92606 43.8899 2.98939 44.6489C3.08438 47.7791 3.686 50.8777 4.6676 53.8184C5.20585 55.2728 5.77586 56.7272 6.50403 58.0868C6.66237 58.4347 6.88404 58.7509 7.07404 59.0987C7.26404 59.4466 7.45404 59.7626 7.67571 60.0788L8.30889 61.0591L9.00556 61.976C9.95557 63.1776 10.9688 64.3474 12.1086 65.3592C12.3936 65.6122 12.6786 65.8651 12.9636 66.1181C13.2803 66.3711 13.5336 66.5924 13.8818 66.8452L15.8133 68.3315L31.3605 80.2201H29.0173L44.5645 68.3315L46.496 66.8452C46.8442 66.5924 47.0975 66.3711 47.4142 66.1181C47.6992 65.8651 48.0158 65.6438 48.2692 65.3592C49.409 64.3474 50.4224 63.1776 51.3722 61.976L52.0689 61.0591L52.702 60.0788C52.9237 59.7626 53.1137 59.4149 53.3037 59.0987C53.4937 58.7509 53.7154 58.4347 53.8737 58.0868C54.6019 56.7272 55.2036 55.2728 55.7103 53.8184C56.6918 50.8777 57.2934 47.7791 57.3884 44.6489C57.4201 43.8899 57.4201 43.0678 57.4518 42.2458L57.4834 39.811L57.5468 34.9102L57.7684 15.3696L58.1483 16.1917L55.3302 13.9151L54.6336 13.346C54.4119 13.1563 54.1586 12.9666 53.9371 12.7769C53.4937 12.429 53.0504 12.1445 52.5754 11.8599C51.6255 11.3224 50.5805 10.943 49.504 10.7532C48.9657 10.6584 48.4275 10.5951 47.8892 10.5951H46.0843H31.4871Z" fill="url(#paint1_linear_25_1720)"/>
  <path opacity="0.25" d="M31.234 8.44482H48.1427C50.7074 8.44482 53.2089 9.36178 55.3304 11.1008L59.5101 14.5157C50.3592 20.5548 41.2081 26.5941 32.0888 32.6334C21.4497 36.4909 10.7789 40.3484 0.139771 44.2376C0.266422 34.404 0.361423 24.6021 0.488074 14.7686C1.78631 13.7568 3.05287 12.7766 4.3511 11.7648C5.07934 11.0692 6.28269 10.1206 7.99254 9.42502C9.41739 8.82425 10.7156 8.63454 11.6022 8.53967C17.2068 8.50807 22.8114 8.47645 28.4158 8.44482H31.234Z" fill="black"/>
  <path d="M43.9627 54.2608C44.6594 55.1146 46.5276 57.4859 47.1924 60.2052C47.5408 61.5016 47.6675 62.956 47.6675 62.956C47.7625 64.0628 47.7625 65.0429 47.7308 65.8018C48.744 64.948 49.9156 63.8098 51.0555 62.3553C52.4487 60.5847 53.4304 58.8773 54.0635 57.5175C53.6837 56.5374 53.0504 55.1779 51.9422 53.7233C51.6255 53.3123 50.6122 52.0158 48.6806 50.4982C45.7359 48.1899 43.9311 48.1268 40.0997 45.534C38.9915 44.7751 38.1365 44.1112 37.6298 43.6685L47.0341 48.1585C47.0341 48.1585 48.8073 18.6263 32.5953 13.5672C16.3833 8.50819 8.72052 23.9699 8.72052 23.9699L19.993 28.8392L3.59094 22.7999L4.3509 34.3725L23.951 35.8269C24.2994 32.6651 26.9591 30.2936 29.9039 30.2304C33.5136 30.1671 36.49 33.582 35.9833 36.9653C35.6033 39.5896 33.197 41.7081 30.4421 41.8978C27.3391 42.1192 24.3627 39.7793 23.856 36.4594L9.79719 35.1314C9.9237 40.728 6.37732 44.4274 6.37732 44.4274C7.51733 45.8502 9.48053 45.4075 9.48053 45.4075C9.57553 45.5973 9.89219 46.2613 9.63886 47.0201C9.54386 47.3047 9.41719 47.526 9.29052 47.6525C8.24551 49.2334 9.89219 49.5497 9.89219 49.5497C8.62552 50.9092 10.557 51.3203 10.557 51.3203C10.272 53.3123 10.557 54.3557 11.1904 54.8933C12.3302 55.8734 14.1667 55.3992 16.3516 54.83C16.9216 54.6719 19.4546 53.9762 22.3995 51.8894C23.6344 51.0041 24.5844 50.1187 25.2175 49.4864C24.9325 50.024 24.4894 50.7195 23.856 51.4468C23.191 52.2056 22.4945 52.7115 21.9562 53.0277C22.5262 54.2292 23.3493 56.4742 23.0643 59.2566C22.4945 65.2959 17.3014 68.5526 16.6049 68.9637C16.6683 68.9953 16.7316 69.0585 16.7949 69.0901C21.2278 72.4733 25.6609 75.8882 30.0938 79.2715C31.8671 77.8802 33.6403 76.5206 35.4452 75.1294C36.585 73.1374 37.155 71.3984 37.4398 70.1653C38.1998 67.1614 38.0415 64.6003 37.8832 62.0708C37.6932 59.225 37.345 57.9286 37.4082 57.897C37.5665 57.8654 38.8965 63.3987 38.5165 68.5526C38.4215 69.7542 38.0732 71.4616 37.0283 73.2007C36.585 73.9594 36.11 74.497 35.7933 74.8764C39.403 72.1255 43.0127 69.3747 46.6224 66.6238C45.7043 61.9759 44.2477 58.5294 43.0127 56.158C41.2712 52.7431 34.0201 43.5736 34.0201 43.5736C35.2551 44.7435 40.1314 49.4864 43.9627 54.2608Z" fill="white"/>
  <path d="M30.0308 40.5381C32.5839 40.5381 34.6537 38.5137 34.6537 36.0165C34.6537 33.5194 32.5839 31.4951 30.0308 31.4951C27.4774 31.4951 25.4077 33.5194 25.4077 36.0165C25.4077 38.5137 27.4774 40.5381 30.0308 40.5381Z" fill="#2089C1"/>
  <path d="M12.5201 36.6807V39.6844L18.0614 36.6807H12.5201Z" fill="#2089C1"/>
  <path d="M51.4673 25.7406C51.1189 18.2153 48.0159 11.7966 42.538 7.24349C37.4716 3.03816 30.7272 0.72998 23.5078 0.72998C17.3965 0.72998 11.2855 2.40579 5.90258 5.53606L4.95258 6.1052L14.0402 16.8873L14.7368 16.3181C18.2199 13.4724 22.5263 11.9231 26.9275 11.9231C29.4607 11.9231 31.8987 12.429 34.2102 13.4408C42.1263 16.919 44.3112 24.7604 44.6912 26.2782L44.881 27.037L51.5623 26.7207L51.4673 25.7406Z" fill="black" stroke="black" stroke-width="0.0403906" stroke-miterlimit="10"/>
  <path d="M6.12415 6.32667C24.6477 -4.48703 49.314 4.05009 50.3273 25.804C48.649 25.8988 47.0024 25.9621 45.3243 26.057C45.0709 25.0451 42.8862 16.3499 34.3368 12.5872C27.6874 9.64666 19.7713 10.8166 13.9134 15.591L6.12415 6.32667Z" fill="#2089C1" stroke="#2089C1" stroke-width="0.0403906" stroke-miterlimit="10"/>
  <defs>
    <linearGradient id="paint0_linear_25_1720" x1="30.1466" y1="81.7184" x2="30.1466" y2="9.54553" gradientUnits="userSpaceOnUse">
      <stop stop-color="white"/>
      <stop offset="0.0586592" stop-color="#A5A5A4"/>
      <stop offset="0.1419" stop-color="#3F3F3E"/>
      <stop offset="0.5749"/>
    </linearGradient>
    <linearGradient id="paint1_linear_25_1720" x1="30.1466" y1="83.6315" x2="30.1466" y2="7.64608" gradientUnits="userSpaceOnUse">
      <stop stop-color="#A2C7E1"/>
      <stop offset="0.1536" stop-color="#74B0D3"/>
      <stop offset="0.2989" stop-color="#469FC8"/>
      <stop offset="0.4944" stop-color="#409DC7"/>
      <stop offset="0.7514" stop-color="#0090BE"/>
      <stop offset="1" stop-color="#0086B7"/>
    </linearGradient>
  </defs>
</svg>