<svg xmlns="http://www.w3.org/2000/svg" width="62" height="85" viewBox="0 0 62 85" fill="none">
  <path d="M32.3872 9.25781H48.8105C51.2866 9.25781 53.7312 10.1667 55.7998 11.8279L59.8431 15.1188V43.7343C59.8431 53.5758 55.6745 62.7591 48.7792 68.15L32.4185 80.969C32.4185 80.969 31.729 81.5018 31.0394 82.0346C30.3499 81.5018 29.6604 80.969 29.6604 80.969L13.2996 68.15C6.37311 62.7278 2.23584 53.5758 2.23584 43.7343V15.1188L6.27905 11.8279C8.34762 10.1667 10.7609 9.25781 13.2683 9.25781H29.6917H32.3872Z" fill="url(#paint0_linear_25_780)"/>
  <path opacity="0.1" d="M61.1913 44.1421C61.1913 54.391 56.8348 63.9818 49.5948 69.6233L32.4505 83.0066C32.4505 83.0066 31.7296 83.5707 31.0088 84.1349C30.2878 83.5707 29.567 83.0066 29.567 83.0066L12.4229 69.6233C19.6941 65.3295 26.9656 61.0669 34.237 56.7731C43.201 52.5417 52.1963 48.342 61.1913 44.1421Z" fill="white"/>
  <path d="M56.0196 57.1802C55.4554 55.7384 54.7033 54.3594 53.7629 53.1372C53.2615 52.4789 52.1645 51.1625 50.3153 49.7208C49.8452 49.3446 49.4064 49.0313 48.9676 48.7492L48.9989 48.1537C49.0303 47.8402 49.4377 40.5062 47.8392 32.3886C46.899 27.593 45.4259 23.5187 43.4827 20.3217C41.0066 16.2472 37.7471 13.5518 33.7979 12.2981C31.5099 11.5772 29.2845 11.2324 27.1221 11.2324C21.9818 11.2324 17.1551 13.3324 13.1433 17.2502C10.4793 19.8829 9.00621 22.5157 8.69275 23.1111L3.27051 21.1053L4.21077 35.0213L9.66427 35.4287C9.57038 40.3181 6.53012 43.6403 6.49883 43.6718L5.93466 44.2673L6.43607 44.894C7.15689 45.803 8.28523 46.3045 9.57038 46.3045H9.60168C9.60168 46.4299 9.60168 46.5239 9.57038 46.6493C9.53892 46.7746 9.47633 46.9 9.38227 46.994L9.35097 47.0253L9.31951 47.0879C8.66145 48.0596 8.75534 48.8119 8.94345 49.2506C9.06881 49.5014 9.22562 49.7208 9.38227 49.8775C9.25692 50.285 9.28821 50.5983 9.38227 50.849C9.53892 51.3819 9.94644 51.6954 10.3225 51.9148C10.1658 53.7012 10.5106 54.9236 11.3568 55.6131C11.9837 56.146 12.7673 56.3967 13.7701 56.3967C14.8359 56.3967 15.9955 56.1147 17.4058 55.7384C18.1894 55.5505 19.9447 54.9863 22.0758 53.7326C22.8281 55.519 23.1416 57.3996 22.9848 59.2175C22.4521 64.7024 17.8447 67.7427 16.9357 68.3068L15.7448 69.0276L16.8417 69.8738L31.0085 80.7184L37.1202 75.9856L37.2455 75.7662L37.3083 75.8603L47.6513 67.9621V68.056L48.5602 67.3038L48.6856 67.2098L49.3123 66.6769C50.5975 65.58 51.7571 64.3889 52.7914 63.0726C54.0451 61.5055 55.0794 59.813 55.957 57.9951L56.1137 57.6191L56.0196 57.1802ZM44.893 55.7699C44.8617 55.7071 44.8304 55.6445 44.7677 55.5505C46.0528 57.3056 46.9303 58.9353 47.3065 60.4712C47.5885 61.5368 47.7139 62.7279 47.7452 63.0099C47.0243 60.4712 46.0841 58.0579 44.893 55.7699Z" fill="black"/>
  <path d="M32.3877 8.19238H46.9932H48.811C49.4693 8.19238 50.1588 8.25508 50.8169 8.38045C52.1333 8.63118 53.4183 9.06997 54.5779 9.72816C55.1421 10.0416 55.7063 10.4177 56.2391 10.8251C56.5213 11.0445 56.7406 11.2013 56.96 11.4207L57.681 11.9848L60.5016 14.3041C60.7525 14.4922 60.8779 14.8056 60.8779 15.0877V15.119L61.0973 34.8334L61.1599 39.7541L61.1912 42.2302C61.1912 43.045 61.2226 43.8599 61.1912 44.7376C61.1599 48.1539 60.5644 51.5702 59.5614 54.8611C59.0285 56.4909 58.4018 58.0894 57.6182 59.6565C57.4301 60.0639 57.2108 60.4086 57.0227 60.8162C56.8033 61.1922 56.6152 61.5683 56.3645 61.9445L55.675 63.0414L54.9227 64.1071C53.8884 65.4862 52.7602 66.8339 51.4751 68.0248C51.1616 68.3383 50.8483 68.6203 50.5036 68.9025C50.1588 69.1845 49.814 69.4979 49.5006 69.7486L47.5886 71.2845L32.1996 83.5707C31.4788 84.1347 30.5071 84.1034 29.8175 83.5707L14.4285 71.2217L12.5166 69.6861C12.2033 69.4352 11.8585 69.1219 11.5137 68.8397C11.169 68.5577 10.8555 68.2755 10.542 67.9622C9.25706 66.7711 8.12872 65.4234 7.09443 64.0444L6.34215 62.9788L5.65263 61.8817C5.40192 61.5057 5.21388 61.1296 4.99447 60.7534C4.80642 60.3773 4.55567 60.0013 4.39897 59.5938C3.61541 58.0581 2.98856 56.4281 2.45575 54.7984C1.4528 51.5074 0.857283 48.0911 0.825936 44.6748C0.794606 43.7973 0.825936 42.9823 0.825936 42.1674L0.857283 39.6913L0.919975 34.7706L1.17071 15.119C1.17071 14.8056 1.32743 14.4922 1.54682 14.3041L4.64971 11.7968L5.43322 11.1699C5.55857 11.0759 5.68392 10.9505 5.84074 10.8565C5.96609 10.7311 6.12274 10.6371 6.27956 10.5431C6.87502 10.1356 7.50179 9.75951 8.16001 9.44608C9.47646 8.81923 10.8868 8.41179 12.3599 8.28642C12.7047 8.25508 13.1122 8.25508 13.4255 8.25508H14.4285H16.4345H32.3877V8.19238ZM32.3877 10.3237H16.4032H14.3972H13.3942C13.0494 10.3237 12.7987 10.3237 12.4853 10.355C11.2943 10.449 10.1032 10.7625 9.03765 11.2953C8.50477 11.546 7.97207 11.8594 7.47049 12.2355C7.34514 12.3296 7.21978 12.4236 7.09443 12.5176C6.96908 12.6117 6.84373 12.7057 6.71837 12.7997L5.93479 13.4266L2.83184 15.9339L3.20795 15.119L3.42736 34.8334L3.49004 39.7541L3.52138 42.2302V43.4524C3.52138 43.8599 3.55273 44.236 3.55273 44.6435C3.64675 47.8091 4.2736 50.912 5.24521 53.8895C5.77798 55.3626 6.37361 56.8044 7.09443 58.1834C7.25108 58.5282 7.47049 58.8729 7.6586 59.2177C7.84655 59.5625 8.03466 59.9072 8.25407 60.2207L8.881 61.1922L9.57052 62.1324C10.5107 63.3548 11.545 64.5145 12.7047 65.5488C12.9868 65.8309 13.2688 66.0503 13.5823 66.301C13.8958 66.5517 14.1465 66.7711 14.4912 67.0219L16.4345 68.5263L32.1055 80.5305H29.7235L45.3947 68.5263L47.3379 67.0219C47.6827 66.7711 47.9334 66.5204 48.2469 66.301C48.5289 66.0503 48.8423 65.8309 49.1245 65.5488C50.2841 64.5459 51.2871 63.3548 52.2587 62.1324L52.9482 61.1922L53.5751 60.2207C53.7945 59.9072 53.9825 59.5625 54.1706 59.2177C54.3587 58.8729 54.5779 58.5595 54.7347 58.1834C55.4556 56.8044 56.051 55.3626 56.5839 53.8895C57.5869 50.912 58.1824 47.7776 58.2764 44.6435C58.3077 43.8599 58.3077 43.045 58.3392 42.2302L58.3705 39.7541L58.4331 34.8334L58.6525 15.119L59.0285 15.9339L56.2078 13.6146L55.4869 13.0505C55.2675 12.8624 55.0168 12.643 54.7973 12.4863C54.3587 12.1415 53.8884 11.8281 53.4183 11.5774C52.4468 11.0445 51.4125 10.6684 50.3154 10.449C49.7826 10.355 49.2184 10.2923 48.6857 10.2923H46.8678H32.3877V10.3237Z" fill="url(#paint1_linear_25_780)"/>
  <path opacity="0.25" d="M32.1368 8.16064H49.1869C51.7884 8.16064 54.2958 9.10091 56.4271 10.8561L60.627 14.3037C51.4123 20.3841 42.1977 26.4646 32.983 32.5763C22.2639 36.4627 11.5136 40.3806 0.794434 44.267C0.919803 34.3628 1.01384 24.4586 1.13921 14.5545C2.42423 13.5515 3.74062 12.5486 5.02564 11.5143C5.74653 10.8247 6.96892 9.85312 8.69273 9.13225C10.1344 8.53675 11.4195 8.31736 12.3285 8.25467C17.97 8.22334 23.6117 8.19197 29.2532 8.16064H32.1368Z" fill="black"/>
  <path d="M44.9557 54.359C45.6452 55.2367 47.5258 57.6187 48.2153 60.3455C48.5601 61.6618 48.6855 63.1036 48.6855 63.1036C48.7795 64.2319 48.7795 65.2035 48.748 65.987C49.7823 65.1096 50.9421 63.9498 52.1018 62.5081C53.5121 60.7216 54.4838 59.0291 55.1419 57.6187C54.7658 56.6157 54.1076 55.2367 53.0107 53.7949C52.6972 53.3875 51.6629 52.0711 49.7197 50.5354C46.7735 48.2159 44.9244 48.122 41.0692 45.5206C39.9409 44.7683 39.0947 44.0788 38.5932 43.64L48.0585 48.1846C48.0585 48.1846 49.8451 18.4095 33.5158 13.3007C17.1863 8.19186 9.47622 23.8003 9.47622 23.8003L20.8221 28.721L4.30469 22.6407L5.08825 34.3L24.8338 35.7731C25.1786 32.5762 27.8428 30.1941 30.8203 30.1315C34.456 30.0688 37.4335 33.5164 36.9321 36.9327C36.5559 39.5969 34.1113 41.7281 31.3532 41.9162C28.2188 42.1356 25.2101 39.7848 24.7085 36.4L10.5731 35.0522C10.6985 40.6938 7.12549 44.4549 7.12549 44.4549C8.28512 45.8967 10.2283 45.4265 10.2283 45.4265C10.3224 45.6147 10.6359 46.3042 10.3852 47.0563C10.2911 47.3385 10.1657 47.5579 10.0404 47.7145C8.97465 49.313 10.6359 49.6264 10.6359 49.6264C9.35087 51.0055 11.2941 51.4128 11.2941 51.4128C11.0119 53.4188 11.2941 54.4844 11.9208 55.0173C13.0805 55.989 14.9298 55.5501 17.1237 54.9545C17.6879 54.7979 20.2579 54.1083 23.2041 51.977C24.4578 51.0681 25.398 50.1906 26.0562 49.5637C25.7742 50.0966 25.3354 50.8174 24.6772 51.5384C23.9877 52.2905 23.2981 52.7919 22.7653 53.1366C23.3294 54.359 24.1443 56.6157 23.8936 59.4366C23.2981 65.5169 18.064 68.8079 17.3744 69.2154C17.4372 69.2467 17.4998 69.3093 17.5625 69.3408C22.0444 72.7571 26.495 76.2047 30.9769 79.621C32.7635 78.242 34.5501 76.8315 36.3679 75.4524C37.5276 73.4466 38.0917 71.6913 38.4052 70.4691C39.1573 67.4288 39.0007 64.8587 38.8439 62.2887C38.6559 59.4051 38.2797 58.1201 38.3737 58.0888C38.5306 58.0575 39.8781 63.6365 39.4708 68.8079C39.3767 70.0303 39.032 71.7228 37.9664 73.4779C37.5276 74.2302 37.0575 74.7942 36.7127 75.1704C40.3484 72.3809 43.9841 69.6228 47.6197 66.8334C46.7108 62.1634 45.2064 58.653 43.9841 56.271C42.2289 52.8546 34.9261 43.5774 34.9261 43.5774C36.1798 44.7683 41.1005 49.5637 44.9557 54.359Z" fill="white"/>
  <path d="M30.9146 40.5376C33.4938 40.5376 35.5846 38.4888 35.5846 35.9617C35.5846 33.4344 33.4938 31.3857 30.9146 31.3857C28.3354 31.3857 26.2446 33.4344 26.2446 35.9617C26.2446 38.4888 28.3354 40.5376 30.9146 40.5376Z" fill="#EB8B0A"/>
  <path d="M13.269 36.6196V39.6599L18.848 36.6196H13.269Z" fill="#EB8B0A"/>
  <path d="M52.5091 25.5871C52.1644 18.0022 49.0302 11.5457 43.5139 6.90708C38.4052 2.67586 31.6039 0.325195 24.3324 0.325195C18.158 0.325195 12.0462 1.98634 6.59262 5.18324L5.62109 5.74741L14.773 16.6232L15.494 16.0277C19.0042 13.1755 23.3609 11.5771 27.7487 11.5771C30.3189 11.5771 32.7635 12.0786 35.0828 13.1129C43.0438 16.6232 45.2691 24.5215 45.6452 26.0572L45.8333 26.8095L52.5719 26.4648L52.5091 25.5871Z" fill="black" stroke="black" stroke-width="0.0411094" stroke-miterlimit="10"/>
  <path d="M6.84375 6.02932C25.5238 -4.8778 50.3468 3.71 51.3497 25.681C49.6572 25.775 47.9962 25.8376 46.3037 25.9317C46.053 24.8974 43.8589 16.1529 35.2399 12.3291C28.5326 9.35161 20.5403 10.5426 14.6792 15.3693L6.84375 6.02932Z" fill="#EB8B0A"/>
  <defs>
    <linearGradient id="paint0_linear_25_780" x1="31.0274" y1="82.0676" x2="31.0274" y2="9.25816" gradientUnits="userSpaceOnUse">
      <stop stop-color="white"/>
      <stop offset="0.0586592" stop-color="#A5A5A4"/>
      <stop offset="0.1419" stop-color="#3F3F3E"/>
      <stop offset="0.5749"/>
    </linearGradient>
    <linearGradient id="paint1_linear_25_780" x1="31.0279" y1="83.9977" x2="31.0279" y2="7.34216" gradientUnits="userSpaceOnUse">
      <stop stop-color="#F4B66D"/>
      <stop offset="0.1816" stop-color="#ED9527"/>
      <stop offset="0.2877" stop-color="#EC8F18"/>
      <stop offset="0.4078" stop-color="#EB8B0A"/>
      <stop offset="0.6341" stop-color="#D88108"/>
      <stop offset="1" stop-color="#CE7C07"/>
    </linearGradient>
  </defs>
</svg>